%TF.GenerationSoftware,KiCad,Pcbnew,5.1.10-88a1d61d58~90~ubuntu20.04.1*%
%TF.CreationDate,2022-01-21T20:24:49-08:00*%
%TF.ProjectId,kb-db_panel,6b622d64-625f-4706-916e-656c2e6b6963,rev?*%
%TF.SameCoordinates,Original*%
%TF.FileFunction,Copper,L2,Bot*%
%TF.FilePolarity,Positive*%
%FSLAX46Y46*%
G04 Gerber Fmt 4.6, Leading zero omitted, Abs format (unit mm)*
G04 Created by KiCad (PCBNEW 5.1.10-88a1d61d58~90~ubuntu20.04.1) date 2022-01-21 20:24:49*
%MOMM*%
%LPD*%
G01*
G04 APERTURE LIST*
%TA.AperFunction,ComponentPad*%
%ADD10C,3.800000*%
%TD*%
%TA.AperFunction,ComponentPad*%
%ADD11O,1.000000X1.600000*%
%TD*%
%TA.AperFunction,ComponentPad*%
%ADD12O,1.000000X2.100000*%
%TD*%
%TA.AperFunction,ViaPad*%
%ADD13C,0.800000*%
%TD*%
%TA.AperFunction,Conductor*%
%ADD14C,0.250000*%
%TD*%
%TA.AperFunction,Conductor*%
%ADD15C,0.254000*%
%TD*%
%TA.AperFunction,Conductor*%
%ADD16C,0.100000*%
%TD*%
%TA.AperFunction,NonConductor*%
%ADD17C,0.254000*%
%TD*%
%TA.AperFunction,NonConductor*%
%ADD18C,0.100000*%
%TD*%
G04 APERTURE END LIST*
D10*
%TO.P,H2,1*%
%TO.N,N/C*%
X61487000Y-76472000D03*
%TD*%
%TO.P,H1,1*%
%TO.N,N/C*%
X96487000Y-76472000D03*
%TD*%
D11*
%TO.P,USB1,13*%
%TO.N,N/C*%
X74672000Y-73579000D03*
X83312000Y-73579000D03*
D12*
X74672000Y-77759000D03*
X83312000Y-77759000D03*
%TD*%
D10*
%TO.P,H2,1*%
%TO.N,Earth*%
X61487000Y-63472000D03*
%TD*%
%TO.P,H1,1*%
%TO.N,Net-(H1-Pad1)*%
X96487000Y-63472000D03*
%TD*%
D12*
%TO.P,USB1,13*%
%TO.N,Earth*%
X83312000Y-64759000D03*
X74672000Y-64759000D03*
D11*
X83312000Y-60579000D03*
X74672000Y-60579000D03*
%TD*%
D13*
%TO.N,*%
X75853014Y-80116004D03*
X73279000Y-73960000D03*
X79936000Y-81072000D03*
X81781000Y-74147000D03*
X68700000Y-76179000D03*
X82169000Y-80564000D03*
X73785365Y-80110635D03*
X76156217Y-74259944D03*
X84194000Y-79227000D03*
X83058000Y-81326000D03*
X76955000Y-80116002D03*
X73279000Y-72309000D03*
%TO.N,VCC*%
X73279000Y-60960000D03*
X75853014Y-67116004D03*
%TO.N,GND*%
X76156217Y-61259944D03*
X82169000Y-67564000D03*
X73785365Y-67110635D03*
X68700000Y-63179000D03*
X79936000Y-68072000D03*
X81781000Y-61147000D03*
%TO.N,Net-(R1-Pad2)*%
X83058000Y-68326000D03*
X84194000Y-66227000D03*
%TO.N,Net-(R2-Pad2)*%
X76955000Y-67116002D03*
X73279000Y-59309000D03*
%TD*%
D14*
%TO.N,*%
X74672000Y-77759000D02*
X74672000Y-73579000D01*
X83312000Y-73579000D02*
X83312000Y-77759000D01*
X74865319Y-80116004D02*
X75853014Y-80116004D01*
X73780000Y-74461000D02*
X73780000Y-79030685D01*
X73780000Y-79030685D02*
X74865319Y-80116004D01*
X73279000Y-73960000D02*
X73780000Y-74461000D01*
X73785365Y-80110635D02*
X72631635Y-80110635D01*
X79936000Y-81072000D02*
X74746730Y-81072000D01*
X72631635Y-80110635D02*
X68700000Y-76179000D01*
X74746730Y-81072000D02*
X73785365Y-80110635D01*
X81661000Y-81072000D02*
X79936000Y-81072000D01*
X82169000Y-80564000D02*
X81661000Y-81072000D01*
X83058000Y-81326000D02*
X83058000Y-80363000D01*
X83058000Y-80363000D02*
X84194000Y-79227000D01*
X76955000Y-73699000D02*
X76955000Y-80116002D01*
X75565000Y-72309000D02*
X76955000Y-73699000D01*
X73279000Y-72309000D02*
X75565000Y-72309000D01*
%TO.N,Earth*%
X74672000Y-64759000D02*
X74672000Y-60579000D01*
X83312000Y-60579000D02*
X83312000Y-64759000D01*
%TO.N,VCC*%
X74865319Y-67116004D02*
X75853014Y-67116004D01*
X73780000Y-61461000D02*
X73780000Y-66030685D01*
X73780000Y-66030685D02*
X74865319Y-67116004D01*
X73279000Y-60960000D02*
X73780000Y-61461000D01*
%TO.N,GND*%
X81661000Y-68072000D02*
X79936000Y-68072000D01*
X82169000Y-67564000D02*
X81661000Y-68072000D01*
X74746730Y-68072000D02*
X73785365Y-67110635D01*
X72631635Y-67110635D02*
X68700000Y-63179000D01*
X73785365Y-67110635D02*
X72631635Y-67110635D01*
X79936000Y-68072000D02*
X74746730Y-68072000D01*
%TO.N,Net-(R1-Pad2)*%
X83058000Y-68326000D02*
X83058000Y-67363000D01*
X83058000Y-67363000D02*
X84194000Y-66227000D01*
%TO.N,Net-(R2-Pad2)*%
X76955000Y-60699000D02*
X76955000Y-67116002D01*
X75565000Y-59309000D02*
X76955000Y-60699000D01*
X73279000Y-59309000D02*
X75565000Y-59309000D01*
%TD*%
D15*
%TO.N,GND*%
X95336581Y-58501726D02*
X96161880Y-58715931D01*
X96939275Y-59066123D01*
X97646563Y-59542296D01*
X98263505Y-60130830D01*
X98772464Y-60814895D01*
X99158893Y-61574945D01*
X99411735Y-62389227D01*
X99523763Y-63234474D01*
X99491777Y-64086509D01*
X99316687Y-64920978D01*
X99003503Y-65714010D01*
X98561175Y-66442942D01*
X98002360Y-67086921D01*
X97343022Y-67627544D01*
X96602030Y-68049341D01*
X95800559Y-68340261D01*
X94953066Y-68493514D01*
X94474666Y-68516075D01*
X94469870Y-68516108D01*
X94466539Y-68516458D01*
X94465520Y-68516506D01*
X94463371Y-68516791D01*
X94449261Y-68518273D01*
X94428540Y-68518273D01*
X94422208Y-68518939D01*
X94266746Y-68536377D01*
X94219239Y-68488870D01*
X94115891Y-68419815D01*
X94001056Y-68372249D01*
X93879148Y-68348000D01*
X93754852Y-68348000D01*
X93632944Y-68372249D01*
X93518109Y-68419815D01*
X93442000Y-68470669D01*
X93365891Y-68419815D01*
X93251056Y-68372249D01*
X93129148Y-68348000D01*
X93004852Y-68348000D01*
X92882944Y-68372249D01*
X92768109Y-68419815D01*
X92692000Y-68470669D01*
X92615891Y-68419815D01*
X92501056Y-68372249D01*
X92379148Y-68348000D01*
X92254852Y-68348000D01*
X92132944Y-68372249D01*
X92018109Y-68419815D01*
X91942000Y-68470669D01*
X91865891Y-68419815D01*
X91751056Y-68372249D01*
X91629148Y-68348000D01*
X91504852Y-68348000D01*
X91382944Y-68372249D01*
X91268109Y-68419815D01*
X91192000Y-68470669D01*
X91115891Y-68419815D01*
X91001056Y-68372249D01*
X90879148Y-68348000D01*
X90754852Y-68348000D01*
X90632944Y-68372249D01*
X90518109Y-68419815D01*
X90414761Y-68488870D01*
X90376172Y-68527459D01*
X90281498Y-68518176D01*
X90281493Y-68518176D01*
X90259399Y-68516000D01*
X83816508Y-68516000D01*
X83839000Y-68402922D01*
X83839000Y-68249078D01*
X83808987Y-68098191D01*
X83750113Y-67956058D01*
X83664642Y-67828141D01*
X83564000Y-67727499D01*
X83564000Y-67572591D01*
X84128592Y-67008000D01*
X84270922Y-67008000D01*
X84421809Y-66977987D01*
X84563942Y-66919113D01*
X84691859Y-66833642D01*
X84800642Y-66724859D01*
X84886113Y-66596942D01*
X84944987Y-66454809D01*
X84975000Y-66303922D01*
X84975000Y-66150078D01*
X84944987Y-65999191D01*
X84886113Y-65857058D01*
X84800642Y-65729141D01*
X84691859Y-65620358D01*
X84563942Y-65534887D01*
X84421809Y-65476013D01*
X84270922Y-65446000D01*
X84183769Y-65446000D01*
X84193000Y-65352273D01*
X84193000Y-64165727D01*
X84180252Y-64036294D01*
X84129875Y-63870225D01*
X84048068Y-63717175D01*
X83937975Y-63583025D01*
X83818000Y-63484565D01*
X83818000Y-63247341D01*
X94206000Y-63247341D01*
X94206000Y-63696659D01*
X94293657Y-64137343D01*
X94465604Y-64552459D01*
X94715231Y-64926053D01*
X95032947Y-65243769D01*
X95406541Y-65493396D01*
X95821657Y-65665343D01*
X96262341Y-65753000D01*
X96711659Y-65753000D01*
X97152343Y-65665343D01*
X97567459Y-65493396D01*
X97941053Y-65243769D01*
X98258769Y-64926053D01*
X98508396Y-64552459D01*
X98680343Y-64137343D01*
X98768000Y-63696659D01*
X98768000Y-63247341D01*
X98680343Y-62806657D01*
X98508396Y-62391541D01*
X98258769Y-62017947D01*
X97941053Y-61700231D01*
X97567459Y-61450604D01*
X97152343Y-61278657D01*
X96711659Y-61191000D01*
X96262341Y-61191000D01*
X95821657Y-61278657D01*
X95406541Y-61450604D01*
X95032947Y-61700231D01*
X94715231Y-62017947D01*
X94465604Y-62391541D01*
X94293657Y-62806657D01*
X94206000Y-63247341D01*
X83818000Y-63247341D01*
X83818000Y-61603434D01*
X83937975Y-61504975D01*
X84048068Y-61370825D01*
X84129875Y-61217775D01*
X84180252Y-61051706D01*
X84193000Y-60922273D01*
X84193000Y-60235727D01*
X84180252Y-60106294D01*
X84129875Y-59940225D01*
X84048068Y-59787175D01*
X83937975Y-59653025D01*
X83803825Y-59542932D01*
X83650775Y-59461125D01*
X83484706Y-59410748D01*
X83312000Y-59393738D01*
X83139295Y-59410748D01*
X82973226Y-59461125D01*
X82820176Y-59542932D01*
X82686026Y-59653025D01*
X82575933Y-59787175D01*
X82494125Y-59940225D01*
X82443748Y-60106294D01*
X82431000Y-60235727D01*
X82431000Y-60922272D01*
X82443748Y-61051705D01*
X82494125Y-61217774D01*
X82575932Y-61370824D01*
X82686025Y-61504975D01*
X82806000Y-61603435D01*
X82806001Y-63484565D01*
X82686026Y-63583025D01*
X82575933Y-63717175D01*
X82494126Y-63870225D01*
X82493266Y-63873059D01*
X82430386Y-63778951D01*
X82332049Y-63680614D01*
X82216416Y-63603351D01*
X82087933Y-63550131D01*
X81951535Y-63523000D01*
X81812465Y-63523000D01*
X81676067Y-63550131D01*
X81547584Y-63603351D01*
X81431951Y-63680614D01*
X81333614Y-63778951D01*
X81256351Y-63894584D01*
X81203131Y-64023067D01*
X81176000Y-64159465D01*
X81176000Y-64298535D01*
X81203131Y-64434933D01*
X81256351Y-64563416D01*
X81333614Y-64679049D01*
X81431951Y-64777386D01*
X81547584Y-64854649D01*
X81676067Y-64907869D01*
X81812465Y-64935000D01*
X81951535Y-64935000D01*
X82087933Y-64907869D01*
X82216416Y-64854649D01*
X82332049Y-64777386D01*
X82430386Y-64679049D01*
X82431001Y-64678129D01*
X82431000Y-65352272D01*
X82443748Y-65481705D01*
X82494125Y-65647774D01*
X82575932Y-65800824D01*
X82686025Y-65934975D01*
X82820175Y-66045068D01*
X82973225Y-66126875D01*
X83139294Y-66177252D01*
X83312000Y-66194262D01*
X83413000Y-66184314D01*
X83413000Y-66292408D01*
X82717780Y-66987629D01*
X82698474Y-67003473D01*
X82635242Y-67080521D01*
X82616276Y-67116004D01*
X82588255Y-67168426D01*
X82559322Y-67263808D01*
X82549553Y-67363000D01*
X82552001Y-67387856D01*
X82552001Y-67727498D01*
X82451358Y-67828141D01*
X82365887Y-67956058D01*
X82307013Y-68098191D01*
X82277000Y-68249078D01*
X82277000Y-68402922D01*
X82299492Y-68516000D01*
X67964601Y-68516000D01*
X67941521Y-68518273D01*
X67928540Y-68518273D01*
X67922208Y-68518939D01*
X67728258Y-68540694D01*
X67687841Y-68549285D01*
X67663478Y-68554109D01*
X67584239Y-68474870D01*
X67480891Y-68405815D01*
X67366056Y-68358249D01*
X67244148Y-68334000D01*
X67119852Y-68334000D01*
X66997944Y-68358249D01*
X66883109Y-68405815D01*
X66807000Y-68456669D01*
X66730891Y-68405815D01*
X66616056Y-68358249D01*
X66494148Y-68334000D01*
X66369852Y-68334000D01*
X66247944Y-68358249D01*
X66133109Y-68405815D01*
X66057000Y-68456669D01*
X65980891Y-68405815D01*
X65866056Y-68358249D01*
X65744148Y-68334000D01*
X65619852Y-68334000D01*
X65497944Y-68358249D01*
X65383109Y-68405815D01*
X65307000Y-68456669D01*
X65230891Y-68405815D01*
X65116056Y-68358249D01*
X64994148Y-68334000D01*
X64869852Y-68334000D01*
X64747944Y-68358249D01*
X64633109Y-68405815D01*
X64557000Y-68456669D01*
X64480891Y-68405815D01*
X64366056Y-68358249D01*
X64244148Y-68334000D01*
X64119852Y-68334000D01*
X63997944Y-68358249D01*
X63883109Y-68405815D01*
X63779761Y-68474870D01*
X63718153Y-68536478D01*
X63531498Y-68518176D01*
X63529651Y-68518176D01*
X63525554Y-68517633D01*
X62637420Y-68442274D01*
X61812125Y-68228070D01*
X61034725Y-67877877D01*
X60327434Y-67401701D01*
X59710493Y-66813167D01*
X59201534Y-66129103D01*
X58815107Y-65369055D01*
X58562265Y-64554774D01*
X58450237Y-63709526D01*
X58467587Y-63247341D01*
X59206000Y-63247341D01*
X59206000Y-63696659D01*
X59293657Y-64137343D01*
X59465604Y-64552459D01*
X59715231Y-64926053D01*
X60032947Y-65243769D01*
X60406541Y-65493396D01*
X60821657Y-65665343D01*
X61262341Y-65753000D01*
X61711659Y-65753000D01*
X62152343Y-65665343D01*
X62567459Y-65493396D01*
X62941053Y-65243769D01*
X63258769Y-64926053D01*
X63508396Y-64552459D01*
X63680343Y-64137343D01*
X63768000Y-63696659D01*
X63768000Y-63247341D01*
X63680343Y-62806657D01*
X63508396Y-62391541D01*
X63258769Y-62017947D01*
X62941053Y-61700231D01*
X62567459Y-61450604D01*
X62152343Y-61278657D01*
X61711659Y-61191000D01*
X61262341Y-61191000D01*
X60821657Y-61278657D01*
X60406541Y-61450604D01*
X60032947Y-61700231D01*
X59715231Y-62017947D01*
X59465604Y-62391541D01*
X59293657Y-62806657D01*
X59206000Y-63247341D01*
X58467587Y-63247341D01*
X58482223Y-62857491D01*
X58657313Y-62023022D01*
X58970496Y-61229993D01*
X59412827Y-60501054D01*
X59971640Y-59857080D01*
X60630978Y-59316456D01*
X60779209Y-59232078D01*
X72498000Y-59232078D01*
X72498000Y-59385922D01*
X72528013Y-59536809D01*
X72586887Y-59678942D01*
X72672358Y-59806859D01*
X72781141Y-59915642D01*
X72909058Y-60001113D01*
X73051191Y-60059987D01*
X73202078Y-60090000D01*
X73355922Y-60090000D01*
X73506809Y-60059987D01*
X73648942Y-60001113D01*
X73776859Y-59915642D01*
X73877501Y-59815000D01*
X73921060Y-59815000D01*
X73854125Y-59940225D01*
X73803748Y-60106294D01*
X73791000Y-60235727D01*
X73791000Y-60367499D01*
X73776859Y-60353358D01*
X73648942Y-60267887D01*
X73506809Y-60209013D01*
X73355922Y-60179000D01*
X73202078Y-60179000D01*
X73051191Y-60209013D01*
X72909058Y-60267887D01*
X72781141Y-60353358D01*
X72672358Y-60462141D01*
X72586887Y-60590058D01*
X72528013Y-60732191D01*
X72498000Y-60883078D01*
X72498000Y-61036922D01*
X72528013Y-61187809D01*
X72586887Y-61329942D01*
X72672358Y-61457859D01*
X72781141Y-61566642D01*
X72909058Y-61652113D01*
X73051191Y-61710987D01*
X73202078Y-61741000D01*
X73274000Y-61741000D01*
X73274001Y-66005829D01*
X73271553Y-66030685D01*
X73281322Y-66129877D01*
X73310255Y-66225259D01*
X73310256Y-66225260D01*
X73357242Y-66313164D01*
X73420474Y-66390212D01*
X73439780Y-66406056D01*
X74489947Y-67456224D01*
X74505792Y-67475531D01*
X74582840Y-67538763D01*
X74664671Y-67582503D01*
X74670744Y-67585749D01*
X74766126Y-67614682D01*
X74865319Y-67624452D01*
X74890173Y-67622004D01*
X75254513Y-67622004D01*
X75355155Y-67722646D01*
X75483072Y-67808117D01*
X75625205Y-67866991D01*
X75776092Y-67897004D01*
X75929936Y-67897004D01*
X76080823Y-67866991D01*
X76222956Y-67808117D01*
X76350873Y-67722646D01*
X76404008Y-67669511D01*
X76457141Y-67722644D01*
X76585058Y-67808115D01*
X76727191Y-67866989D01*
X76878078Y-67897002D01*
X77031922Y-67897002D01*
X77182809Y-67866989D01*
X77324942Y-67808115D01*
X77452859Y-67722644D01*
X77561642Y-67613861D01*
X77647113Y-67485944D01*
X77705987Y-67343811D01*
X77736000Y-67192924D01*
X77736000Y-67039080D01*
X77705987Y-66888193D01*
X77647113Y-66746060D01*
X77561642Y-66618143D01*
X77461000Y-66517501D01*
X77461000Y-60723854D01*
X77463448Y-60699000D01*
X77453678Y-60599807D01*
X77424745Y-60504425D01*
X77417171Y-60490255D01*
X77377759Y-60416521D01*
X77314527Y-60339473D01*
X77295220Y-60323628D01*
X75940376Y-58968785D01*
X75924527Y-58949473D01*
X75847479Y-58886241D01*
X75759575Y-58839255D01*
X75664193Y-58810322D01*
X75589854Y-58803000D01*
X75589846Y-58803000D01*
X75565000Y-58800553D01*
X75540154Y-58803000D01*
X73877501Y-58803000D01*
X73776859Y-58702358D01*
X73648942Y-58616887D01*
X73506809Y-58558013D01*
X73355922Y-58528000D01*
X73202078Y-58528000D01*
X73051191Y-58558013D01*
X72909058Y-58616887D01*
X72781141Y-58702358D01*
X72672358Y-58811141D01*
X72586887Y-58939058D01*
X72528013Y-59081191D01*
X72498000Y-59232078D01*
X60779209Y-59232078D01*
X61371972Y-58894658D01*
X62173445Y-58603737D01*
X63020934Y-58450486D01*
X63497750Y-58428000D01*
X94467691Y-58428000D01*
X95336581Y-58501726D01*
%TA.AperFunction,Conductor*%
D16*
G36*
X95336581Y-58501726D02*
G01*
X96161880Y-58715931D01*
X96939275Y-59066123D01*
X97646563Y-59542296D01*
X98263505Y-60130830D01*
X98772464Y-60814895D01*
X99158893Y-61574945D01*
X99411735Y-62389227D01*
X99523763Y-63234474D01*
X99491777Y-64086509D01*
X99316687Y-64920978D01*
X99003503Y-65714010D01*
X98561175Y-66442942D01*
X98002360Y-67086921D01*
X97343022Y-67627544D01*
X96602030Y-68049341D01*
X95800559Y-68340261D01*
X94953066Y-68493514D01*
X94474666Y-68516075D01*
X94469870Y-68516108D01*
X94466539Y-68516458D01*
X94465520Y-68516506D01*
X94463371Y-68516791D01*
X94449261Y-68518273D01*
X94428540Y-68518273D01*
X94422208Y-68518939D01*
X94266746Y-68536377D01*
X94219239Y-68488870D01*
X94115891Y-68419815D01*
X94001056Y-68372249D01*
X93879148Y-68348000D01*
X93754852Y-68348000D01*
X93632944Y-68372249D01*
X93518109Y-68419815D01*
X93442000Y-68470669D01*
X93365891Y-68419815D01*
X93251056Y-68372249D01*
X93129148Y-68348000D01*
X93004852Y-68348000D01*
X92882944Y-68372249D01*
X92768109Y-68419815D01*
X92692000Y-68470669D01*
X92615891Y-68419815D01*
X92501056Y-68372249D01*
X92379148Y-68348000D01*
X92254852Y-68348000D01*
X92132944Y-68372249D01*
X92018109Y-68419815D01*
X91942000Y-68470669D01*
X91865891Y-68419815D01*
X91751056Y-68372249D01*
X91629148Y-68348000D01*
X91504852Y-68348000D01*
X91382944Y-68372249D01*
X91268109Y-68419815D01*
X91192000Y-68470669D01*
X91115891Y-68419815D01*
X91001056Y-68372249D01*
X90879148Y-68348000D01*
X90754852Y-68348000D01*
X90632944Y-68372249D01*
X90518109Y-68419815D01*
X90414761Y-68488870D01*
X90376172Y-68527459D01*
X90281498Y-68518176D01*
X90281493Y-68518176D01*
X90259399Y-68516000D01*
X83816508Y-68516000D01*
X83839000Y-68402922D01*
X83839000Y-68249078D01*
X83808987Y-68098191D01*
X83750113Y-67956058D01*
X83664642Y-67828141D01*
X83564000Y-67727499D01*
X83564000Y-67572591D01*
X84128592Y-67008000D01*
X84270922Y-67008000D01*
X84421809Y-66977987D01*
X84563942Y-66919113D01*
X84691859Y-66833642D01*
X84800642Y-66724859D01*
X84886113Y-66596942D01*
X84944987Y-66454809D01*
X84975000Y-66303922D01*
X84975000Y-66150078D01*
X84944987Y-65999191D01*
X84886113Y-65857058D01*
X84800642Y-65729141D01*
X84691859Y-65620358D01*
X84563942Y-65534887D01*
X84421809Y-65476013D01*
X84270922Y-65446000D01*
X84183769Y-65446000D01*
X84193000Y-65352273D01*
X84193000Y-64165727D01*
X84180252Y-64036294D01*
X84129875Y-63870225D01*
X84048068Y-63717175D01*
X83937975Y-63583025D01*
X83818000Y-63484565D01*
X83818000Y-63247341D01*
X94206000Y-63247341D01*
X94206000Y-63696659D01*
X94293657Y-64137343D01*
X94465604Y-64552459D01*
X94715231Y-64926053D01*
X95032947Y-65243769D01*
X95406541Y-65493396D01*
X95821657Y-65665343D01*
X96262341Y-65753000D01*
X96711659Y-65753000D01*
X97152343Y-65665343D01*
X97567459Y-65493396D01*
X97941053Y-65243769D01*
X98258769Y-64926053D01*
X98508396Y-64552459D01*
X98680343Y-64137343D01*
X98768000Y-63696659D01*
X98768000Y-63247341D01*
X98680343Y-62806657D01*
X98508396Y-62391541D01*
X98258769Y-62017947D01*
X97941053Y-61700231D01*
X97567459Y-61450604D01*
X97152343Y-61278657D01*
X96711659Y-61191000D01*
X96262341Y-61191000D01*
X95821657Y-61278657D01*
X95406541Y-61450604D01*
X95032947Y-61700231D01*
X94715231Y-62017947D01*
X94465604Y-62391541D01*
X94293657Y-62806657D01*
X94206000Y-63247341D01*
X83818000Y-63247341D01*
X83818000Y-61603434D01*
X83937975Y-61504975D01*
X84048068Y-61370825D01*
X84129875Y-61217775D01*
X84180252Y-61051706D01*
X84193000Y-60922273D01*
X84193000Y-60235727D01*
X84180252Y-60106294D01*
X84129875Y-59940225D01*
X84048068Y-59787175D01*
X83937975Y-59653025D01*
X83803825Y-59542932D01*
X83650775Y-59461125D01*
X83484706Y-59410748D01*
X83312000Y-59393738D01*
X83139295Y-59410748D01*
X82973226Y-59461125D01*
X82820176Y-59542932D01*
X82686026Y-59653025D01*
X82575933Y-59787175D01*
X82494125Y-59940225D01*
X82443748Y-60106294D01*
X82431000Y-60235727D01*
X82431000Y-60922272D01*
X82443748Y-61051705D01*
X82494125Y-61217774D01*
X82575932Y-61370824D01*
X82686025Y-61504975D01*
X82806000Y-61603435D01*
X82806001Y-63484565D01*
X82686026Y-63583025D01*
X82575933Y-63717175D01*
X82494126Y-63870225D01*
X82493266Y-63873059D01*
X82430386Y-63778951D01*
X82332049Y-63680614D01*
X82216416Y-63603351D01*
X82087933Y-63550131D01*
X81951535Y-63523000D01*
X81812465Y-63523000D01*
X81676067Y-63550131D01*
X81547584Y-63603351D01*
X81431951Y-63680614D01*
X81333614Y-63778951D01*
X81256351Y-63894584D01*
X81203131Y-64023067D01*
X81176000Y-64159465D01*
X81176000Y-64298535D01*
X81203131Y-64434933D01*
X81256351Y-64563416D01*
X81333614Y-64679049D01*
X81431951Y-64777386D01*
X81547584Y-64854649D01*
X81676067Y-64907869D01*
X81812465Y-64935000D01*
X81951535Y-64935000D01*
X82087933Y-64907869D01*
X82216416Y-64854649D01*
X82332049Y-64777386D01*
X82430386Y-64679049D01*
X82431001Y-64678129D01*
X82431000Y-65352272D01*
X82443748Y-65481705D01*
X82494125Y-65647774D01*
X82575932Y-65800824D01*
X82686025Y-65934975D01*
X82820175Y-66045068D01*
X82973225Y-66126875D01*
X83139294Y-66177252D01*
X83312000Y-66194262D01*
X83413000Y-66184314D01*
X83413000Y-66292408D01*
X82717780Y-66987629D01*
X82698474Y-67003473D01*
X82635242Y-67080521D01*
X82616276Y-67116004D01*
X82588255Y-67168426D01*
X82559322Y-67263808D01*
X82549553Y-67363000D01*
X82552001Y-67387856D01*
X82552001Y-67727498D01*
X82451358Y-67828141D01*
X82365887Y-67956058D01*
X82307013Y-68098191D01*
X82277000Y-68249078D01*
X82277000Y-68402922D01*
X82299492Y-68516000D01*
X67964601Y-68516000D01*
X67941521Y-68518273D01*
X67928540Y-68518273D01*
X67922208Y-68518939D01*
X67728258Y-68540694D01*
X67687841Y-68549285D01*
X67663478Y-68554109D01*
X67584239Y-68474870D01*
X67480891Y-68405815D01*
X67366056Y-68358249D01*
X67244148Y-68334000D01*
X67119852Y-68334000D01*
X66997944Y-68358249D01*
X66883109Y-68405815D01*
X66807000Y-68456669D01*
X66730891Y-68405815D01*
X66616056Y-68358249D01*
X66494148Y-68334000D01*
X66369852Y-68334000D01*
X66247944Y-68358249D01*
X66133109Y-68405815D01*
X66057000Y-68456669D01*
X65980891Y-68405815D01*
X65866056Y-68358249D01*
X65744148Y-68334000D01*
X65619852Y-68334000D01*
X65497944Y-68358249D01*
X65383109Y-68405815D01*
X65307000Y-68456669D01*
X65230891Y-68405815D01*
X65116056Y-68358249D01*
X64994148Y-68334000D01*
X64869852Y-68334000D01*
X64747944Y-68358249D01*
X64633109Y-68405815D01*
X64557000Y-68456669D01*
X64480891Y-68405815D01*
X64366056Y-68358249D01*
X64244148Y-68334000D01*
X64119852Y-68334000D01*
X63997944Y-68358249D01*
X63883109Y-68405815D01*
X63779761Y-68474870D01*
X63718153Y-68536478D01*
X63531498Y-68518176D01*
X63529651Y-68518176D01*
X63525554Y-68517633D01*
X62637420Y-68442274D01*
X61812125Y-68228070D01*
X61034725Y-67877877D01*
X60327434Y-67401701D01*
X59710493Y-66813167D01*
X59201534Y-66129103D01*
X58815107Y-65369055D01*
X58562265Y-64554774D01*
X58450237Y-63709526D01*
X58467587Y-63247341D01*
X59206000Y-63247341D01*
X59206000Y-63696659D01*
X59293657Y-64137343D01*
X59465604Y-64552459D01*
X59715231Y-64926053D01*
X60032947Y-65243769D01*
X60406541Y-65493396D01*
X60821657Y-65665343D01*
X61262341Y-65753000D01*
X61711659Y-65753000D01*
X62152343Y-65665343D01*
X62567459Y-65493396D01*
X62941053Y-65243769D01*
X63258769Y-64926053D01*
X63508396Y-64552459D01*
X63680343Y-64137343D01*
X63768000Y-63696659D01*
X63768000Y-63247341D01*
X63680343Y-62806657D01*
X63508396Y-62391541D01*
X63258769Y-62017947D01*
X62941053Y-61700231D01*
X62567459Y-61450604D01*
X62152343Y-61278657D01*
X61711659Y-61191000D01*
X61262341Y-61191000D01*
X60821657Y-61278657D01*
X60406541Y-61450604D01*
X60032947Y-61700231D01*
X59715231Y-62017947D01*
X59465604Y-62391541D01*
X59293657Y-62806657D01*
X59206000Y-63247341D01*
X58467587Y-63247341D01*
X58482223Y-62857491D01*
X58657313Y-62023022D01*
X58970496Y-61229993D01*
X59412827Y-60501054D01*
X59971640Y-59857080D01*
X60630978Y-59316456D01*
X60779209Y-59232078D01*
X72498000Y-59232078D01*
X72498000Y-59385922D01*
X72528013Y-59536809D01*
X72586887Y-59678942D01*
X72672358Y-59806859D01*
X72781141Y-59915642D01*
X72909058Y-60001113D01*
X73051191Y-60059987D01*
X73202078Y-60090000D01*
X73355922Y-60090000D01*
X73506809Y-60059987D01*
X73648942Y-60001113D01*
X73776859Y-59915642D01*
X73877501Y-59815000D01*
X73921060Y-59815000D01*
X73854125Y-59940225D01*
X73803748Y-60106294D01*
X73791000Y-60235727D01*
X73791000Y-60367499D01*
X73776859Y-60353358D01*
X73648942Y-60267887D01*
X73506809Y-60209013D01*
X73355922Y-60179000D01*
X73202078Y-60179000D01*
X73051191Y-60209013D01*
X72909058Y-60267887D01*
X72781141Y-60353358D01*
X72672358Y-60462141D01*
X72586887Y-60590058D01*
X72528013Y-60732191D01*
X72498000Y-60883078D01*
X72498000Y-61036922D01*
X72528013Y-61187809D01*
X72586887Y-61329942D01*
X72672358Y-61457859D01*
X72781141Y-61566642D01*
X72909058Y-61652113D01*
X73051191Y-61710987D01*
X73202078Y-61741000D01*
X73274000Y-61741000D01*
X73274001Y-66005829D01*
X73271553Y-66030685D01*
X73281322Y-66129877D01*
X73310255Y-66225259D01*
X73310256Y-66225260D01*
X73357242Y-66313164D01*
X73420474Y-66390212D01*
X73439780Y-66406056D01*
X74489947Y-67456224D01*
X74505792Y-67475531D01*
X74582840Y-67538763D01*
X74664671Y-67582503D01*
X74670744Y-67585749D01*
X74766126Y-67614682D01*
X74865319Y-67624452D01*
X74890173Y-67622004D01*
X75254513Y-67622004D01*
X75355155Y-67722646D01*
X75483072Y-67808117D01*
X75625205Y-67866991D01*
X75776092Y-67897004D01*
X75929936Y-67897004D01*
X76080823Y-67866991D01*
X76222956Y-67808117D01*
X76350873Y-67722646D01*
X76404008Y-67669511D01*
X76457141Y-67722644D01*
X76585058Y-67808115D01*
X76727191Y-67866989D01*
X76878078Y-67897002D01*
X77031922Y-67897002D01*
X77182809Y-67866989D01*
X77324942Y-67808115D01*
X77452859Y-67722644D01*
X77561642Y-67613861D01*
X77647113Y-67485944D01*
X77705987Y-67343811D01*
X77736000Y-67192924D01*
X77736000Y-67039080D01*
X77705987Y-66888193D01*
X77647113Y-66746060D01*
X77561642Y-66618143D01*
X77461000Y-66517501D01*
X77461000Y-60723854D01*
X77463448Y-60699000D01*
X77453678Y-60599807D01*
X77424745Y-60504425D01*
X77417171Y-60490255D01*
X77377759Y-60416521D01*
X77314527Y-60339473D01*
X77295220Y-60323628D01*
X75940376Y-58968785D01*
X75924527Y-58949473D01*
X75847479Y-58886241D01*
X75759575Y-58839255D01*
X75664193Y-58810322D01*
X75589854Y-58803000D01*
X75589846Y-58803000D01*
X75565000Y-58800553D01*
X75540154Y-58803000D01*
X73877501Y-58803000D01*
X73776859Y-58702358D01*
X73648942Y-58616887D01*
X73506809Y-58558013D01*
X73355922Y-58528000D01*
X73202078Y-58528000D01*
X73051191Y-58558013D01*
X72909058Y-58616887D01*
X72781141Y-58702358D01*
X72672358Y-58811141D01*
X72586887Y-58939058D01*
X72528013Y-59081191D01*
X72498000Y-59232078D01*
X60779209Y-59232078D01*
X61371972Y-58894658D01*
X62173445Y-58603737D01*
X63020934Y-58450486D01*
X63497750Y-58428000D01*
X94467691Y-58428000D01*
X95336581Y-58501726D01*
G37*
%TD.AperFunction*%
D15*
X76449000Y-60908592D02*
X76449000Y-63611760D01*
X76436416Y-63603351D01*
X76307933Y-63550131D01*
X76171535Y-63523000D01*
X76032465Y-63523000D01*
X75896067Y-63550131D01*
X75767584Y-63603351D01*
X75651951Y-63680614D01*
X75553614Y-63778951D01*
X75490734Y-63873058D01*
X75489875Y-63870225D01*
X75408068Y-63717175D01*
X75297975Y-63583025D01*
X75178000Y-63484565D01*
X75178000Y-61603434D01*
X75297975Y-61504975D01*
X75408068Y-61370825D01*
X75489875Y-61217775D01*
X75540252Y-61051706D01*
X75553000Y-60922273D01*
X75553000Y-60235727D01*
X75540252Y-60106294D01*
X75493899Y-59953490D01*
X76449000Y-60908592D01*
%TA.AperFunction,Conductor*%
D16*
G36*
X76449000Y-60908592D02*
G01*
X76449000Y-63611760D01*
X76436416Y-63603351D01*
X76307933Y-63550131D01*
X76171535Y-63523000D01*
X76032465Y-63523000D01*
X75896067Y-63550131D01*
X75767584Y-63603351D01*
X75651951Y-63680614D01*
X75553614Y-63778951D01*
X75490734Y-63873058D01*
X75489875Y-63870225D01*
X75408068Y-63717175D01*
X75297975Y-63583025D01*
X75178000Y-63484565D01*
X75178000Y-61603434D01*
X75297975Y-61504975D01*
X75408068Y-61370825D01*
X75489875Y-61217775D01*
X75540252Y-61051706D01*
X75553000Y-60922273D01*
X75553000Y-60235727D01*
X75540252Y-60106294D01*
X75493899Y-59953490D01*
X76449000Y-60908592D01*
G37*
%TD.AperFunction*%
%TD*%
D17*
X82277000Y-81402922D02*
X82299492Y-81516000D01*
X81903740Y-81516000D01*
X81943479Y-81494759D01*
X82020527Y-81431527D01*
X82036376Y-81412215D01*
X82103591Y-81345000D01*
X82245922Y-81345000D01*
X82277000Y-81338818D01*
X82277000Y-81402922D01*
%TA.AperFunction,NonConductor*%
D18*
G36*
X82277000Y-81402922D02*
G01*
X82299492Y-81516000D01*
X81903740Y-81516000D01*
X81943479Y-81494759D01*
X82020527Y-81431527D01*
X82036376Y-81412215D01*
X82103591Y-81345000D01*
X82245922Y-81345000D01*
X82277000Y-81338818D01*
X82277000Y-81402922D01*
G37*
%TD.AperFunction*%
D17*
X67660968Y-71389493D02*
X67701511Y-71397521D01*
X67741935Y-71406114D01*
X67748268Y-71406779D01*
X67942501Y-71425824D01*
X67942507Y-71425824D01*
X67964601Y-71428000D01*
X90259399Y-71428000D01*
X90282479Y-71425727D01*
X90295460Y-71425727D01*
X90301792Y-71425061D01*
X90365541Y-71417910D01*
X90409761Y-71462130D01*
X90513109Y-71531185D01*
X90627944Y-71578751D01*
X90749852Y-71603000D01*
X90874148Y-71603000D01*
X90996056Y-71578751D01*
X91110891Y-71531185D01*
X91187000Y-71480331D01*
X91263109Y-71531185D01*
X91377944Y-71578751D01*
X91499852Y-71603000D01*
X91624148Y-71603000D01*
X91746056Y-71578751D01*
X91860891Y-71531185D01*
X91937000Y-71480331D01*
X92013109Y-71531185D01*
X92127944Y-71578751D01*
X92249852Y-71603000D01*
X92374148Y-71603000D01*
X92496056Y-71578751D01*
X92610891Y-71531185D01*
X92687000Y-71480331D01*
X92763109Y-71531185D01*
X92877944Y-71578751D01*
X92999852Y-71603000D01*
X93124148Y-71603000D01*
X93246056Y-71578751D01*
X93360891Y-71531185D01*
X93437000Y-71480331D01*
X93513109Y-71531185D01*
X93627944Y-71578751D01*
X93749852Y-71603000D01*
X93874148Y-71603000D01*
X93996056Y-71578751D01*
X94110891Y-71531185D01*
X94214239Y-71462130D01*
X94267686Y-71408683D01*
X94442501Y-71425824D01*
X94444349Y-71425824D01*
X94448446Y-71426367D01*
X95336581Y-71501726D01*
X96161880Y-71715931D01*
X96939275Y-72066123D01*
X97646563Y-72542296D01*
X98263505Y-73130830D01*
X98772464Y-73814895D01*
X99158893Y-74574945D01*
X99411735Y-75389227D01*
X99523763Y-76234474D01*
X99491777Y-77086509D01*
X99316687Y-77920978D01*
X99003503Y-78714010D01*
X98561175Y-79442942D01*
X98002360Y-80086921D01*
X97343022Y-80627544D01*
X96602030Y-81049341D01*
X95800559Y-81340261D01*
X94953066Y-81493514D01*
X94476250Y-81516000D01*
X83816508Y-81516000D01*
X83839000Y-81402922D01*
X83839000Y-81249078D01*
X83808987Y-81098191D01*
X83750113Y-80956058D01*
X83664642Y-80828141D01*
X83564000Y-80727499D01*
X83564000Y-80572591D01*
X84128592Y-80008000D01*
X84270922Y-80008000D01*
X84421809Y-79977987D01*
X84563942Y-79919113D01*
X84691859Y-79833642D01*
X84800642Y-79724859D01*
X84886113Y-79596942D01*
X84944987Y-79454809D01*
X84975000Y-79303922D01*
X84975000Y-79150078D01*
X84944987Y-78999191D01*
X84886113Y-78857058D01*
X84800642Y-78729141D01*
X84691859Y-78620358D01*
X84563942Y-78534887D01*
X84421809Y-78476013D01*
X84270922Y-78446000D01*
X84183769Y-78446000D01*
X84193000Y-78352273D01*
X84193000Y-77165727D01*
X84180252Y-77036294D01*
X84129875Y-76870225D01*
X84048068Y-76717175D01*
X83937975Y-76583025D01*
X83818000Y-76484565D01*
X83818000Y-76247341D01*
X94206000Y-76247341D01*
X94206000Y-76696659D01*
X94293657Y-77137343D01*
X94465604Y-77552459D01*
X94715231Y-77926053D01*
X95032947Y-78243769D01*
X95406541Y-78493396D01*
X95821657Y-78665343D01*
X96262341Y-78753000D01*
X96711659Y-78753000D01*
X97152343Y-78665343D01*
X97567459Y-78493396D01*
X97941053Y-78243769D01*
X98258769Y-77926053D01*
X98508396Y-77552459D01*
X98680343Y-77137343D01*
X98768000Y-76696659D01*
X98768000Y-76247341D01*
X98680343Y-75806657D01*
X98508396Y-75391541D01*
X98258769Y-75017947D01*
X97941053Y-74700231D01*
X97567459Y-74450604D01*
X97152343Y-74278657D01*
X96711659Y-74191000D01*
X96262341Y-74191000D01*
X95821657Y-74278657D01*
X95406541Y-74450604D01*
X95032947Y-74700231D01*
X94715231Y-75017947D01*
X94465604Y-75391541D01*
X94293657Y-75806657D01*
X94206000Y-76247341D01*
X83818000Y-76247341D01*
X83818000Y-74603434D01*
X83937975Y-74504975D01*
X84048068Y-74370825D01*
X84129875Y-74217775D01*
X84180252Y-74051706D01*
X84193000Y-73922273D01*
X84193000Y-73235727D01*
X84180252Y-73106294D01*
X84129875Y-72940225D01*
X84048068Y-72787175D01*
X83937975Y-72653025D01*
X83803825Y-72542932D01*
X83650775Y-72461125D01*
X83484706Y-72410748D01*
X83312000Y-72393738D01*
X83139295Y-72410748D01*
X82973226Y-72461125D01*
X82820176Y-72542932D01*
X82686026Y-72653025D01*
X82575933Y-72787175D01*
X82494125Y-72940225D01*
X82443748Y-73106294D01*
X82431000Y-73235727D01*
X82431000Y-73714031D01*
X82387642Y-73649141D01*
X82278859Y-73540358D01*
X82150942Y-73454887D01*
X82008809Y-73396013D01*
X81857922Y-73366000D01*
X81704078Y-73366000D01*
X81553191Y-73396013D01*
X81411058Y-73454887D01*
X81283141Y-73540358D01*
X81174358Y-73649141D01*
X81088887Y-73777058D01*
X81030013Y-73919191D01*
X81000000Y-74070078D01*
X81000000Y-74223922D01*
X81030013Y-74374809D01*
X81088887Y-74516942D01*
X81174358Y-74644859D01*
X81283141Y-74753642D01*
X81411058Y-74839113D01*
X81553191Y-74897987D01*
X81704078Y-74928000D01*
X81857922Y-74928000D01*
X82008809Y-74897987D01*
X82150942Y-74839113D01*
X82278859Y-74753642D01*
X82387642Y-74644859D01*
X82473113Y-74516942D01*
X82531987Y-74374809D01*
X82544483Y-74311987D01*
X82575932Y-74370824D01*
X82686025Y-74504975D01*
X82806000Y-74603435D01*
X82806001Y-76484565D01*
X82686026Y-76583025D01*
X82575933Y-76717175D01*
X82494126Y-76870225D01*
X82493266Y-76873059D01*
X82430386Y-76778951D01*
X82332049Y-76680614D01*
X82216416Y-76603351D01*
X82087933Y-76550131D01*
X81951535Y-76523000D01*
X81812465Y-76523000D01*
X81676067Y-76550131D01*
X81547584Y-76603351D01*
X81431951Y-76680614D01*
X81333614Y-76778951D01*
X81256351Y-76894584D01*
X81203131Y-77023067D01*
X81176000Y-77159465D01*
X81176000Y-77298535D01*
X81203131Y-77434933D01*
X81256351Y-77563416D01*
X81333614Y-77679049D01*
X81431951Y-77777386D01*
X81547584Y-77854649D01*
X81676067Y-77907869D01*
X81812465Y-77935000D01*
X81951535Y-77935000D01*
X82087933Y-77907869D01*
X82216416Y-77854649D01*
X82332049Y-77777386D01*
X82430386Y-77679049D01*
X82431001Y-77678129D01*
X82431000Y-78352272D01*
X82443748Y-78481705D01*
X82494125Y-78647774D01*
X82575932Y-78800824D01*
X82686025Y-78934975D01*
X82820175Y-79045068D01*
X82973225Y-79126875D01*
X83139294Y-79177252D01*
X83312000Y-79194262D01*
X83413000Y-79184314D01*
X83413000Y-79292408D01*
X82717780Y-79987629D01*
X82706438Y-79996937D01*
X82666859Y-79957358D01*
X82538942Y-79871887D01*
X82396809Y-79813013D01*
X82245922Y-79783000D01*
X82092078Y-79783000D01*
X81941191Y-79813013D01*
X81799058Y-79871887D01*
X81671141Y-79957358D01*
X81562358Y-80066141D01*
X81476887Y-80194058D01*
X81418013Y-80336191D01*
X81388000Y-80487078D01*
X81388000Y-80566000D01*
X80534501Y-80566000D01*
X80433859Y-80465358D01*
X80305942Y-80379887D01*
X80163809Y-80321013D01*
X80012922Y-80291000D01*
X79859078Y-80291000D01*
X79708191Y-80321013D01*
X79566058Y-80379887D01*
X79438141Y-80465358D01*
X79337499Y-80566000D01*
X77593622Y-80566000D01*
X77647113Y-80485944D01*
X77705987Y-80343811D01*
X77736000Y-80192924D01*
X77736000Y-80039080D01*
X77705987Y-79888193D01*
X77647113Y-79746060D01*
X77561642Y-79618143D01*
X77461000Y-79517501D01*
X77461000Y-73723854D01*
X77463448Y-73699000D01*
X77453678Y-73599807D01*
X77424745Y-73504425D01*
X77417171Y-73490255D01*
X77377759Y-73416521D01*
X77314527Y-73339473D01*
X77295220Y-73323628D01*
X75940376Y-71968785D01*
X75924527Y-71949473D01*
X75847479Y-71886241D01*
X75759575Y-71839255D01*
X75664193Y-71810322D01*
X75589854Y-71803000D01*
X75589846Y-71803000D01*
X75565000Y-71800553D01*
X75540154Y-71803000D01*
X73877501Y-71803000D01*
X73776859Y-71702358D01*
X73648942Y-71616887D01*
X73506809Y-71558013D01*
X73355922Y-71528000D01*
X73202078Y-71528000D01*
X73051191Y-71558013D01*
X72909058Y-71616887D01*
X72781141Y-71702358D01*
X72672358Y-71811141D01*
X72586887Y-71939058D01*
X72528013Y-72081191D01*
X72498000Y-72232078D01*
X72498000Y-72385922D01*
X72528013Y-72536809D01*
X72586887Y-72678942D01*
X72672358Y-72806859D01*
X72781141Y-72915642D01*
X72909058Y-73001113D01*
X73051191Y-73059987D01*
X73202078Y-73090000D01*
X73355922Y-73090000D01*
X73506809Y-73059987D01*
X73648942Y-73001113D01*
X73776859Y-72915642D01*
X73877501Y-72815000D01*
X73921060Y-72815000D01*
X73854125Y-72940225D01*
X73803748Y-73106294D01*
X73791000Y-73235727D01*
X73791000Y-73367499D01*
X73776859Y-73353358D01*
X73648942Y-73267887D01*
X73506809Y-73209013D01*
X73355922Y-73179000D01*
X73202078Y-73179000D01*
X73051191Y-73209013D01*
X72909058Y-73267887D01*
X72781141Y-73353358D01*
X72672358Y-73462141D01*
X72586887Y-73590058D01*
X72528013Y-73732191D01*
X72498000Y-73883078D01*
X72498000Y-74036922D01*
X72528013Y-74187809D01*
X72586887Y-74329942D01*
X72672358Y-74457859D01*
X72781141Y-74566642D01*
X72909058Y-74652113D01*
X73051191Y-74710987D01*
X73202078Y-74741000D01*
X73274000Y-74741000D01*
X73274001Y-79005829D01*
X73271553Y-79030685D01*
X73281322Y-79129877D01*
X73310255Y-79225259D01*
X73310256Y-79225260D01*
X73357242Y-79313164D01*
X73420474Y-79390212D01*
X73439780Y-79406056D01*
X73441461Y-79407737D01*
X73415423Y-79418522D01*
X73287506Y-79503993D01*
X73186864Y-79604635D01*
X72841227Y-79604635D01*
X69481000Y-76244409D01*
X69481000Y-76102078D01*
X69450987Y-75951191D01*
X69392113Y-75809058D01*
X69306642Y-75681141D01*
X69197859Y-75572358D01*
X69069942Y-75486887D01*
X68927809Y-75428013D01*
X68776922Y-75398000D01*
X68623078Y-75398000D01*
X68472191Y-75428013D01*
X68330058Y-75486887D01*
X68202141Y-75572358D01*
X68093358Y-75681141D01*
X68007887Y-75809058D01*
X67949013Y-75951191D01*
X67919000Y-76102078D01*
X67919000Y-76255922D01*
X67949013Y-76406809D01*
X68007887Y-76548942D01*
X68093358Y-76676859D01*
X68202141Y-76785642D01*
X68330058Y-76871113D01*
X68472191Y-76929987D01*
X68623078Y-76960000D01*
X68765409Y-76960000D01*
X72256263Y-80450855D01*
X72272108Y-80470162D01*
X72349156Y-80533394D01*
X72419096Y-80570778D01*
X72437060Y-80580380D01*
X72532442Y-80609313D01*
X72631635Y-80619083D01*
X72656489Y-80616635D01*
X73186864Y-80616635D01*
X73287506Y-80717277D01*
X73415423Y-80802748D01*
X73557556Y-80861622D01*
X73708443Y-80891635D01*
X73850774Y-80891635D01*
X74371358Y-81412220D01*
X74387203Y-81431527D01*
X74464251Y-81494759D01*
X74503990Y-81516000D01*
X63506309Y-81516000D01*
X62637420Y-81442274D01*
X61812125Y-81228070D01*
X61034725Y-80877877D01*
X60327434Y-80401701D01*
X59710493Y-79813167D01*
X59201534Y-79129103D01*
X58815107Y-78369055D01*
X58562265Y-77554774D01*
X58450237Y-76709526D01*
X58467587Y-76247341D01*
X59206000Y-76247341D01*
X59206000Y-76696659D01*
X59293657Y-77137343D01*
X59465604Y-77552459D01*
X59715231Y-77926053D01*
X60032947Y-78243769D01*
X60406541Y-78493396D01*
X60821657Y-78665343D01*
X61262341Y-78753000D01*
X61711659Y-78753000D01*
X62152343Y-78665343D01*
X62567459Y-78493396D01*
X62941053Y-78243769D01*
X63258769Y-77926053D01*
X63508396Y-77552459D01*
X63680343Y-77137343D01*
X63768000Y-76696659D01*
X63768000Y-76247341D01*
X63680343Y-75806657D01*
X63508396Y-75391541D01*
X63258769Y-75017947D01*
X62941053Y-74700231D01*
X62567459Y-74450604D01*
X62152343Y-74278657D01*
X61711659Y-74191000D01*
X61262341Y-74191000D01*
X60821657Y-74278657D01*
X60406541Y-74450604D01*
X60032947Y-74700231D01*
X59715231Y-75017947D01*
X59465604Y-75391541D01*
X59293657Y-75806657D01*
X59206000Y-76247341D01*
X58467587Y-76247341D01*
X58482223Y-75857491D01*
X58657313Y-75023022D01*
X58970496Y-74229993D01*
X59412827Y-73501054D01*
X59971640Y-72857080D01*
X60630978Y-72316456D01*
X61371972Y-71894658D01*
X62173445Y-71603737D01*
X63020934Y-71450486D01*
X63499334Y-71427925D01*
X63504130Y-71427892D01*
X63507461Y-71427542D01*
X63508480Y-71427494D01*
X63510629Y-71427209D01*
X63524739Y-71425727D01*
X63545460Y-71425727D01*
X63551792Y-71425061D01*
X63731531Y-71404900D01*
X63774761Y-71448130D01*
X63878109Y-71517185D01*
X63992944Y-71564751D01*
X64114852Y-71589000D01*
X64239148Y-71589000D01*
X64361056Y-71564751D01*
X64475891Y-71517185D01*
X64552000Y-71466331D01*
X64628109Y-71517185D01*
X64742944Y-71564751D01*
X64864852Y-71589000D01*
X64989148Y-71589000D01*
X65111056Y-71564751D01*
X65225891Y-71517185D01*
X65302000Y-71466331D01*
X65378109Y-71517185D01*
X65492944Y-71564751D01*
X65614852Y-71589000D01*
X65739148Y-71589000D01*
X65861056Y-71564751D01*
X65975891Y-71517185D01*
X66052000Y-71466331D01*
X66128109Y-71517185D01*
X66242944Y-71564751D01*
X66364852Y-71589000D01*
X66489148Y-71589000D01*
X66611056Y-71564751D01*
X66725891Y-71517185D01*
X66802000Y-71466331D01*
X66878109Y-71517185D01*
X66992944Y-71564751D01*
X67114852Y-71589000D01*
X67239148Y-71589000D01*
X67361056Y-71564751D01*
X67475891Y-71517185D01*
X67579239Y-71448130D01*
X67643231Y-71384138D01*
X67660968Y-71389493D01*
%TA.AperFunction,NonConductor*%
D18*
G36*
X67660968Y-71389493D02*
G01*
X67701511Y-71397521D01*
X67741935Y-71406114D01*
X67748268Y-71406779D01*
X67942501Y-71425824D01*
X67942507Y-71425824D01*
X67964601Y-71428000D01*
X90259399Y-71428000D01*
X90282479Y-71425727D01*
X90295460Y-71425727D01*
X90301792Y-71425061D01*
X90365541Y-71417910D01*
X90409761Y-71462130D01*
X90513109Y-71531185D01*
X90627944Y-71578751D01*
X90749852Y-71603000D01*
X90874148Y-71603000D01*
X90996056Y-71578751D01*
X91110891Y-71531185D01*
X91187000Y-71480331D01*
X91263109Y-71531185D01*
X91377944Y-71578751D01*
X91499852Y-71603000D01*
X91624148Y-71603000D01*
X91746056Y-71578751D01*
X91860891Y-71531185D01*
X91937000Y-71480331D01*
X92013109Y-71531185D01*
X92127944Y-71578751D01*
X92249852Y-71603000D01*
X92374148Y-71603000D01*
X92496056Y-71578751D01*
X92610891Y-71531185D01*
X92687000Y-71480331D01*
X92763109Y-71531185D01*
X92877944Y-71578751D01*
X92999852Y-71603000D01*
X93124148Y-71603000D01*
X93246056Y-71578751D01*
X93360891Y-71531185D01*
X93437000Y-71480331D01*
X93513109Y-71531185D01*
X93627944Y-71578751D01*
X93749852Y-71603000D01*
X93874148Y-71603000D01*
X93996056Y-71578751D01*
X94110891Y-71531185D01*
X94214239Y-71462130D01*
X94267686Y-71408683D01*
X94442501Y-71425824D01*
X94444349Y-71425824D01*
X94448446Y-71426367D01*
X95336581Y-71501726D01*
X96161880Y-71715931D01*
X96939275Y-72066123D01*
X97646563Y-72542296D01*
X98263505Y-73130830D01*
X98772464Y-73814895D01*
X99158893Y-74574945D01*
X99411735Y-75389227D01*
X99523763Y-76234474D01*
X99491777Y-77086509D01*
X99316687Y-77920978D01*
X99003503Y-78714010D01*
X98561175Y-79442942D01*
X98002360Y-80086921D01*
X97343022Y-80627544D01*
X96602030Y-81049341D01*
X95800559Y-81340261D01*
X94953066Y-81493514D01*
X94476250Y-81516000D01*
X83816508Y-81516000D01*
X83839000Y-81402922D01*
X83839000Y-81249078D01*
X83808987Y-81098191D01*
X83750113Y-80956058D01*
X83664642Y-80828141D01*
X83564000Y-80727499D01*
X83564000Y-80572591D01*
X84128592Y-80008000D01*
X84270922Y-80008000D01*
X84421809Y-79977987D01*
X84563942Y-79919113D01*
X84691859Y-79833642D01*
X84800642Y-79724859D01*
X84886113Y-79596942D01*
X84944987Y-79454809D01*
X84975000Y-79303922D01*
X84975000Y-79150078D01*
X84944987Y-78999191D01*
X84886113Y-78857058D01*
X84800642Y-78729141D01*
X84691859Y-78620358D01*
X84563942Y-78534887D01*
X84421809Y-78476013D01*
X84270922Y-78446000D01*
X84183769Y-78446000D01*
X84193000Y-78352273D01*
X84193000Y-77165727D01*
X84180252Y-77036294D01*
X84129875Y-76870225D01*
X84048068Y-76717175D01*
X83937975Y-76583025D01*
X83818000Y-76484565D01*
X83818000Y-76247341D01*
X94206000Y-76247341D01*
X94206000Y-76696659D01*
X94293657Y-77137343D01*
X94465604Y-77552459D01*
X94715231Y-77926053D01*
X95032947Y-78243769D01*
X95406541Y-78493396D01*
X95821657Y-78665343D01*
X96262341Y-78753000D01*
X96711659Y-78753000D01*
X97152343Y-78665343D01*
X97567459Y-78493396D01*
X97941053Y-78243769D01*
X98258769Y-77926053D01*
X98508396Y-77552459D01*
X98680343Y-77137343D01*
X98768000Y-76696659D01*
X98768000Y-76247341D01*
X98680343Y-75806657D01*
X98508396Y-75391541D01*
X98258769Y-75017947D01*
X97941053Y-74700231D01*
X97567459Y-74450604D01*
X97152343Y-74278657D01*
X96711659Y-74191000D01*
X96262341Y-74191000D01*
X95821657Y-74278657D01*
X95406541Y-74450604D01*
X95032947Y-74700231D01*
X94715231Y-75017947D01*
X94465604Y-75391541D01*
X94293657Y-75806657D01*
X94206000Y-76247341D01*
X83818000Y-76247341D01*
X83818000Y-74603434D01*
X83937975Y-74504975D01*
X84048068Y-74370825D01*
X84129875Y-74217775D01*
X84180252Y-74051706D01*
X84193000Y-73922273D01*
X84193000Y-73235727D01*
X84180252Y-73106294D01*
X84129875Y-72940225D01*
X84048068Y-72787175D01*
X83937975Y-72653025D01*
X83803825Y-72542932D01*
X83650775Y-72461125D01*
X83484706Y-72410748D01*
X83312000Y-72393738D01*
X83139295Y-72410748D01*
X82973226Y-72461125D01*
X82820176Y-72542932D01*
X82686026Y-72653025D01*
X82575933Y-72787175D01*
X82494125Y-72940225D01*
X82443748Y-73106294D01*
X82431000Y-73235727D01*
X82431000Y-73714031D01*
X82387642Y-73649141D01*
X82278859Y-73540358D01*
X82150942Y-73454887D01*
X82008809Y-73396013D01*
X81857922Y-73366000D01*
X81704078Y-73366000D01*
X81553191Y-73396013D01*
X81411058Y-73454887D01*
X81283141Y-73540358D01*
X81174358Y-73649141D01*
X81088887Y-73777058D01*
X81030013Y-73919191D01*
X81000000Y-74070078D01*
X81000000Y-74223922D01*
X81030013Y-74374809D01*
X81088887Y-74516942D01*
X81174358Y-74644859D01*
X81283141Y-74753642D01*
X81411058Y-74839113D01*
X81553191Y-74897987D01*
X81704078Y-74928000D01*
X81857922Y-74928000D01*
X82008809Y-74897987D01*
X82150942Y-74839113D01*
X82278859Y-74753642D01*
X82387642Y-74644859D01*
X82473113Y-74516942D01*
X82531987Y-74374809D01*
X82544483Y-74311987D01*
X82575932Y-74370824D01*
X82686025Y-74504975D01*
X82806000Y-74603435D01*
X82806001Y-76484565D01*
X82686026Y-76583025D01*
X82575933Y-76717175D01*
X82494126Y-76870225D01*
X82493266Y-76873059D01*
X82430386Y-76778951D01*
X82332049Y-76680614D01*
X82216416Y-76603351D01*
X82087933Y-76550131D01*
X81951535Y-76523000D01*
X81812465Y-76523000D01*
X81676067Y-76550131D01*
X81547584Y-76603351D01*
X81431951Y-76680614D01*
X81333614Y-76778951D01*
X81256351Y-76894584D01*
X81203131Y-77023067D01*
X81176000Y-77159465D01*
X81176000Y-77298535D01*
X81203131Y-77434933D01*
X81256351Y-77563416D01*
X81333614Y-77679049D01*
X81431951Y-77777386D01*
X81547584Y-77854649D01*
X81676067Y-77907869D01*
X81812465Y-77935000D01*
X81951535Y-77935000D01*
X82087933Y-77907869D01*
X82216416Y-77854649D01*
X82332049Y-77777386D01*
X82430386Y-77679049D01*
X82431001Y-77678129D01*
X82431000Y-78352272D01*
X82443748Y-78481705D01*
X82494125Y-78647774D01*
X82575932Y-78800824D01*
X82686025Y-78934975D01*
X82820175Y-79045068D01*
X82973225Y-79126875D01*
X83139294Y-79177252D01*
X83312000Y-79194262D01*
X83413000Y-79184314D01*
X83413000Y-79292408D01*
X82717780Y-79987629D01*
X82706438Y-79996937D01*
X82666859Y-79957358D01*
X82538942Y-79871887D01*
X82396809Y-79813013D01*
X82245922Y-79783000D01*
X82092078Y-79783000D01*
X81941191Y-79813013D01*
X81799058Y-79871887D01*
X81671141Y-79957358D01*
X81562358Y-80066141D01*
X81476887Y-80194058D01*
X81418013Y-80336191D01*
X81388000Y-80487078D01*
X81388000Y-80566000D01*
X80534501Y-80566000D01*
X80433859Y-80465358D01*
X80305942Y-80379887D01*
X80163809Y-80321013D01*
X80012922Y-80291000D01*
X79859078Y-80291000D01*
X79708191Y-80321013D01*
X79566058Y-80379887D01*
X79438141Y-80465358D01*
X79337499Y-80566000D01*
X77593622Y-80566000D01*
X77647113Y-80485944D01*
X77705987Y-80343811D01*
X77736000Y-80192924D01*
X77736000Y-80039080D01*
X77705987Y-79888193D01*
X77647113Y-79746060D01*
X77561642Y-79618143D01*
X77461000Y-79517501D01*
X77461000Y-73723854D01*
X77463448Y-73699000D01*
X77453678Y-73599807D01*
X77424745Y-73504425D01*
X77417171Y-73490255D01*
X77377759Y-73416521D01*
X77314527Y-73339473D01*
X77295220Y-73323628D01*
X75940376Y-71968785D01*
X75924527Y-71949473D01*
X75847479Y-71886241D01*
X75759575Y-71839255D01*
X75664193Y-71810322D01*
X75589854Y-71803000D01*
X75589846Y-71803000D01*
X75565000Y-71800553D01*
X75540154Y-71803000D01*
X73877501Y-71803000D01*
X73776859Y-71702358D01*
X73648942Y-71616887D01*
X73506809Y-71558013D01*
X73355922Y-71528000D01*
X73202078Y-71528000D01*
X73051191Y-71558013D01*
X72909058Y-71616887D01*
X72781141Y-71702358D01*
X72672358Y-71811141D01*
X72586887Y-71939058D01*
X72528013Y-72081191D01*
X72498000Y-72232078D01*
X72498000Y-72385922D01*
X72528013Y-72536809D01*
X72586887Y-72678942D01*
X72672358Y-72806859D01*
X72781141Y-72915642D01*
X72909058Y-73001113D01*
X73051191Y-73059987D01*
X73202078Y-73090000D01*
X73355922Y-73090000D01*
X73506809Y-73059987D01*
X73648942Y-73001113D01*
X73776859Y-72915642D01*
X73877501Y-72815000D01*
X73921060Y-72815000D01*
X73854125Y-72940225D01*
X73803748Y-73106294D01*
X73791000Y-73235727D01*
X73791000Y-73367499D01*
X73776859Y-73353358D01*
X73648942Y-73267887D01*
X73506809Y-73209013D01*
X73355922Y-73179000D01*
X73202078Y-73179000D01*
X73051191Y-73209013D01*
X72909058Y-73267887D01*
X72781141Y-73353358D01*
X72672358Y-73462141D01*
X72586887Y-73590058D01*
X72528013Y-73732191D01*
X72498000Y-73883078D01*
X72498000Y-74036922D01*
X72528013Y-74187809D01*
X72586887Y-74329942D01*
X72672358Y-74457859D01*
X72781141Y-74566642D01*
X72909058Y-74652113D01*
X73051191Y-74710987D01*
X73202078Y-74741000D01*
X73274000Y-74741000D01*
X73274001Y-79005829D01*
X73271553Y-79030685D01*
X73281322Y-79129877D01*
X73310255Y-79225259D01*
X73310256Y-79225260D01*
X73357242Y-79313164D01*
X73420474Y-79390212D01*
X73439780Y-79406056D01*
X73441461Y-79407737D01*
X73415423Y-79418522D01*
X73287506Y-79503993D01*
X73186864Y-79604635D01*
X72841227Y-79604635D01*
X69481000Y-76244409D01*
X69481000Y-76102078D01*
X69450987Y-75951191D01*
X69392113Y-75809058D01*
X69306642Y-75681141D01*
X69197859Y-75572358D01*
X69069942Y-75486887D01*
X68927809Y-75428013D01*
X68776922Y-75398000D01*
X68623078Y-75398000D01*
X68472191Y-75428013D01*
X68330058Y-75486887D01*
X68202141Y-75572358D01*
X68093358Y-75681141D01*
X68007887Y-75809058D01*
X67949013Y-75951191D01*
X67919000Y-76102078D01*
X67919000Y-76255922D01*
X67949013Y-76406809D01*
X68007887Y-76548942D01*
X68093358Y-76676859D01*
X68202141Y-76785642D01*
X68330058Y-76871113D01*
X68472191Y-76929987D01*
X68623078Y-76960000D01*
X68765409Y-76960000D01*
X72256263Y-80450855D01*
X72272108Y-80470162D01*
X72349156Y-80533394D01*
X72419096Y-80570778D01*
X72437060Y-80580380D01*
X72532442Y-80609313D01*
X72631635Y-80619083D01*
X72656489Y-80616635D01*
X73186864Y-80616635D01*
X73287506Y-80717277D01*
X73415423Y-80802748D01*
X73557556Y-80861622D01*
X73708443Y-80891635D01*
X73850774Y-80891635D01*
X74371358Y-81412220D01*
X74387203Y-81431527D01*
X74464251Y-81494759D01*
X74503990Y-81516000D01*
X63506309Y-81516000D01*
X62637420Y-81442274D01*
X61812125Y-81228070D01*
X61034725Y-80877877D01*
X60327434Y-80401701D01*
X59710493Y-79813167D01*
X59201534Y-79129103D01*
X58815107Y-78369055D01*
X58562265Y-77554774D01*
X58450237Y-76709526D01*
X58467587Y-76247341D01*
X59206000Y-76247341D01*
X59206000Y-76696659D01*
X59293657Y-77137343D01*
X59465604Y-77552459D01*
X59715231Y-77926053D01*
X60032947Y-78243769D01*
X60406541Y-78493396D01*
X60821657Y-78665343D01*
X61262341Y-78753000D01*
X61711659Y-78753000D01*
X62152343Y-78665343D01*
X62567459Y-78493396D01*
X62941053Y-78243769D01*
X63258769Y-77926053D01*
X63508396Y-77552459D01*
X63680343Y-77137343D01*
X63768000Y-76696659D01*
X63768000Y-76247341D01*
X63680343Y-75806657D01*
X63508396Y-75391541D01*
X63258769Y-75017947D01*
X62941053Y-74700231D01*
X62567459Y-74450604D01*
X62152343Y-74278657D01*
X61711659Y-74191000D01*
X61262341Y-74191000D01*
X60821657Y-74278657D01*
X60406541Y-74450604D01*
X60032947Y-74700231D01*
X59715231Y-75017947D01*
X59465604Y-75391541D01*
X59293657Y-75806657D01*
X59206000Y-76247341D01*
X58467587Y-76247341D01*
X58482223Y-75857491D01*
X58657313Y-75023022D01*
X58970496Y-74229993D01*
X59412827Y-73501054D01*
X59971640Y-72857080D01*
X60630978Y-72316456D01*
X61371972Y-71894658D01*
X62173445Y-71603737D01*
X63020934Y-71450486D01*
X63499334Y-71427925D01*
X63504130Y-71427892D01*
X63507461Y-71427542D01*
X63508480Y-71427494D01*
X63510629Y-71427209D01*
X63524739Y-71425727D01*
X63545460Y-71425727D01*
X63551792Y-71425061D01*
X63731531Y-71404900D01*
X63774761Y-71448130D01*
X63878109Y-71517185D01*
X63992944Y-71564751D01*
X64114852Y-71589000D01*
X64239148Y-71589000D01*
X64361056Y-71564751D01*
X64475891Y-71517185D01*
X64552000Y-71466331D01*
X64628109Y-71517185D01*
X64742944Y-71564751D01*
X64864852Y-71589000D01*
X64989148Y-71589000D01*
X65111056Y-71564751D01*
X65225891Y-71517185D01*
X65302000Y-71466331D01*
X65378109Y-71517185D01*
X65492944Y-71564751D01*
X65614852Y-71589000D01*
X65739148Y-71589000D01*
X65861056Y-71564751D01*
X65975891Y-71517185D01*
X66052000Y-71466331D01*
X66128109Y-71517185D01*
X66242944Y-71564751D01*
X66364852Y-71589000D01*
X66489148Y-71589000D01*
X66611056Y-71564751D01*
X66725891Y-71517185D01*
X66802000Y-71466331D01*
X66878109Y-71517185D01*
X66992944Y-71564751D01*
X67114852Y-71589000D01*
X67239148Y-71589000D01*
X67361056Y-71564751D01*
X67475891Y-71517185D01*
X67579239Y-71448130D01*
X67643231Y-71384138D01*
X67660968Y-71389493D01*
G37*
%TD.AperFunction*%
D17*
X75553614Y-77679049D02*
X75651951Y-77777386D01*
X75767584Y-77854649D01*
X75896067Y-77907869D01*
X76032465Y-77935000D01*
X76171535Y-77935000D01*
X76307933Y-77907869D01*
X76436416Y-77854649D01*
X76449001Y-77846240D01*
X76449001Y-79517500D01*
X76404006Y-79562495D01*
X76350873Y-79509362D01*
X76222956Y-79423891D01*
X76080823Y-79365017D01*
X75929936Y-79335004D01*
X75776092Y-79335004D01*
X75625205Y-79365017D01*
X75483072Y-79423891D01*
X75355155Y-79509362D01*
X75254513Y-79610004D01*
X75074911Y-79610004D01*
X74657767Y-79192860D01*
X74672000Y-79194262D01*
X74844705Y-79177252D01*
X75010774Y-79126875D01*
X75163824Y-79045068D01*
X75297975Y-78934975D01*
X75408068Y-78800825D01*
X75489875Y-78647775D01*
X75540252Y-78481706D01*
X75553000Y-78352273D01*
X75553000Y-77678130D01*
X75553614Y-77679049D01*
%TA.AperFunction,NonConductor*%
D18*
G36*
X75553614Y-77679049D02*
G01*
X75651951Y-77777386D01*
X75767584Y-77854649D01*
X75896067Y-77907869D01*
X76032465Y-77935000D01*
X76171535Y-77935000D01*
X76307933Y-77907869D01*
X76436416Y-77854649D01*
X76449001Y-77846240D01*
X76449001Y-79517500D01*
X76404006Y-79562495D01*
X76350873Y-79509362D01*
X76222956Y-79423891D01*
X76080823Y-79365017D01*
X75929936Y-79335004D01*
X75776092Y-79335004D01*
X75625205Y-79365017D01*
X75483072Y-79423891D01*
X75355155Y-79509362D01*
X75254513Y-79610004D01*
X75074911Y-79610004D01*
X74657767Y-79192860D01*
X74672000Y-79194262D01*
X74844705Y-79177252D01*
X75010774Y-79126875D01*
X75163824Y-79045068D01*
X75297975Y-78934975D01*
X75408068Y-78800825D01*
X75489875Y-78647775D01*
X75540252Y-78481706D01*
X75553000Y-78352273D01*
X75553000Y-77678130D01*
X75553614Y-77679049D01*
G37*
%TD.AperFunction*%
D17*
X75405230Y-74487753D02*
X75464104Y-74629886D01*
X75549575Y-74757803D01*
X75658358Y-74866586D01*
X75786275Y-74952057D01*
X75928408Y-75010931D01*
X76079295Y-75040944D01*
X76233139Y-75040944D01*
X76384026Y-75010931D01*
X76449000Y-74984018D01*
X76449000Y-76611760D01*
X76436416Y-76603351D01*
X76307933Y-76550131D01*
X76171535Y-76523000D01*
X76032465Y-76523000D01*
X75896067Y-76550131D01*
X75767584Y-76603351D01*
X75651951Y-76680614D01*
X75553614Y-76778951D01*
X75490734Y-76873058D01*
X75489875Y-76870225D01*
X75408068Y-76717175D01*
X75297975Y-76583025D01*
X75178000Y-76484565D01*
X75178000Y-74603434D01*
X75297975Y-74504975D01*
X75387063Y-74396420D01*
X75405230Y-74487753D01*
%TA.AperFunction,NonConductor*%
D18*
G36*
X75405230Y-74487753D02*
G01*
X75464104Y-74629886D01*
X75549575Y-74757803D01*
X75658358Y-74866586D01*
X75786275Y-74952057D01*
X75928408Y-75010931D01*
X76079295Y-75040944D01*
X76233139Y-75040944D01*
X76384026Y-75010931D01*
X76449000Y-74984018D01*
X76449000Y-76611760D01*
X76436416Y-76603351D01*
X76307933Y-76550131D01*
X76171535Y-76523000D01*
X76032465Y-76523000D01*
X75896067Y-76550131D01*
X75767584Y-76603351D01*
X75651951Y-76680614D01*
X75553614Y-76778951D01*
X75490734Y-76873058D01*
X75489875Y-76870225D01*
X75408068Y-76717175D01*
X75297975Y-76583025D01*
X75178000Y-76484565D01*
X75178000Y-74603434D01*
X75297975Y-74504975D01*
X75387063Y-74396420D01*
X75405230Y-74487753D01*
G37*
%TD.AperFunction*%
D17*
X76029297Y-73488889D02*
X75928408Y-73508957D01*
X75786275Y-73567831D01*
X75658358Y-73653302D01*
X75553000Y-73758660D01*
X75553000Y-73235727D01*
X75540252Y-73106294D01*
X75493899Y-72953490D01*
X76029297Y-73488889D01*
%TA.AperFunction,NonConductor*%
D18*
G36*
X76029297Y-73488889D02*
G01*
X75928408Y-73508957D01*
X75786275Y-73567831D01*
X75658358Y-73653302D01*
X75553000Y-73758660D01*
X75553000Y-73235727D01*
X75540252Y-73106294D01*
X75493899Y-72953490D01*
X76029297Y-73488889D01*
G37*
%TD.AperFunction*%
D17*
X92768109Y-69538185D02*
X92882944Y-69585751D01*
X93004852Y-69610000D01*
X93080766Y-69610000D01*
X93067265Y-69655873D01*
X93059514Y-69696508D01*
X93051211Y-69736952D01*
X93050590Y-69743284D01*
X93050589Y-69743292D01*
X93050589Y-69743299D01*
X93032901Y-69937651D01*
X93033189Y-69978976D01*
X93032900Y-70020311D01*
X93033521Y-70026636D01*
X93033521Y-70026645D01*
X93033522Y-70026648D01*
X93053923Y-70220744D01*
X93062234Y-70261233D01*
X93069977Y-70301825D01*
X93071817Y-70307916D01*
X93071818Y-70307922D01*
X93071820Y-70307928D01*
X93082058Y-70341000D01*
X92999852Y-70341000D01*
X92877944Y-70365249D01*
X92763109Y-70412815D01*
X92687000Y-70463669D01*
X92610891Y-70412815D01*
X92496056Y-70365249D01*
X92374148Y-70341000D01*
X92249852Y-70341000D01*
X92127944Y-70365249D01*
X92013109Y-70412815D01*
X91937000Y-70463669D01*
X91860891Y-70412815D01*
X91746056Y-70365249D01*
X91640232Y-70344199D01*
X91656734Y-70288128D01*
X91664479Y-70247529D01*
X91672789Y-70207048D01*
X91673410Y-70200711D01*
X91673411Y-70200708D01*
X91673411Y-70200701D01*
X91691099Y-70006349D01*
X91690811Y-69965024D01*
X91691100Y-69923689D01*
X91690479Y-69917363D01*
X91690479Y-69917356D01*
X91690478Y-69917350D01*
X91670077Y-69723256D01*
X91661766Y-69682767D01*
X91654023Y-69642175D01*
X91652182Y-69636079D01*
X91643241Y-69607197D01*
X91751056Y-69585751D01*
X91865891Y-69538185D01*
X91942000Y-69487331D01*
X92018109Y-69538185D01*
X92132944Y-69585751D01*
X92254852Y-69610000D01*
X92379148Y-69610000D01*
X92501056Y-69585751D01*
X92615891Y-69538185D01*
X92692000Y-69487331D01*
X92768109Y-69538185D01*
%TA.AperFunction,NonConductor*%
D18*
G36*
X92768109Y-69538185D02*
G01*
X92882944Y-69585751D01*
X93004852Y-69610000D01*
X93080766Y-69610000D01*
X93067265Y-69655873D01*
X93059514Y-69696508D01*
X93051211Y-69736952D01*
X93050590Y-69743284D01*
X93050589Y-69743292D01*
X93050589Y-69743299D01*
X93032901Y-69937651D01*
X93033189Y-69978976D01*
X93032900Y-70020311D01*
X93033521Y-70026636D01*
X93033521Y-70026645D01*
X93033522Y-70026648D01*
X93053923Y-70220744D01*
X93062234Y-70261233D01*
X93069977Y-70301825D01*
X93071817Y-70307916D01*
X93071818Y-70307922D01*
X93071820Y-70307928D01*
X93082058Y-70341000D01*
X92999852Y-70341000D01*
X92877944Y-70365249D01*
X92763109Y-70412815D01*
X92687000Y-70463669D01*
X92610891Y-70412815D01*
X92496056Y-70365249D01*
X92374148Y-70341000D01*
X92249852Y-70341000D01*
X92127944Y-70365249D01*
X92013109Y-70412815D01*
X91937000Y-70463669D01*
X91860891Y-70412815D01*
X91746056Y-70365249D01*
X91640232Y-70344199D01*
X91656734Y-70288128D01*
X91664479Y-70247529D01*
X91672789Y-70207048D01*
X91673410Y-70200711D01*
X91673411Y-70200708D01*
X91673411Y-70200701D01*
X91691099Y-70006349D01*
X91690811Y-69965024D01*
X91691100Y-69923689D01*
X91690479Y-69917363D01*
X91690479Y-69917356D01*
X91690478Y-69917350D01*
X91670077Y-69723256D01*
X91661766Y-69682767D01*
X91654023Y-69642175D01*
X91652182Y-69636079D01*
X91643241Y-69607197D01*
X91751056Y-69585751D01*
X91865891Y-69538185D01*
X91942000Y-69487331D01*
X92018109Y-69538185D01*
X92132944Y-69585751D01*
X92254852Y-69610000D01*
X92379148Y-69610000D01*
X92501056Y-69585751D01*
X92615891Y-69538185D01*
X92692000Y-69487331D01*
X92768109Y-69538185D01*
G37*
%TD.AperFunction*%
D17*
X66133109Y-69524185D02*
X66247944Y-69571751D01*
X66369852Y-69596000D01*
X66494148Y-69596000D01*
X66590529Y-69576829D01*
X66567265Y-69655873D01*
X66559514Y-69696508D01*
X66551211Y-69736952D01*
X66550590Y-69743284D01*
X66550589Y-69743292D01*
X66550589Y-69743299D01*
X66532901Y-69937651D01*
X66533189Y-69978976D01*
X66532900Y-70020311D01*
X66533521Y-70026636D01*
X66533521Y-70026645D01*
X66533522Y-70026648D01*
X66553923Y-70220744D01*
X66562234Y-70261233D01*
X66569977Y-70301825D01*
X66571817Y-70307916D01*
X66571818Y-70307922D01*
X66571820Y-70307928D01*
X66583536Y-70345775D01*
X66489148Y-70327000D01*
X66364852Y-70327000D01*
X66242944Y-70351249D01*
X66128109Y-70398815D01*
X66052000Y-70449669D01*
X65975891Y-70398815D01*
X65861056Y-70351249D01*
X65739148Y-70327000D01*
X65614852Y-70327000D01*
X65492944Y-70351249D01*
X65378109Y-70398815D01*
X65302000Y-70449669D01*
X65225891Y-70398815D01*
X65111056Y-70351249D01*
X64989148Y-70327000D01*
X64895294Y-70327000D01*
X64906734Y-70288128D01*
X64914479Y-70247529D01*
X64922789Y-70207048D01*
X64923410Y-70200711D01*
X64923411Y-70200708D01*
X64923411Y-70200701D01*
X64941099Y-70006349D01*
X64940811Y-69965024D01*
X64941100Y-69923689D01*
X64940479Y-69917363D01*
X64940479Y-69917356D01*
X64940478Y-69917350D01*
X64920077Y-69723256D01*
X64911766Y-69682767D01*
X64904023Y-69642175D01*
X64902182Y-69636079D01*
X64889775Y-69596000D01*
X64994148Y-69596000D01*
X65116056Y-69571751D01*
X65230891Y-69524185D01*
X65307000Y-69473331D01*
X65383109Y-69524185D01*
X65497944Y-69571751D01*
X65619852Y-69596000D01*
X65744148Y-69596000D01*
X65866056Y-69571751D01*
X65980891Y-69524185D01*
X66057000Y-69473331D01*
X66133109Y-69524185D01*
%TA.AperFunction,NonConductor*%
D18*
G36*
X66133109Y-69524185D02*
G01*
X66247944Y-69571751D01*
X66369852Y-69596000D01*
X66494148Y-69596000D01*
X66590529Y-69576829D01*
X66567265Y-69655873D01*
X66559514Y-69696508D01*
X66551211Y-69736952D01*
X66550590Y-69743284D01*
X66550589Y-69743292D01*
X66550589Y-69743299D01*
X66532901Y-69937651D01*
X66533189Y-69978976D01*
X66532900Y-70020311D01*
X66533521Y-70026636D01*
X66533521Y-70026645D01*
X66533522Y-70026648D01*
X66553923Y-70220744D01*
X66562234Y-70261233D01*
X66569977Y-70301825D01*
X66571817Y-70307916D01*
X66571818Y-70307922D01*
X66571820Y-70307928D01*
X66583536Y-70345775D01*
X66489148Y-70327000D01*
X66364852Y-70327000D01*
X66242944Y-70351249D01*
X66128109Y-70398815D01*
X66052000Y-70449669D01*
X65975891Y-70398815D01*
X65861056Y-70351249D01*
X65739148Y-70327000D01*
X65614852Y-70327000D01*
X65492944Y-70351249D01*
X65378109Y-70398815D01*
X65302000Y-70449669D01*
X65225891Y-70398815D01*
X65111056Y-70351249D01*
X64989148Y-70327000D01*
X64895294Y-70327000D01*
X64906734Y-70288128D01*
X64914479Y-70247529D01*
X64922789Y-70207048D01*
X64923410Y-70200711D01*
X64923411Y-70200708D01*
X64923411Y-70200701D01*
X64941099Y-70006349D01*
X64940811Y-69965024D01*
X64941100Y-69923689D01*
X64940479Y-69917363D01*
X64940479Y-69917356D01*
X64940478Y-69917350D01*
X64920077Y-69723256D01*
X64911766Y-69682767D01*
X64904023Y-69642175D01*
X64902182Y-69636079D01*
X64889775Y-69596000D01*
X64994148Y-69596000D01*
X65116056Y-69571751D01*
X65230891Y-69524185D01*
X65307000Y-69473331D01*
X65383109Y-69524185D01*
X65497944Y-69571751D01*
X65619852Y-69596000D01*
X65744148Y-69596000D01*
X65866056Y-69571751D01*
X65980891Y-69524185D01*
X66057000Y-69473331D01*
X66133109Y-69524185D01*
G37*
%TD.AperFunction*%
D17*
X72256263Y-67450855D02*
X72272108Y-67470162D01*
X72349156Y-67533394D01*
X72419096Y-67570778D01*
X72437060Y-67580380D01*
X72532442Y-67609313D01*
X72631635Y-67619083D01*
X72656489Y-67616635D01*
X73186864Y-67616635D01*
X73287506Y-67717277D01*
X73415423Y-67802748D01*
X73557556Y-67861622D01*
X73708443Y-67891635D01*
X73850774Y-67891635D01*
X74371358Y-68412220D01*
X74387203Y-68431527D01*
X74464251Y-68494759D01*
X74503990Y-68516000D01*
X67964601Y-68516000D01*
X67941521Y-68518273D01*
X67928540Y-68518273D01*
X67922208Y-68518939D01*
X67728258Y-68540694D01*
X67687841Y-68549285D01*
X67663478Y-68554109D01*
X67584239Y-68474870D01*
X67480891Y-68405815D01*
X67366056Y-68358249D01*
X67244148Y-68334000D01*
X67119852Y-68334000D01*
X66997944Y-68358249D01*
X66883109Y-68405815D01*
X66807000Y-68456669D01*
X66730891Y-68405815D01*
X66616056Y-68358249D01*
X66494148Y-68334000D01*
X66369852Y-68334000D01*
X66247944Y-68358249D01*
X66133109Y-68405815D01*
X66057000Y-68456669D01*
X65980891Y-68405815D01*
X65866056Y-68358249D01*
X65744148Y-68334000D01*
X65619852Y-68334000D01*
X65497944Y-68358249D01*
X65383109Y-68405815D01*
X65307000Y-68456669D01*
X65230891Y-68405815D01*
X65116056Y-68358249D01*
X64994148Y-68334000D01*
X64869852Y-68334000D01*
X64747944Y-68358249D01*
X64633109Y-68405815D01*
X64557000Y-68456669D01*
X64480891Y-68405815D01*
X64366056Y-68358249D01*
X64244148Y-68334000D01*
X64119852Y-68334000D01*
X63997944Y-68358249D01*
X63883109Y-68405815D01*
X63779761Y-68474870D01*
X63718153Y-68536478D01*
X63531498Y-68518176D01*
X63529651Y-68518176D01*
X63525554Y-68517633D01*
X62637420Y-68442274D01*
X61812125Y-68228070D01*
X61034725Y-67877877D01*
X60327434Y-67401701D01*
X59939888Y-67032000D01*
X71837408Y-67032000D01*
X72256263Y-67450855D01*
%TA.AperFunction,NonConductor*%
D18*
G36*
X72256263Y-67450855D02*
G01*
X72272108Y-67470162D01*
X72349156Y-67533394D01*
X72419096Y-67570778D01*
X72437060Y-67580380D01*
X72532442Y-67609313D01*
X72631635Y-67619083D01*
X72656489Y-67616635D01*
X73186864Y-67616635D01*
X73287506Y-67717277D01*
X73415423Y-67802748D01*
X73557556Y-67861622D01*
X73708443Y-67891635D01*
X73850774Y-67891635D01*
X74371358Y-68412220D01*
X74387203Y-68431527D01*
X74464251Y-68494759D01*
X74503990Y-68516000D01*
X67964601Y-68516000D01*
X67941521Y-68518273D01*
X67928540Y-68518273D01*
X67922208Y-68518939D01*
X67728258Y-68540694D01*
X67687841Y-68549285D01*
X67663478Y-68554109D01*
X67584239Y-68474870D01*
X67480891Y-68405815D01*
X67366056Y-68358249D01*
X67244148Y-68334000D01*
X67119852Y-68334000D01*
X66997944Y-68358249D01*
X66883109Y-68405815D01*
X66807000Y-68456669D01*
X66730891Y-68405815D01*
X66616056Y-68358249D01*
X66494148Y-68334000D01*
X66369852Y-68334000D01*
X66247944Y-68358249D01*
X66133109Y-68405815D01*
X66057000Y-68456669D01*
X65980891Y-68405815D01*
X65866056Y-68358249D01*
X65744148Y-68334000D01*
X65619852Y-68334000D01*
X65497944Y-68358249D01*
X65383109Y-68405815D01*
X65307000Y-68456669D01*
X65230891Y-68405815D01*
X65116056Y-68358249D01*
X64994148Y-68334000D01*
X64869852Y-68334000D01*
X64747944Y-68358249D01*
X64633109Y-68405815D01*
X64557000Y-68456669D01*
X64480891Y-68405815D01*
X64366056Y-68358249D01*
X64244148Y-68334000D01*
X64119852Y-68334000D01*
X63997944Y-68358249D01*
X63883109Y-68405815D01*
X63779761Y-68474870D01*
X63718153Y-68536478D01*
X63531498Y-68518176D01*
X63529651Y-68518176D01*
X63525554Y-68517633D01*
X62637420Y-68442274D01*
X61812125Y-68228070D01*
X61034725Y-67877877D01*
X60327434Y-67401701D01*
X59939888Y-67032000D01*
X71837408Y-67032000D01*
X72256263Y-67450855D01*
G37*
%TD.AperFunction*%
D17*
X98002360Y-67086921D02*
X97343022Y-67627544D01*
X96602030Y-68049341D01*
X95800559Y-68340261D01*
X94953066Y-68493514D01*
X94474666Y-68516075D01*
X94469870Y-68516108D01*
X94466539Y-68516458D01*
X94465520Y-68516506D01*
X94463371Y-68516791D01*
X94449261Y-68518273D01*
X94428540Y-68518273D01*
X94422208Y-68518939D01*
X94266746Y-68536377D01*
X94219239Y-68488870D01*
X94115891Y-68419815D01*
X94001056Y-68372249D01*
X93879148Y-68348000D01*
X93754852Y-68348000D01*
X93632944Y-68372249D01*
X93518109Y-68419815D01*
X93442000Y-68470669D01*
X93365891Y-68419815D01*
X93251056Y-68372249D01*
X93129148Y-68348000D01*
X93004852Y-68348000D01*
X92882944Y-68372249D01*
X92768109Y-68419815D01*
X92692000Y-68470669D01*
X92615891Y-68419815D01*
X92501056Y-68372249D01*
X92379148Y-68348000D01*
X92254852Y-68348000D01*
X92132944Y-68372249D01*
X92018109Y-68419815D01*
X91942000Y-68470669D01*
X91865891Y-68419815D01*
X91751056Y-68372249D01*
X91629148Y-68348000D01*
X91504852Y-68348000D01*
X91382944Y-68372249D01*
X91268109Y-68419815D01*
X91192000Y-68470669D01*
X91115891Y-68419815D01*
X91001056Y-68372249D01*
X90879148Y-68348000D01*
X90754852Y-68348000D01*
X90632944Y-68372249D01*
X90518109Y-68419815D01*
X90414761Y-68488870D01*
X90376172Y-68527459D01*
X90281498Y-68518176D01*
X90281493Y-68518176D01*
X90259399Y-68516000D01*
X83816508Y-68516000D01*
X83839000Y-68402922D01*
X83839000Y-68249078D01*
X83808987Y-68098191D01*
X83750113Y-67956058D01*
X83664642Y-67828141D01*
X83564000Y-67727499D01*
X83564000Y-67572591D01*
X84104592Y-67032000D01*
X98050018Y-67032000D01*
X98002360Y-67086921D01*
%TA.AperFunction,NonConductor*%
D18*
G36*
X98002360Y-67086921D02*
G01*
X97343022Y-67627544D01*
X96602030Y-68049341D01*
X95800559Y-68340261D01*
X94953066Y-68493514D01*
X94474666Y-68516075D01*
X94469870Y-68516108D01*
X94466539Y-68516458D01*
X94465520Y-68516506D01*
X94463371Y-68516791D01*
X94449261Y-68518273D01*
X94428540Y-68518273D01*
X94422208Y-68518939D01*
X94266746Y-68536377D01*
X94219239Y-68488870D01*
X94115891Y-68419815D01*
X94001056Y-68372249D01*
X93879148Y-68348000D01*
X93754852Y-68348000D01*
X93632944Y-68372249D01*
X93518109Y-68419815D01*
X93442000Y-68470669D01*
X93365891Y-68419815D01*
X93251056Y-68372249D01*
X93129148Y-68348000D01*
X93004852Y-68348000D01*
X92882944Y-68372249D01*
X92768109Y-68419815D01*
X92692000Y-68470669D01*
X92615891Y-68419815D01*
X92501056Y-68372249D01*
X92379148Y-68348000D01*
X92254852Y-68348000D01*
X92132944Y-68372249D01*
X92018109Y-68419815D01*
X91942000Y-68470669D01*
X91865891Y-68419815D01*
X91751056Y-68372249D01*
X91629148Y-68348000D01*
X91504852Y-68348000D01*
X91382944Y-68372249D01*
X91268109Y-68419815D01*
X91192000Y-68470669D01*
X91115891Y-68419815D01*
X91001056Y-68372249D01*
X90879148Y-68348000D01*
X90754852Y-68348000D01*
X90632944Y-68372249D01*
X90518109Y-68419815D01*
X90414761Y-68488870D01*
X90376172Y-68527459D01*
X90281498Y-68518176D01*
X90281493Y-68518176D01*
X90259399Y-68516000D01*
X83816508Y-68516000D01*
X83839000Y-68402922D01*
X83839000Y-68249078D01*
X83808987Y-68098191D01*
X83750113Y-67956058D01*
X83664642Y-67828141D01*
X83564000Y-67727499D01*
X83564000Y-67572591D01*
X84104592Y-67032000D01*
X98050018Y-67032000D01*
X98002360Y-67086921D01*
G37*
%TD.AperFunction*%
D17*
X82277000Y-68402922D02*
X82299492Y-68516000D01*
X81903740Y-68516000D01*
X81943479Y-68494759D01*
X82020527Y-68431527D01*
X82036376Y-68412215D01*
X82103591Y-68345000D01*
X82245922Y-68345000D01*
X82277000Y-68338818D01*
X82277000Y-68402922D01*
%TA.AperFunction,NonConductor*%
D18*
G36*
X82277000Y-68402922D02*
G01*
X82299492Y-68516000D01*
X81903740Y-68516000D01*
X81943479Y-68494759D01*
X82020527Y-68431527D01*
X82036376Y-68412215D01*
X82103591Y-68345000D01*
X82245922Y-68345000D01*
X82277000Y-68338818D01*
X82277000Y-68402922D01*
G37*
%TD.AperFunction*%
D17*
X81562358Y-67066141D02*
X81476887Y-67194058D01*
X81418013Y-67336191D01*
X81388000Y-67487078D01*
X81388000Y-67566000D01*
X80534501Y-67566000D01*
X80433859Y-67465358D01*
X80305942Y-67379887D01*
X80163809Y-67321013D01*
X80012922Y-67291000D01*
X79859078Y-67291000D01*
X79708191Y-67321013D01*
X79566058Y-67379887D01*
X79438141Y-67465358D01*
X79337499Y-67566000D01*
X77593622Y-67566000D01*
X77647113Y-67485944D01*
X77705987Y-67343811D01*
X77736000Y-67192924D01*
X77736000Y-67039080D01*
X77734592Y-67032000D01*
X81596499Y-67032000D01*
X81562358Y-67066141D01*
%TA.AperFunction,NonConductor*%
D18*
G36*
X81562358Y-67066141D02*
G01*
X81476887Y-67194058D01*
X81418013Y-67336191D01*
X81388000Y-67487078D01*
X81388000Y-67566000D01*
X80534501Y-67566000D01*
X80433859Y-67465358D01*
X80305942Y-67379887D01*
X80163809Y-67321013D01*
X80012922Y-67291000D01*
X79859078Y-67291000D01*
X79708191Y-67321013D01*
X79566058Y-67379887D01*
X79438141Y-67465358D01*
X79337499Y-67566000D01*
X77593622Y-67566000D01*
X77647113Y-67485944D01*
X77705987Y-67343811D01*
X77736000Y-67192924D01*
X77736000Y-67039080D01*
X77734592Y-67032000D01*
X81596499Y-67032000D01*
X81562358Y-67066141D01*
G37*
%TD.AperFunction*%
M02*
