%TF.GenerationSoftware,KiCad,Pcbnew,5.1.10-88a1d61d58~90~ubuntu20.04.1*%
%TF.CreationDate,2022-01-21T20:24:49-08:00*%
%TF.ProjectId,kb-db_panel,6b622d64-625f-4706-916e-656c2e6b6963,rev?*%
%TF.SameCoordinates,Original*%
%TF.FileFunction,Legend,Top*%
%TF.FilePolarity,Positive*%
%FSLAX46Y46*%
G04 Gerber Fmt 4.6, Leading zero omitted, Abs format (unit mm)*
G04 Created by KiCad (PCBNEW 5.1.10-88a1d61d58~90~ubuntu20.04.1) date 2022-01-21 20:24:49*
%MOMM*%
%LPD*%
G01*
G04 APERTURE LIST*
%ADD10C,0.120000*%
%ADD11C,0.150000*%
G04 APERTURE END LIST*
D10*
%TO.C,F1*%
X86533078Y-73818000D02*
X86015922Y-73818000D01*
X86533078Y-75238000D02*
X86015922Y-75238000D01*
%TO.C,D1*%
X72277000Y-74577000D02*
X69327000Y-74577000D01*
X69877000Y-77677000D02*
X72277000Y-77677000D01*
%TO.C,R1*%
X86563564Y-77095000D02*
X86109436Y-77095000D01*
X86563564Y-78565000D02*
X86109436Y-78565000D01*
%TO.C,J1*%
X93012000Y-74439000D02*
X93012000Y-78319000D01*
X89892000Y-79489000D02*
X89892000Y-78439000D01*
X91042000Y-79489000D02*
X89892000Y-79489000D01*
X89892000Y-74319000D02*
X88902000Y-74319000D01*
X89892000Y-73269000D02*
X89892000Y-74319000D01*
X91042000Y-73269000D02*
X89892000Y-73269000D01*
%TO.C,R5*%
X64162000Y-73502436D02*
X64162000Y-73956564D01*
X65632000Y-73502436D02*
X65632000Y-73956564D01*
%TO.C,C1*%
X66194000Y-73444748D02*
X66194000Y-73967252D01*
X67664000Y-73444748D02*
X67664000Y-73967252D01*
%TO.C,R2*%
X70615436Y-73679000D02*
X71069564Y-73679000D01*
X70615436Y-72209000D02*
X71069564Y-72209000D01*
%TO.C,J1*%
X93012000Y-61439000D02*
X93012000Y-65319000D01*
X89892000Y-66489000D02*
X89892000Y-65439000D01*
X91042000Y-66489000D02*
X89892000Y-66489000D01*
X89892000Y-61319000D02*
X88902000Y-61319000D01*
X89892000Y-60269000D02*
X89892000Y-61319000D01*
X91042000Y-60269000D02*
X89892000Y-60269000D01*
%TO.C,C1*%
X66194000Y-60444748D02*
X66194000Y-60967252D01*
X67664000Y-60444748D02*
X67664000Y-60967252D01*
%TO.C,R5*%
X64162000Y-60502436D02*
X64162000Y-60956564D01*
X65632000Y-60502436D02*
X65632000Y-60956564D01*
%TO.C,R2*%
X70615436Y-60679000D02*
X71069564Y-60679000D01*
X70615436Y-59209000D02*
X71069564Y-59209000D01*
%TO.C,R1*%
X86563564Y-64095000D02*
X86109436Y-64095000D01*
X86563564Y-65565000D02*
X86109436Y-65565000D01*
%TO.C,F1*%
X86533078Y-60818000D02*
X86015922Y-60818000D01*
X86533078Y-62238000D02*
X86015922Y-62238000D01*
%TO.C,D1*%
X72277000Y-61577000D02*
X69327000Y-61577000D01*
X69877000Y-64677000D02*
X72277000Y-64677000D01*
%TO.C,F1*%
D11*
X85885666Y-73119571D02*
X85552333Y-73119571D01*
X85552333Y-73643380D02*
X85552333Y-72643380D01*
X86028523Y-72643380D01*
X86933285Y-73643380D02*
X86361857Y-73643380D01*
X86647571Y-73643380D02*
X86647571Y-72643380D01*
X86552333Y-72786238D01*
X86457095Y-72881476D01*
X86361857Y-72929095D01*
%TO.C,D1*%
X70374904Y-79044380D02*
X70374904Y-78044380D01*
X70613000Y-78044380D01*
X70755857Y-78092000D01*
X70851095Y-78187238D01*
X70898714Y-78282476D01*
X70946333Y-78472952D01*
X70946333Y-78615809D01*
X70898714Y-78806285D01*
X70851095Y-78901523D01*
X70755857Y-78996761D01*
X70613000Y-79044380D01*
X70374904Y-79044380D01*
X71898714Y-79044380D02*
X71327285Y-79044380D01*
X71613000Y-79044380D02*
X71613000Y-78044380D01*
X71517761Y-78187238D01*
X71422523Y-78282476D01*
X71327285Y-78330095D01*
%TO.C,R1*%
X86169833Y-79932380D02*
X85836500Y-79456190D01*
X85598404Y-79932380D02*
X85598404Y-78932380D01*
X85979357Y-78932380D01*
X86074595Y-78980000D01*
X86122214Y-79027619D01*
X86169833Y-79122857D01*
X86169833Y-79265714D01*
X86122214Y-79360952D01*
X86074595Y-79408571D01*
X85979357Y-79456190D01*
X85598404Y-79456190D01*
X87122214Y-79932380D02*
X86550785Y-79932380D01*
X86836500Y-79932380D02*
X86836500Y-78932380D01*
X86741261Y-79075238D01*
X86646023Y-79170476D01*
X86550785Y-79218095D01*
%TO.C,J1*%
X90758380Y-76766333D02*
X91472666Y-76766333D01*
X91615523Y-76813952D01*
X91710761Y-76909190D01*
X91758380Y-77052047D01*
X91758380Y-77147285D01*
X91758380Y-75766333D02*
X91758380Y-76337761D01*
X91758380Y-76052047D02*
X90758380Y-76052047D01*
X90901238Y-76147285D01*
X90996476Y-76242523D01*
X91044095Y-76337761D01*
%TO.C,USB1*%
X77253904Y-79681380D02*
X77253904Y-80490904D01*
X77301523Y-80586142D01*
X77349142Y-80633761D01*
X77444380Y-80681380D01*
X77634857Y-80681380D01*
X77730095Y-80633761D01*
X77777714Y-80586142D01*
X77825333Y-80490904D01*
X77825333Y-79681380D01*
X78253904Y-80633761D02*
X78396761Y-80681380D01*
X78634857Y-80681380D01*
X78730095Y-80633761D01*
X78777714Y-80586142D01*
X78825333Y-80490904D01*
X78825333Y-80395666D01*
X78777714Y-80300428D01*
X78730095Y-80252809D01*
X78634857Y-80205190D01*
X78444380Y-80157571D01*
X78349142Y-80109952D01*
X78301523Y-80062333D01*
X78253904Y-79967095D01*
X78253904Y-79871857D01*
X78301523Y-79776619D01*
X78349142Y-79729000D01*
X78444380Y-79681380D01*
X78682476Y-79681380D01*
X78825333Y-79729000D01*
X79587238Y-80157571D02*
X79730095Y-80205190D01*
X79777714Y-80252809D01*
X79825333Y-80348047D01*
X79825333Y-80490904D01*
X79777714Y-80586142D01*
X79730095Y-80633761D01*
X79634857Y-80681380D01*
X79253904Y-80681380D01*
X79253904Y-79681380D01*
X79587238Y-79681380D01*
X79682476Y-79729000D01*
X79730095Y-79776619D01*
X79777714Y-79871857D01*
X79777714Y-79967095D01*
X79730095Y-80062333D01*
X79682476Y-80109952D01*
X79587238Y-80157571D01*
X79253904Y-80157571D01*
X80777714Y-80681380D02*
X80206285Y-80681380D01*
X80492000Y-80681380D02*
X80492000Y-79681380D01*
X80396761Y-79824238D01*
X80301523Y-79919476D01*
X80206285Y-79967095D01*
%TO.C,R5*%
X64723333Y-76631380D02*
X64390000Y-76155190D01*
X64151904Y-76631380D02*
X64151904Y-75631380D01*
X64532857Y-75631380D01*
X64628095Y-75679000D01*
X64675714Y-75726619D01*
X64723333Y-75821857D01*
X64723333Y-75964714D01*
X64675714Y-76059952D01*
X64628095Y-76107571D01*
X64532857Y-76155190D01*
X64151904Y-76155190D01*
X65628095Y-75631380D02*
X65151904Y-75631380D01*
X65104285Y-76107571D01*
X65151904Y-76059952D01*
X65247142Y-76012333D01*
X65485238Y-76012333D01*
X65580476Y-76059952D01*
X65628095Y-76107571D01*
X65675714Y-76202809D01*
X65675714Y-76440904D01*
X65628095Y-76536142D01*
X65580476Y-76583761D01*
X65485238Y-76631380D01*
X65247142Y-76631380D01*
X65151904Y-76583761D01*
X65104285Y-76536142D01*
%TO.C,C1*%
X66882333Y-76536142D02*
X66834714Y-76583761D01*
X66691857Y-76631380D01*
X66596619Y-76631380D01*
X66453761Y-76583761D01*
X66358523Y-76488523D01*
X66310904Y-76393285D01*
X66263285Y-76202809D01*
X66263285Y-76059952D01*
X66310904Y-75869476D01*
X66358523Y-75774238D01*
X66453761Y-75679000D01*
X66596619Y-75631380D01*
X66691857Y-75631380D01*
X66834714Y-75679000D01*
X66882333Y-75726619D01*
X67834714Y-76631380D02*
X67263285Y-76631380D01*
X67549000Y-76631380D02*
X67549000Y-75631380D01*
X67453761Y-75774238D01*
X67358523Y-75869476D01*
X67263285Y-75917095D01*
%TO.C,R2*%
X69025380Y-73170666D02*
X68549190Y-73504000D01*
X69025380Y-73742095D02*
X68025380Y-73742095D01*
X68025380Y-73361142D01*
X68073000Y-73265904D01*
X68120619Y-73218285D01*
X68215857Y-73170666D01*
X68358714Y-73170666D01*
X68453952Y-73218285D01*
X68501571Y-73265904D01*
X68549190Y-73361142D01*
X68549190Y-73742095D01*
X68120619Y-72789714D02*
X68073000Y-72742095D01*
X68025380Y-72646857D01*
X68025380Y-72408761D01*
X68073000Y-72313523D01*
X68120619Y-72265904D01*
X68215857Y-72218285D01*
X68311095Y-72218285D01*
X68453952Y-72265904D01*
X69025380Y-72837333D01*
X69025380Y-72218285D01*
%TO.C,J1*%
X90758380Y-63766333D02*
X91472666Y-63766333D01*
X91615523Y-63813952D01*
X91710761Y-63909190D01*
X91758380Y-64052047D01*
X91758380Y-64147285D01*
X91758380Y-62766333D02*
X91758380Y-63337761D01*
X91758380Y-63052047D02*
X90758380Y-63052047D01*
X90901238Y-63147285D01*
X90996476Y-63242523D01*
X91044095Y-63337761D01*
%TO.C,C1*%
X66882333Y-63536142D02*
X66834714Y-63583761D01*
X66691857Y-63631380D01*
X66596619Y-63631380D01*
X66453761Y-63583761D01*
X66358523Y-63488523D01*
X66310904Y-63393285D01*
X66263285Y-63202809D01*
X66263285Y-63059952D01*
X66310904Y-62869476D01*
X66358523Y-62774238D01*
X66453761Y-62679000D01*
X66596619Y-62631380D01*
X66691857Y-62631380D01*
X66834714Y-62679000D01*
X66882333Y-62726619D01*
X67834714Y-63631380D02*
X67263285Y-63631380D01*
X67549000Y-63631380D02*
X67549000Y-62631380D01*
X67453761Y-62774238D01*
X67358523Y-62869476D01*
X67263285Y-62917095D01*
%TO.C,USB1*%
X77253904Y-66681380D02*
X77253904Y-67490904D01*
X77301523Y-67586142D01*
X77349142Y-67633761D01*
X77444380Y-67681380D01*
X77634857Y-67681380D01*
X77730095Y-67633761D01*
X77777714Y-67586142D01*
X77825333Y-67490904D01*
X77825333Y-66681380D01*
X78253904Y-67633761D02*
X78396761Y-67681380D01*
X78634857Y-67681380D01*
X78730095Y-67633761D01*
X78777714Y-67586142D01*
X78825333Y-67490904D01*
X78825333Y-67395666D01*
X78777714Y-67300428D01*
X78730095Y-67252809D01*
X78634857Y-67205190D01*
X78444380Y-67157571D01*
X78349142Y-67109952D01*
X78301523Y-67062333D01*
X78253904Y-66967095D01*
X78253904Y-66871857D01*
X78301523Y-66776619D01*
X78349142Y-66729000D01*
X78444380Y-66681380D01*
X78682476Y-66681380D01*
X78825333Y-66729000D01*
X79587238Y-67157571D02*
X79730095Y-67205190D01*
X79777714Y-67252809D01*
X79825333Y-67348047D01*
X79825333Y-67490904D01*
X79777714Y-67586142D01*
X79730095Y-67633761D01*
X79634857Y-67681380D01*
X79253904Y-67681380D01*
X79253904Y-66681380D01*
X79587238Y-66681380D01*
X79682476Y-66729000D01*
X79730095Y-66776619D01*
X79777714Y-66871857D01*
X79777714Y-66967095D01*
X79730095Y-67062333D01*
X79682476Y-67109952D01*
X79587238Y-67157571D01*
X79253904Y-67157571D01*
X80777714Y-67681380D02*
X80206285Y-67681380D01*
X80492000Y-67681380D02*
X80492000Y-66681380D01*
X80396761Y-66824238D01*
X80301523Y-66919476D01*
X80206285Y-66967095D01*
%TO.C,R5*%
X64723333Y-63631380D02*
X64390000Y-63155190D01*
X64151904Y-63631380D02*
X64151904Y-62631380D01*
X64532857Y-62631380D01*
X64628095Y-62679000D01*
X64675714Y-62726619D01*
X64723333Y-62821857D01*
X64723333Y-62964714D01*
X64675714Y-63059952D01*
X64628095Y-63107571D01*
X64532857Y-63155190D01*
X64151904Y-63155190D01*
X65628095Y-62631380D02*
X65151904Y-62631380D01*
X65104285Y-63107571D01*
X65151904Y-63059952D01*
X65247142Y-63012333D01*
X65485238Y-63012333D01*
X65580476Y-63059952D01*
X65628095Y-63107571D01*
X65675714Y-63202809D01*
X65675714Y-63440904D01*
X65628095Y-63536142D01*
X65580476Y-63583761D01*
X65485238Y-63631380D01*
X65247142Y-63631380D01*
X65151904Y-63583761D01*
X65104285Y-63536142D01*
%TO.C,R2*%
X69025380Y-60170666D02*
X68549190Y-60504000D01*
X69025380Y-60742095D02*
X68025380Y-60742095D01*
X68025380Y-60361142D01*
X68073000Y-60265904D01*
X68120619Y-60218285D01*
X68215857Y-60170666D01*
X68358714Y-60170666D01*
X68453952Y-60218285D01*
X68501571Y-60265904D01*
X68549190Y-60361142D01*
X68549190Y-60742095D01*
X68120619Y-59789714D02*
X68073000Y-59742095D01*
X68025380Y-59646857D01*
X68025380Y-59408761D01*
X68073000Y-59313523D01*
X68120619Y-59265904D01*
X68215857Y-59218285D01*
X68311095Y-59218285D01*
X68453952Y-59265904D01*
X69025380Y-59837333D01*
X69025380Y-59218285D01*
%TO.C,R1*%
X86169833Y-66932380D02*
X85836500Y-66456190D01*
X85598404Y-66932380D02*
X85598404Y-65932380D01*
X85979357Y-65932380D01*
X86074595Y-65980000D01*
X86122214Y-66027619D01*
X86169833Y-66122857D01*
X86169833Y-66265714D01*
X86122214Y-66360952D01*
X86074595Y-66408571D01*
X85979357Y-66456190D01*
X85598404Y-66456190D01*
X87122214Y-66932380D02*
X86550785Y-66932380D01*
X86836500Y-66932380D02*
X86836500Y-65932380D01*
X86741261Y-66075238D01*
X86646023Y-66170476D01*
X86550785Y-66218095D01*
%TO.C,F1*%
X85885666Y-60119571D02*
X85552333Y-60119571D01*
X85552333Y-60643380D02*
X85552333Y-59643380D01*
X86028523Y-59643380D01*
X86933285Y-60643380D02*
X86361857Y-60643380D01*
X86647571Y-60643380D02*
X86647571Y-59643380D01*
X86552333Y-59786238D01*
X86457095Y-59881476D01*
X86361857Y-59929095D01*
%TO.C,D1*%
X70374904Y-66044380D02*
X70374904Y-65044380D01*
X70613000Y-65044380D01*
X70755857Y-65092000D01*
X70851095Y-65187238D01*
X70898714Y-65282476D01*
X70946333Y-65472952D01*
X70946333Y-65615809D01*
X70898714Y-65806285D01*
X70851095Y-65901523D01*
X70755857Y-65996761D01*
X70613000Y-66044380D01*
X70374904Y-66044380D01*
X71898714Y-66044380D02*
X71327285Y-66044380D01*
X71613000Y-66044380D02*
X71613000Y-65044380D01*
X71517761Y-65187238D01*
X71422523Y-65282476D01*
X71327285Y-65330095D01*
%TD*%
M02*
