M48
; DRILL file {KiCad 5.1.10-88a1d61d58~90~ubuntu20.04.1} date Fri Jan 21 20:10:37 2022
; FORMAT={-:-/ absolute / inch / decimal}
; #@! TF.CreationDate,2022-01-21T20:10:37-08:00
; #@! TF.GenerationSoftware,Kicad,Pcbnew,5.1.10-88a1d61d58~90~ubuntu20.04.1
; #@! TF.FileFunction,NonPlated,1,2,NPTH
FMAT,2
INCH
T1C0.0197
T2C0.0256
%
G90
G05
T1
X2.5267Y-2.7936
X2.5269Y-2.7152
X2.5562Y-2.7936
X2.5564Y-2.7152
X2.5857Y-2.7936
X2.5859Y-2.7152
X2.6152Y-2.7936
X2.6154Y-2.7152
X2.6448Y-2.7936
X2.645Y-2.7152
X3.5753Y-2.7942
X3.5755Y-2.7157
X3.6048Y-2.7942
X3.605Y-2.7157
X3.6343Y-2.7942
X3.6345Y-2.7157
X3.6639Y-2.7942
X3.6641Y-2.7157
X3.6934Y-2.7942
X3.6936Y-2.7157
T2
X2.9961Y-2.4662
X2.9961Y-2.978
X3.2237Y-2.4662
X3.2237Y-2.978
T0
M30
