M48
; DRILL file {KiCad (5.1.10)-1} date 01/12/22 21:02:28
; FORMAT={-:-/ absolute / inch / decimal}
; #@! TF.CreationDate,2022-01-12T21:02:28-06:00
; #@! TF.GenerationSoftware,Kicad,Pcbnew,(5.1.10)-1
; #@! TF.FileFunction,NonPlated,1,2,NPTH
FMAT,2
INCH
T1C0.0197
T2C0.0256
%
G90
G05
T1
X2.527Y-2.7154
X2.527Y-2.7548
X2.5566Y-2.7154
X2.5566Y-2.7548
X2.5861Y-2.7154
X2.5861Y-2.7548
X2.6156Y-2.7154
X2.6156Y-2.7548
X2.6452Y-2.7154
X2.6452Y-2.7548
X3.5753Y-2.7154
X3.5753Y-2.7548
X3.6048Y-2.7154
X3.6048Y-2.7548
X3.6343Y-2.7154
X3.6343Y-2.7548
X3.6639Y-2.7154
X3.6639Y-2.7548
X3.6934Y-2.7154
X3.6934Y-2.7548
T2
X2.9961Y-2.5287
X2.9961Y-3.0011
X3.2237Y-2.5287
X3.2237Y-3.0011
T0
M30
