%TF.GenerationSoftware,KiCad,Pcbnew,(5.1.10)-1*%
%TF.CreationDate,2022-01-12T21:02:25-06:00*%
%TF.ProjectId,kb-db_panel,6b622d64-625f-4706-916e-656c2e6b6963,rev?*%
%TF.SameCoordinates,Original*%
%TF.FileFunction,Soldermask,Top*%
%TF.FilePolarity,Negative*%
%FSLAX46Y46*%
G04 Gerber Fmt 4.6, Leading zero omitted, Abs format (unit mm)*
G04 Created by KiCad (PCBNEW (5.1.10)-1) date 2022-01-12 21:02:25*
%MOMM*%
%LPD*%
G01*
G04 APERTURE LIST*
%ADD10C,3.800000*%
%ADD11R,1.400000X1.200000*%
%ADD12R,1.400000X1.000000*%
%ADD13O,1.000000X1.600000*%
%ADD14O,1.000000X2.100000*%
%ADD15C,0.650000*%
%ADD16R,0.300000X1.450000*%
%ADD17R,0.600000X1.450000*%
G04 APERTURE END LIST*
D10*
%TO.C,H1*%
X96487000Y-75472000D03*
%TD*%
%TO.C,J1*%
G36*
G01*
X89052000Y-73579000D02*
X90302000Y-73579000D01*
G75*
G02*
X90452000Y-73729000I0J-150000D01*
G01*
X90452000Y-74029000D01*
G75*
G02*
X90302000Y-74179000I-150000J0D01*
G01*
X89052000Y-74179000D01*
G75*
G02*
X88902000Y-74029000I0J150000D01*
G01*
X88902000Y-73729000D01*
G75*
G02*
X89052000Y-73579000I150000J0D01*
G01*
G37*
G36*
G01*
X89052000Y-74579000D02*
X90302000Y-74579000D01*
G75*
G02*
X90452000Y-74729000I0J-150000D01*
G01*
X90452000Y-75029000D01*
G75*
G02*
X90302000Y-75179000I-150000J0D01*
G01*
X89052000Y-75179000D01*
G75*
G02*
X88902000Y-75029000I0J150000D01*
G01*
X88902000Y-74729000D01*
G75*
G02*
X89052000Y-74579000I150000J0D01*
G01*
G37*
G36*
G01*
X89052000Y-75579000D02*
X90302000Y-75579000D01*
G75*
G02*
X90452000Y-75729000I0J-150000D01*
G01*
X90452000Y-76029000D01*
G75*
G02*
X90302000Y-76179000I-150000J0D01*
G01*
X89052000Y-76179000D01*
G75*
G02*
X88902000Y-76029000I0J150000D01*
G01*
X88902000Y-75729000D01*
G75*
G02*
X89052000Y-75579000I150000J0D01*
G01*
G37*
G36*
G01*
X89052000Y-76579000D02*
X90302000Y-76579000D01*
G75*
G02*
X90452000Y-76729000I0J-150000D01*
G01*
X90452000Y-77029000D01*
G75*
G02*
X90302000Y-77179000I-150000J0D01*
G01*
X89052000Y-77179000D01*
G75*
G02*
X88902000Y-77029000I0J150000D01*
G01*
X88902000Y-76729000D01*
G75*
G02*
X89052000Y-76579000I150000J0D01*
G01*
G37*
G36*
G01*
X91551999Y-71979000D02*
X92852001Y-71979000D01*
G75*
G02*
X93102000Y-72228999I0J-249999D01*
G01*
X93102000Y-72929001D01*
G75*
G02*
X92852001Y-73179000I-249999J0D01*
G01*
X91551999Y-73179000D01*
G75*
G02*
X91302000Y-72929001I0J249999D01*
G01*
X91302000Y-72228999D01*
G75*
G02*
X91551999Y-71979000I249999J0D01*
G01*
G37*
G36*
G01*
X91551999Y-77579000D02*
X92852001Y-77579000D01*
G75*
G02*
X93102000Y-77828999I0J-249999D01*
G01*
X93102000Y-78529001D01*
G75*
G02*
X92852001Y-78779000I-249999J0D01*
G01*
X91551999Y-78779000D01*
G75*
G02*
X91302000Y-78529001I0J249999D01*
G01*
X91302000Y-77828999D01*
G75*
G02*
X91551999Y-77579000I249999J0D01*
G01*
G37*
%TD*%
%TO.C,C1*%
G36*
G01*
X66454000Y-71256000D02*
X67404000Y-71256000D01*
G75*
G02*
X67654000Y-71506000I0J-250000D01*
G01*
X67654000Y-72006000D01*
G75*
G02*
X67404000Y-72256000I-250000J0D01*
G01*
X66454000Y-72256000D01*
G75*
G02*
X66204000Y-72006000I0J250000D01*
G01*
X66204000Y-71506000D01*
G75*
G02*
X66454000Y-71256000I250000J0D01*
G01*
G37*
G36*
G01*
X66454000Y-73156000D02*
X67404000Y-73156000D01*
G75*
G02*
X67654000Y-73406000I0J-250000D01*
G01*
X67654000Y-73906000D01*
G75*
G02*
X67404000Y-74156000I-250000J0D01*
G01*
X66454000Y-74156000D01*
G75*
G02*
X66204000Y-73906000I0J250000D01*
G01*
X66204000Y-73406000D01*
G75*
G02*
X66454000Y-73156000I250000J0D01*
G01*
G37*
%TD*%
%TO.C,R1*%
G36*
G01*
X87761500Y-77716998D02*
X87761500Y-78617002D01*
G75*
G02*
X87511502Y-78867000I-249998J0D01*
G01*
X86986498Y-78867000D01*
G75*
G02*
X86736500Y-78617002I0J249998D01*
G01*
X86736500Y-77716998D01*
G75*
G02*
X86986498Y-77467000I249998J0D01*
G01*
X87511502Y-77467000D01*
G75*
G02*
X87761500Y-77716998I0J-249998D01*
G01*
G37*
G36*
G01*
X85936500Y-77716998D02*
X85936500Y-78617002D01*
G75*
G02*
X85686502Y-78867000I-249998J0D01*
G01*
X85161498Y-78867000D01*
G75*
G02*
X84911500Y-78617002I0J249998D01*
G01*
X84911500Y-77716998D01*
G75*
G02*
X85161498Y-77467000I249998J0D01*
G01*
X85686502Y-77467000D01*
G75*
G02*
X85936500Y-77716998I0J-249998D01*
G01*
G37*
%TD*%
%TO.C,R4*%
G36*
G01*
X87808500Y-75684998D02*
X87808500Y-76585002D01*
G75*
G02*
X87558502Y-76835000I-249998J0D01*
G01*
X87033498Y-76835000D01*
G75*
G02*
X86783500Y-76585002I0J249998D01*
G01*
X86783500Y-75684998D01*
G75*
G02*
X87033498Y-75435000I249998J0D01*
G01*
X87558502Y-75435000D01*
G75*
G02*
X87808500Y-75684998I0J-249998D01*
G01*
G37*
G36*
G01*
X85983500Y-75684998D02*
X85983500Y-76585002D01*
G75*
G02*
X85733502Y-76835000I-249998J0D01*
G01*
X85208498Y-76835000D01*
G75*
G02*
X84958500Y-76585002I0J249998D01*
G01*
X84958500Y-75684998D01*
G75*
G02*
X85208498Y-75435000I249998J0D01*
G01*
X85733502Y-75435000D01*
G75*
G02*
X85983500Y-75684998I0J-249998D01*
G01*
G37*
%TD*%
%TO.C,H2*%
X61487000Y-75472000D03*
%TD*%
D11*
%TO.C,D1*%
X69977000Y-74357000D03*
D12*
X69977000Y-76077000D03*
X72177000Y-76077000D03*
X72177000Y-74177000D03*
%TD*%
%TO.C,R5*%
G36*
G01*
X64446998Y-71304500D02*
X65347002Y-71304500D01*
G75*
G02*
X65597000Y-71554498I0J-249998D01*
G01*
X65597000Y-72079502D01*
G75*
G02*
X65347002Y-72329500I-249998J0D01*
G01*
X64446998Y-72329500D01*
G75*
G02*
X64197000Y-72079502I0J249998D01*
G01*
X64197000Y-71554498D01*
G75*
G02*
X64446998Y-71304500I249998J0D01*
G01*
G37*
G36*
G01*
X64446998Y-73129500D02*
X65347002Y-73129500D01*
G75*
G02*
X65597000Y-73379498I0J-249998D01*
G01*
X65597000Y-73904502D01*
G75*
G02*
X65347002Y-74154500I-249998J0D01*
G01*
X64446998Y-74154500D01*
G75*
G02*
X64197000Y-73904502I0J249998D01*
G01*
X64197000Y-73379498D01*
G75*
G02*
X64446998Y-73129500I249998J0D01*
G01*
G37*
%TD*%
%TO.C,F1*%
G36*
G01*
X87706500Y-71614750D02*
X87706500Y-72527250D01*
G75*
G02*
X87462750Y-72771000I-243750J0D01*
G01*
X86975250Y-72771000D01*
G75*
G02*
X86731500Y-72527250I0J243750D01*
G01*
X86731500Y-71614750D01*
G75*
G02*
X86975250Y-71371000I243750J0D01*
G01*
X87462750Y-71371000D01*
G75*
G02*
X87706500Y-71614750I0J-243750D01*
G01*
G37*
G36*
G01*
X85831500Y-71614750D02*
X85831500Y-72527250D01*
G75*
G02*
X85587750Y-72771000I-243750J0D01*
G01*
X85100250Y-72771000D01*
G75*
G02*
X84856500Y-72527250I0J243750D01*
G01*
X84856500Y-71614750D01*
G75*
G02*
X85100250Y-71371000I243750J0D01*
G01*
X85587750Y-71371000D01*
G75*
G02*
X85831500Y-71614750I0J-243750D01*
G01*
G37*
%TD*%
%TO.C,R2*%
G36*
G01*
X69417500Y-72394002D02*
X69417500Y-71493998D01*
G75*
G02*
X69667498Y-71244000I249998J0D01*
G01*
X70192502Y-71244000D01*
G75*
G02*
X70442500Y-71493998I0J-249998D01*
G01*
X70442500Y-72394002D01*
G75*
G02*
X70192502Y-72644000I-249998J0D01*
G01*
X69667498Y-72644000D01*
G75*
G02*
X69417500Y-72394002I0J249998D01*
G01*
G37*
G36*
G01*
X71242500Y-72394002D02*
X71242500Y-71493998D01*
G75*
G02*
X71492498Y-71244000I249998J0D01*
G01*
X72017502Y-71244000D01*
G75*
G02*
X72267500Y-71493998I0J-249998D01*
G01*
X72267500Y-72394002D01*
G75*
G02*
X72017502Y-72644000I-249998J0D01*
G01*
X71492498Y-72644000D01*
G75*
G02*
X71242500Y-72394002I0J249998D01*
G01*
G37*
%TD*%
%TO.C,R3*%
G36*
G01*
X87785000Y-73652998D02*
X87785000Y-74553002D01*
G75*
G02*
X87535002Y-74803000I-249998J0D01*
G01*
X87009998Y-74803000D01*
G75*
G02*
X86760000Y-74553002I0J249998D01*
G01*
X86760000Y-73652998D01*
G75*
G02*
X87009998Y-73403000I249998J0D01*
G01*
X87535002Y-73403000D01*
G75*
G02*
X87785000Y-73652998I0J-249998D01*
G01*
G37*
G36*
G01*
X85960000Y-73652998D02*
X85960000Y-74553002D01*
G75*
G02*
X85710002Y-74803000I-249998J0D01*
G01*
X85184998Y-74803000D01*
G75*
G02*
X84935000Y-74553002I0J249998D01*
G01*
X84935000Y-73652998D01*
G75*
G02*
X85184998Y-73403000I249998J0D01*
G01*
X85710002Y-73403000D01*
G75*
G02*
X85960000Y-73652998I0J-249998D01*
G01*
G37*
%TD*%
D13*
%TO.C,USB1*%
X74672000Y-72579000D03*
X83312000Y-72579000D03*
D14*
X74672000Y-76759000D03*
X83312000Y-76759000D03*
D15*
X81882000Y-76229000D03*
X76102000Y-76229000D03*
D16*
X79242000Y-77674000D03*
X78742000Y-77674000D03*
X78242000Y-77674000D03*
X79742000Y-77674000D03*
X77742000Y-77674000D03*
X80242000Y-77674000D03*
X77242000Y-77674000D03*
X80742000Y-77674000D03*
D17*
X81442000Y-77674000D03*
X76542000Y-77674000D03*
X82217000Y-77674000D03*
X75767000Y-77674000D03*
%TD*%
D10*
%TO.C,H2*%
X61487000Y-63472000D03*
%TD*%
%TO.C,H1*%
X96487000Y-63472000D03*
%TD*%
%TO.C,J1*%
G36*
G01*
X91551999Y-65579000D02*
X92852001Y-65579000D01*
G75*
G02*
X93102000Y-65828999I0J-249999D01*
G01*
X93102000Y-66529001D01*
G75*
G02*
X92852001Y-66779000I-249999J0D01*
G01*
X91551999Y-66779000D01*
G75*
G02*
X91302000Y-66529001I0J249999D01*
G01*
X91302000Y-65828999D01*
G75*
G02*
X91551999Y-65579000I249999J0D01*
G01*
G37*
G36*
G01*
X91551999Y-59979000D02*
X92852001Y-59979000D01*
G75*
G02*
X93102000Y-60228999I0J-249999D01*
G01*
X93102000Y-60929001D01*
G75*
G02*
X92852001Y-61179000I-249999J0D01*
G01*
X91551999Y-61179000D01*
G75*
G02*
X91302000Y-60929001I0J249999D01*
G01*
X91302000Y-60228999D01*
G75*
G02*
X91551999Y-59979000I249999J0D01*
G01*
G37*
G36*
G01*
X89052000Y-64579000D02*
X90302000Y-64579000D01*
G75*
G02*
X90452000Y-64729000I0J-150000D01*
G01*
X90452000Y-65029000D01*
G75*
G02*
X90302000Y-65179000I-150000J0D01*
G01*
X89052000Y-65179000D01*
G75*
G02*
X88902000Y-65029000I0J150000D01*
G01*
X88902000Y-64729000D01*
G75*
G02*
X89052000Y-64579000I150000J0D01*
G01*
G37*
G36*
G01*
X89052000Y-63579000D02*
X90302000Y-63579000D01*
G75*
G02*
X90452000Y-63729000I0J-150000D01*
G01*
X90452000Y-64029000D01*
G75*
G02*
X90302000Y-64179000I-150000J0D01*
G01*
X89052000Y-64179000D01*
G75*
G02*
X88902000Y-64029000I0J150000D01*
G01*
X88902000Y-63729000D01*
G75*
G02*
X89052000Y-63579000I150000J0D01*
G01*
G37*
G36*
G01*
X89052000Y-62579000D02*
X90302000Y-62579000D01*
G75*
G02*
X90452000Y-62729000I0J-150000D01*
G01*
X90452000Y-63029000D01*
G75*
G02*
X90302000Y-63179000I-150000J0D01*
G01*
X89052000Y-63179000D01*
G75*
G02*
X88902000Y-63029000I0J150000D01*
G01*
X88902000Y-62729000D01*
G75*
G02*
X89052000Y-62579000I150000J0D01*
G01*
G37*
G36*
G01*
X89052000Y-61579000D02*
X90302000Y-61579000D01*
G75*
G02*
X90452000Y-61729000I0J-150000D01*
G01*
X90452000Y-62029000D01*
G75*
G02*
X90302000Y-62179000I-150000J0D01*
G01*
X89052000Y-62179000D01*
G75*
G02*
X88902000Y-62029000I0J150000D01*
G01*
X88902000Y-61729000D01*
G75*
G02*
X89052000Y-61579000I150000J0D01*
G01*
G37*
%TD*%
%TO.C,C1*%
G36*
G01*
X66454000Y-61156000D02*
X67404000Y-61156000D01*
G75*
G02*
X67654000Y-61406000I0J-250000D01*
G01*
X67654000Y-61906000D01*
G75*
G02*
X67404000Y-62156000I-250000J0D01*
G01*
X66454000Y-62156000D01*
G75*
G02*
X66204000Y-61906000I0J250000D01*
G01*
X66204000Y-61406000D01*
G75*
G02*
X66454000Y-61156000I250000J0D01*
G01*
G37*
G36*
G01*
X66454000Y-59256000D02*
X67404000Y-59256000D01*
G75*
G02*
X67654000Y-59506000I0J-250000D01*
G01*
X67654000Y-60006000D01*
G75*
G02*
X67404000Y-60256000I-250000J0D01*
G01*
X66454000Y-60256000D01*
G75*
G02*
X66204000Y-60006000I0J250000D01*
G01*
X66204000Y-59506000D01*
G75*
G02*
X66454000Y-59256000I250000J0D01*
G01*
G37*
%TD*%
D17*
%TO.C,USB1*%
X75767000Y-65674000D03*
X82217000Y-65674000D03*
X76542000Y-65674000D03*
X81442000Y-65674000D03*
D16*
X80742000Y-65674000D03*
X77242000Y-65674000D03*
X80242000Y-65674000D03*
X77742000Y-65674000D03*
X79742000Y-65674000D03*
X78242000Y-65674000D03*
X78742000Y-65674000D03*
X79242000Y-65674000D03*
D15*
X76102000Y-64229000D03*
X81882000Y-64229000D03*
D14*
X83312000Y-64759000D03*
X74672000Y-64759000D03*
D13*
X83312000Y-60579000D03*
X74672000Y-60579000D03*
%TD*%
%TO.C,R5*%
G36*
G01*
X64446998Y-61129500D02*
X65347002Y-61129500D01*
G75*
G02*
X65597000Y-61379498I0J-249998D01*
G01*
X65597000Y-61904502D01*
G75*
G02*
X65347002Y-62154500I-249998J0D01*
G01*
X64446998Y-62154500D01*
G75*
G02*
X64197000Y-61904502I0J249998D01*
G01*
X64197000Y-61379498D01*
G75*
G02*
X64446998Y-61129500I249998J0D01*
G01*
G37*
G36*
G01*
X64446998Y-59304500D02*
X65347002Y-59304500D01*
G75*
G02*
X65597000Y-59554498I0J-249998D01*
G01*
X65597000Y-60079502D01*
G75*
G02*
X65347002Y-60329500I-249998J0D01*
G01*
X64446998Y-60329500D01*
G75*
G02*
X64197000Y-60079502I0J249998D01*
G01*
X64197000Y-59554498D01*
G75*
G02*
X64446998Y-59304500I249998J0D01*
G01*
G37*
%TD*%
%TO.C,R4*%
G36*
G01*
X85983500Y-63684998D02*
X85983500Y-64585002D01*
G75*
G02*
X85733502Y-64835000I-249998J0D01*
G01*
X85208498Y-64835000D01*
G75*
G02*
X84958500Y-64585002I0J249998D01*
G01*
X84958500Y-63684998D01*
G75*
G02*
X85208498Y-63435000I249998J0D01*
G01*
X85733502Y-63435000D01*
G75*
G02*
X85983500Y-63684998I0J-249998D01*
G01*
G37*
G36*
G01*
X87808500Y-63684998D02*
X87808500Y-64585002D01*
G75*
G02*
X87558502Y-64835000I-249998J0D01*
G01*
X87033498Y-64835000D01*
G75*
G02*
X86783500Y-64585002I0J249998D01*
G01*
X86783500Y-63684998D01*
G75*
G02*
X87033498Y-63435000I249998J0D01*
G01*
X87558502Y-63435000D01*
G75*
G02*
X87808500Y-63684998I0J-249998D01*
G01*
G37*
%TD*%
%TO.C,R3*%
G36*
G01*
X85960000Y-61652998D02*
X85960000Y-62553002D01*
G75*
G02*
X85710002Y-62803000I-249998J0D01*
G01*
X85184998Y-62803000D01*
G75*
G02*
X84935000Y-62553002I0J249998D01*
G01*
X84935000Y-61652998D01*
G75*
G02*
X85184998Y-61403000I249998J0D01*
G01*
X85710002Y-61403000D01*
G75*
G02*
X85960000Y-61652998I0J-249998D01*
G01*
G37*
G36*
G01*
X87785000Y-61652998D02*
X87785000Y-62553002D01*
G75*
G02*
X87535002Y-62803000I-249998J0D01*
G01*
X87009998Y-62803000D01*
G75*
G02*
X86760000Y-62553002I0J249998D01*
G01*
X86760000Y-61652998D01*
G75*
G02*
X87009998Y-61403000I249998J0D01*
G01*
X87535002Y-61403000D01*
G75*
G02*
X87785000Y-61652998I0J-249998D01*
G01*
G37*
%TD*%
%TO.C,R2*%
G36*
G01*
X71242500Y-60394002D02*
X71242500Y-59493998D01*
G75*
G02*
X71492498Y-59244000I249998J0D01*
G01*
X72017502Y-59244000D01*
G75*
G02*
X72267500Y-59493998I0J-249998D01*
G01*
X72267500Y-60394002D01*
G75*
G02*
X72017502Y-60644000I-249998J0D01*
G01*
X71492498Y-60644000D01*
G75*
G02*
X71242500Y-60394002I0J249998D01*
G01*
G37*
G36*
G01*
X69417500Y-60394002D02*
X69417500Y-59493998D01*
G75*
G02*
X69667498Y-59244000I249998J0D01*
G01*
X70192502Y-59244000D01*
G75*
G02*
X70442500Y-59493998I0J-249998D01*
G01*
X70442500Y-60394002D01*
G75*
G02*
X70192502Y-60644000I-249998J0D01*
G01*
X69667498Y-60644000D01*
G75*
G02*
X69417500Y-60394002I0J249998D01*
G01*
G37*
%TD*%
%TO.C,R1*%
G36*
G01*
X85936500Y-65716998D02*
X85936500Y-66617002D01*
G75*
G02*
X85686502Y-66867000I-249998J0D01*
G01*
X85161498Y-66867000D01*
G75*
G02*
X84911500Y-66617002I0J249998D01*
G01*
X84911500Y-65716998D01*
G75*
G02*
X85161498Y-65467000I249998J0D01*
G01*
X85686502Y-65467000D01*
G75*
G02*
X85936500Y-65716998I0J-249998D01*
G01*
G37*
G36*
G01*
X87761500Y-65716998D02*
X87761500Y-66617002D01*
G75*
G02*
X87511502Y-66867000I-249998J0D01*
G01*
X86986498Y-66867000D01*
G75*
G02*
X86736500Y-66617002I0J249998D01*
G01*
X86736500Y-65716998D01*
G75*
G02*
X86986498Y-65467000I249998J0D01*
G01*
X87511502Y-65467000D01*
G75*
G02*
X87761500Y-65716998I0J-249998D01*
G01*
G37*
%TD*%
%TO.C,F1*%
G36*
G01*
X85831500Y-59614750D02*
X85831500Y-60527250D01*
G75*
G02*
X85587750Y-60771000I-243750J0D01*
G01*
X85100250Y-60771000D01*
G75*
G02*
X84856500Y-60527250I0J243750D01*
G01*
X84856500Y-59614750D01*
G75*
G02*
X85100250Y-59371000I243750J0D01*
G01*
X85587750Y-59371000D01*
G75*
G02*
X85831500Y-59614750I0J-243750D01*
G01*
G37*
G36*
G01*
X87706500Y-59614750D02*
X87706500Y-60527250D01*
G75*
G02*
X87462750Y-60771000I-243750J0D01*
G01*
X86975250Y-60771000D01*
G75*
G02*
X86731500Y-60527250I0J243750D01*
G01*
X86731500Y-59614750D01*
G75*
G02*
X86975250Y-59371000I243750J0D01*
G01*
X87462750Y-59371000D01*
G75*
G02*
X87706500Y-59614750I0J-243750D01*
G01*
G37*
%TD*%
D12*
%TO.C,D1*%
X72177000Y-62177000D03*
X72177000Y-64077000D03*
X69977000Y-64077000D03*
D11*
X69977000Y-62357000D03*
%TD*%
M02*
