%TF.GenerationSoftware,KiCad,Pcbnew,(5.1.10)-1*%
%TF.CreationDate,2022-01-12T21:02:25-06:00*%
%TF.ProjectId,kb-db_panel,6b622d64-625f-4706-916e-656c2e6b6963,rev?*%
%TF.SameCoordinates,Original*%
%TF.FileFunction,Copper,L1,Top*%
%TF.FilePolarity,Positive*%
%FSLAX46Y46*%
G04 Gerber Fmt 4.6, Leading zero omitted, Abs format (unit mm)*
G04 Created by KiCad (PCBNEW (5.1.10)-1) date 2022-01-12 21:02:25*
%MOMM*%
%LPD*%
G01*
G04 APERTURE LIST*
%TA.AperFunction,ComponentPad*%
%ADD10C,3.800000*%
%TD*%
%TA.AperFunction,SMDPad,CuDef*%
%ADD11R,1.400000X1.200000*%
%TD*%
%TA.AperFunction,SMDPad,CuDef*%
%ADD12R,1.400000X1.000000*%
%TD*%
%TA.AperFunction,ComponentPad*%
%ADD13O,1.000000X1.600000*%
%TD*%
%TA.AperFunction,ComponentPad*%
%ADD14O,1.000000X2.100000*%
%TD*%
%TA.AperFunction,SMDPad,CuDef*%
%ADD15R,0.300000X1.450000*%
%TD*%
%TA.AperFunction,SMDPad,CuDef*%
%ADD16R,0.600000X1.450000*%
%TD*%
%TA.AperFunction,ViaPad*%
%ADD17C,0.800000*%
%TD*%
%TA.AperFunction,Conductor*%
%ADD18C,0.250000*%
%TD*%
%TA.AperFunction,Conductor*%
%ADD19C,0.254000*%
%TD*%
%TA.AperFunction,Conductor*%
%ADD20C,0.100000*%
%TD*%
%TA.AperFunction,NonConductor*%
%ADD21C,0.254000*%
%TD*%
%TA.AperFunction,NonConductor*%
%ADD22C,0.100000*%
%TD*%
G04 APERTURE END LIST*
D10*
%TO.P,H1,1*%
%TO.N,N/C*%
X96487000Y-75472000D03*
%TD*%
%TO.P,J1,1*%
%TO.N,N/C*%
%TA.AperFunction,SMDPad,CuDef*%
G36*
G01*
X89052000Y-73579000D02*
X90302000Y-73579000D01*
G75*
G02*
X90452000Y-73729000I0J-150000D01*
G01*
X90452000Y-74029000D01*
G75*
G02*
X90302000Y-74179000I-150000J0D01*
G01*
X89052000Y-74179000D01*
G75*
G02*
X88902000Y-74029000I0J150000D01*
G01*
X88902000Y-73729000D01*
G75*
G02*
X89052000Y-73579000I150000J0D01*
G01*
G37*
%TD.AperFunction*%
%TO.P,J1,2*%
%TA.AperFunction,SMDPad,CuDef*%
G36*
G01*
X89052000Y-74579000D02*
X90302000Y-74579000D01*
G75*
G02*
X90452000Y-74729000I0J-150000D01*
G01*
X90452000Y-75029000D01*
G75*
G02*
X90302000Y-75179000I-150000J0D01*
G01*
X89052000Y-75179000D01*
G75*
G02*
X88902000Y-75029000I0J150000D01*
G01*
X88902000Y-74729000D01*
G75*
G02*
X89052000Y-74579000I150000J0D01*
G01*
G37*
%TD.AperFunction*%
%TO.P,J1,3*%
%TA.AperFunction,SMDPad,CuDef*%
G36*
G01*
X89052000Y-75579000D02*
X90302000Y-75579000D01*
G75*
G02*
X90452000Y-75729000I0J-150000D01*
G01*
X90452000Y-76029000D01*
G75*
G02*
X90302000Y-76179000I-150000J0D01*
G01*
X89052000Y-76179000D01*
G75*
G02*
X88902000Y-76029000I0J150000D01*
G01*
X88902000Y-75729000D01*
G75*
G02*
X89052000Y-75579000I150000J0D01*
G01*
G37*
%TD.AperFunction*%
%TO.P,J1,4*%
%TA.AperFunction,SMDPad,CuDef*%
G36*
G01*
X89052000Y-76579000D02*
X90302000Y-76579000D01*
G75*
G02*
X90452000Y-76729000I0J-150000D01*
G01*
X90452000Y-77029000D01*
G75*
G02*
X90302000Y-77179000I-150000J0D01*
G01*
X89052000Y-77179000D01*
G75*
G02*
X88902000Y-77029000I0J150000D01*
G01*
X88902000Y-76729000D01*
G75*
G02*
X89052000Y-76579000I150000J0D01*
G01*
G37*
%TD.AperFunction*%
%TO.P,J1,MP*%
%TA.AperFunction,SMDPad,CuDef*%
G36*
G01*
X91551999Y-71979000D02*
X92852001Y-71979000D01*
G75*
G02*
X93102000Y-72228999I0J-249999D01*
G01*
X93102000Y-72929001D01*
G75*
G02*
X92852001Y-73179000I-249999J0D01*
G01*
X91551999Y-73179000D01*
G75*
G02*
X91302000Y-72929001I0J249999D01*
G01*
X91302000Y-72228999D01*
G75*
G02*
X91551999Y-71979000I249999J0D01*
G01*
G37*
%TD.AperFunction*%
%TA.AperFunction,SMDPad,CuDef*%
G36*
G01*
X91551999Y-77579000D02*
X92852001Y-77579000D01*
G75*
G02*
X93102000Y-77828999I0J-249999D01*
G01*
X93102000Y-78529001D01*
G75*
G02*
X92852001Y-78779000I-249999J0D01*
G01*
X91551999Y-78779000D01*
G75*
G02*
X91302000Y-78529001I0J249999D01*
G01*
X91302000Y-77828999D01*
G75*
G02*
X91551999Y-77579000I249999J0D01*
G01*
G37*
%TD.AperFunction*%
%TD*%
%TO.P,C1,1*%
%TO.N,N/C*%
%TA.AperFunction,SMDPad,CuDef*%
G36*
G01*
X66454000Y-71256000D02*
X67404000Y-71256000D01*
G75*
G02*
X67654000Y-71506000I0J-250000D01*
G01*
X67654000Y-72006000D01*
G75*
G02*
X67404000Y-72256000I-250000J0D01*
G01*
X66454000Y-72256000D01*
G75*
G02*
X66204000Y-72006000I0J250000D01*
G01*
X66204000Y-71506000D01*
G75*
G02*
X66454000Y-71256000I250000J0D01*
G01*
G37*
%TD.AperFunction*%
%TO.P,C1,2*%
%TA.AperFunction,SMDPad,CuDef*%
G36*
G01*
X66454000Y-73156000D02*
X67404000Y-73156000D01*
G75*
G02*
X67654000Y-73406000I0J-250000D01*
G01*
X67654000Y-73906000D01*
G75*
G02*
X67404000Y-74156000I-250000J0D01*
G01*
X66454000Y-74156000D01*
G75*
G02*
X66204000Y-73906000I0J250000D01*
G01*
X66204000Y-73406000D01*
G75*
G02*
X66454000Y-73156000I250000J0D01*
G01*
G37*
%TD.AperFunction*%
%TD*%
%TO.P,R1,1*%
%TO.N,N/C*%
%TA.AperFunction,SMDPad,CuDef*%
G36*
G01*
X87761500Y-77716998D02*
X87761500Y-78617002D01*
G75*
G02*
X87511502Y-78867000I-249998J0D01*
G01*
X86986498Y-78867000D01*
G75*
G02*
X86736500Y-78617002I0J249998D01*
G01*
X86736500Y-77716998D01*
G75*
G02*
X86986498Y-77467000I249998J0D01*
G01*
X87511502Y-77467000D01*
G75*
G02*
X87761500Y-77716998I0J-249998D01*
G01*
G37*
%TD.AperFunction*%
%TO.P,R1,2*%
%TA.AperFunction,SMDPad,CuDef*%
G36*
G01*
X85936500Y-77716998D02*
X85936500Y-78617002D01*
G75*
G02*
X85686502Y-78867000I-249998J0D01*
G01*
X85161498Y-78867000D01*
G75*
G02*
X84911500Y-78617002I0J249998D01*
G01*
X84911500Y-77716998D01*
G75*
G02*
X85161498Y-77467000I249998J0D01*
G01*
X85686502Y-77467000D01*
G75*
G02*
X85936500Y-77716998I0J-249998D01*
G01*
G37*
%TD.AperFunction*%
%TD*%
%TO.P,R4,1*%
%TO.N,N/C*%
%TA.AperFunction,SMDPad,CuDef*%
G36*
G01*
X87808500Y-75684998D02*
X87808500Y-76585002D01*
G75*
G02*
X87558502Y-76835000I-249998J0D01*
G01*
X87033498Y-76835000D01*
G75*
G02*
X86783500Y-76585002I0J249998D01*
G01*
X86783500Y-75684998D01*
G75*
G02*
X87033498Y-75435000I249998J0D01*
G01*
X87558502Y-75435000D01*
G75*
G02*
X87808500Y-75684998I0J-249998D01*
G01*
G37*
%TD.AperFunction*%
%TO.P,R4,2*%
%TA.AperFunction,SMDPad,CuDef*%
G36*
G01*
X85983500Y-75684998D02*
X85983500Y-76585002D01*
G75*
G02*
X85733502Y-76835000I-249998J0D01*
G01*
X85208498Y-76835000D01*
G75*
G02*
X84958500Y-76585002I0J249998D01*
G01*
X84958500Y-75684998D01*
G75*
G02*
X85208498Y-75435000I249998J0D01*
G01*
X85733502Y-75435000D01*
G75*
G02*
X85983500Y-75684998I0J-249998D01*
G01*
G37*
%TD.AperFunction*%
%TD*%
%TO.P,H2,1*%
%TO.N,N/C*%
X61487000Y-75472000D03*
%TD*%
D11*
%TO.P,D1,1*%
%TO.N,N/C*%
X69977000Y-74357000D03*
D12*
%TO.P,D1,2*%
X69977000Y-76077000D03*
%TO.P,D1,3*%
X72177000Y-76077000D03*
%TO.P,D1,4*%
X72177000Y-74177000D03*
%TD*%
%TO.P,R5,1*%
%TO.N,N/C*%
%TA.AperFunction,SMDPad,CuDef*%
G36*
G01*
X64446998Y-71304500D02*
X65347002Y-71304500D01*
G75*
G02*
X65597000Y-71554498I0J-249998D01*
G01*
X65597000Y-72079502D01*
G75*
G02*
X65347002Y-72329500I-249998J0D01*
G01*
X64446998Y-72329500D01*
G75*
G02*
X64197000Y-72079502I0J249998D01*
G01*
X64197000Y-71554498D01*
G75*
G02*
X64446998Y-71304500I249998J0D01*
G01*
G37*
%TD.AperFunction*%
%TO.P,R5,2*%
%TA.AperFunction,SMDPad,CuDef*%
G36*
G01*
X64446998Y-73129500D02*
X65347002Y-73129500D01*
G75*
G02*
X65597000Y-73379498I0J-249998D01*
G01*
X65597000Y-73904502D01*
G75*
G02*
X65347002Y-74154500I-249998J0D01*
G01*
X64446998Y-74154500D01*
G75*
G02*
X64197000Y-73904502I0J249998D01*
G01*
X64197000Y-73379498D01*
G75*
G02*
X64446998Y-73129500I249998J0D01*
G01*
G37*
%TD.AperFunction*%
%TD*%
%TO.P,F1,1*%
%TO.N,N/C*%
%TA.AperFunction,SMDPad,CuDef*%
G36*
G01*
X87706500Y-71614750D02*
X87706500Y-72527250D01*
G75*
G02*
X87462750Y-72771000I-243750J0D01*
G01*
X86975250Y-72771000D01*
G75*
G02*
X86731500Y-72527250I0J243750D01*
G01*
X86731500Y-71614750D01*
G75*
G02*
X86975250Y-71371000I243750J0D01*
G01*
X87462750Y-71371000D01*
G75*
G02*
X87706500Y-71614750I0J-243750D01*
G01*
G37*
%TD.AperFunction*%
%TO.P,F1,2*%
%TA.AperFunction,SMDPad,CuDef*%
G36*
G01*
X85831500Y-71614750D02*
X85831500Y-72527250D01*
G75*
G02*
X85587750Y-72771000I-243750J0D01*
G01*
X85100250Y-72771000D01*
G75*
G02*
X84856500Y-72527250I0J243750D01*
G01*
X84856500Y-71614750D01*
G75*
G02*
X85100250Y-71371000I243750J0D01*
G01*
X85587750Y-71371000D01*
G75*
G02*
X85831500Y-71614750I0J-243750D01*
G01*
G37*
%TD.AperFunction*%
%TD*%
%TO.P,R2,1*%
%TO.N,N/C*%
%TA.AperFunction,SMDPad,CuDef*%
G36*
G01*
X69417500Y-72394002D02*
X69417500Y-71493998D01*
G75*
G02*
X69667498Y-71244000I249998J0D01*
G01*
X70192502Y-71244000D01*
G75*
G02*
X70442500Y-71493998I0J-249998D01*
G01*
X70442500Y-72394002D01*
G75*
G02*
X70192502Y-72644000I-249998J0D01*
G01*
X69667498Y-72644000D01*
G75*
G02*
X69417500Y-72394002I0J249998D01*
G01*
G37*
%TD.AperFunction*%
%TO.P,R2,2*%
%TA.AperFunction,SMDPad,CuDef*%
G36*
G01*
X71242500Y-72394002D02*
X71242500Y-71493998D01*
G75*
G02*
X71492498Y-71244000I249998J0D01*
G01*
X72017502Y-71244000D01*
G75*
G02*
X72267500Y-71493998I0J-249998D01*
G01*
X72267500Y-72394002D01*
G75*
G02*
X72017502Y-72644000I-249998J0D01*
G01*
X71492498Y-72644000D01*
G75*
G02*
X71242500Y-72394002I0J249998D01*
G01*
G37*
%TD.AperFunction*%
%TD*%
%TO.P,R3,1*%
%TO.N,N/C*%
%TA.AperFunction,SMDPad,CuDef*%
G36*
G01*
X87785000Y-73652998D02*
X87785000Y-74553002D01*
G75*
G02*
X87535002Y-74803000I-249998J0D01*
G01*
X87009998Y-74803000D01*
G75*
G02*
X86760000Y-74553002I0J249998D01*
G01*
X86760000Y-73652998D01*
G75*
G02*
X87009998Y-73403000I249998J0D01*
G01*
X87535002Y-73403000D01*
G75*
G02*
X87785000Y-73652998I0J-249998D01*
G01*
G37*
%TD.AperFunction*%
%TO.P,R3,2*%
%TA.AperFunction,SMDPad,CuDef*%
G36*
G01*
X85960000Y-73652998D02*
X85960000Y-74553002D01*
G75*
G02*
X85710002Y-74803000I-249998J0D01*
G01*
X85184998Y-74803000D01*
G75*
G02*
X84935000Y-74553002I0J249998D01*
G01*
X84935000Y-73652998D01*
G75*
G02*
X85184998Y-73403000I249998J0D01*
G01*
X85710002Y-73403000D01*
G75*
G02*
X85960000Y-73652998I0J-249998D01*
G01*
G37*
%TD.AperFunction*%
%TD*%
D13*
%TO.P,USB1,13*%
%TO.N,N/C*%
X74672000Y-72579000D03*
X83312000Y-72579000D03*
D14*
X74672000Y-76759000D03*
X83312000Y-76759000D03*
D15*
%TO.P,USB1,6*%
X79242000Y-77674000D03*
%TO.P,USB1,7*%
X78742000Y-77674000D03*
%TO.P,USB1,8*%
X78242000Y-77674000D03*
%TO.P,USB1,5*%
X79742000Y-77674000D03*
%TO.P,USB1,9*%
X77742000Y-77674000D03*
%TO.P,USB1,4*%
X80242000Y-77674000D03*
%TO.P,USB1,10*%
X77242000Y-77674000D03*
%TO.P,USB1,3*%
X80742000Y-77674000D03*
D16*
%TO.P,USB1,2*%
X81442000Y-77674000D03*
%TO.P,USB1,11*%
X76542000Y-77674000D03*
%TO.P,USB1,1*%
X82217000Y-77674000D03*
%TO.P,USB1,12*%
X75767000Y-77674000D03*
%TD*%
D10*
%TO.P,H2,1*%
%TO.N,Earth*%
X61487000Y-63472000D03*
%TD*%
%TO.P,H1,1*%
%TO.N,Earth*%
X96487000Y-63472000D03*
%TD*%
%TO.P,J1,MP*%
%TO.N,N/C*%
%TA.AperFunction,SMDPad,CuDef*%
G36*
G01*
X91551999Y-65579000D02*
X92852001Y-65579000D01*
G75*
G02*
X93102000Y-65828999I0J-249999D01*
G01*
X93102000Y-66529001D01*
G75*
G02*
X92852001Y-66779000I-249999J0D01*
G01*
X91551999Y-66779000D01*
G75*
G02*
X91302000Y-66529001I0J249999D01*
G01*
X91302000Y-65828999D01*
G75*
G02*
X91551999Y-65579000I249999J0D01*
G01*
G37*
%TD.AperFunction*%
%TA.AperFunction,SMDPad,CuDef*%
G36*
G01*
X91551999Y-59979000D02*
X92852001Y-59979000D01*
G75*
G02*
X93102000Y-60228999I0J-249999D01*
G01*
X93102000Y-60929001D01*
G75*
G02*
X92852001Y-61179000I-249999J0D01*
G01*
X91551999Y-61179000D01*
G75*
G02*
X91302000Y-60929001I0J249999D01*
G01*
X91302000Y-60228999D01*
G75*
G02*
X91551999Y-59979000I249999J0D01*
G01*
G37*
%TD.AperFunction*%
%TO.P,J1,4*%
%TO.N,GND*%
%TA.AperFunction,SMDPad,CuDef*%
G36*
G01*
X89052000Y-64579000D02*
X90302000Y-64579000D01*
G75*
G02*
X90452000Y-64729000I0J-150000D01*
G01*
X90452000Y-65029000D01*
G75*
G02*
X90302000Y-65179000I-150000J0D01*
G01*
X89052000Y-65179000D01*
G75*
G02*
X88902000Y-65029000I0J150000D01*
G01*
X88902000Y-64729000D01*
G75*
G02*
X89052000Y-64579000I150000J0D01*
G01*
G37*
%TD.AperFunction*%
%TO.P,J1,3*%
%TO.N,D+*%
%TA.AperFunction,SMDPad,CuDef*%
G36*
G01*
X89052000Y-63579000D02*
X90302000Y-63579000D01*
G75*
G02*
X90452000Y-63729000I0J-150000D01*
G01*
X90452000Y-64029000D01*
G75*
G02*
X90302000Y-64179000I-150000J0D01*
G01*
X89052000Y-64179000D01*
G75*
G02*
X88902000Y-64029000I0J150000D01*
G01*
X88902000Y-63729000D01*
G75*
G02*
X89052000Y-63579000I150000J0D01*
G01*
G37*
%TD.AperFunction*%
%TO.P,J1,2*%
%TO.N,D-*%
%TA.AperFunction,SMDPad,CuDef*%
G36*
G01*
X89052000Y-62579000D02*
X90302000Y-62579000D01*
G75*
G02*
X90452000Y-62729000I0J-150000D01*
G01*
X90452000Y-63029000D01*
G75*
G02*
X90302000Y-63179000I-150000J0D01*
G01*
X89052000Y-63179000D01*
G75*
G02*
X88902000Y-63029000I0J150000D01*
G01*
X88902000Y-62729000D01*
G75*
G02*
X89052000Y-62579000I150000J0D01*
G01*
G37*
%TD.AperFunction*%
%TO.P,J1,1*%
%TO.N,+5V*%
%TA.AperFunction,SMDPad,CuDef*%
G36*
G01*
X89052000Y-61579000D02*
X90302000Y-61579000D01*
G75*
G02*
X90452000Y-61729000I0J-150000D01*
G01*
X90452000Y-62029000D01*
G75*
G02*
X90302000Y-62179000I-150000J0D01*
G01*
X89052000Y-62179000D01*
G75*
G02*
X88902000Y-62029000I0J150000D01*
G01*
X88902000Y-61729000D01*
G75*
G02*
X89052000Y-61579000I150000J0D01*
G01*
G37*
%TD.AperFunction*%
%TD*%
%TO.P,C1,2*%
%TO.N,GND*%
%TA.AperFunction,SMDPad,CuDef*%
G36*
G01*
X66454000Y-61156000D02*
X67404000Y-61156000D01*
G75*
G02*
X67654000Y-61406000I0J-250000D01*
G01*
X67654000Y-61906000D01*
G75*
G02*
X67404000Y-62156000I-250000J0D01*
G01*
X66454000Y-62156000D01*
G75*
G02*
X66204000Y-61906000I0J250000D01*
G01*
X66204000Y-61406000D01*
G75*
G02*
X66454000Y-61156000I250000J0D01*
G01*
G37*
%TD.AperFunction*%
%TO.P,C1,1*%
%TO.N,Earth*%
%TA.AperFunction,SMDPad,CuDef*%
G36*
G01*
X66454000Y-59256000D02*
X67404000Y-59256000D01*
G75*
G02*
X67654000Y-59506000I0J-250000D01*
G01*
X67654000Y-60006000D01*
G75*
G02*
X67404000Y-60256000I-250000J0D01*
G01*
X66454000Y-60256000D01*
G75*
G02*
X66204000Y-60006000I0J250000D01*
G01*
X66204000Y-59506000D01*
G75*
G02*
X66454000Y-59256000I250000J0D01*
G01*
G37*
%TD.AperFunction*%
%TD*%
D16*
%TO.P,USB1,12*%
%TO.N,GND*%
X75767000Y-65674000D03*
%TO.P,USB1,1*%
X82217000Y-65674000D03*
%TO.P,USB1,11*%
%TO.N,VCC*%
X76542000Y-65674000D03*
%TO.P,USB1,2*%
X81442000Y-65674000D03*
D15*
%TO.P,USB1,3*%
%TO.N,Net-(USB1-Pad3)*%
X80742000Y-65674000D03*
%TO.P,USB1,10*%
%TO.N,Net-(R2-Pad2)*%
X77242000Y-65674000D03*
%TO.P,USB1,4*%
%TO.N,Net-(R1-Pad2)*%
X80242000Y-65674000D03*
%TO.P,USB1,9*%
%TO.N,Net-(USB1-Pad9)*%
X77742000Y-65674000D03*
%TO.P,USB1,5*%
%TO.N,DBUS-*%
X79742000Y-65674000D03*
%TO.P,USB1,8*%
%TO.N,DBUS+*%
X78242000Y-65674000D03*
%TO.P,USB1,7*%
%TO.N,DBUS-*%
X78742000Y-65674000D03*
%TO.P,USB1,6*%
%TO.N,DBUS+*%
X79242000Y-65674000D03*
D14*
%TO.P,USB1,13*%
%TO.N,Earth*%
X83312000Y-64759000D03*
X74672000Y-64759000D03*
D13*
X83312000Y-60579000D03*
X74672000Y-60579000D03*
%TD*%
%TO.P,R5,2*%
%TO.N,GND*%
%TA.AperFunction,SMDPad,CuDef*%
G36*
G01*
X64446998Y-61129500D02*
X65347002Y-61129500D01*
G75*
G02*
X65597000Y-61379498I0J-249998D01*
G01*
X65597000Y-61904502D01*
G75*
G02*
X65347002Y-62154500I-249998J0D01*
G01*
X64446998Y-62154500D01*
G75*
G02*
X64197000Y-61904502I0J249998D01*
G01*
X64197000Y-61379498D01*
G75*
G02*
X64446998Y-61129500I249998J0D01*
G01*
G37*
%TD.AperFunction*%
%TO.P,R5,1*%
%TO.N,Earth*%
%TA.AperFunction,SMDPad,CuDef*%
G36*
G01*
X64446998Y-59304500D02*
X65347002Y-59304500D01*
G75*
G02*
X65597000Y-59554498I0J-249998D01*
G01*
X65597000Y-60079502D01*
G75*
G02*
X65347002Y-60329500I-249998J0D01*
G01*
X64446998Y-60329500D01*
G75*
G02*
X64197000Y-60079502I0J249998D01*
G01*
X64197000Y-59554498D01*
G75*
G02*
X64446998Y-59304500I249998J0D01*
G01*
G37*
%TD.AperFunction*%
%TD*%
%TO.P,R4,2*%
%TO.N,DBUS+*%
%TA.AperFunction,SMDPad,CuDef*%
G36*
G01*
X85983500Y-63684998D02*
X85983500Y-64585002D01*
G75*
G02*
X85733502Y-64835000I-249998J0D01*
G01*
X85208498Y-64835000D01*
G75*
G02*
X84958500Y-64585002I0J249998D01*
G01*
X84958500Y-63684998D01*
G75*
G02*
X85208498Y-63435000I249998J0D01*
G01*
X85733502Y-63435000D01*
G75*
G02*
X85983500Y-63684998I0J-249998D01*
G01*
G37*
%TD.AperFunction*%
%TO.P,R4,1*%
%TO.N,D+*%
%TA.AperFunction,SMDPad,CuDef*%
G36*
G01*
X87808500Y-63684998D02*
X87808500Y-64585002D01*
G75*
G02*
X87558502Y-64835000I-249998J0D01*
G01*
X87033498Y-64835000D01*
G75*
G02*
X86783500Y-64585002I0J249998D01*
G01*
X86783500Y-63684998D01*
G75*
G02*
X87033498Y-63435000I249998J0D01*
G01*
X87558502Y-63435000D01*
G75*
G02*
X87808500Y-63684998I0J-249998D01*
G01*
G37*
%TD.AperFunction*%
%TD*%
%TO.P,R3,2*%
%TO.N,DBUS-*%
%TA.AperFunction,SMDPad,CuDef*%
G36*
G01*
X85960000Y-61652998D02*
X85960000Y-62553002D01*
G75*
G02*
X85710002Y-62803000I-249998J0D01*
G01*
X85184998Y-62803000D01*
G75*
G02*
X84935000Y-62553002I0J249998D01*
G01*
X84935000Y-61652998D01*
G75*
G02*
X85184998Y-61403000I249998J0D01*
G01*
X85710002Y-61403000D01*
G75*
G02*
X85960000Y-61652998I0J-249998D01*
G01*
G37*
%TD.AperFunction*%
%TO.P,R3,1*%
%TO.N,D-*%
%TA.AperFunction,SMDPad,CuDef*%
G36*
G01*
X87785000Y-61652998D02*
X87785000Y-62553002D01*
G75*
G02*
X87535002Y-62803000I-249998J0D01*
G01*
X87009998Y-62803000D01*
G75*
G02*
X86760000Y-62553002I0J249998D01*
G01*
X86760000Y-61652998D01*
G75*
G02*
X87009998Y-61403000I249998J0D01*
G01*
X87535002Y-61403000D01*
G75*
G02*
X87785000Y-61652998I0J-249998D01*
G01*
G37*
%TD.AperFunction*%
%TD*%
%TO.P,R2,2*%
%TO.N,Net-(R2-Pad2)*%
%TA.AperFunction,SMDPad,CuDef*%
G36*
G01*
X71242500Y-60394002D02*
X71242500Y-59493998D01*
G75*
G02*
X71492498Y-59244000I249998J0D01*
G01*
X72017502Y-59244000D01*
G75*
G02*
X72267500Y-59493998I0J-249998D01*
G01*
X72267500Y-60394002D01*
G75*
G02*
X72017502Y-60644000I-249998J0D01*
G01*
X71492498Y-60644000D01*
G75*
G02*
X71242500Y-60394002I0J249998D01*
G01*
G37*
%TD.AperFunction*%
%TO.P,R2,1*%
%TO.N,GND*%
%TA.AperFunction,SMDPad,CuDef*%
G36*
G01*
X69417500Y-60394002D02*
X69417500Y-59493998D01*
G75*
G02*
X69667498Y-59244000I249998J0D01*
G01*
X70192502Y-59244000D01*
G75*
G02*
X70442500Y-59493998I0J-249998D01*
G01*
X70442500Y-60394002D01*
G75*
G02*
X70192502Y-60644000I-249998J0D01*
G01*
X69667498Y-60644000D01*
G75*
G02*
X69417500Y-60394002I0J249998D01*
G01*
G37*
%TD.AperFunction*%
%TD*%
%TO.P,R1,2*%
%TO.N,Net-(R1-Pad2)*%
%TA.AperFunction,SMDPad,CuDef*%
G36*
G01*
X85936500Y-65716998D02*
X85936500Y-66617002D01*
G75*
G02*
X85686502Y-66867000I-249998J0D01*
G01*
X85161498Y-66867000D01*
G75*
G02*
X84911500Y-66617002I0J249998D01*
G01*
X84911500Y-65716998D01*
G75*
G02*
X85161498Y-65467000I249998J0D01*
G01*
X85686502Y-65467000D01*
G75*
G02*
X85936500Y-65716998I0J-249998D01*
G01*
G37*
%TD.AperFunction*%
%TO.P,R1,1*%
%TO.N,GND*%
%TA.AperFunction,SMDPad,CuDef*%
G36*
G01*
X87761500Y-65716998D02*
X87761500Y-66617002D01*
G75*
G02*
X87511502Y-66867000I-249998J0D01*
G01*
X86986498Y-66867000D01*
G75*
G02*
X86736500Y-66617002I0J249998D01*
G01*
X86736500Y-65716998D01*
G75*
G02*
X86986498Y-65467000I249998J0D01*
G01*
X87511502Y-65467000D01*
G75*
G02*
X87761500Y-65716998I0J-249998D01*
G01*
G37*
%TD.AperFunction*%
%TD*%
%TO.P,F1,2*%
%TO.N,VCC*%
%TA.AperFunction,SMDPad,CuDef*%
G36*
G01*
X85831500Y-59614750D02*
X85831500Y-60527250D01*
G75*
G02*
X85587750Y-60771000I-243750J0D01*
G01*
X85100250Y-60771000D01*
G75*
G02*
X84856500Y-60527250I0J243750D01*
G01*
X84856500Y-59614750D01*
G75*
G02*
X85100250Y-59371000I243750J0D01*
G01*
X85587750Y-59371000D01*
G75*
G02*
X85831500Y-59614750I0J-243750D01*
G01*
G37*
%TD.AperFunction*%
%TO.P,F1,1*%
%TO.N,+5V*%
%TA.AperFunction,SMDPad,CuDef*%
G36*
G01*
X87706500Y-59614750D02*
X87706500Y-60527250D01*
G75*
G02*
X87462750Y-60771000I-243750J0D01*
G01*
X86975250Y-60771000D01*
G75*
G02*
X86731500Y-60527250I0J243750D01*
G01*
X86731500Y-59614750D01*
G75*
G02*
X86975250Y-59371000I243750J0D01*
G01*
X87462750Y-59371000D01*
G75*
G02*
X87706500Y-59614750I0J-243750D01*
G01*
G37*
%TD.AperFunction*%
%TD*%
D12*
%TO.P,D1,4*%
%TO.N,VCC*%
X72177000Y-62177000D03*
%TO.P,D1,3*%
%TO.N,DBUS+*%
X72177000Y-64077000D03*
%TO.P,D1,2*%
%TO.N,DBUS-*%
X69977000Y-64077000D03*
D11*
%TO.P,D1,1*%
%TO.N,GND*%
X69977000Y-62357000D03*
%TD*%
D17*
%TO.N,*%
X75853014Y-79116004D03*
X73279000Y-72960000D03*
X68700000Y-75179000D03*
X76156217Y-73259944D03*
X81781000Y-73147000D03*
X88429000Y-77612347D03*
X73785365Y-79110635D03*
X79936000Y-80072000D03*
X82169000Y-79564000D03*
X83058000Y-80326000D03*
X84194000Y-78227000D03*
X76955000Y-79116002D03*
X73279000Y-71309000D03*
%TO.N,VCC*%
X73279000Y-60960000D03*
X75853014Y-67116004D03*
%TO.N,GND*%
X76156217Y-61259944D03*
X88429000Y-65612347D03*
X82169000Y-67564000D03*
X73785365Y-67110635D03*
X68700000Y-63179000D03*
X79936000Y-68072000D03*
X81781000Y-61147000D03*
%TO.N,Net-(R1-Pad2)*%
X83058000Y-68326000D03*
X84194000Y-66227000D03*
%TO.N,Net-(R2-Pad2)*%
X76955000Y-67116002D03*
X73279000Y-59309000D03*
%TD*%
D18*
%TO.N,*%
X66868000Y-71817000D02*
X66929000Y-71756000D01*
X74672000Y-71499000D02*
X73756999Y-70583999D01*
X83312000Y-71489000D02*
X84217001Y-70583999D01*
X61487000Y-75472000D02*
X61487000Y-75153000D01*
X64823000Y-71817000D02*
X64897000Y-71817000D01*
X84217001Y-70583999D02*
X94286004Y-70583999D01*
X66929000Y-71756000D02*
X68101001Y-70583999D01*
X68101001Y-70583999D02*
X73756999Y-70583999D01*
X74672000Y-72579000D02*
X74672000Y-71499000D01*
X61487000Y-75153000D02*
X64823000Y-71817000D01*
X94286004Y-70583999D02*
X96487000Y-72784995D01*
X83312000Y-72579000D02*
X83312000Y-71489000D01*
X96487000Y-72784995D02*
X96487000Y-75472000D01*
X73756999Y-70583999D02*
X84217001Y-70583999D01*
X64897000Y-71817000D02*
X66868000Y-71817000D01*
X80466992Y-75938990D02*
X81442000Y-76913998D01*
X76542000Y-77674000D02*
X76542000Y-76913998D01*
X73279000Y-73075000D02*
X72177000Y-74177000D01*
X73279000Y-72960000D02*
X73279000Y-73075000D01*
X81442000Y-76913998D02*
X81442000Y-77674000D01*
X77517008Y-75938990D02*
X80466992Y-75938990D01*
X76542000Y-76913998D02*
X77517008Y-75938990D01*
X83418000Y-74177000D02*
X85344000Y-72251000D01*
X72177000Y-74177000D02*
X83418000Y-74177000D01*
X76253013Y-78716005D02*
X75853014Y-79116004D01*
X76542000Y-77674000D02*
X76542000Y-78427018D01*
X85344000Y-72251000D02*
X85344000Y-72071000D01*
X76542000Y-78427018D02*
X76253013Y-78716005D01*
X78242000Y-79029004D02*
X77266004Y-80005000D01*
X78566998Y-76389000D02*
X78917002Y-76389000D01*
X84524011Y-75188011D02*
X85471000Y-76135000D01*
X79242000Y-76713998D02*
X79242000Y-77674000D01*
X72177000Y-76077000D02*
X73127000Y-76077000D01*
X74015989Y-75188011D02*
X84524011Y-75188011D01*
X72177000Y-78527590D02*
X72177000Y-76077000D01*
X78242000Y-77674000D02*
X78242000Y-76713998D01*
X78242000Y-76713998D02*
X78566998Y-76389000D01*
X78242000Y-77674000D02*
X78242000Y-79029004D01*
X77266004Y-80005000D02*
X73654410Y-80005000D01*
X78917002Y-76389000D02*
X79242000Y-76713998D01*
X73127000Y-76077000D02*
X74015989Y-75188011D01*
X73654410Y-80005000D02*
X72177000Y-78527590D01*
X73406000Y-75119000D02*
X71135000Y-75119000D01*
X70177000Y-76077000D02*
X69977000Y-76077000D01*
X73787000Y-74738000D02*
X73406000Y-75119000D01*
X84812500Y-74738000D02*
X85447500Y-74103000D01*
X77452404Y-80455011D02*
X73468011Y-80455011D01*
X73787000Y-74738000D02*
X84812500Y-74738000D01*
X73468011Y-80455011D02*
X69977000Y-76964000D01*
X71135000Y-75119000D02*
X70177000Y-76077000D01*
X78742000Y-79165415D02*
X77452404Y-80455011D01*
X69977000Y-76964000D02*
X69977000Y-76077000D01*
X78742000Y-78634002D02*
X78742000Y-79165415D01*
X78742000Y-78634002D02*
X79036998Y-78929000D01*
X78742000Y-77674000D02*
X78742000Y-78634002D01*
X79742000Y-78634002D02*
X79742000Y-77674000D01*
X79447002Y-78929000D02*
X79742000Y-78634002D01*
X79036998Y-78929000D02*
X79447002Y-78929000D01*
X88803000Y-73879000D02*
X87219000Y-72295000D01*
X87219000Y-72295000D02*
X87219000Y-72071000D01*
X89677000Y-73879000D02*
X88803000Y-73879000D01*
X69262000Y-73642000D02*
X69977000Y-74357000D01*
X69930000Y-72974000D02*
X69262000Y-73642000D01*
X87503000Y-79564000D02*
X89677000Y-77390000D01*
X75767000Y-77674000D02*
X74330365Y-79110635D01*
X69930000Y-71944000D02*
X69930000Y-72974000D01*
X64897000Y-73642000D02*
X69262000Y-73642000D01*
X82169000Y-79564000D02*
X82169000Y-77722000D01*
X82169000Y-77722000D02*
X82217000Y-77674000D01*
X82169000Y-79564000D02*
X87503000Y-79564000D01*
X74330365Y-79110635D02*
X73785365Y-79110635D01*
X89677000Y-77390000D02*
X89677000Y-76879000D01*
X69155000Y-75179000D02*
X69977000Y-74357000D01*
X68700000Y-75179000D02*
X69155000Y-75179000D01*
X87874347Y-78167000D02*
X87249000Y-78167000D01*
X87874347Y-78167000D02*
X88429000Y-77612347D01*
X87550000Y-75881000D02*
X89675000Y-75881000D01*
X87296000Y-76135000D02*
X87550000Y-75881000D01*
X89675000Y-75881000D02*
X89677000Y-75879000D01*
X88048500Y-74879000D02*
X87272500Y-74103000D01*
X89677000Y-74879000D02*
X88048500Y-74879000D01*
X80242000Y-78710002D02*
X81857998Y-80326000D01*
X85424000Y-78167000D02*
X84254000Y-78167000D01*
X80242000Y-77674000D02*
X80242000Y-78710002D01*
X84254000Y-78167000D02*
X84194000Y-78227000D01*
X81857998Y-80326000D02*
X83058000Y-80326000D01*
X72390000Y-71309000D02*
X71755000Y-71944000D01*
X77242000Y-78829002D02*
X76955000Y-79116002D01*
X77242000Y-77674000D02*
X77242000Y-78829002D01*
X73279000Y-71309000D02*
X72390000Y-71309000D01*
%TO.N,Earth*%
X66868000Y-59817000D02*
X66929000Y-59756000D01*
X64897000Y-59817000D02*
X66868000Y-59817000D01*
X64823000Y-59817000D02*
X64897000Y-59817000D01*
X61487000Y-63153000D02*
X64823000Y-59817000D01*
X61487000Y-63472000D02*
X61487000Y-63153000D01*
X96487000Y-60784995D02*
X96487000Y-63472000D01*
X94286004Y-58583999D02*
X96487000Y-60784995D01*
X66929000Y-59756000D02*
X68101001Y-58583999D01*
X74672000Y-59499000D02*
X73756999Y-58583999D01*
X74672000Y-60579000D02*
X74672000Y-59499000D01*
X68101001Y-58583999D02*
X73756999Y-58583999D01*
X83312000Y-59489000D02*
X84217001Y-58583999D01*
X83312000Y-60579000D02*
X83312000Y-59489000D01*
X84217001Y-58583999D02*
X94286004Y-58583999D01*
X73756999Y-58583999D02*
X84217001Y-58583999D01*
%TO.N,VCC*%
X81442000Y-64913998D02*
X81442000Y-65674000D01*
X80466992Y-63938990D02*
X81442000Y-64913998D01*
X77517008Y-63938990D02*
X80466992Y-63938990D01*
X76542000Y-64913998D02*
X77517008Y-63938990D01*
X76542000Y-65674000D02*
X76542000Y-64913998D01*
X73279000Y-61075000D02*
X72177000Y-62177000D01*
X73279000Y-60960000D02*
X73279000Y-61075000D01*
X85344000Y-60251000D02*
X85344000Y-60071000D01*
X83418000Y-62177000D02*
X85344000Y-60251000D01*
X72177000Y-62177000D02*
X83418000Y-62177000D01*
X76542000Y-66427018D02*
X76253013Y-66716005D01*
X76253013Y-66716005D02*
X75853014Y-67116004D01*
X76542000Y-65674000D02*
X76542000Y-66427018D01*
%TO.N,DBUS+*%
X78242000Y-64713998D02*
X78566998Y-64389000D01*
X78242000Y-65674000D02*
X78242000Y-64713998D01*
X79242000Y-64713998D02*
X79242000Y-65674000D01*
X78917002Y-64389000D02*
X79242000Y-64713998D01*
X78566998Y-64389000D02*
X78917002Y-64389000D01*
X72177000Y-64077000D02*
X73127000Y-64077000D01*
X73127000Y-64077000D02*
X74015989Y-63188011D01*
X84524011Y-63188011D02*
X85471000Y-64135000D01*
X74015989Y-63188011D02*
X84524011Y-63188011D01*
X78242000Y-65674000D02*
X78242000Y-67029004D01*
X78242000Y-67029004D02*
X77266004Y-68005000D01*
X72177000Y-66527590D02*
X72177000Y-64077000D01*
X73654410Y-68005000D02*
X72177000Y-66527590D01*
X77266004Y-68005000D02*
X73654410Y-68005000D01*
%TO.N,DBUS-*%
X78742000Y-66634002D02*
X79036998Y-66929000D01*
X78742000Y-65674000D02*
X78742000Y-66634002D01*
X79742000Y-66634002D02*
X79742000Y-65674000D01*
X79447002Y-66929000D02*
X79742000Y-66634002D01*
X79036998Y-66929000D02*
X79447002Y-66929000D01*
X73406000Y-63119000D02*
X71135000Y-63119000D01*
X70177000Y-64077000D02*
X69977000Y-64077000D01*
X73787000Y-62738000D02*
X73406000Y-63119000D01*
X71135000Y-63119000D02*
X70177000Y-64077000D01*
X84812500Y-62738000D02*
X85447500Y-62103000D01*
X73787000Y-62738000D02*
X84812500Y-62738000D01*
X69977000Y-64964000D02*
X69977000Y-64077000D01*
X77452404Y-68455011D02*
X73468011Y-68455011D01*
X78742000Y-67165415D02*
X77452404Y-68455011D01*
X73468011Y-68455011D02*
X69977000Y-64964000D01*
X78742000Y-66634002D02*
X78742000Y-67165415D01*
%TO.N,+5V*%
X87219000Y-60295000D02*
X87219000Y-60071000D01*
X88803000Y-61879000D02*
X87219000Y-60295000D01*
X89677000Y-61879000D02*
X88803000Y-61879000D01*
%TO.N,GND*%
X87874347Y-66167000D02*
X88429000Y-65612347D01*
X87874347Y-66167000D02*
X87249000Y-66167000D01*
X82169000Y-65722000D02*
X82217000Y-65674000D01*
X87503000Y-67564000D02*
X89677000Y-65390000D01*
X89677000Y-65390000D02*
X89677000Y-64879000D01*
X82169000Y-67564000D02*
X82169000Y-65722000D01*
X82169000Y-67564000D02*
X87503000Y-67564000D01*
X74330365Y-67110635D02*
X73785365Y-67110635D01*
X75767000Y-65674000D02*
X74330365Y-67110635D01*
X69262000Y-61642000D02*
X69977000Y-62357000D01*
X64897000Y-61642000D02*
X69262000Y-61642000D01*
X69930000Y-60974000D02*
X69262000Y-61642000D01*
X69930000Y-59944000D02*
X69930000Y-60974000D01*
X69155000Y-63179000D02*
X69977000Y-62357000D01*
X68700000Y-63179000D02*
X69155000Y-63179000D01*
%TO.N,D+*%
X89675000Y-63881000D02*
X89677000Y-63879000D01*
X87550000Y-63881000D02*
X89675000Y-63881000D01*
X87296000Y-64135000D02*
X87550000Y-63881000D01*
%TO.N,D-*%
X88048500Y-62879000D02*
X87272500Y-62103000D01*
X89677000Y-62879000D02*
X88048500Y-62879000D01*
%TO.N,Net-(R1-Pad2)*%
X80242000Y-66710002D02*
X81857998Y-68326000D01*
X80242000Y-65674000D02*
X80242000Y-66710002D01*
X81857998Y-68326000D02*
X83058000Y-68326000D01*
X84254000Y-66167000D02*
X84194000Y-66227000D01*
X85424000Y-66167000D02*
X84254000Y-66167000D01*
%TO.N,Net-(R2-Pad2)*%
X77242000Y-66829002D02*
X76955000Y-67116002D01*
X77242000Y-65674000D02*
X77242000Y-66829002D01*
X72390000Y-59309000D02*
X71755000Y-59944000D01*
X73279000Y-59309000D02*
X72390000Y-59309000D01*
%TD*%
D19*
%TO.N,GND*%
X95336581Y-58501726D02*
X96161880Y-58715931D01*
X96939275Y-59066123D01*
X97646563Y-59542296D01*
X98263505Y-60130830D01*
X98772464Y-60814895D01*
X99158893Y-61574945D01*
X99411735Y-62389227D01*
X99523763Y-63234474D01*
X99491777Y-64086509D01*
X99316687Y-64920978D01*
X99003503Y-65714010D01*
X98561175Y-66442942D01*
X98002360Y-67086921D01*
X97343022Y-67627544D01*
X96602030Y-68049341D01*
X95800559Y-68340261D01*
X94953066Y-68493514D01*
X94465520Y-68516506D01*
X94452549Y-68518225D01*
X94435524Y-68518225D01*
X94429191Y-68518891D01*
X94332216Y-68529768D01*
X94291799Y-68538358D01*
X94274210Y-68541841D01*
X94214239Y-68481870D01*
X94110891Y-68412815D01*
X93996056Y-68365249D01*
X93874148Y-68341000D01*
X93749852Y-68341000D01*
X93627944Y-68365249D01*
X93513109Y-68412815D01*
X93437000Y-68463669D01*
X93360891Y-68412815D01*
X93246056Y-68365249D01*
X93124148Y-68341000D01*
X92999852Y-68341000D01*
X92877944Y-68365249D01*
X92763109Y-68412815D01*
X92687000Y-68463669D01*
X92610891Y-68412815D01*
X92496056Y-68365249D01*
X92374148Y-68341000D01*
X92249852Y-68341000D01*
X92127944Y-68365249D01*
X92013109Y-68412815D01*
X91937000Y-68463669D01*
X91860891Y-68412815D01*
X91746056Y-68365249D01*
X91624148Y-68341000D01*
X91499852Y-68341000D01*
X91377944Y-68365249D01*
X91263109Y-68412815D01*
X91187000Y-68463669D01*
X91110891Y-68412815D01*
X90996056Y-68365249D01*
X90874148Y-68341000D01*
X90749852Y-68341000D01*
X90627944Y-68365249D01*
X90513109Y-68412815D01*
X90409761Y-68481870D01*
X90345317Y-68546314D01*
X90340917Y-68544985D01*
X90300378Y-68536958D01*
X90259946Y-68528363D01*
X90253622Y-68527699D01*
X90253617Y-68527698D01*
X90253613Y-68527698D01*
X90156496Y-68518176D01*
X90156493Y-68518176D01*
X90134399Y-68516000D01*
X83816508Y-68516000D01*
X83839000Y-68402922D01*
X83839000Y-68249078D01*
X83808987Y-68098191D01*
X83750113Y-67956058D01*
X83664642Y-67828141D01*
X83555859Y-67719358D01*
X83427942Y-67633887D01*
X83285809Y-67575013D01*
X83134922Y-67545000D01*
X82981078Y-67545000D01*
X82830191Y-67575013D01*
X82688058Y-67633887D01*
X82560141Y-67719358D01*
X82459499Y-67820000D01*
X82067590Y-67820000D01*
X81009185Y-66761596D01*
X81017000Y-66759225D01*
X81067311Y-66774487D01*
X81142000Y-66781843D01*
X81409728Y-66781843D01*
X81465815Y-66850185D01*
X81562506Y-66929537D01*
X81672820Y-66988502D01*
X81792518Y-67024812D01*
X81917000Y-67037072D01*
X81931250Y-67034000D01*
X82090000Y-66875250D01*
X82090000Y-66556174D01*
X82095701Y-66545508D01*
X82117487Y-66473689D01*
X82124843Y-66399000D01*
X82124843Y-65527000D01*
X82344000Y-65527000D01*
X82344000Y-65547000D01*
X82364000Y-65547000D01*
X82364000Y-65801000D01*
X82344000Y-65801000D01*
X82344000Y-66875250D01*
X82502750Y-67034000D01*
X82517000Y-67037072D01*
X82641482Y-67024812D01*
X82761180Y-66988502D01*
X82871494Y-66929537D01*
X82968185Y-66850185D01*
X83047537Y-66753494D01*
X83106502Y-66643180D01*
X83142812Y-66523482D01*
X83155072Y-66399000D01*
X83153531Y-66178654D01*
X83312000Y-66194262D01*
X83413000Y-66184314D01*
X83413000Y-66303922D01*
X83443013Y-66454809D01*
X83501887Y-66596942D01*
X83587358Y-66724859D01*
X83696141Y-66833642D01*
X83824058Y-66919113D01*
X83966191Y-66977987D01*
X84117078Y-67008000D01*
X84270922Y-67008000D01*
X84421809Y-66977987D01*
X84563942Y-66919113D01*
X84597042Y-66896996D01*
X84635310Y-66968590D01*
X84714012Y-67064488D01*
X84809910Y-67143190D01*
X84919320Y-67201671D01*
X85038037Y-67237683D01*
X85161498Y-67249843D01*
X85686502Y-67249843D01*
X85809963Y-67237683D01*
X85928680Y-67201671D01*
X86038090Y-67143190D01*
X86133064Y-67065246D01*
X86146998Y-67111180D01*
X86205963Y-67221494D01*
X86285315Y-67318185D01*
X86382006Y-67397537D01*
X86492320Y-67456502D01*
X86612018Y-67492812D01*
X86736500Y-67505072D01*
X86963250Y-67502000D01*
X87122000Y-67343250D01*
X87122000Y-66294000D01*
X87376000Y-66294000D01*
X87376000Y-67343250D01*
X87534750Y-67502000D01*
X87761500Y-67505072D01*
X87885982Y-67492812D01*
X88005680Y-67456502D01*
X88115994Y-67397537D01*
X88212685Y-67318185D01*
X88292037Y-67221494D01*
X88351002Y-67111180D01*
X88387312Y-66991482D01*
X88399572Y-66867000D01*
X88396500Y-66452750D01*
X88237750Y-66294000D01*
X87376000Y-66294000D01*
X87122000Y-66294000D01*
X87102000Y-66294000D01*
X87102000Y-66040000D01*
X87122000Y-66040000D01*
X87122000Y-66020000D01*
X87376000Y-66020000D01*
X87376000Y-66040000D01*
X88237750Y-66040000D01*
X88396500Y-65881250D01*
X88396887Y-65828999D01*
X90919157Y-65828999D01*
X90919157Y-66529001D01*
X90931317Y-66652462D01*
X90967329Y-66771179D01*
X91025810Y-66880589D01*
X91104512Y-66976488D01*
X91200411Y-67055190D01*
X91309821Y-67113671D01*
X91428538Y-67149683D01*
X91551999Y-67161843D01*
X92852001Y-67161843D01*
X92975462Y-67149683D01*
X93094179Y-67113671D01*
X93203589Y-67055190D01*
X93299488Y-66976488D01*
X93378190Y-66880589D01*
X93436671Y-66771179D01*
X93472683Y-66652462D01*
X93484843Y-66529001D01*
X93484843Y-65828999D01*
X93472683Y-65705538D01*
X93436671Y-65586821D01*
X93378190Y-65477411D01*
X93299488Y-65381512D01*
X93203589Y-65302810D01*
X93094179Y-65244329D01*
X92975462Y-65208317D01*
X92852001Y-65196157D01*
X91551999Y-65196157D01*
X91428538Y-65208317D01*
X91309821Y-65244329D01*
X91200411Y-65302810D01*
X91104512Y-65381512D01*
X91025810Y-65477411D01*
X90967329Y-65586821D01*
X90931317Y-65705538D01*
X90919157Y-65828999D01*
X88396887Y-65828999D01*
X88398832Y-65566843D01*
X88450815Y-65630185D01*
X88547506Y-65709537D01*
X88657820Y-65768502D01*
X88777518Y-65804812D01*
X88902000Y-65817072D01*
X89391250Y-65814000D01*
X89550000Y-65655250D01*
X89550000Y-65006000D01*
X89804000Y-65006000D01*
X89804000Y-65655250D01*
X89962750Y-65814000D01*
X90452000Y-65817072D01*
X90576482Y-65804812D01*
X90696180Y-65768502D01*
X90806494Y-65709537D01*
X90903185Y-65630185D01*
X90982537Y-65533494D01*
X91041502Y-65423180D01*
X91077812Y-65303482D01*
X91090072Y-65179000D01*
X91087000Y-65164750D01*
X90928250Y-65006000D01*
X89804000Y-65006000D01*
X89550000Y-65006000D01*
X88425750Y-65006000D01*
X88301514Y-65130236D01*
X88292037Y-65112506D01*
X88212685Y-65015815D01*
X88115994Y-64936463D01*
X88091699Y-64923477D01*
X88143171Y-64827180D01*
X88179183Y-64708463D01*
X88191343Y-64585002D01*
X88191343Y-64387000D01*
X88296669Y-64387000D01*
X88276188Y-64454518D01*
X88263928Y-64579000D01*
X88267000Y-64593250D01*
X88425750Y-64752000D01*
X89550000Y-64752000D01*
X89550000Y-64732000D01*
X89804000Y-64732000D01*
X89804000Y-64752000D01*
X90928250Y-64752000D01*
X91087000Y-64593250D01*
X91090072Y-64579000D01*
X91077812Y-64454518D01*
X91041502Y-64334820D01*
X90982537Y-64224506D01*
X90903185Y-64127815D01*
X90830950Y-64068533D01*
X90834843Y-64029000D01*
X90834843Y-63729000D01*
X90824605Y-63625047D01*
X90794283Y-63525090D01*
X90745043Y-63432968D01*
X90700752Y-63379000D01*
X90745043Y-63325032D01*
X90794283Y-63232910D01*
X90824605Y-63132953D01*
X90834843Y-63029000D01*
X90834843Y-62729000D01*
X90824605Y-62625047D01*
X90794283Y-62525090D01*
X90745043Y-62432968D01*
X90700752Y-62379000D01*
X90745043Y-62325032D01*
X90794283Y-62232910D01*
X90824605Y-62132953D01*
X90834843Y-62029000D01*
X90834843Y-61729000D01*
X90824605Y-61625047D01*
X90794283Y-61525090D01*
X90745043Y-61432968D01*
X90678777Y-61352223D01*
X90598032Y-61285957D01*
X90505910Y-61236717D01*
X90405953Y-61206395D01*
X90302000Y-61196157D01*
X89052000Y-61196157D01*
X88948047Y-61206395D01*
X88869741Y-61230149D01*
X88089343Y-60449752D01*
X88089343Y-60228999D01*
X90919157Y-60228999D01*
X90919157Y-60929001D01*
X90931317Y-61052462D01*
X90967329Y-61171179D01*
X91025810Y-61280589D01*
X91104512Y-61376488D01*
X91200411Y-61455190D01*
X91309821Y-61513671D01*
X91428538Y-61549683D01*
X91551999Y-61561843D01*
X92852001Y-61561843D01*
X92975462Y-61549683D01*
X93094179Y-61513671D01*
X93203589Y-61455190D01*
X93299488Y-61376488D01*
X93378190Y-61280589D01*
X93436671Y-61171179D01*
X93472683Y-61052462D01*
X93484843Y-60929001D01*
X93484843Y-60228999D01*
X93472683Y-60105538D01*
X93436671Y-59986821D01*
X93378190Y-59877411D01*
X93299488Y-59781512D01*
X93203589Y-59702810D01*
X93094179Y-59644329D01*
X92975462Y-59608317D01*
X92852001Y-59596157D01*
X91551999Y-59596157D01*
X91428538Y-59608317D01*
X91309821Y-59644329D01*
X91200411Y-59702810D01*
X91104512Y-59781512D01*
X91025810Y-59877411D01*
X90967329Y-59986821D01*
X90931317Y-60105538D01*
X90919157Y-60228999D01*
X88089343Y-60228999D01*
X88089343Y-59614750D01*
X88077303Y-59492508D01*
X88041646Y-59374963D01*
X87983743Y-59266634D01*
X87905818Y-59171682D01*
X87810866Y-59093757D01*
X87803835Y-59089999D01*
X94076413Y-59089999D01*
X95981000Y-60994587D01*
X95981000Y-61246962D01*
X95821657Y-61278657D01*
X95406541Y-61450604D01*
X95032947Y-61700231D01*
X94715231Y-62017947D01*
X94465604Y-62391541D01*
X94293657Y-62806657D01*
X94206000Y-63247341D01*
X94206000Y-63696659D01*
X94293657Y-64137343D01*
X94465604Y-64552459D01*
X94715231Y-64926053D01*
X95032947Y-65243769D01*
X95406541Y-65493396D01*
X95821657Y-65665343D01*
X96262341Y-65753000D01*
X96711659Y-65753000D01*
X97152343Y-65665343D01*
X97567459Y-65493396D01*
X97941053Y-65243769D01*
X98258769Y-64926053D01*
X98508396Y-64552459D01*
X98680343Y-64137343D01*
X98768000Y-63696659D01*
X98768000Y-63247341D01*
X98680343Y-62806657D01*
X98508396Y-62391541D01*
X98258769Y-62017947D01*
X97941053Y-61700231D01*
X97567459Y-61450604D01*
X97152343Y-61278657D01*
X96993000Y-61246962D01*
X96993000Y-60809840D01*
X96995447Y-60784994D01*
X96993000Y-60760148D01*
X96993000Y-60760141D01*
X96985678Y-60685802D01*
X96985674Y-60685787D01*
X96974285Y-60648243D01*
X96956745Y-60590420D01*
X96909759Y-60502516D01*
X96846527Y-60425468D01*
X96827220Y-60409623D01*
X94880635Y-58463039D01*
X95336581Y-58501726D01*
%TA.AperFunction,Conductor*%
D20*
G36*
X95336581Y-58501726D02*
G01*
X96161880Y-58715931D01*
X96939275Y-59066123D01*
X97646563Y-59542296D01*
X98263505Y-60130830D01*
X98772464Y-60814895D01*
X99158893Y-61574945D01*
X99411735Y-62389227D01*
X99523763Y-63234474D01*
X99491777Y-64086509D01*
X99316687Y-64920978D01*
X99003503Y-65714010D01*
X98561175Y-66442942D01*
X98002360Y-67086921D01*
X97343022Y-67627544D01*
X96602030Y-68049341D01*
X95800559Y-68340261D01*
X94953066Y-68493514D01*
X94465520Y-68516506D01*
X94452549Y-68518225D01*
X94435524Y-68518225D01*
X94429191Y-68518891D01*
X94332216Y-68529768D01*
X94291799Y-68538358D01*
X94274210Y-68541841D01*
X94214239Y-68481870D01*
X94110891Y-68412815D01*
X93996056Y-68365249D01*
X93874148Y-68341000D01*
X93749852Y-68341000D01*
X93627944Y-68365249D01*
X93513109Y-68412815D01*
X93437000Y-68463669D01*
X93360891Y-68412815D01*
X93246056Y-68365249D01*
X93124148Y-68341000D01*
X92999852Y-68341000D01*
X92877944Y-68365249D01*
X92763109Y-68412815D01*
X92687000Y-68463669D01*
X92610891Y-68412815D01*
X92496056Y-68365249D01*
X92374148Y-68341000D01*
X92249852Y-68341000D01*
X92127944Y-68365249D01*
X92013109Y-68412815D01*
X91937000Y-68463669D01*
X91860891Y-68412815D01*
X91746056Y-68365249D01*
X91624148Y-68341000D01*
X91499852Y-68341000D01*
X91377944Y-68365249D01*
X91263109Y-68412815D01*
X91187000Y-68463669D01*
X91110891Y-68412815D01*
X90996056Y-68365249D01*
X90874148Y-68341000D01*
X90749852Y-68341000D01*
X90627944Y-68365249D01*
X90513109Y-68412815D01*
X90409761Y-68481870D01*
X90345317Y-68546314D01*
X90340917Y-68544985D01*
X90300378Y-68536958D01*
X90259946Y-68528363D01*
X90253622Y-68527699D01*
X90253617Y-68527698D01*
X90253613Y-68527698D01*
X90156496Y-68518176D01*
X90156493Y-68518176D01*
X90134399Y-68516000D01*
X83816508Y-68516000D01*
X83839000Y-68402922D01*
X83839000Y-68249078D01*
X83808987Y-68098191D01*
X83750113Y-67956058D01*
X83664642Y-67828141D01*
X83555859Y-67719358D01*
X83427942Y-67633887D01*
X83285809Y-67575013D01*
X83134922Y-67545000D01*
X82981078Y-67545000D01*
X82830191Y-67575013D01*
X82688058Y-67633887D01*
X82560141Y-67719358D01*
X82459499Y-67820000D01*
X82067590Y-67820000D01*
X81009185Y-66761596D01*
X81017000Y-66759225D01*
X81067311Y-66774487D01*
X81142000Y-66781843D01*
X81409728Y-66781843D01*
X81465815Y-66850185D01*
X81562506Y-66929537D01*
X81672820Y-66988502D01*
X81792518Y-67024812D01*
X81917000Y-67037072D01*
X81931250Y-67034000D01*
X82090000Y-66875250D01*
X82090000Y-66556174D01*
X82095701Y-66545508D01*
X82117487Y-66473689D01*
X82124843Y-66399000D01*
X82124843Y-65527000D01*
X82344000Y-65527000D01*
X82344000Y-65547000D01*
X82364000Y-65547000D01*
X82364000Y-65801000D01*
X82344000Y-65801000D01*
X82344000Y-66875250D01*
X82502750Y-67034000D01*
X82517000Y-67037072D01*
X82641482Y-67024812D01*
X82761180Y-66988502D01*
X82871494Y-66929537D01*
X82968185Y-66850185D01*
X83047537Y-66753494D01*
X83106502Y-66643180D01*
X83142812Y-66523482D01*
X83155072Y-66399000D01*
X83153531Y-66178654D01*
X83312000Y-66194262D01*
X83413000Y-66184314D01*
X83413000Y-66303922D01*
X83443013Y-66454809D01*
X83501887Y-66596942D01*
X83587358Y-66724859D01*
X83696141Y-66833642D01*
X83824058Y-66919113D01*
X83966191Y-66977987D01*
X84117078Y-67008000D01*
X84270922Y-67008000D01*
X84421809Y-66977987D01*
X84563942Y-66919113D01*
X84597042Y-66896996D01*
X84635310Y-66968590D01*
X84714012Y-67064488D01*
X84809910Y-67143190D01*
X84919320Y-67201671D01*
X85038037Y-67237683D01*
X85161498Y-67249843D01*
X85686502Y-67249843D01*
X85809963Y-67237683D01*
X85928680Y-67201671D01*
X86038090Y-67143190D01*
X86133064Y-67065246D01*
X86146998Y-67111180D01*
X86205963Y-67221494D01*
X86285315Y-67318185D01*
X86382006Y-67397537D01*
X86492320Y-67456502D01*
X86612018Y-67492812D01*
X86736500Y-67505072D01*
X86963250Y-67502000D01*
X87122000Y-67343250D01*
X87122000Y-66294000D01*
X87376000Y-66294000D01*
X87376000Y-67343250D01*
X87534750Y-67502000D01*
X87761500Y-67505072D01*
X87885982Y-67492812D01*
X88005680Y-67456502D01*
X88115994Y-67397537D01*
X88212685Y-67318185D01*
X88292037Y-67221494D01*
X88351002Y-67111180D01*
X88387312Y-66991482D01*
X88399572Y-66867000D01*
X88396500Y-66452750D01*
X88237750Y-66294000D01*
X87376000Y-66294000D01*
X87122000Y-66294000D01*
X87102000Y-66294000D01*
X87102000Y-66040000D01*
X87122000Y-66040000D01*
X87122000Y-66020000D01*
X87376000Y-66020000D01*
X87376000Y-66040000D01*
X88237750Y-66040000D01*
X88396500Y-65881250D01*
X88396887Y-65828999D01*
X90919157Y-65828999D01*
X90919157Y-66529001D01*
X90931317Y-66652462D01*
X90967329Y-66771179D01*
X91025810Y-66880589D01*
X91104512Y-66976488D01*
X91200411Y-67055190D01*
X91309821Y-67113671D01*
X91428538Y-67149683D01*
X91551999Y-67161843D01*
X92852001Y-67161843D01*
X92975462Y-67149683D01*
X93094179Y-67113671D01*
X93203589Y-67055190D01*
X93299488Y-66976488D01*
X93378190Y-66880589D01*
X93436671Y-66771179D01*
X93472683Y-66652462D01*
X93484843Y-66529001D01*
X93484843Y-65828999D01*
X93472683Y-65705538D01*
X93436671Y-65586821D01*
X93378190Y-65477411D01*
X93299488Y-65381512D01*
X93203589Y-65302810D01*
X93094179Y-65244329D01*
X92975462Y-65208317D01*
X92852001Y-65196157D01*
X91551999Y-65196157D01*
X91428538Y-65208317D01*
X91309821Y-65244329D01*
X91200411Y-65302810D01*
X91104512Y-65381512D01*
X91025810Y-65477411D01*
X90967329Y-65586821D01*
X90931317Y-65705538D01*
X90919157Y-65828999D01*
X88396887Y-65828999D01*
X88398832Y-65566843D01*
X88450815Y-65630185D01*
X88547506Y-65709537D01*
X88657820Y-65768502D01*
X88777518Y-65804812D01*
X88902000Y-65817072D01*
X89391250Y-65814000D01*
X89550000Y-65655250D01*
X89550000Y-65006000D01*
X89804000Y-65006000D01*
X89804000Y-65655250D01*
X89962750Y-65814000D01*
X90452000Y-65817072D01*
X90576482Y-65804812D01*
X90696180Y-65768502D01*
X90806494Y-65709537D01*
X90903185Y-65630185D01*
X90982537Y-65533494D01*
X91041502Y-65423180D01*
X91077812Y-65303482D01*
X91090072Y-65179000D01*
X91087000Y-65164750D01*
X90928250Y-65006000D01*
X89804000Y-65006000D01*
X89550000Y-65006000D01*
X88425750Y-65006000D01*
X88301514Y-65130236D01*
X88292037Y-65112506D01*
X88212685Y-65015815D01*
X88115994Y-64936463D01*
X88091699Y-64923477D01*
X88143171Y-64827180D01*
X88179183Y-64708463D01*
X88191343Y-64585002D01*
X88191343Y-64387000D01*
X88296669Y-64387000D01*
X88276188Y-64454518D01*
X88263928Y-64579000D01*
X88267000Y-64593250D01*
X88425750Y-64752000D01*
X89550000Y-64752000D01*
X89550000Y-64732000D01*
X89804000Y-64732000D01*
X89804000Y-64752000D01*
X90928250Y-64752000D01*
X91087000Y-64593250D01*
X91090072Y-64579000D01*
X91077812Y-64454518D01*
X91041502Y-64334820D01*
X90982537Y-64224506D01*
X90903185Y-64127815D01*
X90830950Y-64068533D01*
X90834843Y-64029000D01*
X90834843Y-63729000D01*
X90824605Y-63625047D01*
X90794283Y-63525090D01*
X90745043Y-63432968D01*
X90700752Y-63379000D01*
X90745043Y-63325032D01*
X90794283Y-63232910D01*
X90824605Y-63132953D01*
X90834843Y-63029000D01*
X90834843Y-62729000D01*
X90824605Y-62625047D01*
X90794283Y-62525090D01*
X90745043Y-62432968D01*
X90700752Y-62379000D01*
X90745043Y-62325032D01*
X90794283Y-62232910D01*
X90824605Y-62132953D01*
X90834843Y-62029000D01*
X90834843Y-61729000D01*
X90824605Y-61625047D01*
X90794283Y-61525090D01*
X90745043Y-61432968D01*
X90678777Y-61352223D01*
X90598032Y-61285957D01*
X90505910Y-61236717D01*
X90405953Y-61206395D01*
X90302000Y-61196157D01*
X89052000Y-61196157D01*
X88948047Y-61206395D01*
X88869741Y-61230149D01*
X88089343Y-60449752D01*
X88089343Y-60228999D01*
X90919157Y-60228999D01*
X90919157Y-60929001D01*
X90931317Y-61052462D01*
X90967329Y-61171179D01*
X91025810Y-61280589D01*
X91104512Y-61376488D01*
X91200411Y-61455190D01*
X91309821Y-61513671D01*
X91428538Y-61549683D01*
X91551999Y-61561843D01*
X92852001Y-61561843D01*
X92975462Y-61549683D01*
X93094179Y-61513671D01*
X93203589Y-61455190D01*
X93299488Y-61376488D01*
X93378190Y-61280589D01*
X93436671Y-61171179D01*
X93472683Y-61052462D01*
X93484843Y-60929001D01*
X93484843Y-60228999D01*
X93472683Y-60105538D01*
X93436671Y-59986821D01*
X93378190Y-59877411D01*
X93299488Y-59781512D01*
X93203589Y-59702810D01*
X93094179Y-59644329D01*
X92975462Y-59608317D01*
X92852001Y-59596157D01*
X91551999Y-59596157D01*
X91428538Y-59608317D01*
X91309821Y-59644329D01*
X91200411Y-59702810D01*
X91104512Y-59781512D01*
X91025810Y-59877411D01*
X90967329Y-59986821D01*
X90931317Y-60105538D01*
X90919157Y-60228999D01*
X88089343Y-60228999D01*
X88089343Y-59614750D01*
X88077303Y-59492508D01*
X88041646Y-59374963D01*
X87983743Y-59266634D01*
X87905818Y-59171682D01*
X87810866Y-59093757D01*
X87803835Y-59089999D01*
X94076413Y-59089999D01*
X95981000Y-60994587D01*
X95981000Y-61246962D01*
X95821657Y-61278657D01*
X95406541Y-61450604D01*
X95032947Y-61700231D01*
X94715231Y-62017947D01*
X94465604Y-62391541D01*
X94293657Y-62806657D01*
X94206000Y-63247341D01*
X94206000Y-63696659D01*
X94293657Y-64137343D01*
X94465604Y-64552459D01*
X94715231Y-64926053D01*
X95032947Y-65243769D01*
X95406541Y-65493396D01*
X95821657Y-65665343D01*
X96262341Y-65753000D01*
X96711659Y-65753000D01*
X97152343Y-65665343D01*
X97567459Y-65493396D01*
X97941053Y-65243769D01*
X98258769Y-64926053D01*
X98508396Y-64552459D01*
X98680343Y-64137343D01*
X98768000Y-63696659D01*
X98768000Y-63247341D01*
X98680343Y-62806657D01*
X98508396Y-62391541D01*
X98258769Y-62017947D01*
X97941053Y-61700231D01*
X97567459Y-61450604D01*
X97152343Y-61278657D01*
X96993000Y-61246962D01*
X96993000Y-60809840D01*
X96995447Y-60784994D01*
X96993000Y-60760148D01*
X96993000Y-60760141D01*
X96985678Y-60685802D01*
X96985674Y-60685787D01*
X96974285Y-60648243D01*
X96956745Y-60590420D01*
X96909759Y-60502516D01*
X96846527Y-60425468D01*
X96827220Y-60409623D01*
X94880635Y-58463039D01*
X95336581Y-58501726D01*
G37*
%TD.AperFunction*%
D19*
X67096252Y-58873157D02*
X66454000Y-58873157D01*
X66330538Y-58885317D01*
X66211821Y-58921329D01*
X66102411Y-58979810D01*
X66006512Y-59058512D01*
X65927810Y-59154411D01*
X65887538Y-59229754D01*
X65873190Y-59202910D01*
X65794488Y-59107012D01*
X65698590Y-59028310D01*
X65589180Y-58969829D01*
X65470463Y-58933817D01*
X65347002Y-58921657D01*
X64446998Y-58921657D01*
X64323537Y-58933817D01*
X64204820Y-58969829D01*
X64095410Y-59028310D01*
X63999512Y-59107012D01*
X63920810Y-59202910D01*
X63862329Y-59312320D01*
X63826317Y-59431037D01*
X63814157Y-59554498D01*
X63814157Y-60079502D01*
X63816914Y-60107494D01*
X62501235Y-61423173D01*
X62152343Y-61278657D01*
X61711659Y-61191000D01*
X61262341Y-61191000D01*
X60821657Y-61278657D01*
X60406541Y-61450604D01*
X60032947Y-61700231D01*
X59715231Y-62017947D01*
X59465604Y-62391541D01*
X59293657Y-62806657D01*
X59206000Y-63247341D01*
X59206000Y-63696659D01*
X59293657Y-64137343D01*
X59465604Y-64552459D01*
X59715231Y-64926053D01*
X60032947Y-65243769D01*
X60406541Y-65493396D01*
X60821657Y-65665343D01*
X61262341Y-65753000D01*
X61711659Y-65753000D01*
X62152343Y-65665343D01*
X62567459Y-65493396D01*
X62941053Y-65243769D01*
X63258769Y-64926053D01*
X63508396Y-64552459D01*
X63680343Y-64137343D01*
X63768000Y-63696659D01*
X63768000Y-63247341D01*
X63680343Y-62806657D01*
X63508396Y-62391541D01*
X63290362Y-62065229D01*
X63586590Y-61769002D01*
X63720748Y-61769002D01*
X63562000Y-61927750D01*
X63558928Y-62154500D01*
X63571188Y-62278982D01*
X63607498Y-62398680D01*
X63666463Y-62508994D01*
X63745815Y-62605685D01*
X63842506Y-62685037D01*
X63952820Y-62744002D01*
X64072518Y-62780312D01*
X64197000Y-62792572D01*
X64611250Y-62789500D01*
X64770000Y-62630750D01*
X64770000Y-61769000D01*
X65024000Y-61769000D01*
X65024000Y-62630750D01*
X65182750Y-62789500D01*
X65597000Y-62792572D01*
X65721482Y-62780312D01*
X65841180Y-62744002D01*
X65899097Y-62713044D01*
X65959820Y-62745502D01*
X66079518Y-62781812D01*
X66204000Y-62794072D01*
X66643250Y-62791000D01*
X66802000Y-62632250D01*
X66802000Y-61783000D01*
X67056000Y-61783000D01*
X67056000Y-62632250D01*
X67214750Y-62791000D01*
X67654000Y-62794072D01*
X67778482Y-62781812D01*
X67898180Y-62745502D01*
X68008494Y-62686537D01*
X68105185Y-62607185D01*
X68184537Y-62510494D01*
X68243502Y-62400180D01*
X68279812Y-62280482D01*
X68292072Y-62156000D01*
X68289000Y-61941750D01*
X68130250Y-61783000D01*
X67056000Y-61783000D01*
X66802000Y-61783000D01*
X66087250Y-61783000D01*
X66073250Y-61769000D01*
X65024000Y-61769000D01*
X64770000Y-61769000D01*
X64750000Y-61769000D01*
X64750000Y-61757000D01*
X68638928Y-61757000D01*
X68642000Y-62071250D01*
X68800750Y-62230000D01*
X69850000Y-62230000D01*
X69850000Y-61280750D01*
X69746250Y-61177000D01*
X69803000Y-61120250D01*
X69803000Y-60071000D01*
X68941250Y-60071000D01*
X68782500Y-60229750D01*
X68779428Y-60644000D01*
X68791688Y-60768482D01*
X68827998Y-60888180D01*
X68886963Y-60998494D01*
X68966315Y-61095185D01*
X69048597Y-61162712D01*
X69032820Y-61167498D01*
X68922506Y-61226463D01*
X68825815Y-61305815D01*
X68746463Y-61402506D01*
X68687498Y-61512820D01*
X68651188Y-61632518D01*
X68638928Y-61757000D01*
X64750000Y-61757000D01*
X64750000Y-61515000D01*
X64770000Y-61515000D01*
X64770000Y-61495000D01*
X65024000Y-61495000D01*
X65024000Y-61515000D01*
X65713750Y-61515000D01*
X65727750Y-61529000D01*
X66802000Y-61529000D01*
X66802000Y-61509000D01*
X67056000Y-61509000D01*
X67056000Y-61529000D01*
X68130250Y-61529000D01*
X68289000Y-61370250D01*
X68292072Y-61156000D01*
X68279812Y-61031518D01*
X68243502Y-60911820D01*
X68184537Y-60801506D01*
X68105185Y-60704815D01*
X68008494Y-60625463D01*
X67898180Y-60566498D01*
X67778482Y-60530188D01*
X67760220Y-60528389D01*
X67851488Y-60453488D01*
X67930190Y-60357589D01*
X67988671Y-60248179D01*
X68024683Y-60129462D01*
X68036843Y-60006000D01*
X68036843Y-59506000D01*
X68024683Y-59382538D01*
X68023140Y-59377452D01*
X68310593Y-59089999D01*
X68800642Y-59089999D01*
X68791688Y-59119518D01*
X68779428Y-59244000D01*
X68782500Y-59658250D01*
X68941250Y-59817000D01*
X69803000Y-59817000D01*
X69803000Y-59797000D01*
X70057000Y-59797000D01*
X70057000Y-59817000D01*
X70077000Y-59817000D01*
X70077000Y-60071000D01*
X70057000Y-60071000D01*
X70057000Y-61120250D01*
X70160750Y-61224000D01*
X70104000Y-61280750D01*
X70104000Y-62230000D01*
X70124000Y-62230000D01*
X70124000Y-62484000D01*
X70104000Y-62484000D01*
X70104000Y-62504000D01*
X69850000Y-62504000D01*
X69850000Y-62484000D01*
X68800750Y-62484000D01*
X68642000Y-62642750D01*
X68638928Y-62957000D01*
X68651188Y-63081482D01*
X68687498Y-63201180D01*
X68746463Y-63311494D01*
X68825815Y-63408185D01*
X68909286Y-63476687D01*
X68901513Y-63502311D01*
X68894157Y-63577000D01*
X68894157Y-64577000D01*
X68901513Y-64651689D01*
X68923299Y-64723508D01*
X68958678Y-64789696D01*
X69006289Y-64847711D01*
X69064304Y-64895322D01*
X69130492Y-64930701D01*
X69202311Y-64952487D01*
X69277000Y-64959843D01*
X69468962Y-64959843D01*
X69468553Y-64964000D01*
X69471000Y-64988846D01*
X69471000Y-64988853D01*
X69478322Y-65063192D01*
X69507255Y-65158574D01*
X69554241Y-65246479D01*
X69617473Y-65323527D01*
X69636785Y-65339376D01*
X72813408Y-68516000D01*
X67839601Y-68516000D01*
X67817009Y-68518225D01*
X67810524Y-68518225D01*
X67804191Y-68518891D01*
X67707216Y-68529768D01*
X67666799Y-68538358D01*
X67649210Y-68541841D01*
X67589239Y-68481870D01*
X67485891Y-68412815D01*
X67371056Y-68365249D01*
X67249148Y-68341000D01*
X67124852Y-68341000D01*
X67002944Y-68365249D01*
X66888109Y-68412815D01*
X66812000Y-68463669D01*
X66735891Y-68412815D01*
X66621056Y-68365249D01*
X66499148Y-68341000D01*
X66374852Y-68341000D01*
X66252944Y-68365249D01*
X66138109Y-68412815D01*
X66062000Y-68463669D01*
X65985891Y-68412815D01*
X65871056Y-68365249D01*
X65749148Y-68341000D01*
X65624852Y-68341000D01*
X65502944Y-68365249D01*
X65388109Y-68412815D01*
X65312000Y-68463669D01*
X65235891Y-68412815D01*
X65121056Y-68365249D01*
X64999148Y-68341000D01*
X64874852Y-68341000D01*
X64752944Y-68365249D01*
X64638109Y-68412815D01*
X64562000Y-68463669D01*
X64485891Y-68412815D01*
X64371056Y-68365249D01*
X64249148Y-68341000D01*
X64124852Y-68341000D01*
X64002944Y-68365249D01*
X63888109Y-68412815D01*
X63784761Y-68481870D01*
X63720317Y-68546314D01*
X63715917Y-68544985D01*
X63675378Y-68536958D01*
X63634946Y-68528363D01*
X63628622Y-68527699D01*
X63628617Y-68527698D01*
X63628613Y-68527698D01*
X63531496Y-68518176D01*
X63529651Y-68518176D01*
X63525554Y-68517633D01*
X62637420Y-68442274D01*
X61812125Y-68228070D01*
X61034725Y-67877877D01*
X60327434Y-67401701D01*
X59710493Y-66813167D01*
X59201534Y-66129103D01*
X58815107Y-65369055D01*
X58562265Y-64554774D01*
X58450237Y-63709526D01*
X58482223Y-62857491D01*
X58657313Y-62023022D01*
X58970496Y-61229993D01*
X59412827Y-60501054D01*
X59971640Y-59857080D01*
X60630978Y-59316456D01*
X61371972Y-58894658D01*
X62173445Y-58603737D01*
X63020934Y-58450486D01*
X63497750Y-58428000D01*
X67541408Y-58428000D01*
X67096252Y-58873157D01*
%TA.AperFunction,Conductor*%
D20*
G36*
X67096252Y-58873157D02*
G01*
X66454000Y-58873157D01*
X66330538Y-58885317D01*
X66211821Y-58921329D01*
X66102411Y-58979810D01*
X66006512Y-59058512D01*
X65927810Y-59154411D01*
X65887538Y-59229754D01*
X65873190Y-59202910D01*
X65794488Y-59107012D01*
X65698590Y-59028310D01*
X65589180Y-58969829D01*
X65470463Y-58933817D01*
X65347002Y-58921657D01*
X64446998Y-58921657D01*
X64323537Y-58933817D01*
X64204820Y-58969829D01*
X64095410Y-59028310D01*
X63999512Y-59107012D01*
X63920810Y-59202910D01*
X63862329Y-59312320D01*
X63826317Y-59431037D01*
X63814157Y-59554498D01*
X63814157Y-60079502D01*
X63816914Y-60107494D01*
X62501235Y-61423173D01*
X62152343Y-61278657D01*
X61711659Y-61191000D01*
X61262341Y-61191000D01*
X60821657Y-61278657D01*
X60406541Y-61450604D01*
X60032947Y-61700231D01*
X59715231Y-62017947D01*
X59465604Y-62391541D01*
X59293657Y-62806657D01*
X59206000Y-63247341D01*
X59206000Y-63696659D01*
X59293657Y-64137343D01*
X59465604Y-64552459D01*
X59715231Y-64926053D01*
X60032947Y-65243769D01*
X60406541Y-65493396D01*
X60821657Y-65665343D01*
X61262341Y-65753000D01*
X61711659Y-65753000D01*
X62152343Y-65665343D01*
X62567459Y-65493396D01*
X62941053Y-65243769D01*
X63258769Y-64926053D01*
X63508396Y-64552459D01*
X63680343Y-64137343D01*
X63768000Y-63696659D01*
X63768000Y-63247341D01*
X63680343Y-62806657D01*
X63508396Y-62391541D01*
X63290362Y-62065229D01*
X63586590Y-61769002D01*
X63720748Y-61769002D01*
X63562000Y-61927750D01*
X63558928Y-62154500D01*
X63571188Y-62278982D01*
X63607498Y-62398680D01*
X63666463Y-62508994D01*
X63745815Y-62605685D01*
X63842506Y-62685037D01*
X63952820Y-62744002D01*
X64072518Y-62780312D01*
X64197000Y-62792572D01*
X64611250Y-62789500D01*
X64770000Y-62630750D01*
X64770000Y-61769000D01*
X65024000Y-61769000D01*
X65024000Y-62630750D01*
X65182750Y-62789500D01*
X65597000Y-62792572D01*
X65721482Y-62780312D01*
X65841180Y-62744002D01*
X65899097Y-62713044D01*
X65959820Y-62745502D01*
X66079518Y-62781812D01*
X66204000Y-62794072D01*
X66643250Y-62791000D01*
X66802000Y-62632250D01*
X66802000Y-61783000D01*
X67056000Y-61783000D01*
X67056000Y-62632250D01*
X67214750Y-62791000D01*
X67654000Y-62794072D01*
X67778482Y-62781812D01*
X67898180Y-62745502D01*
X68008494Y-62686537D01*
X68105185Y-62607185D01*
X68184537Y-62510494D01*
X68243502Y-62400180D01*
X68279812Y-62280482D01*
X68292072Y-62156000D01*
X68289000Y-61941750D01*
X68130250Y-61783000D01*
X67056000Y-61783000D01*
X66802000Y-61783000D01*
X66087250Y-61783000D01*
X66073250Y-61769000D01*
X65024000Y-61769000D01*
X64770000Y-61769000D01*
X64750000Y-61769000D01*
X64750000Y-61757000D01*
X68638928Y-61757000D01*
X68642000Y-62071250D01*
X68800750Y-62230000D01*
X69850000Y-62230000D01*
X69850000Y-61280750D01*
X69746250Y-61177000D01*
X69803000Y-61120250D01*
X69803000Y-60071000D01*
X68941250Y-60071000D01*
X68782500Y-60229750D01*
X68779428Y-60644000D01*
X68791688Y-60768482D01*
X68827998Y-60888180D01*
X68886963Y-60998494D01*
X68966315Y-61095185D01*
X69048597Y-61162712D01*
X69032820Y-61167498D01*
X68922506Y-61226463D01*
X68825815Y-61305815D01*
X68746463Y-61402506D01*
X68687498Y-61512820D01*
X68651188Y-61632518D01*
X68638928Y-61757000D01*
X64750000Y-61757000D01*
X64750000Y-61515000D01*
X64770000Y-61515000D01*
X64770000Y-61495000D01*
X65024000Y-61495000D01*
X65024000Y-61515000D01*
X65713750Y-61515000D01*
X65727750Y-61529000D01*
X66802000Y-61529000D01*
X66802000Y-61509000D01*
X67056000Y-61509000D01*
X67056000Y-61529000D01*
X68130250Y-61529000D01*
X68289000Y-61370250D01*
X68292072Y-61156000D01*
X68279812Y-61031518D01*
X68243502Y-60911820D01*
X68184537Y-60801506D01*
X68105185Y-60704815D01*
X68008494Y-60625463D01*
X67898180Y-60566498D01*
X67778482Y-60530188D01*
X67760220Y-60528389D01*
X67851488Y-60453488D01*
X67930190Y-60357589D01*
X67988671Y-60248179D01*
X68024683Y-60129462D01*
X68036843Y-60006000D01*
X68036843Y-59506000D01*
X68024683Y-59382538D01*
X68023140Y-59377452D01*
X68310593Y-59089999D01*
X68800642Y-59089999D01*
X68791688Y-59119518D01*
X68779428Y-59244000D01*
X68782500Y-59658250D01*
X68941250Y-59817000D01*
X69803000Y-59817000D01*
X69803000Y-59797000D01*
X70057000Y-59797000D01*
X70057000Y-59817000D01*
X70077000Y-59817000D01*
X70077000Y-60071000D01*
X70057000Y-60071000D01*
X70057000Y-61120250D01*
X70160750Y-61224000D01*
X70104000Y-61280750D01*
X70104000Y-62230000D01*
X70124000Y-62230000D01*
X70124000Y-62484000D01*
X70104000Y-62484000D01*
X70104000Y-62504000D01*
X69850000Y-62504000D01*
X69850000Y-62484000D01*
X68800750Y-62484000D01*
X68642000Y-62642750D01*
X68638928Y-62957000D01*
X68651188Y-63081482D01*
X68687498Y-63201180D01*
X68746463Y-63311494D01*
X68825815Y-63408185D01*
X68909286Y-63476687D01*
X68901513Y-63502311D01*
X68894157Y-63577000D01*
X68894157Y-64577000D01*
X68901513Y-64651689D01*
X68923299Y-64723508D01*
X68958678Y-64789696D01*
X69006289Y-64847711D01*
X69064304Y-64895322D01*
X69130492Y-64930701D01*
X69202311Y-64952487D01*
X69277000Y-64959843D01*
X69468962Y-64959843D01*
X69468553Y-64964000D01*
X69471000Y-64988846D01*
X69471000Y-64988853D01*
X69478322Y-65063192D01*
X69507255Y-65158574D01*
X69554241Y-65246479D01*
X69617473Y-65323527D01*
X69636785Y-65339376D01*
X72813408Y-68516000D01*
X67839601Y-68516000D01*
X67817009Y-68518225D01*
X67810524Y-68518225D01*
X67804191Y-68518891D01*
X67707216Y-68529768D01*
X67666799Y-68538358D01*
X67649210Y-68541841D01*
X67589239Y-68481870D01*
X67485891Y-68412815D01*
X67371056Y-68365249D01*
X67249148Y-68341000D01*
X67124852Y-68341000D01*
X67002944Y-68365249D01*
X66888109Y-68412815D01*
X66812000Y-68463669D01*
X66735891Y-68412815D01*
X66621056Y-68365249D01*
X66499148Y-68341000D01*
X66374852Y-68341000D01*
X66252944Y-68365249D01*
X66138109Y-68412815D01*
X66062000Y-68463669D01*
X65985891Y-68412815D01*
X65871056Y-68365249D01*
X65749148Y-68341000D01*
X65624852Y-68341000D01*
X65502944Y-68365249D01*
X65388109Y-68412815D01*
X65312000Y-68463669D01*
X65235891Y-68412815D01*
X65121056Y-68365249D01*
X64999148Y-68341000D01*
X64874852Y-68341000D01*
X64752944Y-68365249D01*
X64638109Y-68412815D01*
X64562000Y-68463669D01*
X64485891Y-68412815D01*
X64371056Y-68365249D01*
X64249148Y-68341000D01*
X64124852Y-68341000D01*
X64002944Y-68365249D01*
X63888109Y-68412815D01*
X63784761Y-68481870D01*
X63720317Y-68546314D01*
X63715917Y-68544985D01*
X63675378Y-68536958D01*
X63634946Y-68528363D01*
X63628622Y-68527699D01*
X63628617Y-68527698D01*
X63628613Y-68527698D01*
X63531496Y-68518176D01*
X63529651Y-68518176D01*
X63525554Y-68517633D01*
X62637420Y-68442274D01*
X61812125Y-68228070D01*
X61034725Y-67877877D01*
X60327434Y-67401701D01*
X59710493Y-66813167D01*
X59201534Y-66129103D01*
X58815107Y-65369055D01*
X58562265Y-64554774D01*
X58450237Y-63709526D01*
X58482223Y-62857491D01*
X58657313Y-62023022D01*
X58970496Y-61229993D01*
X59412827Y-60501054D01*
X59971640Y-59857080D01*
X60630978Y-59316456D01*
X61371972Y-58894658D01*
X62173445Y-58603737D01*
X63020934Y-58450486D01*
X63497750Y-58428000D01*
X67541408Y-58428000D01*
X67096252Y-58873157D01*
G37*
%TD.AperFunction*%
D19*
X81332406Y-68516000D02*
X78107006Y-68516000D01*
X79082220Y-67540787D01*
X79101527Y-67524942D01*
X79164759Y-67447894D01*
X79171651Y-67435000D01*
X79422156Y-67435000D01*
X79447002Y-67437447D01*
X79471848Y-67435000D01*
X79471856Y-67435000D01*
X79546195Y-67427678D01*
X79641577Y-67398745D01*
X79729481Y-67351759D01*
X79806529Y-67288527D01*
X79822378Y-67269215D01*
X79954000Y-67137593D01*
X81332406Y-68516000D01*
%TA.AperFunction,Conductor*%
D20*
G36*
X81332406Y-68516000D02*
G01*
X78107006Y-68516000D01*
X79082220Y-67540787D01*
X79101527Y-67524942D01*
X79164759Y-67447894D01*
X79171651Y-67435000D01*
X79422156Y-67435000D01*
X79447002Y-67437447D01*
X79471848Y-67435000D01*
X79471856Y-67435000D01*
X79546195Y-67427678D01*
X79641577Y-67398745D01*
X79729481Y-67351759D01*
X79806529Y-67288527D01*
X79822378Y-67269215D01*
X79954000Y-67137593D01*
X81332406Y-68516000D01*
G37*
%TD.AperFunction*%
D19*
X73791001Y-64165727D02*
X73791000Y-65352272D01*
X73803748Y-65481705D01*
X73854125Y-65647774D01*
X73935932Y-65800824D01*
X74046025Y-65934975D01*
X74180175Y-66045068D01*
X74333225Y-66126875D01*
X74499294Y-66177252D01*
X74672000Y-66194262D01*
X74830469Y-66178654D01*
X74828928Y-66399000D01*
X74841188Y-66523482D01*
X74877498Y-66643180D01*
X74936463Y-66753494D01*
X75015815Y-66850185D01*
X75096428Y-66916342D01*
X75072014Y-67039082D01*
X75072014Y-67192926D01*
X75102027Y-67343813D01*
X75160901Y-67485946D01*
X75169623Y-67499000D01*
X73864002Y-67499000D01*
X72683000Y-66317999D01*
X72683000Y-64959843D01*
X72877000Y-64959843D01*
X72951689Y-64952487D01*
X73023508Y-64930701D01*
X73089696Y-64895322D01*
X73147711Y-64847711D01*
X73195322Y-64789696D01*
X73230701Y-64723508D01*
X73252487Y-64651689D01*
X73259843Y-64577000D01*
X73259843Y-64565471D01*
X73321575Y-64546745D01*
X73409479Y-64499759D01*
X73486527Y-64436527D01*
X73502376Y-64417215D01*
X73795058Y-64124533D01*
X73791001Y-64165727D01*
%TA.AperFunction,Conductor*%
D20*
G36*
X73791001Y-64165727D02*
G01*
X73791000Y-65352272D01*
X73803748Y-65481705D01*
X73854125Y-65647774D01*
X73935932Y-65800824D01*
X74046025Y-65934975D01*
X74180175Y-66045068D01*
X74333225Y-66126875D01*
X74499294Y-66177252D01*
X74672000Y-66194262D01*
X74830469Y-66178654D01*
X74828928Y-66399000D01*
X74841188Y-66523482D01*
X74877498Y-66643180D01*
X74936463Y-66753494D01*
X75015815Y-66850185D01*
X75096428Y-66916342D01*
X75072014Y-67039082D01*
X75072014Y-67192926D01*
X75102027Y-67343813D01*
X75160901Y-67485946D01*
X75169623Y-67499000D01*
X73864002Y-67499000D01*
X72683000Y-66317999D01*
X72683000Y-64959843D01*
X72877000Y-64959843D01*
X72951689Y-64952487D01*
X73023508Y-64930701D01*
X73089696Y-64895322D01*
X73147711Y-64847711D01*
X73195322Y-64789696D01*
X73230701Y-64723508D01*
X73252487Y-64651689D01*
X73259843Y-64577000D01*
X73259843Y-64565471D01*
X73321575Y-64546745D01*
X73409479Y-64499759D01*
X73486527Y-64436527D01*
X73502376Y-64417215D01*
X73795058Y-64124533D01*
X73791001Y-64165727D01*
G37*
%TD.AperFunction*%
D19*
X75859157Y-65821000D02*
X75640000Y-65821000D01*
X75640000Y-65801000D01*
X75620000Y-65801000D01*
X75620000Y-65547000D01*
X75640000Y-65547000D01*
X75640000Y-65527000D01*
X75859157Y-65527000D01*
X75859157Y-65821000D01*
%TA.AperFunction,Conductor*%
D20*
G36*
X75859157Y-65821000D02*
G01*
X75640000Y-65821000D01*
X75640000Y-65801000D01*
X75620000Y-65801000D01*
X75620000Y-65547000D01*
X75640000Y-65547000D01*
X75640000Y-65527000D01*
X75859157Y-65527000D01*
X75859157Y-65821000D01*
G37*
%TD.AperFunction*%
D19*
X82971780Y-59113629D02*
X82952474Y-59129473D01*
X82889242Y-59206521D01*
X82872326Y-59238169D01*
X82842255Y-59294426D01*
X82813322Y-59389808D01*
X82803553Y-59489000D01*
X82806001Y-59513856D01*
X82806001Y-59554565D01*
X82686026Y-59653025D01*
X82575933Y-59787175D01*
X82494125Y-59940225D01*
X82443748Y-60106294D01*
X82431000Y-60235727D01*
X82431000Y-60922272D01*
X82443748Y-61051705D01*
X82494125Y-61217774D01*
X82575932Y-61370824D01*
X82686025Y-61504975D01*
X82820175Y-61615068D01*
X82924816Y-61671000D01*
X75059183Y-61671000D01*
X75163824Y-61615068D01*
X75297975Y-61504975D01*
X75408068Y-61370825D01*
X75489875Y-61217775D01*
X75540252Y-61051706D01*
X75553000Y-60922273D01*
X75553000Y-60235727D01*
X75540252Y-60106294D01*
X75489875Y-59940225D01*
X75408068Y-59787175D01*
X75297975Y-59653025D01*
X75178000Y-59554565D01*
X75178000Y-59523854D01*
X75180448Y-59499000D01*
X75170678Y-59399807D01*
X75141745Y-59304425D01*
X75135334Y-59292431D01*
X75094759Y-59216521D01*
X75031527Y-59139473D01*
X75012220Y-59123628D01*
X74978591Y-59089999D01*
X82995410Y-59089999D01*
X82971780Y-59113629D01*
%TA.AperFunction,Conductor*%
D20*
G36*
X82971780Y-59113629D02*
G01*
X82952474Y-59129473D01*
X82889242Y-59206521D01*
X82872326Y-59238169D01*
X82842255Y-59294426D01*
X82813322Y-59389808D01*
X82803553Y-59489000D01*
X82806001Y-59513856D01*
X82806001Y-59554565D01*
X82686026Y-59653025D01*
X82575933Y-59787175D01*
X82494125Y-59940225D01*
X82443748Y-60106294D01*
X82431000Y-60235727D01*
X82431000Y-60922272D01*
X82443748Y-61051705D01*
X82494125Y-61217774D01*
X82575932Y-61370824D01*
X82686025Y-61504975D01*
X82820175Y-61615068D01*
X82924816Y-61671000D01*
X75059183Y-61671000D01*
X75163824Y-61615068D01*
X75297975Y-61504975D01*
X75408068Y-61370825D01*
X75489875Y-61217775D01*
X75540252Y-61051706D01*
X75553000Y-60922273D01*
X75553000Y-60235727D01*
X75540252Y-60106294D01*
X75489875Y-59940225D01*
X75408068Y-59787175D01*
X75297975Y-59653025D01*
X75178000Y-59554565D01*
X75178000Y-59523854D01*
X75180448Y-59499000D01*
X75170678Y-59399807D01*
X75141745Y-59304425D01*
X75135334Y-59292431D01*
X75094759Y-59216521D01*
X75031527Y-59139473D01*
X75012220Y-59123628D01*
X74978591Y-59089999D01*
X82995410Y-59089999D01*
X82971780Y-59113629D01*
G37*
%TD.AperFunction*%
%TD*%
D21*
X81332406Y-80516000D02*
X80578629Y-80516000D01*
X80628113Y-80441942D01*
X80686987Y-80299809D01*
X80717000Y-80148922D01*
X80717000Y-79995078D01*
X80693540Y-79877133D01*
X81332406Y-80516000D01*
%TA.AperFunction,NonConductor*%
D22*
G36*
X81332406Y-80516000D02*
G01*
X80578629Y-80516000D01*
X80628113Y-80441942D01*
X80686987Y-80299809D01*
X80717000Y-80148922D01*
X80717000Y-79995078D01*
X80693540Y-79877133D01*
X81332406Y-80516000D01*
G37*
%TD.AperFunction*%
D21*
X79438141Y-79465358D02*
X79329358Y-79574141D01*
X79243887Y-79702058D01*
X79185013Y-79844191D01*
X79155000Y-79995078D01*
X79155000Y-80148922D01*
X79185013Y-80299809D01*
X79243887Y-80441942D01*
X79293371Y-80516000D01*
X78107006Y-80516000D01*
X79082220Y-79540787D01*
X79101527Y-79524942D01*
X79164759Y-79447894D01*
X79171651Y-79435000D01*
X79422156Y-79435000D01*
X79447002Y-79437447D01*
X79471848Y-79435000D01*
X79471856Y-79435000D01*
X79485601Y-79433646D01*
X79438141Y-79465358D01*
%TA.AperFunction,NonConductor*%
D22*
G36*
X79438141Y-79465358D02*
G01*
X79329358Y-79574141D01*
X79243887Y-79702058D01*
X79185013Y-79844191D01*
X79155000Y-79995078D01*
X79155000Y-80148922D01*
X79185013Y-80299809D01*
X79243887Y-80441942D01*
X79293371Y-80516000D01*
X78107006Y-80516000D01*
X79082220Y-79540787D01*
X79101527Y-79524942D01*
X79164759Y-79447894D01*
X79171651Y-79435000D01*
X79422156Y-79435000D01*
X79447002Y-79437447D01*
X79471848Y-79435000D01*
X79471856Y-79435000D01*
X79485601Y-79433646D01*
X79438141Y-79465358D01*
G37*
%TD.AperFunction*%
D21*
X95336581Y-70501726D02*
X96161880Y-70715931D01*
X96939275Y-71066123D01*
X97646563Y-71542296D01*
X98263505Y-72130830D01*
X98772464Y-72814895D01*
X99158893Y-73574945D01*
X99411735Y-74389227D01*
X99523763Y-75234474D01*
X99491777Y-76086509D01*
X99316687Y-76920978D01*
X99003503Y-77714010D01*
X98561175Y-78442942D01*
X98002360Y-79086921D01*
X97343022Y-79627544D01*
X96602030Y-80049341D01*
X95800559Y-80340261D01*
X94953066Y-80493514D01*
X94476250Y-80516000D01*
X83816508Y-80516000D01*
X83839000Y-80402922D01*
X83839000Y-80249078D01*
X83808987Y-80098191D01*
X83797310Y-80070000D01*
X87478154Y-80070000D01*
X87503000Y-80072447D01*
X87527846Y-80070000D01*
X87527854Y-80070000D01*
X87602193Y-80062678D01*
X87697575Y-80033745D01*
X87785479Y-79986759D01*
X87862527Y-79923527D01*
X87878376Y-79904215D01*
X89953592Y-77828999D01*
X90919157Y-77828999D01*
X90919157Y-78529001D01*
X90931317Y-78652462D01*
X90967329Y-78771179D01*
X91025810Y-78880589D01*
X91104512Y-78976488D01*
X91200411Y-79055190D01*
X91309821Y-79113671D01*
X91428538Y-79149683D01*
X91551999Y-79161843D01*
X92852001Y-79161843D01*
X92975462Y-79149683D01*
X93094179Y-79113671D01*
X93203589Y-79055190D01*
X93299488Y-78976488D01*
X93378190Y-78880589D01*
X93436671Y-78771179D01*
X93472683Y-78652462D01*
X93484843Y-78529001D01*
X93484843Y-77828999D01*
X93472683Y-77705538D01*
X93436671Y-77586821D01*
X93378190Y-77477411D01*
X93299488Y-77381512D01*
X93203589Y-77302810D01*
X93094179Y-77244329D01*
X92975462Y-77208317D01*
X92852001Y-77196157D01*
X91551999Y-77196157D01*
X91428538Y-77208317D01*
X91309821Y-77244329D01*
X91200411Y-77302810D01*
X91104512Y-77381512D01*
X91025810Y-77477411D01*
X90967329Y-77586821D01*
X90931317Y-77705538D01*
X90919157Y-77828999D01*
X89953592Y-77828999D01*
X90017220Y-77765372D01*
X90036527Y-77749527D01*
X90099759Y-77672479D01*
X90146745Y-77584575D01*
X90153640Y-77561843D01*
X90302000Y-77561843D01*
X90405953Y-77551605D01*
X90505910Y-77521283D01*
X90598032Y-77472043D01*
X90678777Y-77405777D01*
X90745043Y-77325032D01*
X90794283Y-77232910D01*
X90824605Y-77132953D01*
X90834843Y-77029000D01*
X90834843Y-76729000D01*
X90824605Y-76625047D01*
X90794283Y-76525090D01*
X90745043Y-76432968D01*
X90700752Y-76379000D01*
X90745043Y-76325032D01*
X90794283Y-76232910D01*
X90824605Y-76132953D01*
X90834843Y-76029000D01*
X90834843Y-75729000D01*
X90824605Y-75625047D01*
X90794283Y-75525090D01*
X90745043Y-75432968D01*
X90700752Y-75379000D01*
X90745043Y-75325032D01*
X90794283Y-75232910D01*
X90824605Y-75132953D01*
X90834843Y-75029000D01*
X90834843Y-74729000D01*
X90824605Y-74625047D01*
X90794283Y-74525090D01*
X90745043Y-74432968D01*
X90700752Y-74379000D01*
X90745043Y-74325032D01*
X90794283Y-74232910D01*
X90824605Y-74132953D01*
X90834843Y-74029000D01*
X90834843Y-73729000D01*
X90824605Y-73625047D01*
X90794283Y-73525090D01*
X90745043Y-73432968D01*
X90678777Y-73352223D01*
X90598032Y-73285957D01*
X90505910Y-73236717D01*
X90405953Y-73206395D01*
X90302000Y-73196157D01*
X89052000Y-73196157D01*
X88948047Y-73206395D01*
X88869741Y-73230149D01*
X88089343Y-72449752D01*
X88089343Y-72228999D01*
X90919157Y-72228999D01*
X90919157Y-72929001D01*
X90931317Y-73052462D01*
X90967329Y-73171179D01*
X91025810Y-73280589D01*
X91104512Y-73376488D01*
X91200411Y-73455190D01*
X91309821Y-73513671D01*
X91428538Y-73549683D01*
X91551999Y-73561843D01*
X92852001Y-73561843D01*
X92975462Y-73549683D01*
X93094179Y-73513671D01*
X93203589Y-73455190D01*
X93299488Y-73376488D01*
X93378190Y-73280589D01*
X93436671Y-73171179D01*
X93472683Y-73052462D01*
X93484843Y-72929001D01*
X93484843Y-72228999D01*
X93472683Y-72105538D01*
X93436671Y-71986821D01*
X93378190Y-71877411D01*
X93299488Y-71781512D01*
X93203589Y-71702810D01*
X93094179Y-71644329D01*
X92975462Y-71608317D01*
X92852001Y-71596157D01*
X91551999Y-71596157D01*
X91428538Y-71608317D01*
X91309821Y-71644329D01*
X91200411Y-71702810D01*
X91104512Y-71781512D01*
X91025810Y-71877411D01*
X90967329Y-71986821D01*
X90931317Y-72105538D01*
X90919157Y-72228999D01*
X88089343Y-72228999D01*
X88089343Y-71614750D01*
X88077303Y-71492508D01*
X88041646Y-71374963D01*
X87983743Y-71266634D01*
X87905818Y-71171682D01*
X87810866Y-71093757D01*
X87803835Y-71089999D01*
X94076413Y-71089999D01*
X95981000Y-72994587D01*
X95981000Y-73246962D01*
X95821657Y-73278657D01*
X95406541Y-73450604D01*
X95032947Y-73700231D01*
X94715231Y-74017947D01*
X94465604Y-74391541D01*
X94293657Y-74806657D01*
X94206000Y-75247341D01*
X94206000Y-75696659D01*
X94293657Y-76137343D01*
X94465604Y-76552459D01*
X94715231Y-76926053D01*
X95032947Y-77243769D01*
X95406541Y-77493396D01*
X95821657Y-77665343D01*
X96262341Y-77753000D01*
X96711659Y-77753000D01*
X97152343Y-77665343D01*
X97567459Y-77493396D01*
X97941053Y-77243769D01*
X98258769Y-76926053D01*
X98508396Y-76552459D01*
X98680343Y-76137343D01*
X98768000Y-75696659D01*
X98768000Y-75247341D01*
X98680343Y-74806657D01*
X98508396Y-74391541D01*
X98258769Y-74017947D01*
X97941053Y-73700231D01*
X97567459Y-73450604D01*
X97152343Y-73278657D01*
X96993000Y-73246962D01*
X96993000Y-72809840D01*
X96995447Y-72784994D01*
X96993000Y-72760148D01*
X96993000Y-72760141D01*
X96985678Y-72685802D01*
X96985674Y-72685787D01*
X96976191Y-72654527D01*
X96956745Y-72590420D01*
X96909759Y-72502516D01*
X96846527Y-72425468D01*
X96827220Y-72409623D01*
X94880635Y-70463039D01*
X95336581Y-70501726D01*
%TA.AperFunction,NonConductor*%
D22*
G36*
X95336581Y-70501726D02*
G01*
X96161880Y-70715931D01*
X96939275Y-71066123D01*
X97646563Y-71542296D01*
X98263505Y-72130830D01*
X98772464Y-72814895D01*
X99158893Y-73574945D01*
X99411735Y-74389227D01*
X99523763Y-75234474D01*
X99491777Y-76086509D01*
X99316687Y-76920978D01*
X99003503Y-77714010D01*
X98561175Y-78442942D01*
X98002360Y-79086921D01*
X97343022Y-79627544D01*
X96602030Y-80049341D01*
X95800559Y-80340261D01*
X94953066Y-80493514D01*
X94476250Y-80516000D01*
X83816508Y-80516000D01*
X83839000Y-80402922D01*
X83839000Y-80249078D01*
X83808987Y-80098191D01*
X83797310Y-80070000D01*
X87478154Y-80070000D01*
X87503000Y-80072447D01*
X87527846Y-80070000D01*
X87527854Y-80070000D01*
X87602193Y-80062678D01*
X87697575Y-80033745D01*
X87785479Y-79986759D01*
X87862527Y-79923527D01*
X87878376Y-79904215D01*
X89953592Y-77828999D01*
X90919157Y-77828999D01*
X90919157Y-78529001D01*
X90931317Y-78652462D01*
X90967329Y-78771179D01*
X91025810Y-78880589D01*
X91104512Y-78976488D01*
X91200411Y-79055190D01*
X91309821Y-79113671D01*
X91428538Y-79149683D01*
X91551999Y-79161843D01*
X92852001Y-79161843D01*
X92975462Y-79149683D01*
X93094179Y-79113671D01*
X93203589Y-79055190D01*
X93299488Y-78976488D01*
X93378190Y-78880589D01*
X93436671Y-78771179D01*
X93472683Y-78652462D01*
X93484843Y-78529001D01*
X93484843Y-77828999D01*
X93472683Y-77705538D01*
X93436671Y-77586821D01*
X93378190Y-77477411D01*
X93299488Y-77381512D01*
X93203589Y-77302810D01*
X93094179Y-77244329D01*
X92975462Y-77208317D01*
X92852001Y-77196157D01*
X91551999Y-77196157D01*
X91428538Y-77208317D01*
X91309821Y-77244329D01*
X91200411Y-77302810D01*
X91104512Y-77381512D01*
X91025810Y-77477411D01*
X90967329Y-77586821D01*
X90931317Y-77705538D01*
X90919157Y-77828999D01*
X89953592Y-77828999D01*
X90017220Y-77765372D01*
X90036527Y-77749527D01*
X90099759Y-77672479D01*
X90146745Y-77584575D01*
X90153640Y-77561843D01*
X90302000Y-77561843D01*
X90405953Y-77551605D01*
X90505910Y-77521283D01*
X90598032Y-77472043D01*
X90678777Y-77405777D01*
X90745043Y-77325032D01*
X90794283Y-77232910D01*
X90824605Y-77132953D01*
X90834843Y-77029000D01*
X90834843Y-76729000D01*
X90824605Y-76625047D01*
X90794283Y-76525090D01*
X90745043Y-76432968D01*
X90700752Y-76379000D01*
X90745043Y-76325032D01*
X90794283Y-76232910D01*
X90824605Y-76132953D01*
X90834843Y-76029000D01*
X90834843Y-75729000D01*
X90824605Y-75625047D01*
X90794283Y-75525090D01*
X90745043Y-75432968D01*
X90700752Y-75379000D01*
X90745043Y-75325032D01*
X90794283Y-75232910D01*
X90824605Y-75132953D01*
X90834843Y-75029000D01*
X90834843Y-74729000D01*
X90824605Y-74625047D01*
X90794283Y-74525090D01*
X90745043Y-74432968D01*
X90700752Y-74379000D01*
X90745043Y-74325032D01*
X90794283Y-74232910D01*
X90824605Y-74132953D01*
X90834843Y-74029000D01*
X90834843Y-73729000D01*
X90824605Y-73625047D01*
X90794283Y-73525090D01*
X90745043Y-73432968D01*
X90678777Y-73352223D01*
X90598032Y-73285957D01*
X90505910Y-73236717D01*
X90405953Y-73206395D01*
X90302000Y-73196157D01*
X89052000Y-73196157D01*
X88948047Y-73206395D01*
X88869741Y-73230149D01*
X88089343Y-72449752D01*
X88089343Y-72228999D01*
X90919157Y-72228999D01*
X90919157Y-72929001D01*
X90931317Y-73052462D01*
X90967329Y-73171179D01*
X91025810Y-73280589D01*
X91104512Y-73376488D01*
X91200411Y-73455190D01*
X91309821Y-73513671D01*
X91428538Y-73549683D01*
X91551999Y-73561843D01*
X92852001Y-73561843D01*
X92975462Y-73549683D01*
X93094179Y-73513671D01*
X93203589Y-73455190D01*
X93299488Y-73376488D01*
X93378190Y-73280589D01*
X93436671Y-73171179D01*
X93472683Y-73052462D01*
X93484843Y-72929001D01*
X93484843Y-72228999D01*
X93472683Y-72105538D01*
X93436671Y-71986821D01*
X93378190Y-71877411D01*
X93299488Y-71781512D01*
X93203589Y-71702810D01*
X93094179Y-71644329D01*
X92975462Y-71608317D01*
X92852001Y-71596157D01*
X91551999Y-71596157D01*
X91428538Y-71608317D01*
X91309821Y-71644329D01*
X91200411Y-71702810D01*
X91104512Y-71781512D01*
X91025810Y-71877411D01*
X90967329Y-71986821D01*
X90931317Y-72105538D01*
X90919157Y-72228999D01*
X88089343Y-72228999D01*
X88089343Y-71614750D01*
X88077303Y-71492508D01*
X88041646Y-71374963D01*
X87983743Y-71266634D01*
X87905818Y-71171682D01*
X87810866Y-71093757D01*
X87803835Y-71089999D01*
X94076413Y-71089999D01*
X95981000Y-72994587D01*
X95981000Y-73246962D01*
X95821657Y-73278657D01*
X95406541Y-73450604D01*
X95032947Y-73700231D01*
X94715231Y-74017947D01*
X94465604Y-74391541D01*
X94293657Y-74806657D01*
X94206000Y-75247341D01*
X94206000Y-75696659D01*
X94293657Y-76137343D01*
X94465604Y-76552459D01*
X94715231Y-76926053D01*
X95032947Y-77243769D01*
X95406541Y-77493396D01*
X95821657Y-77665343D01*
X96262341Y-77753000D01*
X96711659Y-77753000D01*
X97152343Y-77665343D01*
X97567459Y-77493396D01*
X97941053Y-77243769D01*
X98258769Y-76926053D01*
X98508396Y-76552459D01*
X98680343Y-76137343D01*
X98768000Y-75696659D01*
X98768000Y-75247341D01*
X98680343Y-74806657D01*
X98508396Y-74391541D01*
X98258769Y-74017947D01*
X97941053Y-73700231D01*
X97567459Y-73450604D01*
X97152343Y-73278657D01*
X96993000Y-73246962D01*
X96993000Y-72809840D01*
X96995447Y-72784994D01*
X96993000Y-72760148D01*
X96993000Y-72760141D01*
X96985678Y-72685802D01*
X96985674Y-72685787D01*
X96976191Y-72654527D01*
X96956745Y-72590420D01*
X96909759Y-72502516D01*
X96846527Y-72425468D01*
X96827220Y-72409623D01*
X94880635Y-70463039D01*
X95336581Y-70501726D01*
G37*
%TD.AperFunction*%
D21*
X63784761Y-70462130D02*
X63888109Y-70531185D01*
X64002944Y-70578751D01*
X64124852Y-70603000D01*
X64249148Y-70603000D01*
X64371056Y-70578751D01*
X64485891Y-70531185D01*
X64562000Y-70480331D01*
X64638109Y-70531185D01*
X64752944Y-70578751D01*
X64874852Y-70603000D01*
X64999148Y-70603000D01*
X65121056Y-70578751D01*
X65235891Y-70531185D01*
X65312000Y-70480331D01*
X65388109Y-70531185D01*
X65502944Y-70578751D01*
X65624852Y-70603000D01*
X65749148Y-70603000D01*
X65871056Y-70578751D01*
X65985891Y-70531185D01*
X66062000Y-70480331D01*
X66138109Y-70531185D01*
X66252944Y-70578751D01*
X66374852Y-70603000D01*
X66499148Y-70603000D01*
X66621056Y-70578751D01*
X66735891Y-70531185D01*
X66812000Y-70480331D01*
X66888109Y-70531185D01*
X67002944Y-70578751D01*
X67124852Y-70603000D01*
X67249148Y-70603000D01*
X67371056Y-70578751D01*
X67404517Y-70564891D01*
X67096252Y-70873157D01*
X66454000Y-70873157D01*
X66330538Y-70885317D01*
X66211821Y-70921329D01*
X66102411Y-70979810D01*
X66006512Y-71058512D01*
X65927810Y-71154411D01*
X65887538Y-71229754D01*
X65873190Y-71202910D01*
X65794488Y-71107012D01*
X65698590Y-71028310D01*
X65589180Y-70969829D01*
X65470463Y-70933817D01*
X65347002Y-70921657D01*
X64446998Y-70921657D01*
X64323537Y-70933817D01*
X64204820Y-70969829D01*
X64095410Y-71028310D01*
X63999512Y-71107012D01*
X63920810Y-71202910D01*
X63862329Y-71312320D01*
X63826317Y-71431037D01*
X63814157Y-71554498D01*
X63814157Y-72079502D01*
X63816914Y-72107494D01*
X62501235Y-73423173D01*
X62152343Y-73278657D01*
X61711659Y-73191000D01*
X61262341Y-73191000D01*
X60821657Y-73278657D01*
X60406541Y-73450604D01*
X60032947Y-73700231D01*
X59715231Y-74017947D01*
X59465604Y-74391541D01*
X59293657Y-74806657D01*
X59206000Y-75247341D01*
X59206000Y-75696659D01*
X59293657Y-76137343D01*
X59465604Y-76552459D01*
X59715231Y-76926053D01*
X60032947Y-77243769D01*
X60406541Y-77493396D01*
X60821657Y-77665343D01*
X61262341Y-77753000D01*
X61711659Y-77753000D01*
X62152343Y-77665343D01*
X62567459Y-77493396D01*
X62941053Y-77243769D01*
X63258769Y-76926053D01*
X63508396Y-76552459D01*
X63680343Y-76137343D01*
X63768000Y-75696659D01*
X63768000Y-75247341D01*
X63680343Y-74806657D01*
X63508396Y-74391541D01*
X63290362Y-74065229D01*
X63814157Y-73541435D01*
X63814157Y-73904502D01*
X63826317Y-74027963D01*
X63862329Y-74146680D01*
X63920810Y-74256090D01*
X63999512Y-74351988D01*
X64095410Y-74430690D01*
X64204820Y-74489171D01*
X64323537Y-74525183D01*
X64446998Y-74537343D01*
X65347002Y-74537343D01*
X65470463Y-74525183D01*
X65589180Y-74489171D01*
X65698590Y-74430690D01*
X65794488Y-74351988D01*
X65873190Y-74256090D01*
X65900099Y-74205746D01*
X65927810Y-74257589D01*
X66006512Y-74353488D01*
X66102411Y-74432190D01*
X66211821Y-74490671D01*
X66330538Y-74526683D01*
X66454000Y-74538843D01*
X67404000Y-74538843D01*
X67527462Y-74526683D01*
X67646179Y-74490671D01*
X67755589Y-74432190D01*
X67851488Y-74353488D01*
X67930190Y-74257589D01*
X67988671Y-74148179D01*
X67988725Y-74148000D01*
X68894157Y-74148000D01*
X68894157Y-74421319D01*
X68776922Y-74398000D01*
X68623078Y-74398000D01*
X68472191Y-74428013D01*
X68330058Y-74486887D01*
X68202141Y-74572358D01*
X68093358Y-74681141D01*
X68007887Y-74809058D01*
X67949013Y-74951191D01*
X67919000Y-75102078D01*
X67919000Y-75255922D01*
X67949013Y-75406809D01*
X68007887Y-75548942D01*
X68093358Y-75676859D01*
X68202141Y-75785642D01*
X68330058Y-75871113D01*
X68472191Y-75929987D01*
X68623078Y-75960000D01*
X68776922Y-75960000D01*
X68894157Y-75936681D01*
X68894157Y-76577000D01*
X68901513Y-76651689D01*
X68923299Y-76723508D01*
X68958678Y-76789696D01*
X69006289Y-76847711D01*
X69064304Y-76895322D01*
X69130492Y-76930701D01*
X69202311Y-76952487D01*
X69277000Y-76959843D01*
X69468962Y-76959843D01*
X69468553Y-76964000D01*
X69471000Y-76988846D01*
X69471000Y-76988853D01*
X69478322Y-77063192D01*
X69507255Y-77158574D01*
X69554241Y-77246479D01*
X69617473Y-77323527D01*
X69636785Y-77339376D01*
X72813408Y-80516000D01*
X63506309Y-80516000D01*
X62637420Y-80442274D01*
X61812125Y-80228070D01*
X61034725Y-79877877D01*
X60327434Y-79401701D01*
X59710493Y-78813167D01*
X59201534Y-78129103D01*
X58815107Y-77369055D01*
X58562265Y-76554774D01*
X58450237Y-75709526D01*
X58482223Y-74857491D01*
X58657313Y-74023022D01*
X58970496Y-73229993D01*
X59412827Y-72501054D01*
X59971640Y-71857080D01*
X60630978Y-71316456D01*
X61371972Y-70894658D01*
X62173445Y-70603737D01*
X63020934Y-70450486D01*
X63508480Y-70427494D01*
X63521451Y-70425775D01*
X63538476Y-70425775D01*
X63544809Y-70425109D01*
X63641783Y-70414232D01*
X63682194Y-70405643D01*
X63720658Y-70398027D01*
X63784761Y-70462130D01*
%TA.AperFunction,NonConductor*%
D22*
G36*
X63784761Y-70462130D02*
G01*
X63888109Y-70531185D01*
X64002944Y-70578751D01*
X64124852Y-70603000D01*
X64249148Y-70603000D01*
X64371056Y-70578751D01*
X64485891Y-70531185D01*
X64562000Y-70480331D01*
X64638109Y-70531185D01*
X64752944Y-70578751D01*
X64874852Y-70603000D01*
X64999148Y-70603000D01*
X65121056Y-70578751D01*
X65235891Y-70531185D01*
X65312000Y-70480331D01*
X65388109Y-70531185D01*
X65502944Y-70578751D01*
X65624852Y-70603000D01*
X65749148Y-70603000D01*
X65871056Y-70578751D01*
X65985891Y-70531185D01*
X66062000Y-70480331D01*
X66138109Y-70531185D01*
X66252944Y-70578751D01*
X66374852Y-70603000D01*
X66499148Y-70603000D01*
X66621056Y-70578751D01*
X66735891Y-70531185D01*
X66812000Y-70480331D01*
X66888109Y-70531185D01*
X67002944Y-70578751D01*
X67124852Y-70603000D01*
X67249148Y-70603000D01*
X67371056Y-70578751D01*
X67404517Y-70564891D01*
X67096252Y-70873157D01*
X66454000Y-70873157D01*
X66330538Y-70885317D01*
X66211821Y-70921329D01*
X66102411Y-70979810D01*
X66006512Y-71058512D01*
X65927810Y-71154411D01*
X65887538Y-71229754D01*
X65873190Y-71202910D01*
X65794488Y-71107012D01*
X65698590Y-71028310D01*
X65589180Y-70969829D01*
X65470463Y-70933817D01*
X65347002Y-70921657D01*
X64446998Y-70921657D01*
X64323537Y-70933817D01*
X64204820Y-70969829D01*
X64095410Y-71028310D01*
X63999512Y-71107012D01*
X63920810Y-71202910D01*
X63862329Y-71312320D01*
X63826317Y-71431037D01*
X63814157Y-71554498D01*
X63814157Y-72079502D01*
X63816914Y-72107494D01*
X62501235Y-73423173D01*
X62152343Y-73278657D01*
X61711659Y-73191000D01*
X61262341Y-73191000D01*
X60821657Y-73278657D01*
X60406541Y-73450604D01*
X60032947Y-73700231D01*
X59715231Y-74017947D01*
X59465604Y-74391541D01*
X59293657Y-74806657D01*
X59206000Y-75247341D01*
X59206000Y-75696659D01*
X59293657Y-76137343D01*
X59465604Y-76552459D01*
X59715231Y-76926053D01*
X60032947Y-77243769D01*
X60406541Y-77493396D01*
X60821657Y-77665343D01*
X61262341Y-77753000D01*
X61711659Y-77753000D01*
X62152343Y-77665343D01*
X62567459Y-77493396D01*
X62941053Y-77243769D01*
X63258769Y-76926053D01*
X63508396Y-76552459D01*
X63680343Y-76137343D01*
X63768000Y-75696659D01*
X63768000Y-75247341D01*
X63680343Y-74806657D01*
X63508396Y-74391541D01*
X63290362Y-74065229D01*
X63814157Y-73541435D01*
X63814157Y-73904502D01*
X63826317Y-74027963D01*
X63862329Y-74146680D01*
X63920810Y-74256090D01*
X63999512Y-74351988D01*
X64095410Y-74430690D01*
X64204820Y-74489171D01*
X64323537Y-74525183D01*
X64446998Y-74537343D01*
X65347002Y-74537343D01*
X65470463Y-74525183D01*
X65589180Y-74489171D01*
X65698590Y-74430690D01*
X65794488Y-74351988D01*
X65873190Y-74256090D01*
X65900099Y-74205746D01*
X65927810Y-74257589D01*
X66006512Y-74353488D01*
X66102411Y-74432190D01*
X66211821Y-74490671D01*
X66330538Y-74526683D01*
X66454000Y-74538843D01*
X67404000Y-74538843D01*
X67527462Y-74526683D01*
X67646179Y-74490671D01*
X67755589Y-74432190D01*
X67851488Y-74353488D01*
X67930190Y-74257589D01*
X67988671Y-74148179D01*
X67988725Y-74148000D01*
X68894157Y-74148000D01*
X68894157Y-74421319D01*
X68776922Y-74398000D01*
X68623078Y-74398000D01*
X68472191Y-74428013D01*
X68330058Y-74486887D01*
X68202141Y-74572358D01*
X68093358Y-74681141D01*
X68007887Y-74809058D01*
X67949013Y-74951191D01*
X67919000Y-75102078D01*
X67919000Y-75255922D01*
X67949013Y-75406809D01*
X68007887Y-75548942D01*
X68093358Y-75676859D01*
X68202141Y-75785642D01*
X68330058Y-75871113D01*
X68472191Y-75929987D01*
X68623078Y-75960000D01*
X68776922Y-75960000D01*
X68894157Y-75936681D01*
X68894157Y-76577000D01*
X68901513Y-76651689D01*
X68923299Y-76723508D01*
X68958678Y-76789696D01*
X69006289Y-76847711D01*
X69064304Y-76895322D01*
X69130492Y-76930701D01*
X69202311Y-76952487D01*
X69277000Y-76959843D01*
X69468962Y-76959843D01*
X69468553Y-76964000D01*
X69471000Y-76988846D01*
X69471000Y-76988853D01*
X69478322Y-77063192D01*
X69507255Y-77158574D01*
X69554241Y-77246479D01*
X69617473Y-77323527D01*
X69636785Y-77339376D01*
X72813408Y-80516000D01*
X63506309Y-80516000D01*
X62637420Y-80442274D01*
X61812125Y-80228070D01*
X61034725Y-79877877D01*
X60327434Y-79401701D01*
X59710493Y-78813167D01*
X59201534Y-78129103D01*
X58815107Y-77369055D01*
X58562265Y-76554774D01*
X58450237Y-75709526D01*
X58482223Y-74857491D01*
X58657313Y-74023022D01*
X58970496Y-73229993D01*
X59412827Y-72501054D01*
X59971640Y-71857080D01*
X60630978Y-71316456D01*
X61371972Y-70894658D01*
X62173445Y-70603737D01*
X63020934Y-70450486D01*
X63508480Y-70427494D01*
X63521451Y-70425775D01*
X63538476Y-70425775D01*
X63544809Y-70425109D01*
X63641783Y-70414232D01*
X63682194Y-70405643D01*
X63720658Y-70398027D01*
X63784761Y-70462130D01*
G37*
%TD.AperFunction*%
D21*
X75072014Y-79192926D02*
X75102027Y-79343813D01*
X75160901Y-79485946D01*
X75169623Y-79499000D01*
X74654753Y-79499000D01*
X74689892Y-79470162D01*
X74705741Y-79450850D01*
X75072014Y-79084577D01*
X75072014Y-79192926D01*
%TA.AperFunction,NonConductor*%
D22*
G36*
X75072014Y-79192926D02*
G01*
X75102027Y-79343813D01*
X75160901Y-79485946D01*
X75169623Y-79499000D01*
X74654753Y-79499000D01*
X74689892Y-79470162D01*
X74705741Y-79450850D01*
X75072014Y-79084577D01*
X75072014Y-79192926D01*
G37*
%TD.AperFunction*%
D21*
X80130867Y-79314461D02*
X80012922Y-79291000D01*
X79859078Y-79291000D01*
X79785741Y-79305588D01*
X79806529Y-79288527D01*
X79822378Y-79269215D01*
X79954000Y-79137593D01*
X80130867Y-79314461D01*
%TA.AperFunction,NonConductor*%
D22*
G36*
X80130867Y-79314461D02*
G01*
X80012922Y-79291000D01*
X79859078Y-79291000D01*
X79785741Y-79305588D01*
X79806529Y-79288527D01*
X79822378Y-79269215D01*
X79954000Y-79137593D01*
X80130867Y-79314461D01*
G37*
%TD.AperFunction*%
D21*
X81067311Y-78774487D02*
X81142000Y-78781843D01*
X81663000Y-78781843D01*
X81663000Y-78965499D01*
X81562358Y-79066141D01*
X81476887Y-79194058D01*
X81466566Y-79218976D01*
X81009185Y-78761596D01*
X81017000Y-78759225D01*
X81067311Y-78774487D01*
%TA.AperFunction,NonConductor*%
D22*
G36*
X81067311Y-78774487D02*
G01*
X81142000Y-78781843D01*
X81663000Y-78781843D01*
X81663000Y-78965499D01*
X81562358Y-79066141D01*
X81476887Y-79194058D01*
X81466566Y-79218976D01*
X81009185Y-78761596D01*
X81017000Y-78759225D01*
X81067311Y-78774487D01*
G37*
%TD.AperFunction*%
D21*
X82973225Y-78126875D02*
X83139294Y-78177252D01*
X83312000Y-78194262D01*
X83413000Y-78184314D01*
X83413000Y-78303922D01*
X83443013Y-78454809D01*
X83501887Y-78596942D01*
X83587358Y-78724859D01*
X83696141Y-78833642D01*
X83824058Y-78919113D01*
X83966191Y-78977987D01*
X84117078Y-79008000D01*
X84270922Y-79008000D01*
X84421809Y-78977987D01*
X84563942Y-78919113D01*
X84597042Y-78896996D01*
X84635310Y-78968590D01*
X84708687Y-79058000D01*
X82767501Y-79058000D01*
X82675000Y-78965499D01*
X82675000Y-78746558D01*
X82729696Y-78717322D01*
X82787711Y-78669711D01*
X82835322Y-78611696D01*
X82870701Y-78545508D01*
X82892487Y-78473689D01*
X82899843Y-78399000D01*
X82899843Y-78087651D01*
X82973225Y-78126875D01*
%TA.AperFunction,NonConductor*%
D22*
G36*
X82973225Y-78126875D02*
G01*
X83139294Y-78177252D01*
X83312000Y-78194262D01*
X83413000Y-78184314D01*
X83413000Y-78303922D01*
X83443013Y-78454809D01*
X83501887Y-78596942D01*
X83587358Y-78724859D01*
X83696141Y-78833642D01*
X83824058Y-78919113D01*
X83966191Y-78977987D01*
X84117078Y-79008000D01*
X84270922Y-79008000D01*
X84421809Y-78977987D01*
X84563942Y-78919113D01*
X84597042Y-78896996D01*
X84635310Y-78968590D01*
X84708687Y-79058000D01*
X82767501Y-79058000D01*
X82675000Y-78965499D01*
X82675000Y-78746558D01*
X82729696Y-78717322D01*
X82787711Y-78669711D01*
X82835322Y-78611696D01*
X82870701Y-78545508D01*
X82892487Y-78473689D01*
X82899843Y-78399000D01*
X82899843Y-78087651D01*
X82973225Y-78126875D01*
G37*
%TD.AperFunction*%
D21*
X86627134Y-71093757D02*
X86532182Y-71171682D01*
X86454257Y-71266634D01*
X86396354Y-71374963D01*
X86360697Y-71492508D01*
X86348657Y-71614750D01*
X86348657Y-72527250D01*
X86360697Y-72649492D01*
X86396354Y-72767037D01*
X86454257Y-72875366D01*
X86532182Y-72970318D01*
X86627134Y-73048243D01*
X86716266Y-73095885D01*
X86658410Y-73126810D01*
X86562512Y-73205512D01*
X86483810Y-73301410D01*
X86425329Y-73410820D01*
X86389317Y-73529537D01*
X86377157Y-73652998D01*
X86377157Y-74553002D01*
X86389317Y-74676463D01*
X86425329Y-74795180D01*
X86483810Y-74904590D01*
X86562512Y-75000488D01*
X86658410Y-75079190D01*
X86744639Y-75125281D01*
X86681910Y-75158810D01*
X86586012Y-75237512D01*
X86507310Y-75333410D01*
X86448829Y-75442820D01*
X86412817Y-75561537D01*
X86400657Y-75684998D01*
X86400657Y-76585002D01*
X86412817Y-76708463D01*
X86448829Y-76827180D01*
X86507310Y-76936590D01*
X86586012Y-77032488D01*
X86681910Y-77111190D01*
X86732889Y-77138439D01*
X86634910Y-77190810D01*
X86539012Y-77269512D01*
X86460310Y-77365410D01*
X86401829Y-77474820D01*
X86365817Y-77593537D01*
X86353657Y-77716998D01*
X86353657Y-78617002D01*
X86365817Y-78740463D01*
X86401829Y-78859180D01*
X86460310Y-78968590D01*
X86533687Y-79058000D01*
X86139313Y-79058000D01*
X86212690Y-78968590D01*
X86271171Y-78859180D01*
X86307183Y-78740463D01*
X86319343Y-78617002D01*
X86319343Y-77716998D01*
X86307183Y-77593537D01*
X86271171Y-77474820D01*
X86212690Y-77365410D01*
X86133988Y-77269512D01*
X86038090Y-77190810D01*
X85987111Y-77163561D01*
X86085090Y-77111190D01*
X86180988Y-77032488D01*
X86259690Y-76936590D01*
X86318171Y-76827180D01*
X86354183Y-76708463D01*
X86366343Y-76585002D01*
X86366343Y-75684998D01*
X86354183Y-75561537D01*
X86318171Y-75442820D01*
X86259690Y-75333410D01*
X86180988Y-75237512D01*
X86085090Y-75158810D01*
X85998861Y-75112719D01*
X86061590Y-75079190D01*
X86157488Y-75000488D01*
X86236190Y-74904590D01*
X86294671Y-74795180D01*
X86330683Y-74676463D01*
X86342843Y-74553002D01*
X86342843Y-73652998D01*
X86330683Y-73529537D01*
X86294671Y-73410820D01*
X86236190Y-73301410D01*
X86157488Y-73205512D01*
X86061590Y-73126810D01*
X85952180Y-73068329D01*
X85917799Y-73057900D01*
X85935866Y-73048243D01*
X86030818Y-72970318D01*
X86108743Y-72875366D01*
X86166646Y-72767037D01*
X86202303Y-72649492D01*
X86214343Y-72527250D01*
X86214343Y-71614750D01*
X86202303Y-71492508D01*
X86166646Y-71374963D01*
X86108743Y-71266634D01*
X86030818Y-71171682D01*
X85935866Y-71093757D01*
X85928835Y-71089999D01*
X86634165Y-71089999D01*
X86627134Y-71093757D01*
%TA.AperFunction,NonConductor*%
D22*
G36*
X86627134Y-71093757D02*
G01*
X86532182Y-71171682D01*
X86454257Y-71266634D01*
X86396354Y-71374963D01*
X86360697Y-71492508D01*
X86348657Y-71614750D01*
X86348657Y-72527250D01*
X86360697Y-72649492D01*
X86396354Y-72767037D01*
X86454257Y-72875366D01*
X86532182Y-72970318D01*
X86627134Y-73048243D01*
X86716266Y-73095885D01*
X86658410Y-73126810D01*
X86562512Y-73205512D01*
X86483810Y-73301410D01*
X86425329Y-73410820D01*
X86389317Y-73529537D01*
X86377157Y-73652998D01*
X86377157Y-74553002D01*
X86389317Y-74676463D01*
X86425329Y-74795180D01*
X86483810Y-74904590D01*
X86562512Y-75000488D01*
X86658410Y-75079190D01*
X86744639Y-75125281D01*
X86681910Y-75158810D01*
X86586012Y-75237512D01*
X86507310Y-75333410D01*
X86448829Y-75442820D01*
X86412817Y-75561537D01*
X86400657Y-75684998D01*
X86400657Y-76585002D01*
X86412817Y-76708463D01*
X86448829Y-76827180D01*
X86507310Y-76936590D01*
X86586012Y-77032488D01*
X86681910Y-77111190D01*
X86732889Y-77138439D01*
X86634910Y-77190810D01*
X86539012Y-77269512D01*
X86460310Y-77365410D01*
X86401829Y-77474820D01*
X86365817Y-77593537D01*
X86353657Y-77716998D01*
X86353657Y-78617002D01*
X86365817Y-78740463D01*
X86401829Y-78859180D01*
X86460310Y-78968590D01*
X86533687Y-79058000D01*
X86139313Y-79058000D01*
X86212690Y-78968590D01*
X86271171Y-78859180D01*
X86307183Y-78740463D01*
X86319343Y-78617002D01*
X86319343Y-77716998D01*
X86307183Y-77593537D01*
X86271171Y-77474820D01*
X86212690Y-77365410D01*
X86133988Y-77269512D01*
X86038090Y-77190810D01*
X85987111Y-77163561D01*
X86085090Y-77111190D01*
X86180988Y-77032488D01*
X86259690Y-76936590D01*
X86318171Y-76827180D01*
X86354183Y-76708463D01*
X86366343Y-76585002D01*
X86366343Y-75684998D01*
X86354183Y-75561537D01*
X86318171Y-75442820D01*
X86259690Y-75333410D01*
X86180988Y-75237512D01*
X86085090Y-75158810D01*
X85998861Y-75112719D01*
X86061590Y-75079190D01*
X86157488Y-75000488D01*
X86236190Y-74904590D01*
X86294671Y-74795180D01*
X86330683Y-74676463D01*
X86342843Y-74553002D01*
X86342843Y-73652998D01*
X86330683Y-73529537D01*
X86294671Y-73410820D01*
X86236190Y-73301410D01*
X86157488Y-73205512D01*
X86061590Y-73126810D01*
X85952180Y-73068329D01*
X85917799Y-73057900D01*
X85935866Y-73048243D01*
X86030818Y-72970318D01*
X86108743Y-72875366D01*
X86166646Y-72767037D01*
X86202303Y-72649492D01*
X86214343Y-72527250D01*
X86214343Y-71614750D01*
X86202303Y-71492508D01*
X86166646Y-71374963D01*
X86108743Y-71266634D01*
X86030818Y-71171682D01*
X85935866Y-71093757D01*
X85928835Y-71089999D01*
X86634165Y-71089999D01*
X86627134Y-71093757D01*
G37*
%TD.AperFunction*%
D21*
X73791001Y-76165727D02*
X73791000Y-77352272D01*
X73803748Y-77481705D01*
X73854125Y-77647774D01*
X73935932Y-77800824D01*
X74046025Y-77934975D01*
X74180175Y-78045068D01*
X74333225Y-78126875D01*
X74499294Y-78177252D01*
X74543776Y-78181633D01*
X74246173Y-78479236D01*
X74155307Y-78418522D01*
X74013174Y-78359648D01*
X73862287Y-78329635D01*
X73708443Y-78329635D01*
X73557556Y-78359648D01*
X73415423Y-78418522D01*
X73287506Y-78503993D01*
X73178723Y-78612776D01*
X73098236Y-78733234D01*
X72683000Y-78317999D01*
X72683000Y-76959843D01*
X72877000Y-76959843D01*
X72951689Y-76952487D01*
X73023508Y-76930701D01*
X73089696Y-76895322D01*
X73147711Y-76847711D01*
X73195322Y-76789696D01*
X73230701Y-76723508D01*
X73252487Y-76651689D01*
X73259843Y-76577000D01*
X73259843Y-76565471D01*
X73321575Y-76546745D01*
X73409479Y-76499759D01*
X73486527Y-76436527D01*
X73502376Y-76417215D01*
X73795058Y-76124533D01*
X73791001Y-76165727D01*
%TA.AperFunction,NonConductor*%
D22*
G36*
X73791001Y-76165727D02*
G01*
X73791000Y-77352272D01*
X73803748Y-77481705D01*
X73854125Y-77647774D01*
X73935932Y-77800824D01*
X74046025Y-77934975D01*
X74180175Y-78045068D01*
X74333225Y-78126875D01*
X74499294Y-78177252D01*
X74543776Y-78181633D01*
X74246173Y-78479236D01*
X74155307Y-78418522D01*
X74013174Y-78359648D01*
X73862287Y-78329635D01*
X73708443Y-78329635D01*
X73557556Y-78359648D01*
X73415423Y-78418522D01*
X73287506Y-78503993D01*
X73178723Y-78612776D01*
X73098236Y-78733234D01*
X72683000Y-78317999D01*
X72683000Y-76959843D01*
X72877000Y-76959843D01*
X72951689Y-76952487D01*
X73023508Y-76930701D01*
X73089696Y-76895322D01*
X73147711Y-76847711D01*
X73195322Y-76789696D01*
X73230701Y-76723508D01*
X73252487Y-76651689D01*
X73259843Y-76577000D01*
X73259843Y-76565471D01*
X73321575Y-76546745D01*
X73409479Y-76499759D01*
X73486527Y-76436527D01*
X73502376Y-76417215D01*
X73795058Y-76124533D01*
X73791001Y-76165727D01*
G37*
%TD.AperFunction*%
D21*
X71094157Y-76577000D02*
X71101513Y-76651689D01*
X71123299Y-76723508D01*
X71158678Y-76789696D01*
X71206289Y-76847711D01*
X71264304Y-76895322D01*
X71330492Y-76930701D01*
X71402311Y-76952487D01*
X71477000Y-76959843D01*
X71671001Y-76959843D01*
X71671000Y-77942409D01*
X70687409Y-76958818D01*
X70751689Y-76952487D01*
X70823508Y-76930701D01*
X70889696Y-76895322D01*
X70947711Y-76847711D01*
X70995322Y-76789696D01*
X71030701Y-76723508D01*
X71052487Y-76651689D01*
X71059843Y-76577000D01*
X71059843Y-75909749D01*
X71094157Y-75875435D01*
X71094157Y-76577000D01*
%TA.AperFunction,NonConductor*%
D22*
G36*
X71094157Y-76577000D02*
G01*
X71101513Y-76651689D01*
X71123299Y-76723508D01*
X71158678Y-76789696D01*
X71206289Y-76847711D01*
X71264304Y-76895322D01*
X71330492Y-76930701D01*
X71402311Y-76952487D01*
X71477000Y-76959843D01*
X71671001Y-76959843D01*
X71671000Y-77942409D01*
X70687409Y-76958818D01*
X70751689Y-76952487D01*
X70823508Y-76930701D01*
X70889696Y-76895322D01*
X70947711Y-76847711D01*
X70995322Y-76789696D01*
X71030701Y-76723508D01*
X71052487Y-76651689D01*
X71059843Y-76577000D01*
X71059843Y-75909749D01*
X71094157Y-75875435D01*
X71094157Y-76577000D01*
G37*
%TD.AperFunction*%
D21*
X84575657Y-75955248D02*
X84575657Y-76585002D01*
X84587817Y-76708463D01*
X84623829Y-76827180D01*
X84682310Y-76936590D01*
X84761012Y-77032488D01*
X84856910Y-77111190D01*
X84907889Y-77138439D01*
X84809910Y-77190810D01*
X84714012Y-77269512D01*
X84635310Y-77365410D01*
X84576829Y-77474820D01*
X84559203Y-77532924D01*
X84421809Y-77476013D01*
X84270922Y-77446000D01*
X84183769Y-77446000D01*
X84193000Y-77352273D01*
X84193000Y-76165727D01*
X84180252Y-76036294D01*
X84129875Y-75870225D01*
X84048068Y-75717175D01*
X84029058Y-75694011D01*
X84314420Y-75694011D01*
X84575657Y-75955248D01*
%TA.AperFunction,NonConductor*%
D22*
G36*
X84575657Y-75955248D02*
G01*
X84575657Y-76585002D01*
X84587817Y-76708463D01*
X84623829Y-76827180D01*
X84682310Y-76936590D01*
X84761012Y-77032488D01*
X84856910Y-77111190D01*
X84907889Y-77138439D01*
X84809910Y-77190810D01*
X84714012Y-77269512D01*
X84635310Y-77365410D01*
X84576829Y-77474820D01*
X84559203Y-77532924D01*
X84421809Y-77476013D01*
X84270922Y-77446000D01*
X84183769Y-77446000D01*
X84193000Y-77352273D01*
X84193000Y-76165727D01*
X84180252Y-76036294D01*
X84129875Y-75870225D01*
X84048068Y-75717175D01*
X84029058Y-75694011D01*
X84314420Y-75694011D01*
X84575657Y-75955248D01*
G37*
%TD.AperFunction*%
D21*
X88608957Y-76432968D02*
X88559717Y-76525090D01*
X88529395Y-76625047D01*
X88519157Y-76729000D01*
X88519157Y-76833980D01*
X88505922Y-76831347D01*
X88352078Y-76831347D01*
X88201191Y-76861360D01*
X88103207Y-76901947D01*
X88143171Y-76827180D01*
X88179183Y-76708463D01*
X88191343Y-76585002D01*
X88191343Y-76387000D01*
X88646682Y-76387000D01*
X88608957Y-76432968D01*
%TA.AperFunction,NonConductor*%
D22*
G36*
X88608957Y-76432968D02*
G01*
X88559717Y-76525090D01*
X88529395Y-76625047D01*
X88519157Y-76729000D01*
X88519157Y-76833980D01*
X88505922Y-76831347D01*
X88352078Y-76831347D01*
X88201191Y-76861360D01*
X88103207Y-76901947D01*
X88143171Y-76827180D01*
X88179183Y-76708463D01*
X88191343Y-76585002D01*
X88191343Y-76387000D01*
X88646682Y-76387000D01*
X88608957Y-76432968D01*
G37*
%TD.AperFunction*%
D21*
X80378568Y-76566157D02*
X80092000Y-76566157D01*
X80017311Y-76573513D01*
X79992000Y-76581191D01*
X79966689Y-76573513D01*
X79892000Y-76566157D01*
X79725921Y-76566157D01*
X79711745Y-76519423D01*
X79701234Y-76499758D01*
X79671959Y-76444990D01*
X80257401Y-76444990D01*
X80378568Y-76566157D01*
%TA.AperFunction,NonConductor*%
D22*
G36*
X80378568Y-76566157D02*
G01*
X80092000Y-76566157D01*
X80017311Y-76573513D01*
X79992000Y-76581191D01*
X79966689Y-76573513D01*
X79892000Y-76566157D01*
X79725921Y-76566157D01*
X79711745Y-76519423D01*
X79701234Y-76499758D01*
X79671959Y-76444990D01*
X80257401Y-76444990D01*
X80378568Y-76566157D01*
G37*
%TD.AperFunction*%
D21*
X77797482Y-76472229D02*
X77772255Y-76519424D01*
X77758079Y-76566157D01*
X77605433Y-76566157D01*
X77726600Y-76444990D01*
X77812042Y-76444990D01*
X77797482Y-76472229D01*
%TA.AperFunction,NonConductor*%
D22*
G36*
X77797482Y-76472229D02*
G01*
X77772255Y-76519424D01*
X77758079Y-76566157D01*
X77605433Y-76566157D01*
X77726600Y-76444990D01*
X77812042Y-76444990D01*
X77797482Y-76472229D01*
G37*
%TD.AperFunction*%
D21*
X76762261Y-75978145D02*
X76727649Y-75894584D01*
X76650386Y-75778951D01*
X76565446Y-75694011D01*
X77046395Y-75694011D01*
X76762261Y-75978145D01*
%TA.AperFunction,NonConductor*%
D22*
G36*
X76762261Y-75978145D02*
G01*
X76727649Y-75894584D01*
X76650386Y-75778951D01*
X76565446Y-75694011D01*
X77046395Y-75694011D01*
X76762261Y-75978145D01*
G37*
%TD.AperFunction*%
D21*
X81333614Y-75778951D02*
X81256351Y-75894584D01*
X81221738Y-75978145D01*
X80937604Y-75694011D01*
X81418554Y-75694011D01*
X81333614Y-75778951D01*
%TA.AperFunction,NonConductor*%
D22*
G36*
X81333614Y-75778951D02*
G01*
X81256351Y-75894584D01*
X81221738Y-75978145D01*
X80937604Y-75694011D01*
X81418554Y-75694011D01*
X81333614Y-75778951D01*
G37*
%TD.AperFunction*%
D21*
X82575933Y-75717175D02*
X82494126Y-75870225D01*
X82493266Y-75873059D01*
X82430386Y-75778951D01*
X82345446Y-75694011D01*
X82594943Y-75694011D01*
X82575933Y-75717175D01*
%TA.AperFunction,NonConductor*%
D22*
G36*
X82575933Y-75717175D02*
G01*
X82494126Y-75870225D01*
X82493266Y-75873059D01*
X82430386Y-75778951D01*
X82345446Y-75694011D01*
X82594943Y-75694011D01*
X82575933Y-75717175D01*
G37*
%TD.AperFunction*%
D21*
X75553614Y-75778951D02*
X75490734Y-75873058D01*
X75489875Y-75870225D01*
X75408068Y-75717175D01*
X75389058Y-75694011D01*
X75638554Y-75694011D01*
X75553614Y-75778951D01*
%TA.AperFunction,NonConductor*%
D22*
G36*
X75553614Y-75778951D02*
G01*
X75490734Y-75873058D01*
X75489875Y-75870225D01*
X75408068Y-75717175D01*
X75389058Y-75694011D01*
X75638554Y-75694011D01*
X75553614Y-75778951D01*
G37*
%TD.AperFunction*%
D21*
X70966310Y-71142410D02*
X70907829Y-71251820D01*
X70871817Y-71370537D01*
X70859657Y-71493998D01*
X70859657Y-72394002D01*
X70871817Y-72517463D01*
X70907829Y-72636180D01*
X70966310Y-72745590D01*
X71045012Y-72841488D01*
X71140910Y-72920190D01*
X71250320Y-72978671D01*
X71369037Y-73014683D01*
X71492498Y-73026843D01*
X72017502Y-73026843D01*
X72140963Y-73014683D01*
X72259680Y-72978671D01*
X72369090Y-72920190D01*
X72464988Y-72841488D01*
X72519480Y-72775090D01*
X72498000Y-72883078D01*
X72498000Y-73036922D01*
X72515169Y-73123239D01*
X72344252Y-73294157D01*
X71477000Y-73294157D01*
X71402311Y-73301513D01*
X71330492Y-73323299D01*
X71264304Y-73358678D01*
X71206289Y-73406289D01*
X71158678Y-73464304D01*
X71123299Y-73530492D01*
X71101513Y-73602311D01*
X71094157Y-73677000D01*
X71094157Y-74614575D01*
X71059843Y-74617955D01*
X71059843Y-73757000D01*
X71052487Y-73682311D01*
X71030701Y-73610492D01*
X70995322Y-73544304D01*
X70947711Y-73486289D01*
X70889696Y-73438678D01*
X70823508Y-73403299D01*
X70751689Y-73381513D01*
X70677000Y-73374157D01*
X70245435Y-73374157D01*
X70270220Y-73349372D01*
X70289527Y-73333527D01*
X70352759Y-73256479D01*
X70399745Y-73168575D01*
X70428678Y-73073193D01*
X70436000Y-72998854D01*
X70438172Y-72976805D01*
X70544090Y-72920190D01*
X70639988Y-72841488D01*
X70718690Y-72745590D01*
X70777171Y-72636180D01*
X70813183Y-72517463D01*
X70825343Y-72394002D01*
X70825343Y-71493998D01*
X70813183Y-71370537D01*
X70777171Y-71251820D01*
X70718690Y-71142410D01*
X70675677Y-71089999D01*
X71009323Y-71089999D01*
X70966310Y-71142410D01*
%TA.AperFunction,NonConductor*%
D22*
G36*
X70966310Y-71142410D02*
G01*
X70907829Y-71251820D01*
X70871817Y-71370537D01*
X70859657Y-71493998D01*
X70859657Y-72394002D01*
X70871817Y-72517463D01*
X70907829Y-72636180D01*
X70966310Y-72745590D01*
X71045012Y-72841488D01*
X71140910Y-72920190D01*
X71250320Y-72978671D01*
X71369037Y-73014683D01*
X71492498Y-73026843D01*
X72017502Y-73026843D01*
X72140963Y-73014683D01*
X72259680Y-72978671D01*
X72369090Y-72920190D01*
X72464988Y-72841488D01*
X72519480Y-72775090D01*
X72498000Y-72883078D01*
X72498000Y-73036922D01*
X72515169Y-73123239D01*
X72344252Y-73294157D01*
X71477000Y-73294157D01*
X71402311Y-73301513D01*
X71330492Y-73323299D01*
X71264304Y-73358678D01*
X71206289Y-73406289D01*
X71158678Y-73464304D01*
X71123299Y-73530492D01*
X71101513Y-73602311D01*
X71094157Y-73677000D01*
X71094157Y-74614575D01*
X71059843Y-74617955D01*
X71059843Y-73757000D01*
X71052487Y-73682311D01*
X71030701Y-73610492D01*
X70995322Y-73544304D01*
X70947711Y-73486289D01*
X70889696Y-73438678D01*
X70823508Y-73403299D01*
X70751689Y-73381513D01*
X70677000Y-73374157D01*
X70245435Y-73374157D01*
X70270220Y-73349372D01*
X70289527Y-73333527D01*
X70352759Y-73256479D01*
X70399745Y-73168575D01*
X70428678Y-73073193D01*
X70436000Y-72998854D01*
X70438172Y-72976805D01*
X70544090Y-72920190D01*
X70639988Y-72841488D01*
X70718690Y-72745590D01*
X70777171Y-72636180D01*
X70813183Y-72517463D01*
X70825343Y-72394002D01*
X70825343Y-71493998D01*
X70813183Y-71370537D01*
X70777171Y-71251820D01*
X70718690Y-71142410D01*
X70675677Y-71089999D01*
X71009323Y-71089999D01*
X70966310Y-71142410D01*
G37*
%TD.AperFunction*%
D21*
X88427628Y-74219220D02*
X88443473Y-74238527D01*
X88520521Y-74301759D01*
X88608425Y-74348745D01*
X88635045Y-74356820D01*
X88648323Y-74373000D01*
X88258092Y-74373000D01*
X88167843Y-74282751D01*
X88167843Y-73959435D01*
X88427628Y-74219220D01*
%TA.AperFunction,NonConductor*%
D22*
G36*
X88427628Y-74219220D02*
G01*
X88443473Y-74238527D01*
X88520521Y-74301759D01*
X88608425Y-74348745D01*
X88635045Y-74356820D01*
X88648323Y-74373000D01*
X88258092Y-74373000D01*
X88167843Y-74282751D01*
X88167843Y-73959435D01*
X88427628Y-74219220D01*
G37*
%TD.AperFunction*%
D21*
X84552157Y-74232000D02*
X84078591Y-74232000D01*
X84552157Y-73758434D01*
X84552157Y-74232000D01*
%TA.AperFunction,NonConductor*%
D22*
G36*
X84552157Y-74232000D02*
G01*
X84078591Y-74232000D01*
X84552157Y-73758434D01*
X84552157Y-74232000D01*
G37*
%TD.AperFunction*%
D21*
X82971780Y-71113629D02*
X82952474Y-71129473D01*
X82889242Y-71206521D01*
X82872326Y-71238169D01*
X82842255Y-71294426D01*
X82813322Y-71389808D01*
X82803553Y-71489000D01*
X82806001Y-71513856D01*
X82806001Y-71554565D01*
X82686026Y-71653025D01*
X82575933Y-71787175D01*
X82494125Y-71940225D01*
X82443748Y-72106294D01*
X82431000Y-72235727D01*
X82431000Y-72714031D01*
X82387642Y-72649141D01*
X82278859Y-72540358D01*
X82150942Y-72454887D01*
X82008809Y-72396013D01*
X81857922Y-72366000D01*
X81704078Y-72366000D01*
X81553191Y-72396013D01*
X81411058Y-72454887D01*
X81283141Y-72540358D01*
X81174358Y-72649141D01*
X81088887Y-72777058D01*
X81030013Y-72919191D01*
X81000000Y-73070078D01*
X81000000Y-73223922D01*
X81030013Y-73374809D01*
X81088887Y-73516942D01*
X81174358Y-73644859D01*
X81200499Y-73671000D01*
X76820859Y-73671000D01*
X76848330Y-73629886D01*
X76907204Y-73487753D01*
X76937217Y-73336866D01*
X76937217Y-73183022D01*
X76907204Y-73032135D01*
X76848330Y-72890002D01*
X76762859Y-72762085D01*
X76654076Y-72653302D01*
X76526159Y-72567831D01*
X76384026Y-72508957D01*
X76233139Y-72478944D01*
X76079295Y-72478944D01*
X75928408Y-72508957D01*
X75786275Y-72567831D01*
X75658358Y-72653302D01*
X75553000Y-72758660D01*
X75553000Y-72235727D01*
X75540252Y-72106294D01*
X75489875Y-71940225D01*
X75408068Y-71787175D01*
X75297975Y-71653025D01*
X75178000Y-71554565D01*
X75178000Y-71523854D01*
X75180448Y-71499000D01*
X75170678Y-71399807D01*
X75141745Y-71304425D01*
X75135334Y-71292431D01*
X75094759Y-71216521D01*
X75031527Y-71139473D01*
X75012220Y-71123628D01*
X74978591Y-71089999D01*
X82995410Y-71089999D01*
X82971780Y-71113629D01*
%TA.AperFunction,NonConductor*%
D22*
G36*
X82971780Y-71113629D02*
G01*
X82952474Y-71129473D01*
X82889242Y-71206521D01*
X82872326Y-71238169D01*
X82842255Y-71294426D01*
X82813322Y-71389808D01*
X82803553Y-71489000D01*
X82806001Y-71513856D01*
X82806001Y-71554565D01*
X82686026Y-71653025D01*
X82575933Y-71787175D01*
X82494125Y-71940225D01*
X82443748Y-72106294D01*
X82431000Y-72235727D01*
X82431000Y-72714031D01*
X82387642Y-72649141D01*
X82278859Y-72540358D01*
X82150942Y-72454887D01*
X82008809Y-72396013D01*
X81857922Y-72366000D01*
X81704078Y-72366000D01*
X81553191Y-72396013D01*
X81411058Y-72454887D01*
X81283141Y-72540358D01*
X81174358Y-72649141D01*
X81088887Y-72777058D01*
X81030013Y-72919191D01*
X81000000Y-73070078D01*
X81000000Y-73223922D01*
X81030013Y-73374809D01*
X81088887Y-73516942D01*
X81174358Y-73644859D01*
X81200499Y-73671000D01*
X76820859Y-73671000D01*
X76848330Y-73629886D01*
X76907204Y-73487753D01*
X76937217Y-73336866D01*
X76937217Y-73183022D01*
X76907204Y-73032135D01*
X76848330Y-72890002D01*
X76762859Y-72762085D01*
X76654076Y-72653302D01*
X76526159Y-72567831D01*
X76384026Y-72508957D01*
X76233139Y-72478944D01*
X76079295Y-72478944D01*
X75928408Y-72508957D01*
X75786275Y-72567831D01*
X75658358Y-72653302D01*
X75553000Y-72758660D01*
X75553000Y-72235727D01*
X75540252Y-72106294D01*
X75489875Y-71940225D01*
X75408068Y-71787175D01*
X75297975Y-71653025D01*
X75178000Y-71554565D01*
X75178000Y-71523854D01*
X75180448Y-71499000D01*
X75170678Y-71399807D01*
X75141745Y-71304425D01*
X75135334Y-71292431D01*
X75094759Y-71216521D01*
X75031527Y-71139473D01*
X75012220Y-71123628D01*
X74978591Y-71089999D01*
X82995410Y-71089999D01*
X82971780Y-71113629D01*
G37*
%TD.AperFunction*%
D21*
X82575932Y-73370824D02*
X82686025Y-73504975D01*
X82820175Y-73615068D01*
X82924816Y-73671000D01*
X82361501Y-73671000D01*
X82387642Y-73644859D01*
X82473113Y-73516942D01*
X82531987Y-73374809D01*
X82544483Y-73311987D01*
X82575932Y-73370824D01*
%TA.AperFunction,NonConductor*%
D22*
G36*
X82575932Y-73370824D02*
G01*
X82686025Y-73504975D01*
X82820175Y-73615068D01*
X82924816Y-73671000D01*
X82361501Y-73671000D01*
X82387642Y-73644859D01*
X82473113Y-73516942D01*
X82531987Y-73374809D01*
X82544483Y-73311987D01*
X82575932Y-73370824D01*
G37*
%TD.AperFunction*%
D21*
X74046025Y-73504975D02*
X74180175Y-73615068D01*
X74284816Y-73671000D01*
X73603345Y-73671000D01*
X73648942Y-73652113D01*
X73776859Y-73566642D01*
X73885642Y-73457859D01*
X73940267Y-73376106D01*
X74046025Y-73504975D01*
%TA.AperFunction,NonConductor*%
D22*
G36*
X74046025Y-73504975D02*
G01*
X74180175Y-73615068D01*
X74284816Y-73671000D01*
X73603345Y-73671000D01*
X73648942Y-73652113D01*
X73776859Y-73566642D01*
X73885642Y-73457859D01*
X73940267Y-73376106D01*
X74046025Y-73504975D01*
G37*
%TD.AperFunction*%
D21*
X75405230Y-73487753D02*
X75464104Y-73629886D01*
X75491575Y-73671000D01*
X75059183Y-73671000D01*
X75163824Y-73615068D01*
X75297975Y-73504975D01*
X75387063Y-73396420D01*
X75405230Y-73487753D01*
%TA.AperFunction,NonConductor*%
D22*
G36*
X75405230Y-73487753D02*
G01*
X75464104Y-73629886D01*
X75491575Y-73671000D01*
X75059183Y-73671000D01*
X75163824Y-73615068D01*
X75297975Y-73504975D01*
X75387063Y-73396420D01*
X75405230Y-73487753D01*
G37*
%TD.AperFunction*%
D21*
X69141310Y-71142410D02*
X69082829Y-71251820D01*
X69046817Y-71370537D01*
X69034657Y-71493998D01*
X69034657Y-72394002D01*
X69046817Y-72517463D01*
X69082829Y-72636180D01*
X69141310Y-72745590D01*
X69220012Y-72841488D01*
X69289716Y-72898693D01*
X69052409Y-73136000D01*
X67973800Y-73136000D01*
X67930190Y-73054411D01*
X67851488Y-72958512D01*
X67755589Y-72879810D01*
X67646179Y-72821329D01*
X67527462Y-72785317D01*
X67404000Y-72773157D01*
X66454000Y-72773157D01*
X66330538Y-72785317D01*
X66211821Y-72821329D01*
X66102411Y-72879810D01*
X66006512Y-72958512D01*
X65927810Y-73054411D01*
X65907583Y-73092254D01*
X65873190Y-73027910D01*
X65794488Y-72932012D01*
X65698590Y-72853310D01*
X65589180Y-72794829D01*
X65470463Y-72758817D01*
X65347002Y-72746657D01*
X64608935Y-72746657D01*
X64643249Y-72712343D01*
X65347002Y-72712343D01*
X65470463Y-72700183D01*
X65589180Y-72664171D01*
X65698590Y-72605690D01*
X65794488Y-72526988D01*
X65873190Y-72431090D01*
X65920144Y-72343246D01*
X65927810Y-72357589D01*
X66006512Y-72453488D01*
X66102411Y-72532190D01*
X66211821Y-72590671D01*
X66330538Y-72626683D01*
X66454000Y-72638843D01*
X67404000Y-72638843D01*
X67527462Y-72626683D01*
X67646179Y-72590671D01*
X67755589Y-72532190D01*
X67851488Y-72453488D01*
X67930190Y-72357589D01*
X67988671Y-72248179D01*
X68024683Y-72129462D01*
X68036843Y-72006000D01*
X68036843Y-71506000D01*
X68024683Y-71382538D01*
X68023140Y-71377452D01*
X68310593Y-71089999D01*
X69184323Y-71089999D01*
X69141310Y-71142410D01*
%TA.AperFunction,NonConductor*%
D22*
G36*
X69141310Y-71142410D02*
G01*
X69082829Y-71251820D01*
X69046817Y-71370537D01*
X69034657Y-71493998D01*
X69034657Y-72394002D01*
X69046817Y-72517463D01*
X69082829Y-72636180D01*
X69141310Y-72745590D01*
X69220012Y-72841488D01*
X69289716Y-72898693D01*
X69052409Y-73136000D01*
X67973800Y-73136000D01*
X67930190Y-73054411D01*
X67851488Y-72958512D01*
X67755589Y-72879810D01*
X67646179Y-72821329D01*
X67527462Y-72785317D01*
X67404000Y-72773157D01*
X66454000Y-72773157D01*
X66330538Y-72785317D01*
X66211821Y-72821329D01*
X66102411Y-72879810D01*
X66006512Y-72958512D01*
X65927810Y-73054411D01*
X65907583Y-73092254D01*
X65873190Y-73027910D01*
X65794488Y-72932012D01*
X65698590Y-72853310D01*
X65589180Y-72794829D01*
X65470463Y-72758817D01*
X65347002Y-72746657D01*
X64608935Y-72746657D01*
X64643249Y-72712343D01*
X65347002Y-72712343D01*
X65470463Y-72700183D01*
X65589180Y-72664171D01*
X65698590Y-72605690D01*
X65794488Y-72526988D01*
X65873190Y-72431090D01*
X65920144Y-72343246D01*
X65927810Y-72357589D01*
X66006512Y-72453488D01*
X66102411Y-72532190D01*
X66211821Y-72590671D01*
X66330538Y-72626683D01*
X66454000Y-72638843D01*
X67404000Y-72638843D01*
X67527462Y-72626683D01*
X67646179Y-72590671D01*
X67755589Y-72532190D01*
X67851488Y-72453488D01*
X67930190Y-72357589D01*
X67988671Y-72248179D01*
X68024683Y-72129462D01*
X68036843Y-72006000D01*
X68036843Y-71506000D01*
X68024683Y-71382538D01*
X68023140Y-71377452D01*
X68310593Y-71089999D01*
X69184323Y-71089999D01*
X69141310Y-71142410D01*
G37*
%TD.AperFunction*%
D21*
X84752134Y-71093757D02*
X84657182Y-71171682D01*
X84579257Y-71266634D01*
X84521354Y-71374963D01*
X84485697Y-71492508D01*
X84473657Y-71614750D01*
X84473657Y-72405751D01*
X84193000Y-72686408D01*
X84193000Y-72235727D01*
X84180252Y-72106294D01*
X84129875Y-71940225D01*
X84048068Y-71787175D01*
X83937975Y-71653025D01*
X83897106Y-71619485D01*
X84426593Y-71089999D01*
X84759165Y-71089999D01*
X84752134Y-71093757D01*
%TA.AperFunction,NonConductor*%
D22*
G36*
X84752134Y-71093757D02*
G01*
X84657182Y-71171682D01*
X84579257Y-71266634D01*
X84521354Y-71374963D01*
X84485697Y-71492508D01*
X84473657Y-71614750D01*
X84473657Y-72405751D01*
X84193000Y-72686408D01*
X84193000Y-72235727D01*
X84180252Y-72106294D01*
X84129875Y-71940225D01*
X84048068Y-71787175D01*
X83937975Y-71653025D01*
X83897106Y-71619485D01*
X84426593Y-71089999D01*
X84759165Y-71089999D01*
X84752134Y-71093757D01*
G37*
%TD.AperFunction*%
D21*
X74081402Y-71623993D02*
X74046026Y-71653025D01*
X73935933Y-71787175D01*
X73854125Y-71940225D01*
X73803748Y-72106294D01*
X73791000Y-72235727D01*
X73791000Y-72367499D01*
X73776859Y-72353358D01*
X73648942Y-72267887D01*
X73506809Y-72209013D01*
X73355922Y-72179000D01*
X73202078Y-72179000D01*
X73051191Y-72209013D01*
X72909058Y-72267887D01*
X72781141Y-72353358D01*
X72672358Y-72462141D01*
X72638665Y-72512566D01*
X72650343Y-72394002D01*
X72650343Y-71815000D01*
X72680499Y-71815000D01*
X72781141Y-71915642D01*
X72909058Y-72001113D01*
X73051191Y-72059987D01*
X73202078Y-72090000D01*
X73355922Y-72090000D01*
X73506809Y-72059987D01*
X73648942Y-72001113D01*
X73776859Y-71915642D01*
X73885642Y-71806859D01*
X73971113Y-71678942D01*
X74019510Y-71562102D01*
X74081402Y-71623993D01*
%TA.AperFunction,NonConductor*%
D22*
G36*
X74081402Y-71623993D02*
G01*
X74046026Y-71653025D01*
X73935933Y-71787175D01*
X73854125Y-71940225D01*
X73803748Y-72106294D01*
X73791000Y-72235727D01*
X73791000Y-72367499D01*
X73776859Y-72353358D01*
X73648942Y-72267887D01*
X73506809Y-72209013D01*
X73355922Y-72179000D01*
X73202078Y-72179000D01*
X73051191Y-72209013D01*
X72909058Y-72267887D01*
X72781141Y-72353358D01*
X72672358Y-72462141D01*
X72638665Y-72512566D01*
X72650343Y-72394002D01*
X72650343Y-71815000D01*
X72680499Y-71815000D01*
X72781141Y-71915642D01*
X72909058Y-72001113D01*
X73051191Y-72059987D01*
X73202078Y-72090000D01*
X73355922Y-72090000D01*
X73506809Y-72059987D01*
X73648942Y-72001113D01*
X73776859Y-71915642D01*
X73885642Y-71806859D01*
X73971113Y-71678942D01*
X74019510Y-71562102D01*
X74081402Y-71623993D01*
G37*
%TD.AperFunction*%
D21*
X94465604Y-64552459D02*
X94715231Y-64926053D01*
X95032947Y-65243769D01*
X95406541Y-65493396D01*
X95821657Y-65665343D01*
X96262341Y-65753000D01*
X96711659Y-65753000D01*
X97152343Y-65665343D01*
X97567459Y-65493396D01*
X97941053Y-65243769D01*
X98258769Y-64926053D01*
X98508396Y-64552459D01*
X98513971Y-64539000D01*
X99396834Y-64539000D01*
X99316687Y-64920978D01*
X99003503Y-65714010D01*
X98561175Y-66442942D01*
X98002360Y-67086921D01*
X97343022Y-67627544D01*
X96602030Y-68049341D01*
X95800559Y-68340261D01*
X94953066Y-68493514D01*
X94465520Y-68516506D01*
X94452549Y-68518225D01*
X94435524Y-68518225D01*
X94429191Y-68518891D01*
X94332216Y-68529768D01*
X94291799Y-68538358D01*
X94274210Y-68541841D01*
X94214239Y-68481870D01*
X94110891Y-68412815D01*
X93996056Y-68365249D01*
X93874148Y-68341000D01*
X93749852Y-68341000D01*
X93627944Y-68365249D01*
X93513109Y-68412815D01*
X93437000Y-68463669D01*
X93360891Y-68412815D01*
X93246056Y-68365249D01*
X93124148Y-68341000D01*
X92999852Y-68341000D01*
X92877944Y-68365249D01*
X92763109Y-68412815D01*
X92687000Y-68463669D01*
X92610891Y-68412815D01*
X92496056Y-68365249D01*
X92374148Y-68341000D01*
X92249852Y-68341000D01*
X92127944Y-68365249D01*
X92013109Y-68412815D01*
X91937000Y-68463669D01*
X91860891Y-68412815D01*
X91746056Y-68365249D01*
X91624148Y-68341000D01*
X91499852Y-68341000D01*
X91377944Y-68365249D01*
X91263109Y-68412815D01*
X91187000Y-68463669D01*
X91110891Y-68412815D01*
X90996056Y-68365249D01*
X90874148Y-68341000D01*
X90749852Y-68341000D01*
X90627944Y-68365249D01*
X90513109Y-68412815D01*
X90409761Y-68481870D01*
X90345317Y-68546314D01*
X90340917Y-68544985D01*
X90300378Y-68536958D01*
X90259946Y-68528363D01*
X90253622Y-68527699D01*
X90253617Y-68527698D01*
X90253613Y-68527698D01*
X90156496Y-68518176D01*
X90156493Y-68518176D01*
X90134399Y-68516000D01*
X83816508Y-68516000D01*
X83839000Y-68402922D01*
X83839000Y-68249078D01*
X83808987Y-68098191D01*
X83797310Y-68070000D01*
X87478154Y-68070000D01*
X87503000Y-68072447D01*
X87527846Y-68070000D01*
X87527854Y-68070000D01*
X87602193Y-68062678D01*
X87697575Y-68033745D01*
X87785479Y-67986759D01*
X87862527Y-67923527D01*
X87878376Y-67904215D01*
X89953592Y-65828999D01*
X90919157Y-65828999D01*
X90919157Y-66529001D01*
X90931317Y-66652462D01*
X90967329Y-66771179D01*
X91025810Y-66880589D01*
X91104512Y-66976488D01*
X91200411Y-67055190D01*
X91309821Y-67113671D01*
X91428538Y-67149683D01*
X91551999Y-67161843D01*
X92852001Y-67161843D01*
X92975462Y-67149683D01*
X93094179Y-67113671D01*
X93203589Y-67055190D01*
X93299488Y-66976488D01*
X93378190Y-66880589D01*
X93436671Y-66771179D01*
X93472683Y-66652462D01*
X93484843Y-66529001D01*
X93484843Y-65828999D01*
X93472683Y-65705538D01*
X93436671Y-65586821D01*
X93378190Y-65477411D01*
X93299488Y-65381512D01*
X93203589Y-65302810D01*
X93094179Y-65244329D01*
X92975462Y-65208317D01*
X92852001Y-65196157D01*
X91551999Y-65196157D01*
X91428538Y-65208317D01*
X91309821Y-65244329D01*
X91200411Y-65302810D01*
X91104512Y-65381512D01*
X91025810Y-65477411D01*
X90967329Y-65586821D01*
X90931317Y-65705538D01*
X90919157Y-65828999D01*
X89953592Y-65828999D01*
X90017220Y-65765372D01*
X90036527Y-65749527D01*
X90099759Y-65672479D01*
X90146745Y-65584575D01*
X90153640Y-65561843D01*
X90302000Y-65561843D01*
X90405953Y-65551605D01*
X90505910Y-65521283D01*
X90598032Y-65472043D01*
X90678777Y-65405777D01*
X90745043Y-65325032D01*
X90794283Y-65232910D01*
X90824605Y-65132953D01*
X90834843Y-65029000D01*
X90834843Y-64729000D01*
X90824605Y-64625047D01*
X90798503Y-64539000D01*
X94460029Y-64539000D01*
X94465604Y-64552459D01*
%TA.AperFunction,NonConductor*%
D22*
G36*
X94465604Y-64552459D02*
G01*
X94715231Y-64926053D01*
X95032947Y-65243769D01*
X95406541Y-65493396D01*
X95821657Y-65665343D01*
X96262341Y-65753000D01*
X96711659Y-65753000D01*
X97152343Y-65665343D01*
X97567459Y-65493396D01*
X97941053Y-65243769D01*
X98258769Y-64926053D01*
X98508396Y-64552459D01*
X98513971Y-64539000D01*
X99396834Y-64539000D01*
X99316687Y-64920978D01*
X99003503Y-65714010D01*
X98561175Y-66442942D01*
X98002360Y-67086921D01*
X97343022Y-67627544D01*
X96602030Y-68049341D01*
X95800559Y-68340261D01*
X94953066Y-68493514D01*
X94465520Y-68516506D01*
X94452549Y-68518225D01*
X94435524Y-68518225D01*
X94429191Y-68518891D01*
X94332216Y-68529768D01*
X94291799Y-68538358D01*
X94274210Y-68541841D01*
X94214239Y-68481870D01*
X94110891Y-68412815D01*
X93996056Y-68365249D01*
X93874148Y-68341000D01*
X93749852Y-68341000D01*
X93627944Y-68365249D01*
X93513109Y-68412815D01*
X93437000Y-68463669D01*
X93360891Y-68412815D01*
X93246056Y-68365249D01*
X93124148Y-68341000D01*
X92999852Y-68341000D01*
X92877944Y-68365249D01*
X92763109Y-68412815D01*
X92687000Y-68463669D01*
X92610891Y-68412815D01*
X92496056Y-68365249D01*
X92374148Y-68341000D01*
X92249852Y-68341000D01*
X92127944Y-68365249D01*
X92013109Y-68412815D01*
X91937000Y-68463669D01*
X91860891Y-68412815D01*
X91746056Y-68365249D01*
X91624148Y-68341000D01*
X91499852Y-68341000D01*
X91377944Y-68365249D01*
X91263109Y-68412815D01*
X91187000Y-68463669D01*
X91110891Y-68412815D01*
X90996056Y-68365249D01*
X90874148Y-68341000D01*
X90749852Y-68341000D01*
X90627944Y-68365249D01*
X90513109Y-68412815D01*
X90409761Y-68481870D01*
X90345317Y-68546314D01*
X90340917Y-68544985D01*
X90300378Y-68536958D01*
X90259946Y-68528363D01*
X90253622Y-68527699D01*
X90253617Y-68527698D01*
X90253613Y-68527698D01*
X90156496Y-68518176D01*
X90156493Y-68518176D01*
X90134399Y-68516000D01*
X83816508Y-68516000D01*
X83839000Y-68402922D01*
X83839000Y-68249078D01*
X83808987Y-68098191D01*
X83797310Y-68070000D01*
X87478154Y-68070000D01*
X87503000Y-68072447D01*
X87527846Y-68070000D01*
X87527854Y-68070000D01*
X87602193Y-68062678D01*
X87697575Y-68033745D01*
X87785479Y-67986759D01*
X87862527Y-67923527D01*
X87878376Y-67904215D01*
X89953592Y-65828999D01*
X90919157Y-65828999D01*
X90919157Y-66529001D01*
X90931317Y-66652462D01*
X90967329Y-66771179D01*
X91025810Y-66880589D01*
X91104512Y-66976488D01*
X91200411Y-67055190D01*
X91309821Y-67113671D01*
X91428538Y-67149683D01*
X91551999Y-67161843D01*
X92852001Y-67161843D01*
X92975462Y-67149683D01*
X93094179Y-67113671D01*
X93203589Y-67055190D01*
X93299488Y-66976488D01*
X93378190Y-66880589D01*
X93436671Y-66771179D01*
X93472683Y-66652462D01*
X93484843Y-66529001D01*
X93484843Y-65828999D01*
X93472683Y-65705538D01*
X93436671Y-65586821D01*
X93378190Y-65477411D01*
X93299488Y-65381512D01*
X93203589Y-65302810D01*
X93094179Y-65244329D01*
X92975462Y-65208317D01*
X92852001Y-65196157D01*
X91551999Y-65196157D01*
X91428538Y-65208317D01*
X91309821Y-65244329D01*
X91200411Y-65302810D01*
X91104512Y-65381512D01*
X91025810Y-65477411D01*
X90967329Y-65586821D01*
X90931317Y-65705538D01*
X90919157Y-65828999D01*
X89953592Y-65828999D01*
X90017220Y-65765372D01*
X90036527Y-65749527D01*
X90099759Y-65672479D01*
X90146745Y-65584575D01*
X90153640Y-65561843D01*
X90302000Y-65561843D01*
X90405953Y-65551605D01*
X90505910Y-65521283D01*
X90598032Y-65472043D01*
X90678777Y-65405777D01*
X90745043Y-65325032D01*
X90794283Y-65232910D01*
X90824605Y-65132953D01*
X90834843Y-65029000D01*
X90834843Y-64729000D01*
X90824605Y-64625047D01*
X90798503Y-64539000D01*
X94460029Y-64539000D01*
X94465604Y-64552459D01*
G37*
%TD.AperFunction*%
D21*
X59465604Y-64552459D02*
X59715231Y-64926053D01*
X60032947Y-65243769D01*
X60406541Y-65493396D01*
X60821657Y-65665343D01*
X61262341Y-65753000D01*
X61711659Y-65753000D01*
X62152343Y-65665343D01*
X62567459Y-65493396D01*
X62941053Y-65243769D01*
X63258769Y-64926053D01*
X63508396Y-64552459D01*
X63513971Y-64539000D01*
X68894157Y-64539000D01*
X68894157Y-64577000D01*
X68901513Y-64651689D01*
X68923299Y-64723508D01*
X68958678Y-64789696D01*
X69006289Y-64847711D01*
X69064304Y-64895322D01*
X69130492Y-64930701D01*
X69202311Y-64952487D01*
X69277000Y-64959843D01*
X69468962Y-64959843D01*
X69468553Y-64964000D01*
X69471000Y-64988846D01*
X69471000Y-64988853D01*
X69478322Y-65063192D01*
X69507255Y-65158574D01*
X69554241Y-65246479D01*
X69617473Y-65323527D01*
X69636785Y-65339376D01*
X72813408Y-68516000D01*
X67839601Y-68516000D01*
X67817009Y-68518225D01*
X67810524Y-68518225D01*
X67804191Y-68518891D01*
X67707216Y-68529768D01*
X67666799Y-68538358D01*
X67649210Y-68541841D01*
X67589239Y-68481870D01*
X67485891Y-68412815D01*
X67371056Y-68365249D01*
X67249148Y-68341000D01*
X67124852Y-68341000D01*
X67002944Y-68365249D01*
X66888109Y-68412815D01*
X66812000Y-68463669D01*
X66735891Y-68412815D01*
X66621056Y-68365249D01*
X66499148Y-68341000D01*
X66374852Y-68341000D01*
X66252944Y-68365249D01*
X66138109Y-68412815D01*
X66062000Y-68463669D01*
X65985891Y-68412815D01*
X65871056Y-68365249D01*
X65749148Y-68341000D01*
X65624852Y-68341000D01*
X65502944Y-68365249D01*
X65388109Y-68412815D01*
X65312000Y-68463669D01*
X65235891Y-68412815D01*
X65121056Y-68365249D01*
X64999148Y-68341000D01*
X64874852Y-68341000D01*
X64752944Y-68365249D01*
X64638109Y-68412815D01*
X64562000Y-68463669D01*
X64485891Y-68412815D01*
X64371056Y-68365249D01*
X64249148Y-68341000D01*
X64124852Y-68341000D01*
X64002944Y-68365249D01*
X63888109Y-68412815D01*
X63784761Y-68481870D01*
X63720317Y-68546314D01*
X63715917Y-68544985D01*
X63675378Y-68536958D01*
X63634946Y-68528363D01*
X63628622Y-68527699D01*
X63628617Y-68527698D01*
X63628613Y-68527698D01*
X63531496Y-68518176D01*
X63529651Y-68518176D01*
X63525554Y-68517633D01*
X62637420Y-68442274D01*
X61812125Y-68228070D01*
X61034725Y-67877877D01*
X60327434Y-67401701D01*
X59710493Y-66813167D01*
X59201534Y-66129103D01*
X58815107Y-65369055D01*
X58562265Y-64554774D01*
X58560174Y-64539000D01*
X59460029Y-64539000D01*
X59465604Y-64552459D01*
%TA.AperFunction,NonConductor*%
D22*
G36*
X59465604Y-64552459D02*
G01*
X59715231Y-64926053D01*
X60032947Y-65243769D01*
X60406541Y-65493396D01*
X60821657Y-65665343D01*
X61262341Y-65753000D01*
X61711659Y-65753000D01*
X62152343Y-65665343D01*
X62567459Y-65493396D01*
X62941053Y-65243769D01*
X63258769Y-64926053D01*
X63508396Y-64552459D01*
X63513971Y-64539000D01*
X68894157Y-64539000D01*
X68894157Y-64577000D01*
X68901513Y-64651689D01*
X68923299Y-64723508D01*
X68958678Y-64789696D01*
X69006289Y-64847711D01*
X69064304Y-64895322D01*
X69130492Y-64930701D01*
X69202311Y-64952487D01*
X69277000Y-64959843D01*
X69468962Y-64959843D01*
X69468553Y-64964000D01*
X69471000Y-64988846D01*
X69471000Y-64988853D01*
X69478322Y-65063192D01*
X69507255Y-65158574D01*
X69554241Y-65246479D01*
X69617473Y-65323527D01*
X69636785Y-65339376D01*
X72813408Y-68516000D01*
X67839601Y-68516000D01*
X67817009Y-68518225D01*
X67810524Y-68518225D01*
X67804191Y-68518891D01*
X67707216Y-68529768D01*
X67666799Y-68538358D01*
X67649210Y-68541841D01*
X67589239Y-68481870D01*
X67485891Y-68412815D01*
X67371056Y-68365249D01*
X67249148Y-68341000D01*
X67124852Y-68341000D01*
X67002944Y-68365249D01*
X66888109Y-68412815D01*
X66812000Y-68463669D01*
X66735891Y-68412815D01*
X66621056Y-68365249D01*
X66499148Y-68341000D01*
X66374852Y-68341000D01*
X66252944Y-68365249D01*
X66138109Y-68412815D01*
X66062000Y-68463669D01*
X65985891Y-68412815D01*
X65871056Y-68365249D01*
X65749148Y-68341000D01*
X65624852Y-68341000D01*
X65502944Y-68365249D01*
X65388109Y-68412815D01*
X65312000Y-68463669D01*
X65235891Y-68412815D01*
X65121056Y-68365249D01*
X64999148Y-68341000D01*
X64874852Y-68341000D01*
X64752944Y-68365249D01*
X64638109Y-68412815D01*
X64562000Y-68463669D01*
X64485891Y-68412815D01*
X64371056Y-68365249D01*
X64249148Y-68341000D01*
X64124852Y-68341000D01*
X64002944Y-68365249D01*
X63888109Y-68412815D01*
X63784761Y-68481870D01*
X63720317Y-68546314D01*
X63715917Y-68544985D01*
X63675378Y-68536958D01*
X63634946Y-68528363D01*
X63628622Y-68527699D01*
X63628617Y-68527698D01*
X63628613Y-68527698D01*
X63531496Y-68518176D01*
X63529651Y-68518176D01*
X63525554Y-68517633D01*
X62637420Y-68442274D01*
X61812125Y-68228070D01*
X61034725Y-67877877D01*
X60327434Y-67401701D01*
X59710493Y-66813167D01*
X59201534Y-66129103D01*
X58815107Y-65369055D01*
X58562265Y-64554774D01*
X58560174Y-64539000D01*
X59460029Y-64539000D01*
X59465604Y-64552459D01*
G37*
%TD.AperFunction*%
D21*
X79438141Y-67465358D02*
X79329358Y-67574141D01*
X79243887Y-67702058D01*
X79185013Y-67844191D01*
X79155000Y-67995078D01*
X79155000Y-68148922D01*
X79185013Y-68299809D01*
X79243887Y-68441942D01*
X79293371Y-68516000D01*
X78107006Y-68516000D01*
X79082220Y-67540787D01*
X79101527Y-67524942D01*
X79164759Y-67447894D01*
X79171651Y-67435000D01*
X79422156Y-67435000D01*
X79447002Y-67437447D01*
X79471848Y-67435000D01*
X79471856Y-67435000D01*
X79485601Y-67433646D01*
X79438141Y-67465358D01*
%TA.AperFunction,NonConductor*%
D22*
G36*
X79438141Y-67465358D02*
G01*
X79329358Y-67574141D01*
X79243887Y-67702058D01*
X79185013Y-67844191D01*
X79155000Y-67995078D01*
X79155000Y-68148922D01*
X79185013Y-68299809D01*
X79243887Y-68441942D01*
X79293371Y-68516000D01*
X78107006Y-68516000D01*
X79082220Y-67540787D01*
X79101527Y-67524942D01*
X79164759Y-67447894D01*
X79171651Y-67435000D01*
X79422156Y-67435000D01*
X79447002Y-67437447D01*
X79471848Y-67435000D01*
X79471856Y-67435000D01*
X79485601Y-67433646D01*
X79438141Y-67465358D01*
G37*
%TD.AperFunction*%
D21*
X81332406Y-68516000D02*
X80578629Y-68516000D01*
X80628113Y-68441942D01*
X80686987Y-68299809D01*
X80717000Y-68148922D01*
X80717000Y-67995078D01*
X80693540Y-67877133D01*
X81332406Y-68516000D01*
%TA.AperFunction,NonConductor*%
D22*
G36*
X81332406Y-68516000D02*
G01*
X80578629Y-68516000D01*
X80628113Y-68441942D01*
X80686987Y-68299809D01*
X80717000Y-68148922D01*
X80717000Y-67995078D01*
X80693540Y-67877133D01*
X81332406Y-68516000D01*
G37*
%TD.AperFunction*%
D21*
X75072014Y-67192926D02*
X75102027Y-67343813D01*
X75160901Y-67485946D01*
X75169623Y-67499000D01*
X74654753Y-67499000D01*
X74689892Y-67470162D01*
X74705741Y-67450850D01*
X75072014Y-67084577D01*
X75072014Y-67192926D01*
%TA.AperFunction,NonConductor*%
D22*
G36*
X75072014Y-67192926D02*
G01*
X75102027Y-67343813D01*
X75160901Y-67485946D01*
X75169623Y-67499000D01*
X74654753Y-67499000D01*
X74689892Y-67470162D01*
X74705741Y-67450850D01*
X75072014Y-67084577D01*
X75072014Y-67192926D01*
G37*
%TD.AperFunction*%
D21*
X80130867Y-67314461D02*
X80012922Y-67291000D01*
X79859078Y-67291000D01*
X79785741Y-67305588D01*
X79806529Y-67288527D01*
X79822378Y-67269215D01*
X79954000Y-67137593D01*
X80130867Y-67314461D01*
%TA.AperFunction,NonConductor*%
D22*
G36*
X80130867Y-67314461D02*
G01*
X80012922Y-67291000D01*
X79859078Y-67291000D01*
X79785741Y-67305588D01*
X79806529Y-67288527D01*
X79822378Y-67269215D01*
X79954000Y-67137593D01*
X80130867Y-67314461D01*
G37*
%TD.AperFunction*%
D21*
X81067311Y-66774487D02*
X81142000Y-66781843D01*
X81663000Y-66781843D01*
X81663000Y-66965499D01*
X81562358Y-67066141D01*
X81476887Y-67194058D01*
X81466566Y-67218976D01*
X81009185Y-66761596D01*
X81017000Y-66759225D01*
X81067311Y-66774487D01*
%TA.AperFunction,NonConductor*%
D22*
G36*
X81067311Y-66774487D02*
G01*
X81142000Y-66781843D01*
X81663000Y-66781843D01*
X81663000Y-66965499D01*
X81562358Y-67066141D01*
X81476887Y-67194058D01*
X81466566Y-67218976D01*
X81009185Y-66761596D01*
X81017000Y-66759225D01*
X81067311Y-66774487D01*
G37*
%TD.AperFunction*%
D21*
X82973225Y-66126875D02*
X83139294Y-66177252D01*
X83312000Y-66194262D01*
X83413000Y-66184314D01*
X83413000Y-66303922D01*
X83443013Y-66454809D01*
X83501887Y-66596942D01*
X83587358Y-66724859D01*
X83696141Y-66833642D01*
X83824058Y-66919113D01*
X83966191Y-66977987D01*
X84117078Y-67008000D01*
X84270922Y-67008000D01*
X84421809Y-66977987D01*
X84563942Y-66919113D01*
X84597042Y-66896996D01*
X84635310Y-66968590D01*
X84708687Y-67058000D01*
X82767501Y-67058000D01*
X82675000Y-66965499D01*
X82675000Y-66746558D01*
X82729696Y-66717322D01*
X82787711Y-66669711D01*
X82835322Y-66611696D01*
X82870701Y-66545508D01*
X82892487Y-66473689D01*
X82899843Y-66399000D01*
X82899843Y-66087651D01*
X82973225Y-66126875D01*
%TA.AperFunction,NonConductor*%
D22*
G36*
X82973225Y-66126875D02*
G01*
X83139294Y-66177252D01*
X83312000Y-66194262D01*
X83413000Y-66184314D01*
X83413000Y-66303922D01*
X83443013Y-66454809D01*
X83501887Y-66596942D01*
X83587358Y-66724859D01*
X83696141Y-66833642D01*
X83824058Y-66919113D01*
X83966191Y-66977987D01*
X84117078Y-67008000D01*
X84270922Y-67008000D01*
X84421809Y-66977987D01*
X84563942Y-66919113D01*
X84597042Y-66896996D01*
X84635310Y-66968590D01*
X84708687Y-67058000D01*
X82767501Y-67058000D01*
X82675000Y-66965499D01*
X82675000Y-66746558D01*
X82729696Y-66717322D01*
X82787711Y-66669711D01*
X82835322Y-66611696D01*
X82870701Y-66545508D01*
X82892487Y-66473689D01*
X82899843Y-66399000D01*
X82899843Y-66087651D01*
X82973225Y-66126875D01*
G37*
%TD.AperFunction*%
D21*
X86400657Y-64585002D02*
X86412817Y-64708463D01*
X86448829Y-64827180D01*
X86507310Y-64936590D01*
X86586012Y-65032488D01*
X86681910Y-65111190D01*
X86732889Y-65138439D01*
X86634910Y-65190810D01*
X86539012Y-65269512D01*
X86460310Y-65365410D01*
X86401829Y-65474820D01*
X86365817Y-65593537D01*
X86353657Y-65716998D01*
X86353657Y-66617002D01*
X86365817Y-66740463D01*
X86401829Y-66859180D01*
X86460310Y-66968590D01*
X86533687Y-67058000D01*
X86139313Y-67058000D01*
X86212690Y-66968590D01*
X86271171Y-66859180D01*
X86307183Y-66740463D01*
X86319343Y-66617002D01*
X86319343Y-65716998D01*
X86307183Y-65593537D01*
X86271171Y-65474820D01*
X86212690Y-65365410D01*
X86133988Y-65269512D01*
X86038090Y-65190810D01*
X85987111Y-65163561D01*
X86085090Y-65111190D01*
X86180988Y-65032488D01*
X86259690Y-64936590D01*
X86318171Y-64827180D01*
X86354183Y-64708463D01*
X86366343Y-64585002D01*
X86366343Y-64539000D01*
X86400657Y-64539000D01*
X86400657Y-64585002D01*
%TA.AperFunction,NonConductor*%
D22*
G36*
X86400657Y-64585002D02*
G01*
X86412817Y-64708463D01*
X86448829Y-64827180D01*
X86507310Y-64936590D01*
X86586012Y-65032488D01*
X86681910Y-65111190D01*
X86732889Y-65138439D01*
X86634910Y-65190810D01*
X86539012Y-65269512D01*
X86460310Y-65365410D01*
X86401829Y-65474820D01*
X86365817Y-65593537D01*
X86353657Y-65716998D01*
X86353657Y-66617002D01*
X86365817Y-66740463D01*
X86401829Y-66859180D01*
X86460310Y-66968590D01*
X86533687Y-67058000D01*
X86139313Y-67058000D01*
X86212690Y-66968590D01*
X86271171Y-66859180D01*
X86307183Y-66740463D01*
X86319343Y-66617002D01*
X86319343Y-65716998D01*
X86307183Y-65593537D01*
X86271171Y-65474820D01*
X86212690Y-65365410D01*
X86133988Y-65269512D01*
X86038090Y-65190810D01*
X85987111Y-65163561D01*
X86085090Y-65111190D01*
X86180988Y-65032488D01*
X86259690Y-64936590D01*
X86318171Y-64827180D01*
X86354183Y-64708463D01*
X86366343Y-64585002D01*
X86366343Y-64539000D01*
X86400657Y-64539000D01*
X86400657Y-64585002D01*
G37*
%TD.AperFunction*%
D21*
X73791000Y-65352272D02*
X73803748Y-65481705D01*
X73854125Y-65647774D01*
X73935932Y-65800824D01*
X74046025Y-65934975D01*
X74180175Y-66045068D01*
X74333225Y-66126875D01*
X74499294Y-66177252D01*
X74543776Y-66181633D01*
X74246173Y-66479236D01*
X74155307Y-66418522D01*
X74013174Y-66359648D01*
X73862287Y-66329635D01*
X73708443Y-66329635D01*
X73557556Y-66359648D01*
X73415423Y-66418522D01*
X73287506Y-66503993D01*
X73178723Y-66612776D01*
X73098236Y-66733234D01*
X72683000Y-66317999D01*
X72683000Y-64959843D01*
X72877000Y-64959843D01*
X72951689Y-64952487D01*
X73023508Y-64930701D01*
X73089696Y-64895322D01*
X73147711Y-64847711D01*
X73195322Y-64789696D01*
X73230701Y-64723508D01*
X73252487Y-64651689D01*
X73259843Y-64577000D01*
X73259843Y-64565471D01*
X73321575Y-64546745D01*
X73336065Y-64539000D01*
X73791001Y-64539000D01*
X73791000Y-65352272D01*
%TA.AperFunction,NonConductor*%
D22*
G36*
X73791000Y-65352272D02*
G01*
X73803748Y-65481705D01*
X73854125Y-65647774D01*
X73935932Y-65800824D01*
X74046025Y-65934975D01*
X74180175Y-66045068D01*
X74333225Y-66126875D01*
X74499294Y-66177252D01*
X74543776Y-66181633D01*
X74246173Y-66479236D01*
X74155307Y-66418522D01*
X74013174Y-66359648D01*
X73862287Y-66329635D01*
X73708443Y-66329635D01*
X73557556Y-66359648D01*
X73415423Y-66418522D01*
X73287506Y-66503993D01*
X73178723Y-66612776D01*
X73098236Y-66733234D01*
X72683000Y-66317999D01*
X72683000Y-64959843D01*
X72877000Y-64959843D01*
X72951689Y-64952487D01*
X73023508Y-64930701D01*
X73089696Y-64895322D01*
X73147711Y-64847711D01*
X73195322Y-64789696D01*
X73230701Y-64723508D01*
X73252487Y-64651689D01*
X73259843Y-64577000D01*
X73259843Y-64565471D01*
X73321575Y-64546745D01*
X73336065Y-64539000D01*
X73791001Y-64539000D01*
X73791000Y-65352272D01*
G37*
%TD.AperFunction*%
D21*
X71094157Y-64577000D02*
X71101513Y-64651689D01*
X71123299Y-64723508D01*
X71158678Y-64789696D01*
X71206289Y-64847711D01*
X71264304Y-64895322D01*
X71330492Y-64930701D01*
X71402311Y-64952487D01*
X71477000Y-64959843D01*
X71671001Y-64959843D01*
X71671000Y-65942409D01*
X70687409Y-64958818D01*
X70751689Y-64952487D01*
X70823508Y-64930701D01*
X70889696Y-64895322D01*
X70947711Y-64847711D01*
X70995322Y-64789696D01*
X71030701Y-64723508D01*
X71052487Y-64651689D01*
X71059843Y-64577000D01*
X71059843Y-64539000D01*
X71094157Y-64539000D01*
X71094157Y-64577000D01*
%TA.AperFunction,NonConductor*%
D22*
G36*
X71094157Y-64577000D02*
G01*
X71101513Y-64651689D01*
X71123299Y-64723508D01*
X71158678Y-64789696D01*
X71206289Y-64847711D01*
X71264304Y-64895322D01*
X71330492Y-64930701D01*
X71402311Y-64952487D01*
X71477000Y-64959843D01*
X71671001Y-64959843D01*
X71671000Y-65942409D01*
X70687409Y-64958818D01*
X70751689Y-64952487D01*
X70823508Y-64930701D01*
X70889696Y-64895322D01*
X70947711Y-64847711D01*
X70995322Y-64789696D01*
X71030701Y-64723508D01*
X71052487Y-64651689D01*
X71059843Y-64577000D01*
X71059843Y-64539000D01*
X71094157Y-64539000D01*
X71094157Y-64577000D01*
G37*
%TD.AperFunction*%
D21*
X84575657Y-64585002D02*
X84587817Y-64708463D01*
X84623829Y-64827180D01*
X84682310Y-64936590D01*
X84761012Y-65032488D01*
X84856910Y-65111190D01*
X84907889Y-65138439D01*
X84809910Y-65190810D01*
X84714012Y-65269512D01*
X84635310Y-65365410D01*
X84576829Y-65474820D01*
X84559203Y-65532924D01*
X84421809Y-65476013D01*
X84270922Y-65446000D01*
X84183769Y-65446000D01*
X84193000Y-65352273D01*
X84193000Y-64539000D01*
X84575657Y-64539000D01*
X84575657Y-64585002D01*
%TA.AperFunction,NonConductor*%
D22*
G36*
X84575657Y-64585002D02*
G01*
X84587817Y-64708463D01*
X84623829Y-64827180D01*
X84682310Y-64936590D01*
X84761012Y-65032488D01*
X84856910Y-65111190D01*
X84907889Y-65138439D01*
X84809910Y-65190810D01*
X84714012Y-65269512D01*
X84635310Y-65365410D01*
X84576829Y-65474820D01*
X84559203Y-65532924D01*
X84421809Y-65476013D01*
X84270922Y-65446000D01*
X84183769Y-65446000D01*
X84193000Y-65352273D01*
X84193000Y-64539000D01*
X84575657Y-64539000D01*
X84575657Y-64585002D01*
G37*
%TD.AperFunction*%
D21*
X88529395Y-64625047D02*
X88519157Y-64729000D01*
X88519157Y-64833980D01*
X88505922Y-64831347D01*
X88352078Y-64831347D01*
X88201191Y-64861360D01*
X88103207Y-64901947D01*
X88143171Y-64827180D01*
X88179183Y-64708463D01*
X88191343Y-64585002D01*
X88191343Y-64539000D01*
X88555497Y-64539000D01*
X88529395Y-64625047D01*
%TA.AperFunction,NonConductor*%
D22*
G36*
X88529395Y-64625047D02*
G01*
X88519157Y-64729000D01*
X88519157Y-64833980D01*
X88505922Y-64831347D01*
X88352078Y-64831347D01*
X88201191Y-64861360D01*
X88103207Y-64901947D01*
X88143171Y-64827180D01*
X88179183Y-64708463D01*
X88191343Y-64585002D01*
X88191343Y-64539000D01*
X88555497Y-64539000D01*
X88529395Y-64625047D01*
G37*
%TD.AperFunction*%
D21*
X80378568Y-64566157D02*
X80092000Y-64566157D01*
X80017311Y-64573513D01*
X79992000Y-64581191D01*
X79966689Y-64573513D01*
X79892000Y-64566157D01*
X79725921Y-64566157D01*
X79717683Y-64539000D01*
X80351411Y-64539000D01*
X80378568Y-64566157D01*
%TA.AperFunction,NonConductor*%
D22*
G36*
X80378568Y-64566157D02*
G01*
X80092000Y-64566157D01*
X80017311Y-64573513D01*
X79992000Y-64581191D01*
X79966689Y-64573513D01*
X79892000Y-64566157D01*
X79725921Y-64566157D01*
X79717683Y-64539000D01*
X80351411Y-64539000D01*
X80378568Y-64566157D01*
G37*
%TD.AperFunction*%
D21*
X77758079Y-64566157D02*
X77605433Y-64566157D01*
X77632590Y-64539000D01*
X77766317Y-64539000D01*
X77758079Y-64566157D01*
%TA.AperFunction,NonConductor*%
D22*
G36*
X77758079Y-64566157D02*
G01*
X77605433Y-64566157D01*
X77632590Y-64539000D01*
X77766317Y-64539000D01*
X77758079Y-64566157D01*
G37*
%TD.AperFunction*%
M02*
