M48
; DRILL file {KiCad 5.1.10-88a1d61d58~88~ubuntu20.04.1} date Fri Apr 30 20:16:30 2021
; FORMAT={-:-/ absolute / inch / decimal}
; #@! TF.CreationDate,2021-04-30T20:16:30-07:00
; #@! TF.GenerationSoftware,Kicad,Pcbnew,5.1.10-88a1d61d58~88~ubuntu20.04.1
; #@! TF.FileFunction,Plated,1,2,PTH
FMAT,2
INCH
T1C0.0157
T2C0.0236
T3C0.0866
%
G90
G05
T1
X2.6947Y-2.5824
X2.6947Y-3.0548
X2.885Y-2.335
X2.885Y-2.4
X2.885Y-2.8074
X2.885Y-2.8724
X2.9049Y-2.6422
X2.9049Y-3.1146
X2.9863Y-2.6424
X2.9863Y-3.1148
X3.0297Y-2.6424
X3.0297Y-3.1148
X3.235Y-2.66
X3.235Y-3.1324
X3.27Y-2.69
X3.27Y-3.1624
X3.3147Y-2.6074
X3.3147Y-3.0798
X3.4815Y-2.5832
X3.4815Y-3.0556
T3
X2.4207Y-2.4989
X2.4207Y-2.9713
X3.7987Y-2.4989
X3.7987Y-2.9713
T2
G00X2.9398Y-2.3968
M15
G01X2.9398Y-2.3732
M16
G05
G00X2.9398Y-2.5712
M15
G01X2.9398Y-2.5279
M16
G05
G00X2.9398Y-2.8693
M15
G01X2.9398Y-2.8456
M16
G05
G00X2.9398Y-3.0437
M15
G01X2.9398Y-3.0004
M16
G05
G00X3.28Y-2.3968
M15
G01X3.28Y-2.3732
M16
G05
G00X3.28Y-2.5712
M15
G01X3.28Y-2.5279
M16
G05
G00X3.28Y-2.8693
M15
G01X3.28Y-2.8456
M16
G05
G00X3.28Y-3.0437
M15
G01X3.28Y-3.0004
M16
G05
T0
M30
