%TF.GenerationSoftware,KiCad,Pcbnew,(5.1.10)-1*%
%TF.CreationDate,2022-01-12T21:02:25-06:00*%
%TF.ProjectId,kb-db_panel,6b622d64-625f-4706-916e-656c2e6b6963,rev?*%
%TF.SameCoordinates,Original*%
%TF.FileFunction,Legend,Top*%
%TF.FilePolarity,Positive*%
%FSLAX46Y46*%
G04 Gerber Fmt 4.6, Leading zero omitted, Abs format (unit mm)*
G04 Created by KiCad (PCBNEW (5.1.10)-1) date 2022-01-12 21:02:25*
%MOMM*%
%LPD*%
G01*
G04 APERTURE LIST*
%ADD10C,0.120000*%
%ADD11C,0.150000*%
G04 APERTURE END LIST*
D10*
%TO.C,J1*%
X93012000Y-73439000D02*
X93012000Y-77319000D01*
X89892000Y-78489000D02*
X89892000Y-77439000D01*
X91042000Y-78489000D02*
X89892000Y-78489000D01*
X89892000Y-73319000D02*
X88902000Y-73319000D01*
X89892000Y-72269000D02*
X89892000Y-73319000D01*
X91042000Y-72269000D02*
X89892000Y-72269000D01*
%TO.C,C1*%
X66194000Y-72444748D02*
X66194000Y-72967252D01*
X67664000Y-72444748D02*
X67664000Y-72967252D01*
%TO.C,R1*%
X86563564Y-77432000D02*
X86109436Y-77432000D01*
X86563564Y-78902000D02*
X86109436Y-78902000D01*
%TO.C,R4*%
X86610564Y-75400000D02*
X86156436Y-75400000D01*
X86610564Y-76870000D02*
X86156436Y-76870000D01*
%TO.C,D1*%
X72277000Y-73577000D02*
X69327000Y-73577000D01*
X69877000Y-76677000D02*
X72277000Y-76677000D01*
%TO.C,R5*%
X64162000Y-72502436D02*
X64162000Y-72956564D01*
X65632000Y-72502436D02*
X65632000Y-72956564D01*
%TO.C,F1*%
X86540078Y-71361000D02*
X86022922Y-71361000D01*
X86540078Y-72781000D02*
X86022922Y-72781000D01*
%TO.C,R2*%
X70615436Y-72679000D02*
X71069564Y-72679000D01*
X70615436Y-71209000D02*
X71069564Y-71209000D01*
%TO.C,R3*%
X86587064Y-73368000D02*
X86132936Y-73368000D01*
X86587064Y-74838000D02*
X86132936Y-74838000D01*
%TO.C,J1*%
X93012000Y-61439000D02*
X93012000Y-65319000D01*
X89892000Y-66489000D02*
X89892000Y-65439000D01*
X91042000Y-66489000D02*
X89892000Y-66489000D01*
X89892000Y-61319000D02*
X88902000Y-61319000D01*
X89892000Y-60269000D02*
X89892000Y-61319000D01*
X91042000Y-60269000D02*
X89892000Y-60269000D01*
%TO.C,C1*%
X66194000Y-60444748D02*
X66194000Y-60967252D01*
X67664000Y-60444748D02*
X67664000Y-60967252D01*
%TO.C,R5*%
X64162000Y-60502436D02*
X64162000Y-60956564D01*
X65632000Y-60502436D02*
X65632000Y-60956564D01*
%TO.C,R4*%
X86610564Y-63400000D02*
X86156436Y-63400000D01*
X86610564Y-64870000D02*
X86156436Y-64870000D01*
%TO.C,R3*%
X86587064Y-61368000D02*
X86132936Y-61368000D01*
X86587064Y-62838000D02*
X86132936Y-62838000D01*
%TO.C,R2*%
X70615436Y-60679000D02*
X71069564Y-60679000D01*
X70615436Y-59209000D02*
X71069564Y-59209000D01*
%TO.C,R1*%
X86563564Y-65432000D02*
X86109436Y-65432000D01*
X86563564Y-66902000D02*
X86109436Y-66902000D01*
%TO.C,F1*%
X86540078Y-59361000D02*
X86022922Y-59361000D01*
X86540078Y-60781000D02*
X86022922Y-60781000D01*
%TO.C,D1*%
X72277000Y-61577000D02*
X69327000Y-61577000D01*
X69877000Y-64677000D02*
X72277000Y-64677000D01*
%TO.C,J1*%
D11*
X90758380Y-75766333D02*
X91472666Y-75766333D01*
X91615523Y-75813952D01*
X91710761Y-75909190D01*
X91758380Y-76052047D01*
X91758380Y-76147285D01*
X91758380Y-74766333D02*
X91758380Y-75337761D01*
X91758380Y-75052047D02*
X90758380Y-75052047D01*
X90901238Y-75147285D01*
X90996476Y-75242523D01*
X91044095Y-75337761D01*
%TO.C,C1*%
X66882333Y-75536142D02*
X66834714Y-75583761D01*
X66691857Y-75631380D01*
X66596619Y-75631380D01*
X66453761Y-75583761D01*
X66358523Y-75488523D01*
X66310904Y-75393285D01*
X66263285Y-75202809D01*
X66263285Y-75059952D01*
X66310904Y-74869476D01*
X66358523Y-74774238D01*
X66453761Y-74679000D01*
X66596619Y-74631380D01*
X66691857Y-74631380D01*
X66834714Y-74679000D01*
X66882333Y-74726619D01*
X67834714Y-75631380D02*
X67263285Y-75631380D01*
X67549000Y-75631380D02*
X67549000Y-74631380D01*
X67453761Y-74774238D01*
X67358523Y-74869476D01*
X67263285Y-74917095D01*
%TO.C,R1*%
X86169833Y-80269380D02*
X85836500Y-79793190D01*
X85598404Y-80269380D02*
X85598404Y-79269380D01*
X85979357Y-79269380D01*
X86074595Y-79317000D01*
X86122214Y-79364619D01*
X86169833Y-79459857D01*
X86169833Y-79602714D01*
X86122214Y-79697952D01*
X86074595Y-79745571D01*
X85979357Y-79793190D01*
X85598404Y-79793190D01*
X87122214Y-80269380D02*
X86550785Y-80269380D01*
X86836500Y-80269380D02*
X86836500Y-79269380D01*
X86741261Y-79412238D01*
X86646023Y-79507476D01*
X86550785Y-79555095D01*
%TO.C,R4*%
X84646380Y-76361666D02*
X84170190Y-76695000D01*
X84646380Y-76933095D02*
X83646380Y-76933095D01*
X83646380Y-76552142D01*
X83694000Y-76456904D01*
X83741619Y-76409285D01*
X83836857Y-76361666D01*
X83979714Y-76361666D01*
X84074952Y-76409285D01*
X84122571Y-76456904D01*
X84170190Y-76552142D01*
X84170190Y-76933095D01*
X83979714Y-75504523D02*
X84646380Y-75504523D01*
X83598761Y-75742619D02*
X84313047Y-75980714D01*
X84313047Y-75361666D01*
%TO.C,D1*%
X70374904Y-78044380D02*
X70374904Y-77044380D01*
X70613000Y-77044380D01*
X70755857Y-77092000D01*
X70851095Y-77187238D01*
X70898714Y-77282476D01*
X70946333Y-77472952D01*
X70946333Y-77615809D01*
X70898714Y-77806285D01*
X70851095Y-77901523D01*
X70755857Y-77996761D01*
X70613000Y-78044380D01*
X70374904Y-78044380D01*
X71898714Y-78044380D02*
X71327285Y-78044380D01*
X71613000Y-78044380D02*
X71613000Y-77044380D01*
X71517761Y-77187238D01*
X71422523Y-77282476D01*
X71327285Y-77330095D01*
%TO.C,R5*%
X64723333Y-75631380D02*
X64390000Y-75155190D01*
X64151904Y-75631380D02*
X64151904Y-74631380D01*
X64532857Y-74631380D01*
X64628095Y-74679000D01*
X64675714Y-74726619D01*
X64723333Y-74821857D01*
X64723333Y-74964714D01*
X64675714Y-75059952D01*
X64628095Y-75107571D01*
X64532857Y-75155190D01*
X64151904Y-75155190D01*
X65628095Y-74631380D02*
X65151904Y-74631380D01*
X65104285Y-75107571D01*
X65151904Y-75059952D01*
X65247142Y-75012333D01*
X65485238Y-75012333D01*
X65580476Y-75059952D01*
X65628095Y-75107571D01*
X65675714Y-75202809D01*
X65675714Y-75440904D01*
X65628095Y-75536142D01*
X65580476Y-75583761D01*
X65485238Y-75631380D01*
X65247142Y-75631380D01*
X65151904Y-75583761D01*
X65104285Y-75536142D01*
%TO.C,F1*%
X85892666Y-70662571D02*
X85559333Y-70662571D01*
X85559333Y-71186380D02*
X85559333Y-70186380D01*
X86035523Y-70186380D01*
X86940285Y-71186380D02*
X86368857Y-71186380D01*
X86654571Y-71186380D02*
X86654571Y-70186380D01*
X86559333Y-70329238D01*
X86464095Y-70424476D01*
X86368857Y-70472095D01*
%TO.C,R2*%
X69025380Y-72170666D02*
X68549190Y-72504000D01*
X69025380Y-72742095D02*
X68025380Y-72742095D01*
X68025380Y-72361142D01*
X68073000Y-72265904D01*
X68120619Y-72218285D01*
X68215857Y-72170666D01*
X68358714Y-72170666D01*
X68453952Y-72218285D01*
X68501571Y-72265904D01*
X68549190Y-72361142D01*
X68549190Y-72742095D01*
X68120619Y-71789714D02*
X68073000Y-71742095D01*
X68025380Y-71646857D01*
X68025380Y-71408761D01*
X68073000Y-71313523D01*
X68120619Y-71265904D01*
X68215857Y-71218285D01*
X68311095Y-71218285D01*
X68453952Y-71265904D01*
X69025380Y-71837333D01*
X69025380Y-71218285D01*
%TO.C,R3*%
X84646380Y-74329666D02*
X84170190Y-74663000D01*
X84646380Y-74901095D02*
X83646380Y-74901095D01*
X83646380Y-74520142D01*
X83694000Y-74424904D01*
X83741619Y-74377285D01*
X83836857Y-74329666D01*
X83979714Y-74329666D01*
X84074952Y-74377285D01*
X84122571Y-74424904D01*
X84170190Y-74520142D01*
X84170190Y-74901095D01*
X83646380Y-73996333D02*
X83646380Y-73377285D01*
X84027333Y-73710619D01*
X84027333Y-73567761D01*
X84074952Y-73472523D01*
X84122571Y-73424904D01*
X84217809Y-73377285D01*
X84455904Y-73377285D01*
X84551142Y-73424904D01*
X84598761Y-73472523D01*
X84646380Y-73567761D01*
X84646380Y-73853476D01*
X84598761Y-73948714D01*
X84551142Y-73996333D01*
%TO.C,USB1*%
X77253904Y-78681380D02*
X77253904Y-79490904D01*
X77301523Y-79586142D01*
X77349142Y-79633761D01*
X77444380Y-79681380D01*
X77634857Y-79681380D01*
X77730095Y-79633761D01*
X77777714Y-79586142D01*
X77825333Y-79490904D01*
X77825333Y-78681380D01*
X78253904Y-79633761D02*
X78396761Y-79681380D01*
X78634857Y-79681380D01*
X78730095Y-79633761D01*
X78777714Y-79586142D01*
X78825333Y-79490904D01*
X78825333Y-79395666D01*
X78777714Y-79300428D01*
X78730095Y-79252809D01*
X78634857Y-79205190D01*
X78444380Y-79157571D01*
X78349142Y-79109952D01*
X78301523Y-79062333D01*
X78253904Y-78967095D01*
X78253904Y-78871857D01*
X78301523Y-78776619D01*
X78349142Y-78729000D01*
X78444380Y-78681380D01*
X78682476Y-78681380D01*
X78825333Y-78729000D01*
X79587238Y-79157571D02*
X79730095Y-79205190D01*
X79777714Y-79252809D01*
X79825333Y-79348047D01*
X79825333Y-79490904D01*
X79777714Y-79586142D01*
X79730095Y-79633761D01*
X79634857Y-79681380D01*
X79253904Y-79681380D01*
X79253904Y-78681380D01*
X79587238Y-78681380D01*
X79682476Y-78729000D01*
X79730095Y-78776619D01*
X79777714Y-78871857D01*
X79777714Y-78967095D01*
X79730095Y-79062333D01*
X79682476Y-79109952D01*
X79587238Y-79157571D01*
X79253904Y-79157571D01*
X80777714Y-79681380D02*
X80206285Y-79681380D01*
X80492000Y-79681380D02*
X80492000Y-78681380D01*
X80396761Y-78824238D01*
X80301523Y-78919476D01*
X80206285Y-78967095D01*
%TO.C,J1*%
X90758380Y-63766333D02*
X91472666Y-63766333D01*
X91615523Y-63813952D01*
X91710761Y-63909190D01*
X91758380Y-64052047D01*
X91758380Y-64147285D01*
X91758380Y-62766333D02*
X91758380Y-63337761D01*
X91758380Y-63052047D02*
X90758380Y-63052047D01*
X90901238Y-63147285D01*
X90996476Y-63242523D01*
X91044095Y-63337761D01*
%TO.C,C1*%
X66882333Y-63536142D02*
X66834714Y-63583761D01*
X66691857Y-63631380D01*
X66596619Y-63631380D01*
X66453761Y-63583761D01*
X66358523Y-63488523D01*
X66310904Y-63393285D01*
X66263285Y-63202809D01*
X66263285Y-63059952D01*
X66310904Y-62869476D01*
X66358523Y-62774238D01*
X66453761Y-62679000D01*
X66596619Y-62631380D01*
X66691857Y-62631380D01*
X66834714Y-62679000D01*
X66882333Y-62726619D01*
X67834714Y-63631380D02*
X67263285Y-63631380D01*
X67549000Y-63631380D02*
X67549000Y-62631380D01*
X67453761Y-62774238D01*
X67358523Y-62869476D01*
X67263285Y-62917095D01*
%TO.C,USB1*%
X77253904Y-66681380D02*
X77253904Y-67490904D01*
X77301523Y-67586142D01*
X77349142Y-67633761D01*
X77444380Y-67681380D01*
X77634857Y-67681380D01*
X77730095Y-67633761D01*
X77777714Y-67586142D01*
X77825333Y-67490904D01*
X77825333Y-66681380D01*
X78253904Y-67633761D02*
X78396761Y-67681380D01*
X78634857Y-67681380D01*
X78730095Y-67633761D01*
X78777714Y-67586142D01*
X78825333Y-67490904D01*
X78825333Y-67395666D01*
X78777714Y-67300428D01*
X78730095Y-67252809D01*
X78634857Y-67205190D01*
X78444380Y-67157571D01*
X78349142Y-67109952D01*
X78301523Y-67062333D01*
X78253904Y-66967095D01*
X78253904Y-66871857D01*
X78301523Y-66776619D01*
X78349142Y-66729000D01*
X78444380Y-66681380D01*
X78682476Y-66681380D01*
X78825333Y-66729000D01*
X79587238Y-67157571D02*
X79730095Y-67205190D01*
X79777714Y-67252809D01*
X79825333Y-67348047D01*
X79825333Y-67490904D01*
X79777714Y-67586142D01*
X79730095Y-67633761D01*
X79634857Y-67681380D01*
X79253904Y-67681380D01*
X79253904Y-66681380D01*
X79587238Y-66681380D01*
X79682476Y-66729000D01*
X79730095Y-66776619D01*
X79777714Y-66871857D01*
X79777714Y-66967095D01*
X79730095Y-67062333D01*
X79682476Y-67109952D01*
X79587238Y-67157571D01*
X79253904Y-67157571D01*
X80777714Y-67681380D02*
X80206285Y-67681380D01*
X80492000Y-67681380D02*
X80492000Y-66681380D01*
X80396761Y-66824238D01*
X80301523Y-66919476D01*
X80206285Y-66967095D01*
%TO.C,R5*%
X64723333Y-63631380D02*
X64390000Y-63155190D01*
X64151904Y-63631380D02*
X64151904Y-62631380D01*
X64532857Y-62631380D01*
X64628095Y-62679000D01*
X64675714Y-62726619D01*
X64723333Y-62821857D01*
X64723333Y-62964714D01*
X64675714Y-63059952D01*
X64628095Y-63107571D01*
X64532857Y-63155190D01*
X64151904Y-63155190D01*
X65628095Y-62631380D02*
X65151904Y-62631380D01*
X65104285Y-63107571D01*
X65151904Y-63059952D01*
X65247142Y-63012333D01*
X65485238Y-63012333D01*
X65580476Y-63059952D01*
X65628095Y-63107571D01*
X65675714Y-63202809D01*
X65675714Y-63440904D01*
X65628095Y-63536142D01*
X65580476Y-63583761D01*
X65485238Y-63631380D01*
X65247142Y-63631380D01*
X65151904Y-63583761D01*
X65104285Y-63536142D01*
%TO.C,R4*%
X84646380Y-64361666D02*
X84170190Y-64695000D01*
X84646380Y-64933095D02*
X83646380Y-64933095D01*
X83646380Y-64552142D01*
X83694000Y-64456904D01*
X83741619Y-64409285D01*
X83836857Y-64361666D01*
X83979714Y-64361666D01*
X84074952Y-64409285D01*
X84122571Y-64456904D01*
X84170190Y-64552142D01*
X84170190Y-64933095D01*
X83979714Y-63504523D02*
X84646380Y-63504523D01*
X83598761Y-63742619D02*
X84313047Y-63980714D01*
X84313047Y-63361666D01*
%TO.C,R3*%
X84646380Y-62329666D02*
X84170190Y-62663000D01*
X84646380Y-62901095D02*
X83646380Y-62901095D01*
X83646380Y-62520142D01*
X83694000Y-62424904D01*
X83741619Y-62377285D01*
X83836857Y-62329666D01*
X83979714Y-62329666D01*
X84074952Y-62377285D01*
X84122571Y-62424904D01*
X84170190Y-62520142D01*
X84170190Y-62901095D01*
X83646380Y-61996333D02*
X83646380Y-61377285D01*
X84027333Y-61710619D01*
X84027333Y-61567761D01*
X84074952Y-61472523D01*
X84122571Y-61424904D01*
X84217809Y-61377285D01*
X84455904Y-61377285D01*
X84551142Y-61424904D01*
X84598761Y-61472523D01*
X84646380Y-61567761D01*
X84646380Y-61853476D01*
X84598761Y-61948714D01*
X84551142Y-61996333D01*
%TO.C,R2*%
X69025380Y-60170666D02*
X68549190Y-60504000D01*
X69025380Y-60742095D02*
X68025380Y-60742095D01*
X68025380Y-60361142D01*
X68073000Y-60265904D01*
X68120619Y-60218285D01*
X68215857Y-60170666D01*
X68358714Y-60170666D01*
X68453952Y-60218285D01*
X68501571Y-60265904D01*
X68549190Y-60361142D01*
X68549190Y-60742095D01*
X68120619Y-59789714D02*
X68073000Y-59742095D01*
X68025380Y-59646857D01*
X68025380Y-59408761D01*
X68073000Y-59313523D01*
X68120619Y-59265904D01*
X68215857Y-59218285D01*
X68311095Y-59218285D01*
X68453952Y-59265904D01*
X69025380Y-59837333D01*
X69025380Y-59218285D01*
%TO.C,R1*%
X86169833Y-68269380D02*
X85836500Y-67793190D01*
X85598404Y-68269380D02*
X85598404Y-67269380D01*
X85979357Y-67269380D01*
X86074595Y-67317000D01*
X86122214Y-67364619D01*
X86169833Y-67459857D01*
X86169833Y-67602714D01*
X86122214Y-67697952D01*
X86074595Y-67745571D01*
X85979357Y-67793190D01*
X85598404Y-67793190D01*
X87122214Y-68269380D02*
X86550785Y-68269380D01*
X86836500Y-68269380D02*
X86836500Y-67269380D01*
X86741261Y-67412238D01*
X86646023Y-67507476D01*
X86550785Y-67555095D01*
%TO.C,F1*%
X85892666Y-58662571D02*
X85559333Y-58662571D01*
X85559333Y-59186380D02*
X85559333Y-58186380D01*
X86035523Y-58186380D01*
X86940285Y-59186380D02*
X86368857Y-59186380D01*
X86654571Y-59186380D02*
X86654571Y-58186380D01*
X86559333Y-58329238D01*
X86464095Y-58424476D01*
X86368857Y-58472095D01*
%TO.C,D1*%
X70374904Y-66044380D02*
X70374904Y-65044380D01*
X70613000Y-65044380D01*
X70755857Y-65092000D01*
X70851095Y-65187238D01*
X70898714Y-65282476D01*
X70946333Y-65472952D01*
X70946333Y-65615809D01*
X70898714Y-65806285D01*
X70851095Y-65901523D01*
X70755857Y-65996761D01*
X70613000Y-66044380D01*
X70374904Y-66044380D01*
X71898714Y-66044380D02*
X71327285Y-66044380D01*
X71613000Y-66044380D02*
X71613000Y-65044380D01*
X71517761Y-65187238D01*
X71422523Y-65282476D01*
X71327285Y-65330095D01*
%TD*%
M02*
