%TF.GenerationSoftware,KiCad,Pcbnew,5.1.10-88a1d61d58~88~ubuntu20.04.1*%
%TF.CreationDate,2021-04-30T16:59:14-07:00*%
%TF.ProjectId,kb-db,6b622d64-622e-46b6-9963-61645f706362,rev?*%
%TF.SameCoordinates,Original*%
%TF.FileFunction,Copper,L2,Bot*%
%TF.FilePolarity,Positive*%
%FSLAX46Y46*%
G04 Gerber Fmt 4.6, Leading zero omitted, Abs format (unit mm)*
G04 Created by KiCad (PCBNEW 5.1.10-88a1d61d58~88~ubuntu20.04.1) date 2021-04-30 16:59:14*
%MOMM*%
%LPD*%
G01*
G04 APERTURE LIST*
%TA.AperFunction,ComponentPad*%
%ADD10C,3.800000*%
%TD*%
%TA.AperFunction,ComponentPad*%
%ADD11O,1.000000X2.100000*%
%TD*%
%TA.AperFunction,ComponentPad*%
%ADD12O,1.000000X1.600000*%
%TD*%
%TA.AperFunction,ViaPad*%
%ADD13C,0.800000*%
%TD*%
%TA.AperFunction,Conductor*%
%ADD14C,0.250000*%
%TD*%
%TA.AperFunction,Conductor*%
%ADD15C,0.254000*%
%TD*%
%TA.AperFunction,Conductor*%
%ADD16C,0.100000*%
%TD*%
G04 APERTURE END LIST*
D10*
%TO.P,H2,1*%
%TO.N,Earth*%
X61487000Y-63472000D03*
%TD*%
%TO.P,H1,1*%
%TO.N,Earth*%
X96487000Y-63472000D03*
%TD*%
D11*
%TO.P,USB1,13*%
%TO.N,Net-(C1-Pad1)*%
X83312000Y-64759000D03*
X74672000Y-64759000D03*
D12*
X83312000Y-60579000D03*
X74672000Y-60579000D03*
%TD*%
D13*
%TO.N,Earth*%
X68446000Y-65592000D03*
X88429000Y-65612347D03*
%TO.N,VCC*%
X73279000Y-60960000D03*
X75853014Y-67116004D03*
%TO.N,GND*%
X82169000Y-67564000D03*
X73785365Y-67110635D03*
%TO.N,Net-(R1-Pad2)*%
X83058000Y-68326000D03*
X84194000Y-66227000D03*
%TO.N,Net-(R2-Pad2)*%
X73279000Y-59309000D03*
X76955000Y-67116002D03*
%TD*%
D14*
%TO.N,Net-(C1-Pad1)*%
X74672000Y-64759000D02*
X74672000Y-60579000D01*
X83312000Y-60579000D02*
X83312000Y-64759000D01*
%TO.N,VCC*%
X73279000Y-60960000D02*
X73279000Y-65529685D01*
X74865319Y-67116004D02*
X75853014Y-67116004D01*
X73279000Y-65529685D02*
X74865319Y-67116004D01*
%TO.N,GND*%
X81661000Y-68072000D02*
X74746730Y-68072000D01*
X82169000Y-67564000D02*
X81661000Y-68072000D01*
X74746730Y-68072000D02*
X73785365Y-67110635D01*
%TO.N,Net-(R1-Pad2)*%
X83058000Y-68326000D02*
X83058000Y-67363000D01*
X83058000Y-67363000D02*
X84194000Y-66227000D01*
%TO.N,Net-(R2-Pad2)*%
X76955000Y-60699000D02*
X76955000Y-67116002D01*
X73279000Y-59309000D02*
X75565000Y-59309000D01*
X75565000Y-59309000D02*
X76955000Y-60699000D01*
%TD*%
D15*
%TO.N,Earth*%
X95336581Y-58501726D02*
X96161880Y-58715931D01*
X96939275Y-59066123D01*
X97646563Y-59542296D01*
X98263505Y-60130830D01*
X98772464Y-60814895D01*
X99158893Y-61574945D01*
X99411735Y-62389227D01*
X99523763Y-63234474D01*
X99491777Y-64086509D01*
X99316687Y-64920978D01*
X99003503Y-65714010D01*
X98561175Y-66442942D01*
X98002360Y-67086921D01*
X97343022Y-67627544D01*
X96602030Y-68049341D01*
X95800559Y-68340261D01*
X94953066Y-68493514D01*
X94476250Y-68516000D01*
X83816508Y-68516000D01*
X83839000Y-68402922D01*
X83839000Y-68249078D01*
X83808987Y-68098191D01*
X83750113Y-67956058D01*
X83664642Y-67828141D01*
X83564000Y-67727499D01*
X83564000Y-67572591D01*
X84128592Y-67008000D01*
X84270922Y-67008000D01*
X84421809Y-66977987D01*
X84563942Y-66919113D01*
X84691859Y-66833642D01*
X84800642Y-66724859D01*
X84886113Y-66596942D01*
X84944987Y-66454809D01*
X84975000Y-66303922D01*
X84975000Y-66150078D01*
X84944987Y-65999191D01*
X84886113Y-65857058D01*
X84800642Y-65729141D01*
X84691859Y-65620358D01*
X84563942Y-65534887D01*
X84421809Y-65476013D01*
X84270922Y-65446000D01*
X84183769Y-65446000D01*
X84193000Y-65352273D01*
X84193000Y-65248349D01*
X94890256Y-65248349D01*
X95094362Y-65604867D01*
X95537223Y-65835575D01*
X96016583Y-65975452D01*
X96514021Y-66019123D01*
X97010422Y-65964909D01*
X97486707Y-65814894D01*
X97879638Y-65604867D01*
X98083744Y-65248349D01*
X96487000Y-63651605D01*
X94890256Y-65248349D01*
X84193000Y-65248349D01*
X84193000Y-64165727D01*
X84180252Y-64036294D01*
X84129875Y-63870225D01*
X84048068Y-63717175D01*
X83937975Y-63583025D01*
X83835615Y-63499021D01*
X93939877Y-63499021D01*
X93994091Y-63995422D01*
X94144106Y-64471707D01*
X94354133Y-64864638D01*
X94710651Y-65068744D01*
X96307395Y-63472000D01*
X96666605Y-63472000D01*
X98263349Y-65068744D01*
X98619867Y-64864638D01*
X98850575Y-64421777D01*
X98990452Y-63942417D01*
X99034123Y-63444979D01*
X98979909Y-62948578D01*
X98829894Y-62472293D01*
X98619867Y-62079362D01*
X98263349Y-61875256D01*
X96666605Y-63472000D01*
X96307395Y-63472000D01*
X94710651Y-61875256D01*
X94354133Y-62079362D01*
X94123425Y-62522223D01*
X93983548Y-63001583D01*
X93939877Y-63499021D01*
X83835615Y-63499021D01*
X83818000Y-63484565D01*
X83818000Y-61695651D01*
X94890256Y-61695651D01*
X96487000Y-63292395D01*
X98083744Y-61695651D01*
X97879638Y-61339133D01*
X97436777Y-61108425D01*
X96957417Y-60968548D01*
X96459979Y-60924877D01*
X95963578Y-60979091D01*
X95487293Y-61129106D01*
X95094362Y-61339133D01*
X94890256Y-61695651D01*
X83818000Y-61695651D01*
X83818000Y-61603434D01*
X83937975Y-61504975D01*
X84048068Y-61370825D01*
X84129875Y-61217775D01*
X84180252Y-61051706D01*
X84193000Y-60922273D01*
X84193000Y-60235727D01*
X84180252Y-60106294D01*
X84129875Y-59940225D01*
X84048068Y-59787175D01*
X83937975Y-59653025D01*
X83803825Y-59542932D01*
X83650775Y-59461125D01*
X83484706Y-59410748D01*
X83312000Y-59393738D01*
X83139295Y-59410748D01*
X82973226Y-59461125D01*
X82820176Y-59542932D01*
X82686026Y-59653025D01*
X82575933Y-59787175D01*
X82494125Y-59940225D01*
X82443748Y-60106294D01*
X82431000Y-60235727D01*
X82431000Y-60922272D01*
X82443748Y-61051705D01*
X82494125Y-61217774D01*
X82575932Y-61370824D01*
X82686025Y-61504975D01*
X82806000Y-61603435D01*
X82806001Y-63484565D01*
X82686026Y-63583025D01*
X82575933Y-63717175D01*
X82494126Y-63870225D01*
X82493266Y-63873059D01*
X82430386Y-63778951D01*
X82332049Y-63680614D01*
X82216416Y-63603351D01*
X82087933Y-63550131D01*
X81951535Y-63523000D01*
X81812465Y-63523000D01*
X81676067Y-63550131D01*
X81547584Y-63603351D01*
X81431951Y-63680614D01*
X81333614Y-63778951D01*
X81256351Y-63894584D01*
X81203131Y-64023067D01*
X81176000Y-64159465D01*
X81176000Y-64298535D01*
X81203131Y-64434933D01*
X81256351Y-64563416D01*
X81333614Y-64679049D01*
X81431951Y-64777386D01*
X81547584Y-64854649D01*
X81676067Y-64907869D01*
X81812465Y-64935000D01*
X81951535Y-64935000D01*
X82087933Y-64907869D01*
X82216416Y-64854649D01*
X82332049Y-64777386D01*
X82430386Y-64679049D01*
X82431001Y-64678129D01*
X82431000Y-65352272D01*
X82443748Y-65481705D01*
X82494125Y-65647774D01*
X82575932Y-65800824D01*
X82686025Y-65934975D01*
X82820175Y-66045068D01*
X82973225Y-66126875D01*
X83139294Y-66177252D01*
X83312000Y-66194262D01*
X83413000Y-66184314D01*
X83413000Y-66292408D01*
X82717780Y-66987629D01*
X82706438Y-66996937D01*
X82666859Y-66957358D01*
X82538942Y-66871887D01*
X82396809Y-66813013D01*
X82245922Y-66783000D01*
X82092078Y-66783000D01*
X81941191Y-66813013D01*
X81799058Y-66871887D01*
X81671141Y-66957358D01*
X81562358Y-67066141D01*
X81476887Y-67194058D01*
X81418013Y-67336191D01*
X81388000Y-67487078D01*
X81388000Y-67566000D01*
X77593622Y-67566000D01*
X77647113Y-67485944D01*
X77705987Y-67343811D01*
X77736000Y-67192924D01*
X77736000Y-67039080D01*
X77705987Y-66888193D01*
X77647113Y-66746060D01*
X77561642Y-66618143D01*
X77461000Y-66517501D01*
X77461000Y-60723854D01*
X77463448Y-60699000D01*
X77453678Y-60599807D01*
X77424745Y-60504425D01*
X77417171Y-60490255D01*
X77377759Y-60416521D01*
X77314527Y-60339473D01*
X77295220Y-60323628D01*
X75940376Y-58968785D01*
X75924527Y-58949473D01*
X75847479Y-58886241D01*
X75759575Y-58839255D01*
X75664193Y-58810322D01*
X75589854Y-58803000D01*
X75589846Y-58803000D01*
X75565000Y-58800553D01*
X75540154Y-58803000D01*
X73877501Y-58803000D01*
X73776859Y-58702358D01*
X73648942Y-58616887D01*
X73506809Y-58558013D01*
X73355922Y-58528000D01*
X73202078Y-58528000D01*
X73051191Y-58558013D01*
X72909058Y-58616887D01*
X72781141Y-58702358D01*
X72672358Y-58811141D01*
X72586887Y-58939058D01*
X72528013Y-59081191D01*
X72498000Y-59232078D01*
X72498000Y-59385922D01*
X72528013Y-59536809D01*
X72586887Y-59678942D01*
X72672358Y-59806859D01*
X72781141Y-59915642D01*
X72909058Y-60001113D01*
X73051191Y-60059987D01*
X73202078Y-60090000D01*
X73355922Y-60090000D01*
X73506809Y-60059987D01*
X73648942Y-60001113D01*
X73776859Y-59915642D01*
X73877501Y-59815000D01*
X73921060Y-59815000D01*
X73854125Y-59940225D01*
X73803748Y-60106294D01*
X73791000Y-60235727D01*
X73791000Y-60367499D01*
X73776859Y-60353358D01*
X73648942Y-60267887D01*
X73506809Y-60209013D01*
X73355922Y-60179000D01*
X73202078Y-60179000D01*
X73051191Y-60209013D01*
X72909058Y-60267887D01*
X72781141Y-60353358D01*
X72672358Y-60462141D01*
X72586887Y-60590058D01*
X72528013Y-60732191D01*
X72498000Y-60883078D01*
X72498000Y-61036922D01*
X72528013Y-61187809D01*
X72586887Y-61329942D01*
X72672358Y-61457859D01*
X72773000Y-61558501D01*
X72773001Y-65504829D01*
X72770553Y-65529685D01*
X72780322Y-65628877D01*
X72809255Y-65724259D01*
X72809256Y-65724260D01*
X72856242Y-65812164D01*
X72919474Y-65889212D01*
X72938780Y-65905057D01*
X73441460Y-66407737D01*
X73415423Y-66418522D01*
X73287506Y-66503993D01*
X73178723Y-66612776D01*
X73093252Y-66740693D01*
X73034378Y-66882826D01*
X73004365Y-67033713D01*
X73004365Y-67187557D01*
X73034378Y-67338444D01*
X73093252Y-67480577D01*
X73178723Y-67608494D01*
X73287506Y-67717277D01*
X73415423Y-67802748D01*
X73557556Y-67861622D01*
X73708443Y-67891635D01*
X73850774Y-67891635D01*
X74371358Y-68412220D01*
X74387203Y-68431527D01*
X74464251Y-68494759D01*
X74503990Y-68516000D01*
X63506309Y-68516000D01*
X62637420Y-68442274D01*
X61812125Y-68228070D01*
X61034725Y-67877877D01*
X60327434Y-67401701D01*
X59710493Y-66813167D01*
X59201534Y-66129103D01*
X58815107Y-65369055D01*
X58777627Y-65248349D01*
X59890256Y-65248349D01*
X60094362Y-65604867D01*
X60537223Y-65835575D01*
X61016583Y-65975452D01*
X61514021Y-66019123D01*
X62010422Y-65964909D01*
X62486707Y-65814894D01*
X62879638Y-65604867D01*
X63083744Y-65248349D01*
X61487000Y-63651605D01*
X59890256Y-65248349D01*
X58777627Y-65248349D01*
X58562265Y-64554774D01*
X58450237Y-63709526D01*
X58458139Y-63499021D01*
X58939877Y-63499021D01*
X58994091Y-63995422D01*
X59144106Y-64471707D01*
X59354133Y-64864638D01*
X59710651Y-65068744D01*
X61307395Y-63472000D01*
X61666605Y-63472000D01*
X63263349Y-65068744D01*
X63619867Y-64864638D01*
X63850575Y-64421777D01*
X63990452Y-63942417D01*
X64034123Y-63444979D01*
X63979909Y-62948578D01*
X63829894Y-62472293D01*
X63619867Y-62079362D01*
X63263349Y-61875256D01*
X61666605Y-63472000D01*
X61307395Y-63472000D01*
X59710651Y-61875256D01*
X59354133Y-62079362D01*
X59123425Y-62522223D01*
X58983548Y-63001583D01*
X58939877Y-63499021D01*
X58458139Y-63499021D01*
X58482223Y-62857491D01*
X58657313Y-62023022D01*
X58786598Y-61695651D01*
X59890256Y-61695651D01*
X61487000Y-63292395D01*
X63083744Y-61695651D01*
X62879638Y-61339133D01*
X62436777Y-61108425D01*
X61957417Y-60968548D01*
X61459979Y-60924877D01*
X60963578Y-60979091D01*
X60487293Y-61129106D01*
X60094362Y-61339133D01*
X59890256Y-61695651D01*
X58786598Y-61695651D01*
X58970496Y-61229993D01*
X59412827Y-60501054D01*
X59971640Y-59857080D01*
X60630978Y-59316456D01*
X61371972Y-58894658D01*
X62173445Y-58603737D01*
X63020934Y-58450486D01*
X63497750Y-58428000D01*
X94467691Y-58428000D01*
X95336581Y-58501726D01*
%TA.AperFunction,Conductor*%
D16*
G36*
X95336581Y-58501726D02*
G01*
X96161880Y-58715931D01*
X96939275Y-59066123D01*
X97646563Y-59542296D01*
X98263505Y-60130830D01*
X98772464Y-60814895D01*
X99158893Y-61574945D01*
X99411735Y-62389227D01*
X99523763Y-63234474D01*
X99491777Y-64086509D01*
X99316687Y-64920978D01*
X99003503Y-65714010D01*
X98561175Y-66442942D01*
X98002360Y-67086921D01*
X97343022Y-67627544D01*
X96602030Y-68049341D01*
X95800559Y-68340261D01*
X94953066Y-68493514D01*
X94476250Y-68516000D01*
X83816508Y-68516000D01*
X83839000Y-68402922D01*
X83839000Y-68249078D01*
X83808987Y-68098191D01*
X83750113Y-67956058D01*
X83664642Y-67828141D01*
X83564000Y-67727499D01*
X83564000Y-67572591D01*
X84128592Y-67008000D01*
X84270922Y-67008000D01*
X84421809Y-66977987D01*
X84563942Y-66919113D01*
X84691859Y-66833642D01*
X84800642Y-66724859D01*
X84886113Y-66596942D01*
X84944987Y-66454809D01*
X84975000Y-66303922D01*
X84975000Y-66150078D01*
X84944987Y-65999191D01*
X84886113Y-65857058D01*
X84800642Y-65729141D01*
X84691859Y-65620358D01*
X84563942Y-65534887D01*
X84421809Y-65476013D01*
X84270922Y-65446000D01*
X84183769Y-65446000D01*
X84193000Y-65352273D01*
X84193000Y-65248349D01*
X94890256Y-65248349D01*
X95094362Y-65604867D01*
X95537223Y-65835575D01*
X96016583Y-65975452D01*
X96514021Y-66019123D01*
X97010422Y-65964909D01*
X97486707Y-65814894D01*
X97879638Y-65604867D01*
X98083744Y-65248349D01*
X96487000Y-63651605D01*
X94890256Y-65248349D01*
X84193000Y-65248349D01*
X84193000Y-64165727D01*
X84180252Y-64036294D01*
X84129875Y-63870225D01*
X84048068Y-63717175D01*
X83937975Y-63583025D01*
X83835615Y-63499021D01*
X93939877Y-63499021D01*
X93994091Y-63995422D01*
X94144106Y-64471707D01*
X94354133Y-64864638D01*
X94710651Y-65068744D01*
X96307395Y-63472000D01*
X96666605Y-63472000D01*
X98263349Y-65068744D01*
X98619867Y-64864638D01*
X98850575Y-64421777D01*
X98990452Y-63942417D01*
X99034123Y-63444979D01*
X98979909Y-62948578D01*
X98829894Y-62472293D01*
X98619867Y-62079362D01*
X98263349Y-61875256D01*
X96666605Y-63472000D01*
X96307395Y-63472000D01*
X94710651Y-61875256D01*
X94354133Y-62079362D01*
X94123425Y-62522223D01*
X93983548Y-63001583D01*
X93939877Y-63499021D01*
X83835615Y-63499021D01*
X83818000Y-63484565D01*
X83818000Y-61695651D01*
X94890256Y-61695651D01*
X96487000Y-63292395D01*
X98083744Y-61695651D01*
X97879638Y-61339133D01*
X97436777Y-61108425D01*
X96957417Y-60968548D01*
X96459979Y-60924877D01*
X95963578Y-60979091D01*
X95487293Y-61129106D01*
X95094362Y-61339133D01*
X94890256Y-61695651D01*
X83818000Y-61695651D01*
X83818000Y-61603434D01*
X83937975Y-61504975D01*
X84048068Y-61370825D01*
X84129875Y-61217775D01*
X84180252Y-61051706D01*
X84193000Y-60922273D01*
X84193000Y-60235727D01*
X84180252Y-60106294D01*
X84129875Y-59940225D01*
X84048068Y-59787175D01*
X83937975Y-59653025D01*
X83803825Y-59542932D01*
X83650775Y-59461125D01*
X83484706Y-59410748D01*
X83312000Y-59393738D01*
X83139295Y-59410748D01*
X82973226Y-59461125D01*
X82820176Y-59542932D01*
X82686026Y-59653025D01*
X82575933Y-59787175D01*
X82494125Y-59940225D01*
X82443748Y-60106294D01*
X82431000Y-60235727D01*
X82431000Y-60922272D01*
X82443748Y-61051705D01*
X82494125Y-61217774D01*
X82575932Y-61370824D01*
X82686025Y-61504975D01*
X82806000Y-61603435D01*
X82806001Y-63484565D01*
X82686026Y-63583025D01*
X82575933Y-63717175D01*
X82494126Y-63870225D01*
X82493266Y-63873059D01*
X82430386Y-63778951D01*
X82332049Y-63680614D01*
X82216416Y-63603351D01*
X82087933Y-63550131D01*
X81951535Y-63523000D01*
X81812465Y-63523000D01*
X81676067Y-63550131D01*
X81547584Y-63603351D01*
X81431951Y-63680614D01*
X81333614Y-63778951D01*
X81256351Y-63894584D01*
X81203131Y-64023067D01*
X81176000Y-64159465D01*
X81176000Y-64298535D01*
X81203131Y-64434933D01*
X81256351Y-64563416D01*
X81333614Y-64679049D01*
X81431951Y-64777386D01*
X81547584Y-64854649D01*
X81676067Y-64907869D01*
X81812465Y-64935000D01*
X81951535Y-64935000D01*
X82087933Y-64907869D01*
X82216416Y-64854649D01*
X82332049Y-64777386D01*
X82430386Y-64679049D01*
X82431001Y-64678129D01*
X82431000Y-65352272D01*
X82443748Y-65481705D01*
X82494125Y-65647774D01*
X82575932Y-65800824D01*
X82686025Y-65934975D01*
X82820175Y-66045068D01*
X82973225Y-66126875D01*
X83139294Y-66177252D01*
X83312000Y-66194262D01*
X83413000Y-66184314D01*
X83413000Y-66292408D01*
X82717780Y-66987629D01*
X82706438Y-66996937D01*
X82666859Y-66957358D01*
X82538942Y-66871887D01*
X82396809Y-66813013D01*
X82245922Y-66783000D01*
X82092078Y-66783000D01*
X81941191Y-66813013D01*
X81799058Y-66871887D01*
X81671141Y-66957358D01*
X81562358Y-67066141D01*
X81476887Y-67194058D01*
X81418013Y-67336191D01*
X81388000Y-67487078D01*
X81388000Y-67566000D01*
X77593622Y-67566000D01*
X77647113Y-67485944D01*
X77705987Y-67343811D01*
X77736000Y-67192924D01*
X77736000Y-67039080D01*
X77705987Y-66888193D01*
X77647113Y-66746060D01*
X77561642Y-66618143D01*
X77461000Y-66517501D01*
X77461000Y-60723854D01*
X77463448Y-60699000D01*
X77453678Y-60599807D01*
X77424745Y-60504425D01*
X77417171Y-60490255D01*
X77377759Y-60416521D01*
X77314527Y-60339473D01*
X77295220Y-60323628D01*
X75940376Y-58968785D01*
X75924527Y-58949473D01*
X75847479Y-58886241D01*
X75759575Y-58839255D01*
X75664193Y-58810322D01*
X75589854Y-58803000D01*
X75589846Y-58803000D01*
X75565000Y-58800553D01*
X75540154Y-58803000D01*
X73877501Y-58803000D01*
X73776859Y-58702358D01*
X73648942Y-58616887D01*
X73506809Y-58558013D01*
X73355922Y-58528000D01*
X73202078Y-58528000D01*
X73051191Y-58558013D01*
X72909058Y-58616887D01*
X72781141Y-58702358D01*
X72672358Y-58811141D01*
X72586887Y-58939058D01*
X72528013Y-59081191D01*
X72498000Y-59232078D01*
X72498000Y-59385922D01*
X72528013Y-59536809D01*
X72586887Y-59678942D01*
X72672358Y-59806859D01*
X72781141Y-59915642D01*
X72909058Y-60001113D01*
X73051191Y-60059987D01*
X73202078Y-60090000D01*
X73355922Y-60090000D01*
X73506809Y-60059987D01*
X73648942Y-60001113D01*
X73776859Y-59915642D01*
X73877501Y-59815000D01*
X73921060Y-59815000D01*
X73854125Y-59940225D01*
X73803748Y-60106294D01*
X73791000Y-60235727D01*
X73791000Y-60367499D01*
X73776859Y-60353358D01*
X73648942Y-60267887D01*
X73506809Y-60209013D01*
X73355922Y-60179000D01*
X73202078Y-60179000D01*
X73051191Y-60209013D01*
X72909058Y-60267887D01*
X72781141Y-60353358D01*
X72672358Y-60462141D01*
X72586887Y-60590058D01*
X72528013Y-60732191D01*
X72498000Y-60883078D01*
X72498000Y-61036922D01*
X72528013Y-61187809D01*
X72586887Y-61329942D01*
X72672358Y-61457859D01*
X72773000Y-61558501D01*
X72773001Y-65504829D01*
X72770553Y-65529685D01*
X72780322Y-65628877D01*
X72809255Y-65724259D01*
X72809256Y-65724260D01*
X72856242Y-65812164D01*
X72919474Y-65889212D01*
X72938780Y-65905057D01*
X73441460Y-66407737D01*
X73415423Y-66418522D01*
X73287506Y-66503993D01*
X73178723Y-66612776D01*
X73093252Y-66740693D01*
X73034378Y-66882826D01*
X73004365Y-67033713D01*
X73004365Y-67187557D01*
X73034378Y-67338444D01*
X73093252Y-67480577D01*
X73178723Y-67608494D01*
X73287506Y-67717277D01*
X73415423Y-67802748D01*
X73557556Y-67861622D01*
X73708443Y-67891635D01*
X73850774Y-67891635D01*
X74371358Y-68412220D01*
X74387203Y-68431527D01*
X74464251Y-68494759D01*
X74503990Y-68516000D01*
X63506309Y-68516000D01*
X62637420Y-68442274D01*
X61812125Y-68228070D01*
X61034725Y-67877877D01*
X60327434Y-67401701D01*
X59710493Y-66813167D01*
X59201534Y-66129103D01*
X58815107Y-65369055D01*
X58777627Y-65248349D01*
X59890256Y-65248349D01*
X60094362Y-65604867D01*
X60537223Y-65835575D01*
X61016583Y-65975452D01*
X61514021Y-66019123D01*
X62010422Y-65964909D01*
X62486707Y-65814894D01*
X62879638Y-65604867D01*
X63083744Y-65248349D01*
X61487000Y-63651605D01*
X59890256Y-65248349D01*
X58777627Y-65248349D01*
X58562265Y-64554774D01*
X58450237Y-63709526D01*
X58458139Y-63499021D01*
X58939877Y-63499021D01*
X58994091Y-63995422D01*
X59144106Y-64471707D01*
X59354133Y-64864638D01*
X59710651Y-65068744D01*
X61307395Y-63472000D01*
X61666605Y-63472000D01*
X63263349Y-65068744D01*
X63619867Y-64864638D01*
X63850575Y-64421777D01*
X63990452Y-63942417D01*
X64034123Y-63444979D01*
X63979909Y-62948578D01*
X63829894Y-62472293D01*
X63619867Y-62079362D01*
X63263349Y-61875256D01*
X61666605Y-63472000D01*
X61307395Y-63472000D01*
X59710651Y-61875256D01*
X59354133Y-62079362D01*
X59123425Y-62522223D01*
X58983548Y-63001583D01*
X58939877Y-63499021D01*
X58458139Y-63499021D01*
X58482223Y-62857491D01*
X58657313Y-62023022D01*
X58786598Y-61695651D01*
X59890256Y-61695651D01*
X61487000Y-63292395D01*
X63083744Y-61695651D01*
X62879638Y-61339133D01*
X62436777Y-61108425D01*
X61957417Y-60968548D01*
X61459979Y-60924877D01*
X60963578Y-60979091D01*
X60487293Y-61129106D01*
X60094362Y-61339133D01*
X59890256Y-61695651D01*
X58786598Y-61695651D01*
X58970496Y-61229993D01*
X59412827Y-60501054D01*
X59971640Y-59857080D01*
X60630978Y-59316456D01*
X61371972Y-58894658D01*
X62173445Y-58603737D01*
X63020934Y-58450486D01*
X63497750Y-58428000D01*
X94467691Y-58428000D01*
X95336581Y-58501726D01*
G37*
%TD.AperFunction*%
%TD*%
M02*
