%TF.GenerationSoftware,KiCad,Pcbnew,5.1.10-88a1d61d58~88~ubuntu20.04.1*%
%TF.CreationDate,2021-04-30T16:59:14-07:00*%
%TF.ProjectId,kb-db,6b622d64-622e-46b6-9963-61645f706362,rev?*%
%TF.SameCoordinates,Original*%
%TF.FileFunction,Copper,L1,Top*%
%TF.FilePolarity,Positive*%
%FSLAX46Y46*%
G04 Gerber Fmt 4.6, Leading zero omitted, Abs format (unit mm)*
G04 Created by KiCad (PCBNEW 5.1.10-88a1d61d58~88~ubuntu20.04.1) date 2021-04-30 16:59:14*
%MOMM*%
%LPD*%
G01*
G04 APERTURE LIST*
%TA.AperFunction,ComponentPad*%
%ADD10C,3.800000*%
%TD*%
%TA.AperFunction,SMDPad,CuDef*%
%ADD11R,0.600000X1.450000*%
%TD*%
%TA.AperFunction,SMDPad,CuDef*%
%ADD12R,0.300000X1.450000*%
%TD*%
%TA.AperFunction,ComponentPad*%
%ADD13O,1.000000X2.100000*%
%TD*%
%TA.AperFunction,ComponentPad*%
%ADD14O,1.000000X1.600000*%
%TD*%
%TA.AperFunction,SMDPad,CuDef*%
%ADD15R,1.400000X1.000000*%
%TD*%
%TA.AperFunction,SMDPad,CuDef*%
%ADD16R,1.400000X1.200000*%
%TD*%
%TA.AperFunction,ViaPad*%
%ADD17C,0.800000*%
%TD*%
%TA.AperFunction,Conductor*%
%ADD18C,0.250000*%
%TD*%
%TA.AperFunction,Conductor*%
%ADD19C,0.254000*%
%TD*%
%TA.AperFunction,Conductor*%
%ADD20C,0.100000*%
%TD*%
G04 APERTURE END LIST*
D10*
%TO.P,H2,1*%
%TO.N,Earth*%
X61487000Y-63472000D03*
%TD*%
%TO.P,H1,1*%
%TO.N,Earth*%
X96487000Y-63472000D03*
%TD*%
%TO.P,J1,MP*%
%TO.N,N/C*%
%TA.AperFunction,SMDPad,CuDef*%
G36*
G01*
X91551999Y-65579000D02*
X92852001Y-65579000D01*
G75*
G02*
X93102000Y-65828999I0J-249999D01*
G01*
X93102000Y-66529001D01*
G75*
G02*
X92852001Y-66779000I-249999J0D01*
G01*
X91551999Y-66779000D01*
G75*
G02*
X91302000Y-66529001I0J249999D01*
G01*
X91302000Y-65828999D01*
G75*
G02*
X91551999Y-65579000I249999J0D01*
G01*
G37*
%TD.AperFunction*%
%TA.AperFunction,SMDPad,CuDef*%
G36*
G01*
X91551999Y-59979000D02*
X92852001Y-59979000D01*
G75*
G02*
X93102000Y-60228999I0J-249999D01*
G01*
X93102000Y-60929001D01*
G75*
G02*
X92852001Y-61179000I-249999J0D01*
G01*
X91551999Y-61179000D01*
G75*
G02*
X91302000Y-60929001I0J249999D01*
G01*
X91302000Y-60228999D01*
G75*
G02*
X91551999Y-59979000I249999J0D01*
G01*
G37*
%TD.AperFunction*%
%TO.P,J1,4*%
%TO.N,GND*%
%TA.AperFunction,SMDPad,CuDef*%
G36*
G01*
X89052000Y-64579000D02*
X90302000Y-64579000D01*
G75*
G02*
X90452000Y-64729000I0J-150000D01*
G01*
X90452000Y-65029000D01*
G75*
G02*
X90302000Y-65179000I-150000J0D01*
G01*
X89052000Y-65179000D01*
G75*
G02*
X88902000Y-65029000I0J150000D01*
G01*
X88902000Y-64729000D01*
G75*
G02*
X89052000Y-64579000I150000J0D01*
G01*
G37*
%TD.AperFunction*%
%TO.P,J1,3*%
%TO.N,D+*%
%TA.AperFunction,SMDPad,CuDef*%
G36*
G01*
X89052000Y-63579000D02*
X90302000Y-63579000D01*
G75*
G02*
X90452000Y-63729000I0J-150000D01*
G01*
X90452000Y-64029000D01*
G75*
G02*
X90302000Y-64179000I-150000J0D01*
G01*
X89052000Y-64179000D01*
G75*
G02*
X88902000Y-64029000I0J150000D01*
G01*
X88902000Y-63729000D01*
G75*
G02*
X89052000Y-63579000I150000J0D01*
G01*
G37*
%TD.AperFunction*%
%TO.P,J1,2*%
%TO.N,D-*%
%TA.AperFunction,SMDPad,CuDef*%
G36*
G01*
X89052000Y-62579000D02*
X90302000Y-62579000D01*
G75*
G02*
X90452000Y-62729000I0J-150000D01*
G01*
X90452000Y-63029000D01*
G75*
G02*
X90302000Y-63179000I-150000J0D01*
G01*
X89052000Y-63179000D01*
G75*
G02*
X88902000Y-63029000I0J150000D01*
G01*
X88902000Y-62729000D01*
G75*
G02*
X89052000Y-62579000I150000J0D01*
G01*
G37*
%TD.AperFunction*%
%TO.P,J1,1*%
%TO.N,+5V*%
%TA.AperFunction,SMDPad,CuDef*%
G36*
G01*
X89052000Y-61579000D02*
X90302000Y-61579000D01*
G75*
G02*
X90452000Y-61729000I0J-150000D01*
G01*
X90452000Y-62029000D01*
G75*
G02*
X90302000Y-62179000I-150000J0D01*
G01*
X89052000Y-62179000D01*
G75*
G02*
X88902000Y-62029000I0J150000D01*
G01*
X88902000Y-61729000D01*
G75*
G02*
X89052000Y-61579000I150000J0D01*
G01*
G37*
%TD.AperFunction*%
%TD*%
%TO.P,C1,2*%
%TO.N,Earth*%
%TA.AperFunction,SMDPad,CuDef*%
G36*
G01*
X66454000Y-61156000D02*
X67404000Y-61156000D01*
G75*
G02*
X67654000Y-61406000I0J-250000D01*
G01*
X67654000Y-61906000D01*
G75*
G02*
X67404000Y-62156000I-250000J0D01*
G01*
X66454000Y-62156000D01*
G75*
G02*
X66204000Y-61906000I0J250000D01*
G01*
X66204000Y-61406000D01*
G75*
G02*
X66454000Y-61156000I250000J0D01*
G01*
G37*
%TD.AperFunction*%
%TO.P,C1,1*%
%TO.N,Net-(C1-Pad1)*%
%TA.AperFunction,SMDPad,CuDef*%
G36*
G01*
X66454000Y-59256000D02*
X67404000Y-59256000D01*
G75*
G02*
X67654000Y-59506000I0J-250000D01*
G01*
X67654000Y-60006000D01*
G75*
G02*
X67404000Y-60256000I-250000J0D01*
G01*
X66454000Y-60256000D01*
G75*
G02*
X66204000Y-60006000I0J250000D01*
G01*
X66204000Y-59506000D01*
G75*
G02*
X66454000Y-59256000I250000J0D01*
G01*
G37*
%TD.AperFunction*%
%TD*%
D11*
%TO.P,USB1,12*%
%TO.N,GND*%
X75767000Y-65674000D03*
%TO.P,USB1,1*%
X82217000Y-65674000D03*
%TO.P,USB1,11*%
%TO.N,VCC*%
X76542000Y-65674000D03*
%TO.P,USB1,2*%
X81442000Y-65674000D03*
D12*
%TO.P,USB1,3*%
%TO.N,Net-(USB1-Pad3)*%
X80742000Y-65674000D03*
%TO.P,USB1,10*%
%TO.N,Net-(R2-Pad2)*%
X77242000Y-65674000D03*
%TO.P,USB1,4*%
%TO.N,Net-(R1-Pad2)*%
X80242000Y-65674000D03*
%TO.P,USB1,9*%
%TO.N,Net-(USB1-Pad9)*%
X77742000Y-65674000D03*
%TO.P,USB1,5*%
%TO.N,DBUS-*%
X79742000Y-65674000D03*
%TO.P,USB1,8*%
%TO.N,DBUS+*%
X78242000Y-65674000D03*
%TO.P,USB1,7*%
%TO.N,DBUS-*%
X78742000Y-65674000D03*
%TO.P,USB1,6*%
%TO.N,DBUS+*%
X79242000Y-65674000D03*
D13*
%TO.P,USB1,13*%
%TO.N,Net-(C1-Pad1)*%
X83312000Y-64759000D03*
X74672000Y-64759000D03*
D14*
X83312000Y-60579000D03*
X74672000Y-60579000D03*
%TD*%
%TO.P,R5,2*%
%TO.N,Earth*%
%TA.AperFunction,SMDPad,CuDef*%
G36*
G01*
X64446998Y-61129500D02*
X65347002Y-61129500D01*
G75*
G02*
X65597000Y-61379498I0J-249998D01*
G01*
X65597000Y-61904502D01*
G75*
G02*
X65347002Y-62154500I-249998J0D01*
G01*
X64446998Y-62154500D01*
G75*
G02*
X64197000Y-61904502I0J249998D01*
G01*
X64197000Y-61379498D01*
G75*
G02*
X64446998Y-61129500I249998J0D01*
G01*
G37*
%TD.AperFunction*%
%TO.P,R5,1*%
%TO.N,Net-(C1-Pad1)*%
%TA.AperFunction,SMDPad,CuDef*%
G36*
G01*
X64446998Y-59304500D02*
X65347002Y-59304500D01*
G75*
G02*
X65597000Y-59554498I0J-249998D01*
G01*
X65597000Y-60079502D01*
G75*
G02*
X65347002Y-60329500I-249998J0D01*
G01*
X64446998Y-60329500D01*
G75*
G02*
X64197000Y-60079502I0J249998D01*
G01*
X64197000Y-59554498D01*
G75*
G02*
X64446998Y-59304500I249998J0D01*
G01*
G37*
%TD.AperFunction*%
%TD*%
%TO.P,R4,2*%
%TO.N,DBUS+*%
%TA.AperFunction,SMDPad,CuDef*%
G36*
G01*
X85983500Y-63684998D02*
X85983500Y-64585002D01*
G75*
G02*
X85733502Y-64835000I-249998J0D01*
G01*
X85208498Y-64835000D01*
G75*
G02*
X84958500Y-64585002I0J249998D01*
G01*
X84958500Y-63684998D01*
G75*
G02*
X85208498Y-63435000I249998J0D01*
G01*
X85733502Y-63435000D01*
G75*
G02*
X85983500Y-63684998I0J-249998D01*
G01*
G37*
%TD.AperFunction*%
%TO.P,R4,1*%
%TO.N,D+*%
%TA.AperFunction,SMDPad,CuDef*%
G36*
G01*
X87808500Y-63684998D02*
X87808500Y-64585002D01*
G75*
G02*
X87558502Y-64835000I-249998J0D01*
G01*
X87033498Y-64835000D01*
G75*
G02*
X86783500Y-64585002I0J249998D01*
G01*
X86783500Y-63684998D01*
G75*
G02*
X87033498Y-63435000I249998J0D01*
G01*
X87558502Y-63435000D01*
G75*
G02*
X87808500Y-63684998I0J-249998D01*
G01*
G37*
%TD.AperFunction*%
%TD*%
%TO.P,R3,2*%
%TO.N,DBUS-*%
%TA.AperFunction,SMDPad,CuDef*%
G36*
G01*
X85960000Y-61652998D02*
X85960000Y-62553002D01*
G75*
G02*
X85710002Y-62803000I-249998J0D01*
G01*
X85184998Y-62803000D01*
G75*
G02*
X84935000Y-62553002I0J249998D01*
G01*
X84935000Y-61652998D01*
G75*
G02*
X85184998Y-61403000I249998J0D01*
G01*
X85710002Y-61403000D01*
G75*
G02*
X85960000Y-61652998I0J-249998D01*
G01*
G37*
%TD.AperFunction*%
%TO.P,R3,1*%
%TO.N,D-*%
%TA.AperFunction,SMDPad,CuDef*%
G36*
G01*
X87785000Y-61652998D02*
X87785000Y-62553002D01*
G75*
G02*
X87535002Y-62803000I-249998J0D01*
G01*
X87009998Y-62803000D01*
G75*
G02*
X86760000Y-62553002I0J249998D01*
G01*
X86760000Y-61652998D01*
G75*
G02*
X87009998Y-61403000I249998J0D01*
G01*
X87535002Y-61403000D01*
G75*
G02*
X87785000Y-61652998I0J-249998D01*
G01*
G37*
%TD.AperFunction*%
%TD*%
%TO.P,R2,2*%
%TO.N,Net-(R2-Pad2)*%
%TA.AperFunction,SMDPad,CuDef*%
G36*
G01*
X71242500Y-60394002D02*
X71242500Y-59493998D01*
G75*
G02*
X71492498Y-59244000I249998J0D01*
G01*
X72017502Y-59244000D01*
G75*
G02*
X72267500Y-59493998I0J-249998D01*
G01*
X72267500Y-60394002D01*
G75*
G02*
X72017502Y-60644000I-249998J0D01*
G01*
X71492498Y-60644000D01*
G75*
G02*
X71242500Y-60394002I0J249998D01*
G01*
G37*
%TD.AperFunction*%
%TO.P,R2,1*%
%TO.N,Earth*%
%TA.AperFunction,SMDPad,CuDef*%
G36*
G01*
X69417500Y-60394002D02*
X69417500Y-59493998D01*
G75*
G02*
X69667498Y-59244000I249998J0D01*
G01*
X70192502Y-59244000D01*
G75*
G02*
X70442500Y-59493998I0J-249998D01*
G01*
X70442500Y-60394002D01*
G75*
G02*
X70192502Y-60644000I-249998J0D01*
G01*
X69667498Y-60644000D01*
G75*
G02*
X69417500Y-60394002I0J249998D01*
G01*
G37*
%TD.AperFunction*%
%TD*%
%TO.P,R1,2*%
%TO.N,Net-(R1-Pad2)*%
%TA.AperFunction,SMDPad,CuDef*%
G36*
G01*
X85936500Y-65716998D02*
X85936500Y-66617002D01*
G75*
G02*
X85686502Y-66867000I-249998J0D01*
G01*
X85161498Y-66867000D01*
G75*
G02*
X84911500Y-66617002I0J249998D01*
G01*
X84911500Y-65716998D01*
G75*
G02*
X85161498Y-65467000I249998J0D01*
G01*
X85686502Y-65467000D01*
G75*
G02*
X85936500Y-65716998I0J-249998D01*
G01*
G37*
%TD.AperFunction*%
%TO.P,R1,1*%
%TO.N,Earth*%
%TA.AperFunction,SMDPad,CuDef*%
G36*
G01*
X87761500Y-65716998D02*
X87761500Y-66617002D01*
G75*
G02*
X87511502Y-66867000I-249998J0D01*
G01*
X86986498Y-66867000D01*
G75*
G02*
X86736500Y-66617002I0J249998D01*
G01*
X86736500Y-65716998D01*
G75*
G02*
X86986498Y-65467000I249998J0D01*
G01*
X87511502Y-65467000D01*
G75*
G02*
X87761500Y-65716998I0J-249998D01*
G01*
G37*
%TD.AperFunction*%
%TD*%
%TO.P,F1,2*%
%TO.N,VCC*%
%TA.AperFunction,SMDPad,CuDef*%
G36*
G01*
X85831500Y-59614750D02*
X85831500Y-60527250D01*
G75*
G02*
X85587750Y-60771000I-243750J0D01*
G01*
X85100250Y-60771000D01*
G75*
G02*
X84856500Y-60527250I0J243750D01*
G01*
X84856500Y-59614750D01*
G75*
G02*
X85100250Y-59371000I243750J0D01*
G01*
X85587750Y-59371000D01*
G75*
G02*
X85831500Y-59614750I0J-243750D01*
G01*
G37*
%TD.AperFunction*%
%TO.P,F1,1*%
%TO.N,+5V*%
%TA.AperFunction,SMDPad,CuDef*%
G36*
G01*
X87706500Y-59614750D02*
X87706500Y-60527250D01*
G75*
G02*
X87462750Y-60771000I-243750J0D01*
G01*
X86975250Y-60771000D01*
G75*
G02*
X86731500Y-60527250I0J243750D01*
G01*
X86731500Y-59614750D01*
G75*
G02*
X86975250Y-59371000I243750J0D01*
G01*
X87462750Y-59371000D01*
G75*
G02*
X87706500Y-59614750I0J-243750D01*
G01*
G37*
%TD.AperFunction*%
%TD*%
D15*
%TO.P,D1,4*%
%TO.N,VCC*%
X72177000Y-62177000D03*
%TO.P,D1,3*%
%TO.N,DBUS+*%
X72177000Y-64077000D03*
%TO.P,D1,2*%
%TO.N,DBUS-*%
X69977000Y-64077000D03*
D16*
%TO.P,D1,1*%
%TO.N,Earth*%
X69977000Y-62357000D03*
%TD*%
D17*
%TO.N,Earth*%
X68446000Y-65592000D03*
X88429000Y-65612347D03*
%TO.N,VCC*%
X73279000Y-60960000D03*
X75853014Y-67116004D03*
%TO.N,GND*%
X82169000Y-67564000D03*
X73785365Y-67110635D03*
%TO.N,Net-(R1-Pad2)*%
X83058000Y-68326000D03*
X84194000Y-66227000D03*
%TO.N,Net-(R2-Pad2)*%
X73279000Y-59309000D03*
X76955000Y-67116002D03*
%TD*%
D18*
%TO.N,Earth*%
X87874347Y-66167000D02*
X88429000Y-65612347D01*
X87874347Y-66167000D02*
X87249000Y-66167000D01*
%TO.N,Net-(C1-Pad1)*%
X83312000Y-60579000D02*
X74672000Y-60579000D01*
X64958000Y-59756000D02*
X64897000Y-59817000D01*
X66929000Y-59756000D02*
X64958000Y-59756000D01*
X68138000Y-58547000D02*
X66929000Y-59756000D01*
X73690000Y-58547000D02*
X68138000Y-58547000D01*
X74672000Y-59529000D02*
X73690000Y-58547000D01*
X74672000Y-60579000D02*
X74672000Y-59529000D01*
%TO.N,VCC*%
X81442000Y-64913998D02*
X81442000Y-65674000D01*
X80466992Y-63938990D02*
X81442000Y-64913998D01*
X77517008Y-63938990D02*
X80466992Y-63938990D01*
X76542000Y-64913998D02*
X77517008Y-63938990D01*
X76542000Y-65674000D02*
X76542000Y-64913998D01*
X73279000Y-61075000D02*
X72177000Y-62177000D01*
X73279000Y-60960000D02*
X73279000Y-61075000D01*
X85344000Y-60251000D02*
X85344000Y-60071000D01*
X83418000Y-62177000D02*
X85344000Y-60251000D01*
X72177000Y-62177000D02*
X83418000Y-62177000D01*
X76542000Y-66427018D02*
X76253013Y-66716005D01*
X76253013Y-66716005D02*
X75853014Y-67116004D01*
X76542000Y-65674000D02*
X76542000Y-66427018D01*
%TO.N,DBUS+*%
X78242000Y-64713998D02*
X78566998Y-64389000D01*
X78242000Y-65674000D02*
X78242000Y-64713998D01*
X79242000Y-64713998D02*
X79242000Y-65674000D01*
X78917002Y-64389000D02*
X79242000Y-64713998D01*
X78566998Y-64389000D02*
X78917002Y-64389000D01*
X72177000Y-64077000D02*
X73127000Y-64077000D01*
X73127000Y-64077000D02*
X74015989Y-63188011D01*
X84524011Y-63188011D02*
X85471000Y-64135000D01*
X74015989Y-63188011D02*
X84524011Y-63188011D01*
X78242000Y-65674000D02*
X78242000Y-67029004D01*
X78242000Y-67029004D02*
X77266004Y-68005000D01*
X72177000Y-66527590D02*
X72177000Y-64077000D01*
X73654410Y-68005000D02*
X72177000Y-66527590D01*
X77266004Y-68005000D02*
X73654410Y-68005000D01*
%TO.N,DBUS-*%
X78742000Y-66634002D02*
X79036998Y-66929000D01*
X78742000Y-65674000D02*
X78742000Y-66634002D01*
X79742000Y-66634002D02*
X79742000Y-65674000D01*
X79447002Y-66929000D02*
X79742000Y-66634002D01*
X79036998Y-66929000D02*
X79447002Y-66929000D01*
X73406000Y-63119000D02*
X71135000Y-63119000D01*
X70177000Y-64077000D02*
X69977000Y-64077000D01*
X73787000Y-62738000D02*
X73406000Y-63119000D01*
X71135000Y-63119000D02*
X70177000Y-64077000D01*
X84812500Y-62738000D02*
X85447500Y-62103000D01*
X73787000Y-62738000D02*
X84812500Y-62738000D01*
X69977000Y-64964000D02*
X69977000Y-64077000D01*
X77452404Y-68455011D02*
X73468011Y-68455011D01*
X78742000Y-67165415D02*
X77452404Y-68455011D01*
X73468011Y-68455011D02*
X69977000Y-64964000D01*
X78742000Y-66634002D02*
X78742000Y-67165415D01*
%TO.N,+5V*%
X87219000Y-60295000D02*
X87219000Y-60071000D01*
X88803000Y-61879000D02*
X87219000Y-60295000D01*
X89677000Y-61879000D02*
X88803000Y-61879000D01*
%TO.N,GND*%
X82169000Y-65722000D02*
X82217000Y-65674000D01*
X87503000Y-67564000D02*
X89677000Y-65390000D01*
X89677000Y-65390000D02*
X89677000Y-64879000D01*
X82169000Y-67564000D02*
X82169000Y-65722000D01*
X82169000Y-67564000D02*
X87503000Y-67564000D01*
X74330365Y-67110635D02*
X73785365Y-67110635D01*
X75767000Y-65674000D02*
X74330365Y-67110635D01*
%TO.N,D+*%
X89675000Y-63881000D02*
X89677000Y-63879000D01*
X87550000Y-63881000D02*
X89675000Y-63881000D01*
X87296000Y-64135000D02*
X87550000Y-63881000D01*
%TO.N,D-*%
X88048500Y-62879000D02*
X87272500Y-62103000D01*
X89677000Y-62879000D02*
X88048500Y-62879000D01*
%TO.N,Net-(R1-Pad2)*%
X80242000Y-66710002D02*
X81857998Y-68326000D01*
X80242000Y-65674000D02*
X80242000Y-66710002D01*
X81857998Y-68326000D02*
X83058000Y-68326000D01*
X84254000Y-66167000D02*
X84194000Y-66227000D01*
X85424000Y-66167000D02*
X84254000Y-66167000D01*
%TO.N,Net-(R2-Pad2)*%
X72390000Y-59309000D02*
X71755000Y-59944000D01*
X73279000Y-59309000D02*
X72390000Y-59309000D01*
X77242000Y-66829002D02*
X76955000Y-67116002D01*
X77242000Y-65674000D02*
X77242000Y-66829002D01*
%TD*%
D19*
%TO.N,Earth*%
X95336581Y-58501726D02*
X96161880Y-58715931D01*
X96939275Y-59066123D01*
X97646563Y-59542296D01*
X98263505Y-60130830D01*
X98772464Y-60814895D01*
X99158893Y-61574945D01*
X99411735Y-62389227D01*
X99523763Y-63234474D01*
X99491777Y-64086509D01*
X99316687Y-64920978D01*
X99003503Y-65714010D01*
X98561175Y-66442942D01*
X98002360Y-67086921D01*
X97343022Y-67627544D01*
X96602030Y-68049341D01*
X95800559Y-68340261D01*
X94953066Y-68493514D01*
X94476250Y-68516000D01*
X83816508Y-68516000D01*
X83839000Y-68402922D01*
X83839000Y-68249078D01*
X83808987Y-68098191D01*
X83797310Y-68070000D01*
X87478154Y-68070000D01*
X87503000Y-68072447D01*
X87527846Y-68070000D01*
X87527854Y-68070000D01*
X87602193Y-68062678D01*
X87697575Y-68033745D01*
X87785479Y-67986759D01*
X87862527Y-67923527D01*
X87878376Y-67904215D01*
X89953592Y-65828999D01*
X90919157Y-65828999D01*
X90919157Y-66529001D01*
X90931317Y-66652462D01*
X90967329Y-66771179D01*
X91025810Y-66880589D01*
X91104512Y-66976488D01*
X91200411Y-67055190D01*
X91309821Y-67113671D01*
X91428538Y-67149683D01*
X91551999Y-67161843D01*
X92852001Y-67161843D01*
X92975462Y-67149683D01*
X93094179Y-67113671D01*
X93203589Y-67055190D01*
X93299488Y-66976488D01*
X93378190Y-66880589D01*
X93436671Y-66771179D01*
X93472683Y-66652462D01*
X93484843Y-66529001D01*
X93484843Y-65828999D01*
X93472683Y-65705538D01*
X93436671Y-65586821D01*
X93378190Y-65477411D01*
X93299488Y-65381512D01*
X93203589Y-65302810D01*
X93101700Y-65248349D01*
X94890256Y-65248349D01*
X95094362Y-65604867D01*
X95537223Y-65835575D01*
X96016583Y-65975452D01*
X96514021Y-66019123D01*
X97010422Y-65964909D01*
X97486707Y-65814894D01*
X97879638Y-65604867D01*
X98083744Y-65248349D01*
X96487000Y-63651605D01*
X94890256Y-65248349D01*
X93101700Y-65248349D01*
X93094179Y-65244329D01*
X92975462Y-65208317D01*
X92852001Y-65196157D01*
X91551999Y-65196157D01*
X91428538Y-65208317D01*
X91309821Y-65244329D01*
X91200411Y-65302810D01*
X91104512Y-65381512D01*
X91025810Y-65477411D01*
X90967329Y-65586821D01*
X90931317Y-65705538D01*
X90919157Y-65828999D01*
X89953592Y-65828999D01*
X90017220Y-65765372D01*
X90036527Y-65749527D01*
X90099759Y-65672479D01*
X90146745Y-65584575D01*
X90153640Y-65561843D01*
X90302000Y-65561843D01*
X90405953Y-65551605D01*
X90505910Y-65521283D01*
X90598032Y-65472043D01*
X90678777Y-65405777D01*
X90745043Y-65325032D01*
X90794283Y-65232910D01*
X90824605Y-65132953D01*
X90834843Y-65029000D01*
X90834843Y-64729000D01*
X90824605Y-64625047D01*
X90794283Y-64525090D01*
X90745043Y-64432968D01*
X90700752Y-64379000D01*
X90745043Y-64325032D01*
X90794283Y-64232910D01*
X90824605Y-64132953D01*
X90834843Y-64029000D01*
X90834843Y-63729000D01*
X90824605Y-63625047D01*
X90794283Y-63525090D01*
X90780349Y-63499021D01*
X93939877Y-63499021D01*
X93994091Y-63995422D01*
X94144106Y-64471707D01*
X94354133Y-64864638D01*
X94710651Y-65068744D01*
X96307395Y-63472000D01*
X96666605Y-63472000D01*
X98263349Y-65068744D01*
X98619867Y-64864638D01*
X98850575Y-64421777D01*
X98990452Y-63942417D01*
X99034123Y-63444979D01*
X98979909Y-62948578D01*
X98829894Y-62472293D01*
X98619867Y-62079362D01*
X98263349Y-61875256D01*
X96666605Y-63472000D01*
X96307395Y-63472000D01*
X94710651Y-61875256D01*
X94354133Y-62079362D01*
X94123425Y-62522223D01*
X93983548Y-63001583D01*
X93939877Y-63499021D01*
X90780349Y-63499021D01*
X90745043Y-63432968D01*
X90700752Y-63379000D01*
X90745043Y-63325032D01*
X90794283Y-63232910D01*
X90824605Y-63132953D01*
X90834843Y-63029000D01*
X90834843Y-62729000D01*
X90824605Y-62625047D01*
X90794283Y-62525090D01*
X90745043Y-62432968D01*
X90700752Y-62379000D01*
X90745043Y-62325032D01*
X90794283Y-62232910D01*
X90824605Y-62132953D01*
X90834843Y-62029000D01*
X90834843Y-61729000D01*
X90831559Y-61695651D01*
X94890256Y-61695651D01*
X96487000Y-63292395D01*
X98083744Y-61695651D01*
X97879638Y-61339133D01*
X97436777Y-61108425D01*
X96957417Y-60968548D01*
X96459979Y-60924877D01*
X95963578Y-60979091D01*
X95487293Y-61129106D01*
X95094362Y-61339133D01*
X94890256Y-61695651D01*
X90831559Y-61695651D01*
X90824605Y-61625047D01*
X90794283Y-61525090D01*
X90745043Y-61432968D01*
X90678777Y-61352223D01*
X90598032Y-61285957D01*
X90505910Y-61236717D01*
X90405953Y-61206395D01*
X90302000Y-61196157D01*
X89052000Y-61196157D01*
X88948047Y-61206395D01*
X88869741Y-61230149D01*
X88089343Y-60449752D01*
X88089343Y-60228999D01*
X90919157Y-60228999D01*
X90919157Y-60929001D01*
X90931317Y-61052462D01*
X90967329Y-61171179D01*
X91025810Y-61280589D01*
X91104512Y-61376488D01*
X91200411Y-61455190D01*
X91309821Y-61513671D01*
X91428538Y-61549683D01*
X91551999Y-61561843D01*
X92852001Y-61561843D01*
X92975462Y-61549683D01*
X93094179Y-61513671D01*
X93203589Y-61455190D01*
X93299488Y-61376488D01*
X93378190Y-61280589D01*
X93436671Y-61171179D01*
X93472683Y-61052462D01*
X93484843Y-60929001D01*
X93484843Y-60228999D01*
X93472683Y-60105538D01*
X93436671Y-59986821D01*
X93378190Y-59877411D01*
X93299488Y-59781512D01*
X93203589Y-59702810D01*
X93094179Y-59644329D01*
X92975462Y-59608317D01*
X92852001Y-59596157D01*
X91551999Y-59596157D01*
X91428538Y-59608317D01*
X91309821Y-59644329D01*
X91200411Y-59702810D01*
X91104512Y-59781512D01*
X91025810Y-59877411D01*
X90967329Y-59986821D01*
X90931317Y-60105538D01*
X90919157Y-60228999D01*
X88089343Y-60228999D01*
X88089343Y-59614750D01*
X88077303Y-59492508D01*
X88041646Y-59374963D01*
X87983743Y-59266634D01*
X87905818Y-59171682D01*
X87810866Y-59093757D01*
X87702537Y-59035854D01*
X87584992Y-59000197D01*
X87462750Y-58988157D01*
X86975250Y-58988157D01*
X86853008Y-59000197D01*
X86735463Y-59035854D01*
X86627134Y-59093757D01*
X86532182Y-59171682D01*
X86454257Y-59266634D01*
X86396354Y-59374963D01*
X86360697Y-59492508D01*
X86348657Y-59614750D01*
X86348657Y-60527250D01*
X86360697Y-60649492D01*
X86396354Y-60767037D01*
X86454257Y-60875366D01*
X86532182Y-60970318D01*
X86627134Y-61048243D01*
X86716266Y-61095885D01*
X86658410Y-61126810D01*
X86562512Y-61205512D01*
X86483810Y-61301410D01*
X86425329Y-61410820D01*
X86389317Y-61529537D01*
X86377157Y-61652998D01*
X86377157Y-62553002D01*
X86389317Y-62676463D01*
X86425329Y-62795180D01*
X86483810Y-62904590D01*
X86562512Y-63000488D01*
X86658410Y-63079190D01*
X86744639Y-63125281D01*
X86681910Y-63158810D01*
X86586012Y-63237512D01*
X86507310Y-63333410D01*
X86448829Y-63442820D01*
X86412817Y-63561537D01*
X86400657Y-63684998D01*
X86400657Y-64585002D01*
X86412817Y-64708463D01*
X86448829Y-64827180D01*
X86479412Y-64884397D01*
X86382006Y-64936463D01*
X86285315Y-65015815D01*
X86205963Y-65112506D01*
X86146998Y-65222820D01*
X86133064Y-65268754D01*
X86038090Y-65190810D01*
X85987111Y-65163561D01*
X86085090Y-65111190D01*
X86180988Y-65032488D01*
X86259690Y-64936590D01*
X86318171Y-64827180D01*
X86354183Y-64708463D01*
X86366343Y-64585002D01*
X86366343Y-63684998D01*
X86354183Y-63561537D01*
X86318171Y-63442820D01*
X86259690Y-63333410D01*
X86180988Y-63237512D01*
X86085090Y-63158810D01*
X85998861Y-63112719D01*
X86061590Y-63079190D01*
X86157488Y-63000488D01*
X86236190Y-62904590D01*
X86294671Y-62795180D01*
X86330683Y-62676463D01*
X86342843Y-62553002D01*
X86342843Y-61652998D01*
X86330683Y-61529537D01*
X86294671Y-61410820D01*
X86236190Y-61301410D01*
X86157488Y-61205512D01*
X86061590Y-61126810D01*
X85952180Y-61068329D01*
X85917799Y-61057900D01*
X85935866Y-61048243D01*
X86030818Y-60970318D01*
X86108743Y-60875366D01*
X86166646Y-60767037D01*
X86202303Y-60649492D01*
X86214343Y-60527250D01*
X86214343Y-59614750D01*
X86202303Y-59492508D01*
X86166646Y-59374963D01*
X86108743Y-59266634D01*
X86030818Y-59171682D01*
X85935866Y-59093757D01*
X85827537Y-59035854D01*
X85709992Y-59000197D01*
X85587750Y-58988157D01*
X85100250Y-58988157D01*
X84978008Y-59000197D01*
X84860463Y-59035854D01*
X84752134Y-59093757D01*
X84657182Y-59171682D01*
X84579257Y-59266634D01*
X84521354Y-59374963D01*
X84485697Y-59492508D01*
X84473657Y-59614750D01*
X84473657Y-60405751D01*
X84193000Y-60686408D01*
X84193000Y-60235727D01*
X84180252Y-60106294D01*
X84129875Y-59940225D01*
X84048068Y-59787175D01*
X83937975Y-59653025D01*
X83803825Y-59542932D01*
X83650775Y-59461125D01*
X83484706Y-59410748D01*
X83312000Y-59393738D01*
X83139295Y-59410748D01*
X82973226Y-59461125D01*
X82820176Y-59542932D01*
X82686026Y-59653025D01*
X82575933Y-59787175D01*
X82494125Y-59940225D01*
X82453848Y-60073000D01*
X75530152Y-60073000D01*
X75489875Y-59940225D01*
X75408068Y-59787175D01*
X75297975Y-59653025D01*
X75178000Y-59554565D01*
X75178000Y-59553854D01*
X75180448Y-59529000D01*
X75170678Y-59429807D01*
X75141745Y-59334425D01*
X75132736Y-59317570D01*
X75094759Y-59246521D01*
X75031527Y-59169473D01*
X75012220Y-59153628D01*
X74286591Y-58428000D01*
X94467691Y-58428000D01*
X95336581Y-58501726D01*
%TA.AperFunction,Conductor*%
D20*
G36*
X95336581Y-58501726D02*
G01*
X96161880Y-58715931D01*
X96939275Y-59066123D01*
X97646563Y-59542296D01*
X98263505Y-60130830D01*
X98772464Y-60814895D01*
X99158893Y-61574945D01*
X99411735Y-62389227D01*
X99523763Y-63234474D01*
X99491777Y-64086509D01*
X99316687Y-64920978D01*
X99003503Y-65714010D01*
X98561175Y-66442942D01*
X98002360Y-67086921D01*
X97343022Y-67627544D01*
X96602030Y-68049341D01*
X95800559Y-68340261D01*
X94953066Y-68493514D01*
X94476250Y-68516000D01*
X83816508Y-68516000D01*
X83839000Y-68402922D01*
X83839000Y-68249078D01*
X83808987Y-68098191D01*
X83797310Y-68070000D01*
X87478154Y-68070000D01*
X87503000Y-68072447D01*
X87527846Y-68070000D01*
X87527854Y-68070000D01*
X87602193Y-68062678D01*
X87697575Y-68033745D01*
X87785479Y-67986759D01*
X87862527Y-67923527D01*
X87878376Y-67904215D01*
X89953592Y-65828999D01*
X90919157Y-65828999D01*
X90919157Y-66529001D01*
X90931317Y-66652462D01*
X90967329Y-66771179D01*
X91025810Y-66880589D01*
X91104512Y-66976488D01*
X91200411Y-67055190D01*
X91309821Y-67113671D01*
X91428538Y-67149683D01*
X91551999Y-67161843D01*
X92852001Y-67161843D01*
X92975462Y-67149683D01*
X93094179Y-67113671D01*
X93203589Y-67055190D01*
X93299488Y-66976488D01*
X93378190Y-66880589D01*
X93436671Y-66771179D01*
X93472683Y-66652462D01*
X93484843Y-66529001D01*
X93484843Y-65828999D01*
X93472683Y-65705538D01*
X93436671Y-65586821D01*
X93378190Y-65477411D01*
X93299488Y-65381512D01*
X93203589Y-65302810D01*
X93101700Y-65248349D01*
X94890256Y-65248349D01*
X95094362Y-65604867D01*
X95537223Y-65835575D01*
X96016583Y-65975452D01*
X96514021Y-66019123D01*
X97010422Y-65964909D01*
X97486707Y-65814894D01*
X97879638Y-65604867D01*
X98083744Y-65248349D01*
X96487000Y-63651605D01*
X94890256Y-65248349D01*
X93101700Y-65248349D01*
X93094179Y-65244329D01*
X92975462Y-65208317D01*
X92852001Y-65196157D01*
X91551999Y-65196157D01*
X91428538Y-65208317D01*
X91309821Y-65244329D01*
X91200411Y-65302810D01*
X91104512Y-65381512D01*
X91025810Y-65477411D01*
X90967329Y-65586821D01*
X90931317Y-65705538D01*
X90919157Y-65828999D01*
X89953592Y-65828999D01*
X90017220Y-65765372D01*
X90036527Y-65749527D01*
X90099759Y-65672479D01*
X90146745Y-65584575D01*
X90153640Y-65561843D01*
X90302000Y-65561843D01*
X90405953Y-65551605D01*
X90505910Y-65521283D01*
X90598032Y-65472043D01*
X90678777Y-65405777D01*
X90745043Y-65325032D01*
X90794283Y-65232910D01*
X90824605Y-65132953D01*
X90834843Y-65029000D01*
X90834843Y-64729000D01*
X90824605Y-64625047D01*
X90794283Y-64525090D01*
X90745043Y-64432968D01*
X90700752Y-64379000D01*
X90745043Y-64325032D01*
X90794283Y-64232910D01*
X90824605Y-64132953D01*
X90834843Y-64029000D01*
X90834843Y-63729000D01*
X90824605Y-63625047D01*
X90794283Y-63525090D01*
X90780349Y-63499021D01*
X93939877Y-63499021D01*
X93994091Y-63995422D01*
X94144106Y-64471707D01*
X94354133Y-64864638D01*
X94710651Y-65068744D01*
X96307395Y-63472000D01*
X96666605Y-63472000D01*
X98263349Y-65068744D01*
X98619867Y-64864638D01*
X98850575Y-64421777D01*
X98990452Y-63942417D01*
X99034123Y-63444979D01*
X98979909Y-62948578D01*
X98829894Y-62472293D01*
X98619867Y-62079362D01*
X98263349Y-61875256D01*
X96666605Y-63472000D01*
X96307395Y-63472000D01*
X94710651Y-61875256D01*
X94354133Y-62079362D01*
X94123425Y-62522223D01*
X93983548Y-63001583D01*
X93939877Y-63499021D01*
X90780349Y-63499021D01*
X90745043Y-63432968D01*
X90700752Y-63379000D01*
X90745043Y-63325032D01*
X90794283Y-63232910D01*
X90824605Y-63132953D01*
X90834843Y-63029000D01*
X90834843Y-62729000D01*
X90824605Y-62625047D01*
X90794283Y-62525090D01*
X90745043Y-62432968D01*
X90700752Y-62379000D01*
X90745043Y-62325032D01*
X90794283Y-62232910D01*
X90824605Y-62132953D01*
X90834843Y-62029000D01*
X90834843Y-61729000D01*
X90831559Y-61695651D01*
X94890256Y-61695651D01*
X96487000Y-63292395D01*
X98083744Y-61695651D01*
X97879638Y-61339133D01*
X97436777Y-61108425D01*
X96957417Y-60968548D01*
X96459979Y-60924877D01*
X95963578Y-60979091D01*
X95487293Y-61129106D01*
X95094362Y-61339133D01*
X94890256Y-61695651D01*
X90831559Y-61695651D01*
X90824605Y-61625047D01*
X90794283Y-61525090D01*
X90745043Y-61432968D01*
X90678777Y-61352223D01*
X90598032Y-61285957D01*
X90505910Y-61236717D01*
X90405953Y-61206395D01*
X90302000Y-61196157D01*
X89052000Y-61196157D01*
X88948047Y-61206395D01*
X88869741Y-61230149D01*
X88089343Y-60449752D01*
X88089343Y-60228999D01*
X90919157Y-60228999D01*
X90919157Y-60929001D01*
X90931317Y-61052462D01*
X90967329Y-61171179D01*
X91025810Y-61280589D01*
X91104512Y-61376488D01*
X91200411Y-61455190D01*
X91309821Y-61513671D01*
X91428538Y-61549683D01*
X91551999Y-61561843D01*
X92852001Y-61561843D01*
X92975462Y-61549683D01*
X93094179Y-61513671D01*
X93203589Y-61455190D01*
X93299488Y-61376488D01*
X93378190Y-61280589D01*
X93436671Y-61171179D01*
X93472683Y-61052462D01*
X93484843Y-60929001D01*
X93484843Y-60228999D01*
X93472683Y-60105538D01*
X93436671Y-59986821D01*
X93378190Y-59877411D01*
X93299488Y-59781512D01*
X93203589Y-59702810D01*
X93094179Y-59644329D01*
X92975462Y-59608317D01*
X92852001Y-59596157D01*
X91551999Y-59596157D01*
X91428538Y-59608317D01*
X91309821Y-59644329D01*
X91200411Y-59702810D01*
X91104512Y-59781512D01*
X91025810Y-59877411D01*
X90967329Y-59986821D01*
X90931317Y-60105538D01*
X90919157Y-60228999D01*
X88089343Y-60228999D01*
X88089343Y-59614750D01*
X88077303Y-59492508D01*
X88041646Y-59374963D01*
X87983743Y-59266634D01*
X87905818Y-59171682D01*
X87810866Y-59093757D01*
X87702537Y-59035854D01*
X87584992Y-59000197D01*
X87462750Y-58988157D01*
X86975250Y-58988157D01*
X86853008Y-59000197D01*
X86735463Y-59035854D01*
X86627134Y-59093757D01*
X86532182Y-59171682D01*
X86454257Y-59266634D01*
X86396354Y-59374963D01*
X86360697Y-59492508D01*
X86348657Y-59614750D01*
X86348657Y-60527250D01*
X86360697Y-60649492D01*
X86396354Y-60767037D01*
X86454257Y-60875366D01*
X86532182Y-60970318D01*
X86627134Y-61048243D01*
X86716266Y-61095885D01*
X86658410Y-61126810D01*
X86562512Y-61205512D01*
X86483810Y-61301410D01*
X86425329Y-61410820D01*
X86389317Y-61529537D01*
X86377157Y-61652998D01*
X86377157Y-62553002D01*
X86389317Y-62676463D01*
X86425329Y-62795180D01*
X86483810Y-62904590D01*
X86562512Y-63000488D01*
X86658410Y-63079190D01*
X86744639Y-63125281D01*
X86681910Y-63158810D01*
X86586012Y-63237512D01*
X86507310Y-63333410D01*
X86448829Y-63442820D01*
X86412817Y-63561537D01*
X86400657Y-63684998D01*
X86400657Y-64585002D01*
X86412817Y-64708463D01*
X86448829Y-64827180D01*
X86479412Y-64884397D01*
X86382006Y-64936463D01*
X86285315Y-65015815D01*
X86205963Y-65112506D01*
X86146998Y-65222820D01*
X86133064Y-65268754D01*
X86038090Y-65190810D01*
X85987111Y-65163561D01*
X86085090Y-65111190D01*
X86180988Y-65032488D01*
X86259690Y-64936590D01*
X86318171Y-64827180D01*
X86354183Y-64708463D01*
X86366343Y-64585002D01*
X86366343Y-63684998D01*
X86354183Y-63561537D01*
X86318171Y-63442820D01*
X86259690Y-63333410D01*
X86180988Y-63237512D01*
X86085090Y-63158810D01*
X85998861Y-63112719D01*
X86061590Y-63079190D01*
X86157488Y-63000488D01*
X86236190Y-62904590D01*
X86294671Y-62795180D01*
X86330683Y-62676463D01*
X86342843Y-62553002D01*
X86342843Y-61652998D01*
X86330683Y-61529537D01*
X86294671Y-61410820D01*
X86236190Y-61301410D01*
X86157488Y-61205512D01*
X86061590Y-61126810D01*
X85952180Y-61068329D01*
X85917799Y-61057900D01*
X85935866Y-61048243D01*
X86030818Y-60970318D01*
X86108743Y-60875366D01*
X86166646Y-60767037D01*
X86202303Y-60649492D01*
X86214343Y-60527250D01*
X86214343Y-59614750D01*
X86202303Y-59492508D01*
X86166646Y-59374963D01*
X86108743Y-59266634D01*
X86030818Y-59171682D01*
X85935866Y-59093757D01*
X85827537Y-59035854D01*
X85709992Y-59000197D01*
X85587750Y-58988157D01*
X85100250Y-58988157D01*
X84978008Y-59000197D01*
X84860463Y-59035854D01*
X84752134Y-59093757D01*
X84657182Y-59171682D01*
X84579257Y-59266634D01*
X84521354Y-59374963D01*
X84485697Y-59492508D01*
X84473657Y-59614750D01*
X84473657Y-60405751D01*
X84193000Y-60686408D01*
X84193000Y-60235727D01*
X84180252Y-60106294D01*
X84129875Y-59940225D01*
X84048068Y-59787175D01*
X83937975Y-59653025D01*
X83803825Y-59542932D01*
X83650775Y-59461125D01*
X83484706Y-59410748D01*
X83312000Y-59393738D01*
X83139295Y-59410748D01*
X82973226Y-59461125D01*
X82820176Y-59542932D01*
X82686026Y-59653025D01*
X82575933Y-59787175D01*
X82494125Y-59940225D01*
X82453848Y-60073000D01*
X75530152Y-60073000D01*
X75489875Y-59940225D01*
X75408068Y-59787175D01*
X75297975Y-59653025D01*
X75178000Y-59554565D01*
X75178000Y-59553854D01*
X75180448Y-59529000D01*
X75170678Y-59429807D01*
X75141745Y-59334425D01*
X75132736Y-59317570D01*
X75094759Y-59246521D01*
X75031527Y-59169473D01*
X75012220Y-59153628D01*
X74286591Y-58428000D01*
X94467691Y-58428000D01*
X95336581Y-58501726D01*
G37*
%TD.AperFunction*%
D19*
X67096252Y-58873157D02*
X66454000Y-58873157D01*
X66330538Y-58885317D01*
X66211821Y-58921329D01*
X66102411Y-58979810D01*
X66006512Y-59058512D01*
X65927810Y-59154411D01*
X65887538Y-59229754D01*
X65873190Y-59202910D01*
X65794488Y-59107012D01*
X65698590Y-59028310D01*
X65589180Y-58969829D01*
X65470463Y-58933817D01*
X65347002Y-58921657D01*
X64446998Y-58921657D01*
X64323537Y-58933817D01*
X64204820Y-58969829D01*
X64095410Y-59028310D01*
X63999512Y-59107012D01*
X63920810Y-59202910D01*
X63862329Y-59312320D01*
X63826317Y-59431037D01*
X63814157Y-59554498D01*
X63814157Y-60079502D01*
X63826317Y-60202963D01*
X63862329Y-60321680D01*
X63920810Y-60431090D01*
X63998754Y-60526064D01*
X63952820Y-60539998D01*
X63842506Y-60598963D01*
X63745815Y-60678315D01*
X63666463Y-60775006D01*
X63607498Y-60885320D01*
X63571188Y-61005018D01*
X63558928Y-61129500D01*
X63562000Y-61356250D01*
X63720750Y-61515000D01*
X64770000Y-61515000D01*
X64770000Y-61495000D01*
X65024000Y-61495000D01*
X65024000Y-61515000D01*
X65713750Y-61515000D01*
X65727750Y-61529000D01*
X66802000Y-61529000D01*
X66802000Y-61509000D01*
X67056000Y-61509000D01*
X67056000Y-61529000D01*
X68130250Y-61529000D01*
X68289000Y-61370250D01*
X68292072Y-61156000D01*
X68279812Y-61031518D01*
X68243502Y-60911820D01*
X68184537Y-60801506D01*
X68105185Y-60704815D01*
X68008494Y-60625463D01*
X67898180Y-60566498D01*
X67778482Y-60530188D01*
X67760220Y-60528389D01*
X67851488Y-60453488D01*
X67930190Y-60357589D01*
X67988671Y-60248179D01*
X68024683Y-60129462D01*
X68036843Y-60006000D01*
X68036843Y-59506000D01*
X68024683Y-59382538D01*
X68023140Y-59377452D01*
X68347592Y-59053000D01*
X68811866Y-59053000D01*
X68791688Y-59119518D01*
X68779428Y-59244000D01*
X68782500Y-59658250D01*
X68941250Y-59817000D01*
X69803000Y-59817000D01*
X69803000Y-59797000D01*
X70057000Y-59797000D01*
X70057000Y-59817000D01*
X70077000Y-59817000D01*
X70077000Y-60071000D01*
X70057000Y-60071000D01*
X70057000Y-61120250D01*
X70160750Y-61224000D01*
X70104000Y-61280750D01*
X70104000Y-62230000D01*
X70124000Y-62230000D01*
X70124000Y-62484000D01*
X70104000Y-62484000D01*
X70104000Y-62504000D01*
X69850000Y-62504000D01*
X69850000Y-62484000D01*
X68800750Y-62484000D01*
X68642000Y-62642750D01*
X68638928Y-62957000D01*
X68651188Y-63081482D01*
X68687498Y-63201180D01*
X68746463Y-63311494D01*
X68825815Y-63408185D01*
X68909286Y-63476687D01*
X68901513Y-63502311D01*
X68894157Y-63577000D01*
X68894157Y-64577000D01*
X68901513Y-64651689D01*
X68923299Y-64723508D01*
X68958678Y-64789696D01*
X69006289Y-64847711D01*
X69064304Y-64895322D01*
X69130492Y-64930701D01*
X69202311Y-64952487D01*
X69277000Y-64959843D01*
X69468962Y-64959843D01*
X69468553Y-64964000D01*
X69471000Y-64988846D01*
X69471000Y-64988853D01*
X69478322Y-65063192D01*
X69507255Y-65158574D01*
X69554241Y-65246479D01*
X69617473Y-65323527D01*
X69636785Y-65339376D01*
X72813408Y-68516000D01*
X63506309Y-68516000D01*
X62637420Y-68442274D01*
X61812125Y-68228070D01*
X61034725Y-67877877D01*
X60327434Y-67401701D01*
X59710493Y-66813167D01*
X59201534Y-66129103D01*
X58815107Y-65369055D01*
X58777627Y-65248349D01*
X59890256Y-65248349D01*
X60094362Y-65604867D01*
X60537223Y-65835575D01*
X61016583Y-65975452D01*
X61514021Y-66019123D01*
X62010422Y-65964909D01*
X62486707Y-65814894D01*
X62879638Y-65604867D01*
X63083744Y-65248349D01*
X61487000Y-63651605D01*
X59890256Y-65248349D01*
X58777627Y-65248349D01*
X58562265Y-64554774D01*
X58450237Y-63709526D01*
X58458139Y-63499021D01*
X58939877Y-63499021D01*
X58994091Y-63995422D01*
X59144106Y-64471707D01*
X59354133Y-64864638D01*
X59710651Y-65068744D01*
X61307395Y-63472000D01*
X61666605Y-63472000D01*
X63263349Y-65068744D01*
X63619867Y-64864638D01*
X63850575Y-64421777D01*
X63990452Y-63942417D01*
X64034123Y-63444979D01*
X63979909Y-62948578D01*
X63907914Y-62719999D01*
X63952820Y-62744002D01*
X64072518Y-62780312D01*
X64197000Y-62792572D01*
X64611250Y-62789500D01*
X64770000Y-62630750D01*
X64770000Y-61769000D01*
X65024000Y-61769000D01*
X65024000Y-62630750D01*
X65182750Y-62789500D01*
X65597000Y-62792572D01*
X65721482Y-62780312D01*
X65841180Y-62744002D01*
X65899097Y-62713044D01*
X65959820Y-62745502D01*
X66079518Y-62781812D01*
X66204000Y-62794072D01*
X66643250Y-62791000D01*
X66802000Y-62632250D01*
X66802000Y-61783000D01*
X67056000Y-61783000D01*
X67056000Y-62632250D01*
X67214750Y-62791000D01*
X67654000Y-62794072D01*
X67778482Y-62781812D01*
X67898180Y-62745502D01*
X68008494Y-62686537D01*
X68105185Y-62607185D01*
X68184537Y-62510494D01*
X68243502Y-62400180D01*
X68279812Y-62280482D01*
X68292072Y-62156000D01*
X68289000Y-61941750D01*
X68130250Y-61783000D01*
X67056000Y-61783000D01*
X66802000Y-61783000D01*
X66087250Y-61783000D01*
X66073250Y-61769000D01*
X65024000Y-61769000D01*
X64770000Y-61769000D01*
X63720750Y-61769000D01*
X63562000Y-61927750D01*
X63560407Y-62045321D01*
X63263349Y-61875256D01*
X61666605Y-63472000D01*
X61307395Y-63472000D01*
X59710651Y-61875256D01*
X59354133Y-62079362D01*
X59123425Y-62522223D01*
X58983548Y-63001583D01*
X58939877Y-63499021D01*
X58458139Y-63499021D01*
X58482223Y-62857491D01*
X58657313Y-62023022D01*
X58786598Y-61695651D01*
X59890256Y-61695651D01*
X61487000Y-63292395D01*
X63022395Y-61757000D01*
X68638928Y-61757000D01*
X68642000Y-62071250D01*
X68800750Y-62230000D01*
X69850000Y-62230000D01*
X69850000Y-61280750D01*
X69746250Y-61177000D01*
X69803000Y-61120250D01*
X69803000Y-60071000D01*
X68941250Y-60071000D01*
X68782500Y-60229750D01*
X68779428Y-60644000D01*
X68791688Y-60768482D01*
X68827998Y-60888180D01*
X68886963Y-60998494D01*
X68966315Y-61095185D01*
X69048597Y-61162712D01*
X69032820Y-61167498D01*
X68922506Y-61226463D01*
X68825815Y-61305815D01*
X68746463Y-61402506D01*
X68687498Y-61512820D01*
X68651188Y-61632518D01*
X68638928Y-61757000D01*
X63022395Y-61757000D01*
X63083744Y-61695651D01*
X62879638Y-61339133D01*
X62436777Y-61108425D01*
X61957417Y-60968548D01*
X61459979Y-60924877D01*
X60963578Y-60979091D01*
X60487293Y-61129106D01*
X60094362Y-61339133D01*
X59890256Y-61695651D01*
X58786598Y-61695651D01*
X58970496Y-61229993D01*
X59412827Y-60501054D01*
X59971640Y-59857080D01*
X60630978Y-59316456D01*
X61371972Y-58894658D01*
X62173445Y-58603737D01*
X63020934Y-58450486D01*
X63497750Y-58428000D01*
X67541408Y-58428000D01*
X67096252Y-58873157D01*
%TA.AperFunction,Conductor*%
D20*
G36*
X67096252Y-58873157D02*
G01*
X66454000Y-58873157D01*
X66330538Y-58885317D01*
X66211821Y-58921329D01*
X66102411Y-58979810D01*
X66006512Y-59058512D01*
X65927810Y-59154411D01*
X65887538Y-59229754D01*
X65873190Y-59202910D01*
X65794488Y-59107012D01*
X65698590Y-59028310D01*
X65589180Y-58969829D01*
X65470463Y-58933817D01*
X65347002Y-58921657D01*
X64446998Y-58921657D01*
X64323537Y-58933817D01*
X64204820Y-58969829D01*
X64095410Y-59028310D01*
X63999512Y-59107012D01*
X63920810Y-59202910D01*
X63862329Y-59312320D01*
X63826317Y-59431037D01*
X63814157Y-59554498D01*
X63814157Y-60079502D01*
X63826317Y-60202963D01*
X63862329Y-60321680D01*
X63920810Y-60431090D01*
X63998754Y-60526064D01*
X63952820Y-60539998D01*
X63842506Y-60598963D01*
X63745815Y-60678315D01*
X63666463Y-60775006D01*
X63607498Y-60885320D01*
X63571188Y-61005018D01*
X63558928Y-61129500D01*
X63562000Y-61356250D01*
X63720750Y-61515000D01*
X64770000Y-61515000D01*
X64770000Y-61495000D01*
X65024000Y-61495000D01*
X65024000Y-61515000D01*
X65713750Y-61515000D01*
X65727750Y-61529000D01*
X66802000Y-61529000D01*
X66802000Y-61509000D01*
X67056000Y-61509000D01*
X67056000Y-61529000D01*
X68130250Y-61529000D01*
X68289000Y-61370250D01*
X68292072Y-61156000D01*
X68279812Y-61031518D01*
X68243502Y-60911820D01*
X68184537Y-60801506D01*
X68105185Y-60704815D01*
X68008494Y-60625463D01*
X67898180Y-60566498D01*
X67778482Y-60530188D01*
X67760220Y-60528389D01*
X67851488Y-60453488D01*
X67930190Y-60357589D01*
X67988671Y-60248179D01*
X68024683Y-60129462D01*
X68036843Y-60006000D01*
X68036843Y-59506000D01*
X68024683Y-59382538D01*
X68023140Y-59377452D01*
X68347592Y-59053000D01*
X68811866Y-59053000D01*
X68791688Y-59119518D01*
X68779428Y-59244000D01*
X68782500Y-59658250D01*
X68941250Y-59817000D01*
X69803000Y-59817000D01*
X69803000Y-59797000D01*
X70057000Y-59797000D01*
X70057000Y-59817000D01*
X70077000Y-59817000D01*
X70077000Y-60071000D01*
X70057000Y-60071000D01*
X70057000Y-61120250D01*
X70160750Y-61224000D01*
X70104000Y-61280750D01*
X70104000Y-62230000D01*
X70124000Y-62230000D01*
X70124000Y-62484000D01*
X70104000Y-62484000D01*
X70104000Y-62504000D01*
X69850000Y-62504000D01*
X69850000Y-62484000D01*
X68800750Y-62484000D01*
X68642000Y-62642750D01*
X68638928Y-62957000D01*
X68651188Y-63081482D01*
X68687498Y-63201180D01*
X68746463Y-63311494D01*
X68825815Y-63408185D01*
X68909286Y-63476687D01*
X68901513Y-63502311D01*
X68894157Y-63577000D01*
X68894157Y-64577000D01*
X68901513Y-64651689D01*
X68923299Y-64723508D01*
X68958678Y-64789696D01*
X69006289Y-64847711D01*
X69064304Y-64895322D01*
X69130492Y-64930701D01*
X69202311Y-64952487D01*
X69277000Y-64959843D01*
X69468962Y-64959843D01*
X69468553Y-64964000D01*
X69471000Y-64988846D01*
X69471000Y-64988853D01*
X69478322Y-65063192D01*
X69507255Y-65158574D01*
X69554241Y-65246479D01*
X69617473Y-65323527D01*
X69636785Y-65339376D01*
X72813408Y-68516000D01*
X63506309Y-68516000D01*
X62637420Y-68442274D01*
X61812125Y-68228070D01*
X61034725Y-67877877D01*
X60327434Y-67401701D01*
X59710493Y-66813167D01*
X59201534Y-66129103D01*
X58815107Y-65369055D01*
X58777627Y-65248349D01*
X59890256Y-65248349D01*
X60094362Y-65604867D01*
X60537223Y-65835575D01*
X61016583Y-65975452D01*
X61514021Y-66019123D01*
X62010422Y-65964909D01*
X62486707Y-65814894D01*
X62879638Y-65604867D01*
X63083744Y-65248349D01*
X61487000Y-63651605D01*
X59890256Y-65248349D01*
X58777627Y-65248349D01*
X58562265Y-64554774D01*
X58450237Y-63709526D01*
X58458139Y-63499021D01*
X58939877Y-63499021D01*
X58994091Y-63995422D01*
X59144106Y-64471707D01*
X59354133Y-64864638D01*
X59710651Y-65068744D01*
X61307395Y-63472000D01*
X61666605Y-63472000D01*
X63263349Y-65068744D01*
X63619867Y-64864638D01*
X63850575Y-64421777D01*
X63990452Y-63942417D01*
X64034123Y-63444979D01*
X63979909Y-62948578D01*
X63907914Y-62719999D01*
X63952820Y-62744002D01*
X64072518Y-62780312D01*
X64197000Y-62792572D01*
X64611250Y-62789500D01*
X64770000Y-62630750D01*
X64770000Y-61769000D01*
X65024000Y-61769000D01*
X65024000Y-62630750D01*
X65182750Y-62789500D01*
X65597000Y-62792572D01*
X65721482Y-62780312D01*
X65841180Y-62744002D01*
X65899097Y-62713044D01*
X65959820Y-62745502D01*
X66079518Y-62781812D01*
X66204000Y-62794072D01*
X66643250Y-62791000D01*
X66802000Y-62632250D01*
X66802000Y-61783000D01*
X67056000Y-61783000D01*
X67056000Y-62632250D01*
X67214750Y-62791000D01*
X67654000Y-62794072D01*
X67778482Y-62781812D01*
X67898180Y-62745502D01*
X68008494Y-62686537D01*
X68105185Y-62607185D01*
X68184537Y-62510494D01*
X68243502Y-62400180D01*
X68279812Y-62280482D01*
X68292072Y-62156000D01*
X68289000Y-61941750D01*
X68130250Y-61783000D01*
X67056000Y-61783000D01*
X66802000Y-61783000D01*
X66087250Y-61783000D01*
X66073250Y-61769000D01*
X65024000Y-61769000D01*
X64770000Y-61769000D01*
X63720750Y-61769000D01*
X63562000Y-61927750D01*
X63560407Y-62045321D01*
X63263349Y-61875256D01*
X61666605Y-63472000D01*
X61307395Y-63472000D01*
X59710651Y-61875256D01*
X59354133Y-62079362D01*
X59123425Y-62522223D01*
X58983548Y-63001583D01*
X58939877Y-63499021D01*
X58458139Y-63499021D01*
X58482223Y-62857491D01*
X58657313Y-62023022D01*
X58786598Y-61695651D01*
X59890256Y-61695651D01*
X61487000Y-63292395D01*
X63022395Y-61757000D01*
X68638928Y-61757000D01*
X68642000Y-62071250D01*
X68800750Y-62230000D01*
X69850000Y-62230000D01*
X69850000Y-61280750D01*
X69746250Y-61177000D01*
X69803000Y-61120250D01*
X69803000Y-60071000D01*
X68941250Y-60071000D01*
X68782500Y-60229750D01*
X68779428Y-60644000D01*
X68791688Y-60768482D01*
X68827998Y-60888180D01*
X68886963Y-60998494D01*
X68966315Y-61095185D01*
X69048597Y-61162712D01*
X69032820Y-61167498D01*
X68922506Y-61226463D01*
X68825815Y-61305815D01*
X68746463Y-61402506D01*
X68687498Y-61512820D01*
X68651188Y-61632518D01*
X68638928Y-61757000D01*
X63022395Y-61757000D01*
X63083744Y-61695651D01*
X62879638Y-61339133D01*
X62436777Y-61108425D01*
X61957417Y-60968548D01*
X61459979Y-60924877D01*
X60963578Y-60979091D01*
X60487293Y-61129106D01*
X60094362Y-61339133D01*
X59890256Y-61695651D01*
X58786598Y-61695651D01*
X58970496Y-61229993D01*
X59412827Y-60501054D01*
X59971640Y-59857080D01*
X60630978Y-59316456D01*
X61371972Y-58894658D01*
X62173445Y-58603737D01*
X63020934Y-58450486D01*
X63497750Y-58428000D01*
X67541408Y-58428000D01*
X67096252Y-58873157D01*
G37*
%TD.AperFunction*%
D19*
X87376000Y-66040000D02*
X87396000Y-66040000D01*
X87396000Y-66294000D01*
X87376000Y-66294000D01*
X87376000Y-66314000D01*
X87122000Y-66314000D01*
X87122000Y-66294000D01*
X87102000Y-66294000D01*
X87102000Y-66040000D01*
X87122000Y-66040000D01*
X87122000Y-66020000D01*
X87376000Y-66020000D01*
X87376000Y-66040000D01*
%TA.AperFunction,Conductor*%
D20*
G36*
X87376000Y-66040000D02*
G01*
X87396000Y-66040000D01*
X87396000Y-66294000D01*
X87376000Y-66294000D01*
X87376000Y-66314000D01*
X87122000Y-66314000D01*
X87122000Y-66294000D01*
X87102000Y-66294000D01*
X87102000Y-66040000D01*
X87122000Y-66040000D01*
X87122000Y-66020000D01*
X87376000Y-66020000D01*
X87376000Y-66040000D01*
G37*
%TD.AperFunction*%
D19*
X88608957Y-64432968D02*
X88559717Y-64525090D01*
X88529395Y-64625047D01*
X88519157Y-64729000D01*
X88519157Y-65029000D01*
X88529395Y-65132953D01*
X88559717Y-65232910D01*
X88608957Y-65325032D01*
X88675223Y-65405777D01*
X88755968Y-65472043D01*
X88836383Y-65515025D01*
X88311411Y-66039998D01*
X88237752Y-66039998D01*
X88396500Y-65881250D01*
X88399572Y-65467000D01*
X88387312Y-65342518D01*
X88351002Y-65222820D01*
X88292037Y-65112506D01*
X88212685Y-65015815D01*
X88115994Y-64936463D01*
X88091699Y-64923477D01*
X88143171Y-64827180D01*
X88179183Y-64708463D01*
X88191343Y-64585002D01*
X88191343Y-64387000D01*
X88646682Y-64387000D01*
X88608957Y-64432968D01*
%TA.AperFunction,Conductor*%
D20*
G36*
X88608957Y-64432968D02*
G01*
X88559717Y-64525090D01*
X88529395Y-64625047D01*
X88519157Y-64729000D01*
X88519157Y-65029000D01*
X88529395Y-65132953D01*
X88559717Y-65232910D01*
X88608957Y-65325032D01*
X88675223Y-65405777D01*
X88755968Y-65472043D01*
X88836383Y-65515025D01*
X88311411Y-66039998D01*
X88237752Y-66039998D01*
X88396500Y-65881250D01*
X88399572Y-65467000D01*
X88387312Y-65342518D01*
X88351002Y-65222820D01*
X88292037Y-65112506D01*
X88212685Y-65015815D01*
X88115994Y-64936463D01*
X88091699Y-64923477D01*
X88143171Y-64827180D01*
X88179183Y-64708463D01*
X88191343Y-64585002D01*
X88191343Y-64387000D01*
X88646682Y-64387000D01*
X88608957Y-64432968D01*
G37*
%TD.AperFunction*%
%TD*%
M02*
