%TF.GenerationSoftware,KiCad,Pcbnew,5.1.10-88a1d61d58~90~ubuntu20.04.1*%
%TF.CreationDate,2022-01-21T20:09:26-08:00*%
%TF.ProjectId,kb-db_protruded,6b622d64-625f-4707-926f-747275646564,rev?*%
%TF.SameCoordinates,Original*%
%TF.FileFunction,Copper,L2,Bot*%
%TF.FilePolarity,Positive*%
%FSLAX46Y46*%
G04 Gerber Fmt 4.6, Leading zero omitted, Abs format (unit mm)*
G04 Created by KiCad (PCBNEW 5.1.10-88a1d61d58~90~ubuntu20.04.1) date 2022-01-21 20:09:26*
%MOMM*%
%LPD*%
G01*
G04 APERTURE LIST*
%TA.AperFunction,ComponentPad*%
%ADD10C,3.800000*%
%TD*%
%TA.AperFunction,ComponentPad*%
%ADD11O,1.000000X2.100000*%
%TD*%
%TA.AperFunction,ComponentPad*%
%ADD12O,1.000000X1.600000*%
%TD*%
%TA.AperFunction,ViaPad*%
%ADD13C,0.800000*%
%TD*%
%TA.AperFunction,Conductor*%
%ADD14C,0.250000*%
%TD*%
%TA.AperFunction,Conductor*%
%ADD15C,0.254000*%
%TD*%
%TA.AperFunction,Conductor*%
%ADD16C,0.100000*%
%TD*%
G04 APERTURE END LIST*
D10*
%TO.P,H2,1*%
%TO.N,Earth*%
X61487000Y-63472000D03*
%TD*%
%TO.P,H1,1*%
%TO.N,Net-(H1-Pad1)*%
X96487000Y-63472000D03*
%TD*%
D11*
%TO.P,USB1,13*%
%TO.N,Earth*%
X83312000Y-63171500D03*
X74672000Y-63171500D03*
D12*
X83312000Y-58991500D03*
X74672000Y-58991500D03*
%TD*%
D13*
%TO.N,VCC*%
X75853014Y-67116004D03*
X72764000Y-61020000D03*
%TO.N,GND*%
X82169000Y-67564000D03*
X68065000Y-63687000D03*
X79936000Y-68072000D03*
X73912365Y-67110635D03*
%TO.N,Net-(R1-Pad2)*%
X83058000Y-68326000D03*
X84194000Y-66227000D03*
%TO.N,Net-(R2-Pad2)*%
X76955000Y-67116002D03*
X76327000Y-60038990D03*
%TD*%
D14*
%TO.N,Earth*%
X74672000Y-63171500D02*
X74672000Y-58991500D01*
X83312000Y-63171500D02*
X83312000Y-58991500D01*
%TO.N,VCC*%
X73399000Y-61655000D02*
X72764000Y-61020000D01*
X73399000Y-64661990D02*
X73399000Y-61655000D01*
X75853014Y-67116004D02*
X73399000Y-64661990D01*
%TO.N,GND*%
X81661000Y-68072000D02*
X79936000Y-68072000D01*
X82169000Y-67564000D02*
X81661000Y-68072000D01*
X79936000Y-68072000D02*
X74873730Y-68072000D01*
X74873730Y-68072000D02*
X73912365Y-67110635D01*
X71488635Y-67110635D02*
X68065000Y-63687000D01*
X73912365Y-67110635D02*
X71488635Y-67110635D01*
%TO.N,Net-(R1-Pad2)*%
X83058000Y-68326000D02*
X83058000Y-67363000D01*
X83058000Y-67363000D02*
X84194000Y-66227000D01*
%TO.N,Net-(R2-Pad2)*%
X76955000Y-67116002D02*
X76955000Y-61234990D01*
X76955000Y-60666990D02*
X76327000Y-60038990D01*
X76955000Y-61234990D02*
X76955000Y-60666990D01*
%TD*%
D15*
%TO.N,GND*%
X73803748Y-58518794D02*
X73791000Y-58648227D01*
X73791000Y-59334772D01*
X73803748Y-59464205D01*
X73854125Y-59630274D01*
X73935932Y-59783324D01*
X74046025Y-59917475D01*
X74166001Y-60015936D01*
X74166000Y-61897066D01*
X74046026Y-61995525D01*
X73935933Y-62129675D01*
X73905000Y-62187547D01*
X73905000Y-61679854D01*
X73907448Y-61655000D01*
X73897678Y-61555807D01*
X73868745Y-61460425D01*
X73821759Y-61372521D01*
X73758527Y-61295473D01*
X73739220Y-61279628D01*
X73545000Y-61085408D01*
X73545000Y-60943078D01*
X73514987Y-60792191D01*
X73456113Y-60650058D01*
X73370642Y-60522141D01*
X73261859Y-60413358D01*
X73133942Y-60327887D01*
X72991809Y-60269013D01*
X72840922Y-60239000D01*
X72687078Y-60239000D01*
X72536191Y-60269013D01*
X72394058Y-60327887D01*
X72266141Y-60413358D01*
X72157358Y-60522141D01*
X72071887Y-60650058D01*
X72013013Y-60792191D01*
X71983000Y-60943078D01*
X71983000Y-61096922D01*
X72013013Y-61247809D01*
X72071887Y-61389942D01*
X72157358Y-61517859D01*
X72266141Y-61626642D01*
X72394058Y-61712113D01*
X72536191Y-61770987D01*
X72687078Y-61801000D01*
X72829408Y-61801000D01*
X72893001Y-61864593D01*
X72893000Y-64637144D01*
X72890553Y-64661990D01*
X72893000Y-64686836D01*
X72893000Y-64686843D01*
X72900322Y-64761182D01*
X72929255Y-64856564D01*
X72976241Y-64944469D01*
X73039473Y-65021517D01*
X73058785Y-65037366D01*
X75072014Y-67050596D01*
X75072014Y-67192926D01*
X75102027Y-67343813D01*
X75160901Y-67485946D01*
X75246372Y-67613863D01*
X75355155Y-67722646D01*
X75483072Y-67808117D01*
X75625205Y-67866991D01*
X75776092Y-67897004D01*
X75929936Y-67897004D01*
X76080823Y-67866991D01*
X76222956Y-67808117D01*
X76350873Y-67722646D01*
X76404008Y-67669511D01*
X76457141Y-67722644D01*
X76585058Y-67808115D01*
X76727191Y-67866989D01*
X76878078Y-67897002D01*
X77031922Y-67897002D01*
X77182809Y-67866989D01*
X77324942Y-67808115D01*
X77452859Y-67722644D01*
X77561642Y-67613861D01*
X77647113Y-67485944D01*
X77705987Y-67343811D01*
X77736000Y-67192924D01*
X77736000Y-67039080D01*
X77705987Y-66888193D01*
X77647113Y-66746060D01*
X77561642Y-66618143D01*
X77461000Y-66517501D01*
X77461000Y-60691835D01*
X77463447Y-60666989D01*
X77461000Y-60642143D01*
X77461000Y-60642136D01*
X77453678Y-60567797D01*
X77439581Y-60521322D01*
X77424745Y-60472415D01*
X77422375Y-60467981D01*
X77377759Y-60384511D01*
X77314527Y-60307463D01*
X77295220Y-60291618D01*
X77108000Y-60104398D01*
X77108000Y-59962068D01*
X77077987Y-59811181D01*
X77019113Y-59669048D01*
X76933642Y-59541131D01*
X76824859Y-59432348D01*
X76696942Y-59346877D01*
X76554809Y-59288003D01*
X76403922Y-59257990D01*
X76250078Y-59257990D01*
X76099191Y-59288003D01*
X75957058Y-59346877D01*
X75829141Y-59432348D01*
X75720358Y-59541131D01*
X75634887Y-59669048D01*
X75576013Y-59811181D01*
X75546000Y-59962068D01*
X75546000Y-60115912D01*
X75576013Y-60266799D01*
X75634887Y-60408932D01*
X75720358Y-60536849D01*
X75829141Y-60645632D01*
X75957058Y-60731103D01*
X76099191Y-60789977D01*
X76250078Y-60819990D01*
X76392408Y-60819990D01*
X76449001Y-60876582D01*
X76449000Y-61259843D01*
X76449001Y-61259853D01*
X76449001Y-62024260D01*
X76436416Y-62015851D01*
X76307933Y-61962631D01*
X76171535Y-61935500D01*
X76032465Y-61935500D01*
X75896067Y-61962631D01*
X75767584Y-62015851D01*
X75651951Y-62093114D01*
X75553614Y-62191451D01*
X75490734Y-62285558D01*
X75489875Y-62282725D01*
X75408068Y-62129675D01*
X75297975Y-61995525D01*
X75178000Y-61897065D01*
X75178000Y-60015934D01*
X75297975Y-59917475D01*
X75408068Y-59783325D01*
X75489875Y-59630275D01*
X75540252Y-59464206D01*
X75553000Y-59334773D01*
X75553000Y-58648227D01*
X75540252Y-58518794D01*
X75512710Y-58428000D01*
X82471290Y-58428000D01*
X82443748Y-58518794D01*
X82431000Y-58648227D01*
X82431000Y-59334772D01*
X82443748Y-59464205D01*
X82494125Y-59630274D01*
X82575932Y-59783324D01*
X82686025Y-59917475D01*
X82806001Y-60015936D01*
X82806000Y-61897066D01*
X82686026Y-61995525D01*
X82575933Y-62129675D01*
X82494126Y-62282725D01*
X82493266Y-62285559D01*
X82430386Y-62191451D01*
X82332049Y-62093114D01*
X82216416Y-62015851D01*
X82087933Y-61962631D01*
X81951535Y-61935500D01*
X81812465Y-61935500D01*
X81676067Y-61962631D01*
X81547584Y-62015851D01*
X81431951Y-62093114D01*
X81333614Y-62191451D01*
X81256351Y-62307084D01*
X81203131Y-62435567D01*
X81176000Y-62571965D01*
X81176000Y-62711035D01*
X81203131Y-62847433D01*
X81256351Y-62975916D01*
X81333614Y-63091549D01*
X81431951Y-63189886D01*
X81547584Y-63267149D01*
X81676067Y-63320369D01*
X81812465Y-63347500D01*
X81951535Y-63347500D01*
X82087933Y-63320369D01*
X82216416Y-63267149D01*
X82332049Y-63189886D01*
X82430386Y-63091549D01*
X82431001Y-63090629D01*
X82431000Y-63764772D01*
X82443748Y-63894205D01*
X82494125Y-64060274D01*
X82575932Y-64213324D01*
X82686025Y-64347475D01*
X82820175Y-64457568D01*
X82973225Y-64539375D01*
X83139294Y-64589752D01*
X83312000Y-64606762D01*
X83484705Y-64589752D01*
X83650774Y-64539375D01*
X83803824Y-64457568D01*
X83937975Y-64347475D01*
X84048068Y-64213325D01*
X84129875Y-64060275D01*
X84180252Y-63894206D01*
X84193000Y-63764773D01*
X84193000Y-63247341D01*
X94206000Y-63247341D01*
X94206000Y-63696659D01*
X94293657Y-64137343D01*
X94465604Y-64552459D01*
X94715231Y-64926053D01*
X95032947Y-65243769D01*
X95406541Y-65493396D01*
X95821657Y-65665343D01*
X96262341Y-65753000D01*
X96711659Y-65753000D01*
X97152343Y-65665343D01*
X97567459Y-65493396D01*
X97941053Y-65243769D01*
X98258769Y-64926053D01*
X98508396Y-64552459D01*
X98680343Y-64137343D01*
X98768000Y-63696659D01*
X98768000Y-63247341D01*
X98680343Y-62806657D01*
X98508396Y-62391541D01*
X98258769Y-62017947D01*
X97941053Y-61700231D01*
X97567459Y-61450604D01*
X97152343Y-61278657D01*
X96711659Y-61191000D01*
X96262341Y-61191000D01*
X95821657Y-61278657D01*
X95406541Y-61450604D01*
X95032947Y-61700231D01*
X94715231Y-62017947D01*
X94465604Y-62391541D01*
X94293657Y-62806657D01*
X94206000Y-63247341D01*
X84193000Y-63247341D01*
X84193000Y-62578227D01*
X84180252Y-62448794D01*
X84129875Y-62282725D01*
X84048068Y-62129675D01*
X83937975Y-61995525D01*
X83818000Y-61897065D01*
X83818000Y-60015934D01*
X83937975Y-59917475D01*
X84048068Y-59783325D01*
X84129875Y-59630275D01*
X84180252Y-59464206D01*
X84193000Y-59334773D01*
X84193000Y-58648227D01*
X84180252Y-58518794D01*
X84152710Y-58428000D01*
X94467691Y-58428000D01*
X95336581Y-58501726D01*
X96161880Y-58715931D01*
X96939275Y-59066123D01*
X97646563Y-59542296D01*
X98263505Y-60130830D01*
X98772464Y-60814895D01*
X99158893Y-61574945D01*
X99411735Y-62389227D01*
X99523763Y-63234474D01*
X99491777Y-64086509D01*
X99316687Y-64920978D01*
X99003503Y-65714010D01*
X98561175Y-66442942D01*
X98002360Y-67086921D01*
X97343022Y-67627544D01*
X96602030Y-68049341D01*
X95800559Y-68340261D01*
X94953066Y-68493514D01*
X94476250Y-68516000D01*
X83816508Y-68516000D01*
X83839000Y-68402922D01*
X83839000Y-68249078D01*
X83808987Y-68098191D01*
X83750113Y-67956058D01*
X83664642Y-67828141D01*
X83564000Y-67727499D01*
X83564000Y-67572591D01*
X84128592Y-67008000D01*
X84270922Y-67008000D01*
X84421809Y-66977987D01*
X84563942Y-66919113D01*
X84691859Y-66833642D01*
X84800642Y-66724859D01*
X84886113Y-66596942D01*
X84944987Y-66454809D01*
X84975000Y-66303922D01*
X84975000Y-66150078D01*
X84944987Y-65999191D01*
X84886113Y-65857058D01*
X84800642Y-65729141D01*
X84691859Y-65620358D01*
X84563942Y-65534887D01*
X84421809Y-65476013D01*
X84270922Y-65446000D01*
X84117078Y-65446000D01*
X83966191Y-65476013D01*
X83824058Y-65534887D01*
X83696141Y-65620358D01*
X83587358Y-65729141D01*
X83501887Y-65857058D01*
X83443013Y-65999191D01*
X83413000Y-66150078D01*
X83413000Y-66292408D01*
X82717780Y-66987629D01*
X82698474Y-67003473D01*
X82635242Y-67080521D01*
X82616276Y-67116004D01*
X82588255Y-67168426D01*
X82559322Y-67263808D01*
X82549553Y-67363000D01*
X82552001Y-67387856D01*
X82552001Y-67727498D01*
X82451358Y-67828141D01*
X82365887Y-67956058D01*
X82307013Y-68098191D01*
X82277000Y-68249078D01*
X82277000Y-68402922D01*
X82299492Y-68516000D01*
X63506309Y-68516000D01*
X62637420Y-68442274D01*
X61812125Y-68228070D01*
X61034725Y-67877877D01*
X60327434Y-67401701D01*
X59710493Y-66813167D01*
X59201534Y-66129103D01*
X58815107Y-65369055D01*
X58562265Y-64554774D01*
X58450237Y-63709526D01*
X58467587Y-63247341D01*
X59206000Y-63247341D01*
X59206000Y-63696659D01*
X59293657Y-64137343D01*
X59465604Y-64552459D01*
X59715231Y-64926053D01*
X60032947Y-65243769D01*
X60406541Y-65493396D01*
X60821657Y-65665343D01*
X61262341Y-65753000D01*
X61711659Y-65753000D01*
X62152343Y-65665343D01*
X62567459Y-65493396D01*
X62941053Y-65243769D01*
X63258769Y-64926053D01*
X63508396Y-64552459D01*
X63680343Y-64137343D01*
X63768000Y-63696659D01*
X63768000Y-63247341D01*
X63680343Y-62806657D01*
X63508396Y-62391541D01*
X63258769Y-62017947D01*
X62941053Y-61700231D01*
X62567459Y-61450604D01*
X62152343Y-61278657D01*
X61711659Y-61191000D01*
X61262341Y-61191000D01*
X60821657Y-61278657D01*
X60406541Y-61450604D01*
X60032947Y-61700231D01*
X59715231Y-62017947D01*
X59465604Y-62391541D01*
X59293657Y-62806657D01*
X59206000Y-63247341D01*
X58467587Y-63247341D01*
X58482223Y-62857491D01*
X58657313Y-62023022D01*
X58970496Y-61229993D01*
X59412827Y-60501054D01*
X59971640Y-59857080D01*
X60630978Y-59316456D01*
X61371972Y-58894658D01*
X62173445Y-58603737D01*
X63020934Y-58450486D01*
X63497750Y-58428000D01*
X73831290Y-58428000D01*
X73803748Y-58518794D01*
%TA.AperFunction,Conductor*%
D16*
G36*
X73803748Y-58518794D02*
G01*
X73791000Y-58648227D01*
X73791000Y-59334772D01*
X73803748Y-59464205D01*
X73854125Y-59630274D01*
X73935932Y-59783324D01*
X74046025Y-59917475D01*
X74166001Y-60015936D01*
X74166000Y-61897066D01*
X74046026Y-61995525D01*
X73935933Y-62129675D01*
X73905000Y-62187547D01*
X73905000Y-61679854D01*
X73907448Y-61655000D01*
X73897678Y-61555807D01*
X73868745Y-61460425D01*
X73821759Y-61372521D01*
X73758527Y-61295473D01*
X73739220Y-61279628D01*
X73545000Y-61085408D01*
X73545000Y-60943078D01*
X73514987Y-60792191D01*
X73456113Y-60650058D01*
X73370642Y-60522141D01*
X73261859Y-60413358D01*
X73133942Y-60327887D01*
X72991809Y-60269013D01*
X72840922Y-60239000D01*
X72687078Y-60239000D01*
X72536191Y-60269013D01*
X72394058Y-60327887D01*
X72266141Y-60413358D01*
X72157358Y-60522141D01*
X72071887Y-60650058D01*
X72013013Y-60792191D01*
X71983000Y-60943078D01*
X71983000Y-61096922D01*
X72013013Y-61247809D01*
X72071887Y-61389942D01*
X72157358Y-61517859D01*
X72266141Y-61626642D01*
X72394058Y-61712113D01*
X72536191Y-61770987D01*
X72687078Y-61801000D01*
X72829408Y-61801000D01*
X72893001Y-61864593D01*
X72893000Y-64637144D01*
X72890553Y-64661990D01*
X72893000Y-64686836D01*
X72893000Y-64686843D01*
X72900322Y-64761182D01*
X72929255Y-64856564D01*
X72976241Y-64944469D01*
X73039473Y-65021517D01*
X73058785Y-65037366D01*
X75072014Y-67050596D01*
X75072014Y-67192926D01*
X75102027Y-67343813D01*
X75160901Y-67485946D01*
X75246372Y-67613863D01*
X75355155Y-67722646D01*
X75483072Y-67808117D01*
X75625205Y-67866991D01*
X75776092Y-67897004D01*
X75929936Y-67897004D01*
X76080823Y-67866991D01*
X76222956Y-67808117D01*
X76350873Y-67722646D01*
X76404008Y-67669511D01*
X76457141Y-67722644D01*
X76585058Y-67808115D01*
X76727191Y-67866989D01*
X76878078Y-67897002D01*
X77031922Y-67897002D01*
X77182809Y-67866989D01*
X77324942Y-67808115D01*
X77452859Y-67722644D01*
X77561642Y-67613861D01*
X77647113Y-67485944D01*
X77705987Y-67343811D01*
X77736000Y-67192924D01*
X77736000Y-67039080D01*
X77705987Y-66888193D01*
X77647113Y-66746060D01*
X77561642Y-66618143D01*
X77461000Y-66517501D01*
X77461000Y-60691835D01*
X77463447Y-60666989D01*
X77461000Y-60642143D01*
X77461000Y-60642136D01*
X77453678Y-60567797D01*
X77439581Y-60521322D01*
X77424745Y-60472415D01*
X77422375Y-60467981D01*
X77377759Y-60384511D01*
X77314527Y-60307463D01*
X77295220Y-60291618D01*
X77108000Y-60104398D01*
X77108000Y-59962068D01*
X77077987Y-59811181D01*
X77019113Y-59669048D01*
X76933642Y-59541131D01*
X76824859Y-59432348D01*
X76696942Y-59346877D01*
X76554809Y-59288003D01*
X76403922Y-59257990D01*
X76250078Y-59257990D01*
X76099191Y-59288003D01*
X75957058Y-59346877D01*
X75829141Y-59432348D01*
X75720358Y-59541131D01*
X75634887Y-59669048D01*
X75576013Y-59811181D01*
X75546000Y-59962068D01*
X75546000Y-60115912D01*
X75576013Y-60266799D01*
X75634887Y-60408932D01*
X75720358Y-60536849D01*
X75829141Y-60645632D01*
X75957058Y-60731103D01*
X76099191Y-60789977D01*
X76250078Y-60819990D01*
X76392408Y-60819990D01*
X76449001Y-60876582D01*
X76449000Y-61259843D01*
X76449001Y-61259853D01*
X76449001Y-62024260D01*
X76436416Y-62015851D01*
X76307933Y-61962631D01*
X76171535Y-61935500D01*
X76032465Y-61935500D01*
X75896067Y-61962631D01*
X75767584Y-62015851D01*
X75651951Y-62093114D01*
X75553614Y-62191451D01*
X75490734Y-62285558D01*
X75489875Y-62282725D01*
X75408068Y-62129675D01*
X75297975Y-61995525D01*
X75178000Y-61897065D01*
X75178000Y-60015934D01*
X75297975Y-59917475D01*
X75408068Y-59783325D01*
X75489875Y-59630275D01*
X75540252Y-59464206D01*
X75553000Y-59334773D01*
X75553000Y-58648227D01*
X75540252Y-58518794D01*
X75512710Y-58428000D01*
X82471290Y-58428000D01*
X82443748Y-58518794D01*
X82431000Y-58648227D01*
X82431000Y-59334772D01*
X82443748Y-59464205D01*
X82494125Y-59630274D01*
X82575932Y-59783324D01*
X82686025Y-59917475D01*
X82806001Y-60015936D01*
X82806000Y-61897066D01*
X82686026Y-61995525D01*
X82575933Y-62129675D01*
X82494126Y-62282725D01*
X82493266Y-62285559D01*
X82430386Y-62191451D01*
X82332049Y-62093114D01*
X82216416Y-62015851D01*
X82087933Y-61962631D01*
X81951535Y-61935500D01*
X81812465Y-61935500D01*
X81676067Y-61962631D01*
X81547584Y-62015851D01*
X81431951Y-62093114D01*
X81333614Y-62191451D01*
X81256351Y-62307084D01*
X81203131Y-62435567D01*
X81176000Y-62571965D01*
X81176000Y-62711035D01*
X81203131Y-62847433D01*
X81256351Y-62975916D01*
X81333614Y-63091549D01*
X81431951Y-63189886D01*
X81547584Y-63267149D01*
X81676067Y-63320369D01*
X81812465Y-63347500D01*
X81951535Y-63347500D01*
X82087933Y-63320369D01*
X82216416Y-63267149D01*
X82332049Y-63189886D01*
X82430386Y-63091549D01*
X82431001Y-63090629D01*
X82431000Y-63764772D01*
X82443748Y-63894205D01*
X82494125Y-64060274D01*
X82575932Y-64213324D01*
X82686025Y-64347475D01*
X82820175Y-64457568D01*
X82973225Y-64539375D01*
X83139294Y-64589752D01*
X83312000Y-64606762D01*
X83484705Y-64589752D01*
X83650774Y-64539375D01*
X83803824Y-64457568D01*
X83937975Y-64347475D01*
X84048068Y-64213325D01*
X84129875Y-64060275D01*
X84180252Y-63894206D01*
X84193000Y-63764773D01*
X84193000Y-63247341D01*
X94206000Y-63247341D01*
X94206000Y-63696659D01*
X94293657Y-64137343D01*
X94465604Y-64552459D01*
X94715231Y-64926053D01*
X95032947Y-65243769D01*
X95406541Y-65493396D01*
X95821657Y-65665343D01*
X96262341Y-65753000D01*
X96711659Y-65753000D01*
X97152343Y-65665343D01*
X97567459Y-65493396D01*
X97941053Y-65243769D01*
X98258769Y-64926053D01*
X98508396Y-64552459D01*
X98680343Y-64137343D01*
X98768000Y-63696659D01*
X98768000Y-63247341D01*
X98680343Y-62806657D01*
X98508396Y-62391541D01*
X98258769Y-62017947D01*
X97941053Y-61700231D01*
X97567459Y-61450604D01*
X97152343Y-61278657D01*
X96711659Y-61191000D01*
X96262341Y-61191000D01*
X95821657Y-61278657D01*
X95406541Y-61450604D01*
X95032947Y-61700231D01*
X94715231Y-62017947D01*
X94465604Y-62391541D01*
X94293657Y-62806657D01*
X94206000Y-63247341D01*
X84193000Y-63247341D01*
X84193000Y-62578227D01*
X84180252Y-62448794D01*
X84129875Y-62282725D01*
X84048068Y-62129675D01*
X83937975Y-61995525D01*
X83818000Y-61897065D01*
X83818000Y-60015934D01*
X83937975Y-59917475D01*
X84048068Y-59783325D01*
X84129875Y-59630275D01*
X84180252Y-59464206D01*
X84193000Y-59334773D01*
X84193000Y-58648227D01*
X84180252Y-58518794D01*
X84152710Y-58428000D01*
X94467691Y-58428000D01*
X95336581Y-58501726D01*
X96161880Y-58715931D01*
X96939275Y-59066123D01*
X97646563Y-59542296D01*
X98263505Y-60130830D01*
X98772464Y-60814895D01*
X99158893Y-61574945D01*
X99411735Y-62389227D01*
X99523763Y-63234474D01*
X99491777Y-64086509D01*
X99316687Y-64920978D01*
X99003503Y-65714010D01*
X98561175Y-66442942D01*
X98002360Y-67086921D01*
X97343022Y-67627544D01*
X96602030Y-68049341D01*
X95800559Y-68340261D01*
X94953066Y-68493514D01*
X94476250Y-68516000D01*
X83816508Y-68516000D01*
X83839000Y-68402922D01*
X83839000Y-68249078D01*
X83808987Y-68098191D01*
X83750113Y-67956058D01*
X83664642Y-67828141D01*
X83564000Y-67727499D01*
X83564000Y-67572591D01*
X84128592Y-67008000D01*
X84270922Y-67008000D01*
X84421809Y-66977987D01*
X84563942Y-66919113D01*
X84691859Y-66833642D01*
X84800642Y-66724859D01*
X84886113Y-66596942D01*
X84944987Y-66454809D01*
X84975000Y-66303922D01*
X84975000Y-66150078D01*
X84944987Y-65999191D01*
X84886113Y-65857058D01*
X84800642Y-65729141D01*
X84691859Y-65620358D01*
X84563942Y-65534887D01*
X84421809Y-65476013D01*
X84270922Y-65446000D01*
X84117078Y-65446000D01*
X83966191Y-65476013D01*
X83824058Y-65534887D01*
X83696141Y-65620358D01*
X83587358Y-65729141D01*
X83501887Y-65857058D01*
X83443013Y-65999191D01*
X83413000Y-66150078D01*
X83413000Y-66292408D01*
X82717780Y-66987629D01*
X82698474Y-67003473D01*
X82635242Y-67080521D01*
X82616276Y-67116004D01*
X82588255Y-67168426D01*
X82559322Y-67263808D01*
X82549553Y-67363000D01*
X82552001Y-67387856D01*
X82552001Y-67727498D01*
X82451358Y-67828141D01*
X82365887Y-67956058D01*
X82307013Y-68098191D01*
X82277000Y-68249078D01*
X82277000Y-68402922D01*
X82299492Y-68516000D01*
X63506309Y-68516000D01*
X62637420Y-68442274D01*
X61812125Y-68228070D01*
X61034725Y-67877877D01*
X60327434Y-67401701D01*
X59710493Y-66813167D01*
X59201534Y-66129103D01*
X58815107Y-65369055D01*
X58562265Y-64554774D01*
X58450237Y-63709526D01*
X58467587Y-63247341D01*
X59206000Y-63247341D01*
X59206000Y-63696659D01*
X59293657Y-64137343D01*
X59465604Y-64552459D01*
X59715231Y-64926053D01*
X60032947Y-65243769D01*
X60406541Y-65493396D01*
X60821657Y-65665343D01*
X61262341Y-65753000D01*
X61711659Y-65753000D01*
X62152343Y-65665343D01*
X62567459Y-65493396D01*
X62941053Y-65243769D01*
X63258769Y-64926053D01*
X63508396Y-64552459D01*
X63680343Y-64137343D01*
X63768000Y-63696659D01*
X63768000Y-63247341D01*
X63680343Y-62806657D01*
X63508396Y-62391541D01*
X63258769Y-62017947D01*
X62941053Y-61700231D01*
X62567459Y-61450604D01*
X62152343Y-61278657D01*
X61711659Y-61191000D01*
X61262341Y-61191000D01*
X60821657Y-61278657D01*
X60406541Y-61450604D01*
X60032947Y-61700231D01*
X59715231Y-62017947D01*
X59465604Y-62391541D01*
X59293657Y-62806657D01*
X59206000Y-63247341D01*
X58467587Y-63247341D01*
X58482223Y-62857491D01*
X58657313Y-62023022D01*
X58970496Y-61229993D01*
X59412827Y-60501054D01*
X59971640Y-59857080D01*
X60630978Y-59316456D01*
X61371972Y-58894658D01*
X62173445Y-58603737D01*
X63020934Y-58450486D01*
X63497750Y-58428000D01*
X73831290Y-58428000D01*
X73803748Y-58518794D01*
G37*
%TD.AperFunction*%
%TD*%
M02*
