%TF.GenerationSoftware,KiCad,Pcbnew,5.1.10-88a1d61d58~90~ubuntu20.04.1*%
%TF.CreationDate,2022-01-21T20:09:26-08:00*%
%TF.ProjectId,kb-db_protruded,6b622d64-625f-4707-926f-747275646564,rev?*%
%TF.SameCoordinates,Original*%
%TF.FileFunction,Legend,Top*%
%TF.FilePolarity,Positive*%
%FSLAX46Y46*%
G04 Gerber Fmt 4.6, Leading zero omitted, Abs format (unit mm)*
G04 Created by KiCad (PCBNEW 5.1.10-88a1d61d58~90~ubuntu20.04.1) date 2022-01-21 20:09:26*
%MOMM*%
%LPD*%
G01*
G04 APERTURE LIST*
%ADD10C,0.120000*%
%ADD11C,0.150000*%
G04 APERTURE END LIST*
D10*
%TO.C,R2*%
X70147436Y-59209000D02*
X70601564Y-59209000D01*
X70147436Y-60679000D02*
X70601564Y-60679000D01*
%TO.C,J1*%
X91042000Y-60269000D02*
X89892000Y-60269000D01*
X89892000Y-60269000D02*
X89892000Y-61319000D01*
X89892000Y-61319000D02*
X88902000Y-61319000D01*
X91042000Y-66489000D02*
X89892000Y-66489000D01*
X89892000Y-66489000D02*
X89892000Y-65439000D01*
X93012000Y-61439000D02*
X93012000Y-65319000D01*
%TO.C,C1*%
X67664000Y-60444748D02*
X67664000Y-60967252D01*
X66194000Y-60444748D02*
X66194000Y-60967252D01*
%TO.C,R5*%
X65632000Y-60502436D02*
X65632000Y-60956564D01*
X64162000Y-60502436D02*
X64162000Y-60956564D01*
%TO.C,R1*%
X86563564Y-66073000D02*
X86109436Y-66073000D01*
X86563564Y-64603000D02*
X86109436Y-64603000D01*
%TO.C,F1*%
X86540078Y-61035000D02*
X86022922Y-61035000D01*
X86540078Y-59615000D02*
X86022922Y-59615000D01*
%TO.C,D1*%
X69242000Y-65185000D02*
X71642000Y-65185000D01*
X71642000Y-62085000D02*
X68692000Y-62085000D01*
%TO.C,R2*%
D11*
X68557380Y-60170666D02*
X68081190Y-60504000D01*
X68557380Y-60742095D02*
X67557380Y-60742095D01*
X67557380Y-60361142D01*
X67605000Y-60265904D01*
X67652619Y-60218285D01*
X67747857Y-60170666D01*
X67890714Y-60170666D01*
X67985952Y-60218285D01*
X68033571Y-60265904D01*
X68081190Y-60361142D01*
X68081190Y-60742095D01*
X67652619Y-59789714D02*
X67605000Y-59742095D01*
X67557380Y-59646857D01*
X67557380Y-59408761D01*
X67605000Y-59313523D01*
X67652619Y-59265904D01*
X67747857Y-59218285D01*
X67843095Y-59218285D01*
X67985952Y-59265904D01*
X68557380Y-59837333D01*
X68557380Y-59218285D01*
%TO.C,J1*%
X90758380Y-63766333D02*
X91472666Y-63766333D01*
X91615523Y-63813952D01*
X91710761Y-63909190D01*
X91758380Y-64052047D01*
X91758380Y-64147285D01*
X91758380Y-62766333D02*
X91758380Y-63337761D01*
X91758380Y-63052047D02*
X90758380Y-63052047D01*
X90901238Y-63147285D01*
X90996476Y-63242523D01*
X91044095Y-63337761D01*
%TO.C,C1*%
X66882333Y-63536142D02*
X66834714Y-63583761D01*
X66691857Y-63631380D01*
X66596619Y-63631380D01*
X66453761Y-63583761D01*
X66358523Y-63488523D01*
X66310904Y-63393285D01*
X66263285Y-63202809D01*
X66263285Y-63059952D01*
X66310904Y-62869476D01*
X66358523Y-62774238D01*
X66453761Y-62679000D01*
X66596619Y-62631380D01*
X66691857Y-62631380D01*
X66834714Y-62679000D01*
X66882333Y-62726619D01*
X67834714Y-63631380D02*
X67263285Y-63631380D01*
X67549000Y-63631380D02*
X67549000Y-62631380D01*
X67453761Y-62774238D01*
X67358523Y-62869476D01*
X67263285Y-62917095D01*
%TO.C,USB1*%
X77253904Y-65093880D02*
X77253904Y-65903404D01*
X77301523Y-65998642D01*
X77349142Y-66046261D01*
X77444380Y-66093880D01*
X77634857Y-66093880D01*
X77730095Y-66046261D01*
X77777714Y-65998642D01*
X77825333Y-65903404D01*
X77825333Y-65093880D01*
X78253904Y-66046261D02*
X78396761Y-66093880D01*
X78634857Y-66093880D01*
X78730095Y-66046261D01*
X78777714Y-65998642D01*
X78825333Y-65903404D01*
X78825333Y-65808166D01*
X78777714Y-65712928D01*
X78730095Y-65665309D01*
X78634857Y-65617690D01*
X78444380Y-65570071D01*
X78349142Y-65522452D01*
X78301523Y-65474833D01*
X78253904Y-65379595D01*
X78253904Y-65284357D01*
X78301523Y-65189119D01*
X78349142Y-65141500D01*
X78444380Y-65093880D01*
X78682476Y-65093880D01*
X78825333Y-65141500D01*
X79587238Y-65570071D02*
X79730095Y-65617690D01*
X79777714Y-65665309D01*
X79825333Y-65760547D01*
X79825333Y-65903404D01*
X79777714Y-65998642D01*
X79730095Y-66046261D01*
X79634857Y-66093880D01*
X79253904Y-66093880D01*
X79253904Y-65093880D01*
X79587238Y-65093880D01*
X79682476Y-65141500D01*
X79730095Y-65189119D01*
X79777714Y-65284357D01*
X79777714Y-65379595D01*
X79730095Y-65474833D01*
X79682476Y-65522452D01*
X79587238Y-65570071D01*
X79253904Y-65570071D01*
X80777714Y-66093880D02*
X80206285Y-66093880D01*
X80492000Y-66093880D02*
X80492000Y-65093880D01*
X80396761Y-65236738D01*
X80301523Y-65331976D01*
X80206285Y-65379595D01*
%TO.C,R5*%
X64723333Y-63631380D02*
X64390000Y-63155190D01*
X64151904Y-63631380D02*
X64151904Y-62631380D01*
X64532857Y-62631380D01*
X64628095Y-62679000D01*
X64675714Y-62726619D01*
X64723333Y-62821857D01*
X64723333Y-62964714D01*
X64675714Y-63059952D01*
X64628095Y-63107571D01*
X64532857Y-63155190D01*
X64151904Y-63155190D01*
X65628095Y-62631380D02*
X65151904Y-62631380D01*
X65104285Y-63107571D01*
X65151904Y-63059952D01*
X65247142Y-63012333D01*
X65485238Y-63012333D01*
X65580476Y-63059952D01*
X65628095Y-63107571D01*
X65675714Y-63202809D01*
X65675714Y-63440904D01*
X65628095Y-63536142D01*
X65580476Y-63583761D01*
X65485238Y-63631380D01*
X65247142Y-63631380D01*
X65151904Y-63583761D01*
X65104285Y-63536142D01*
%TO.C,R1*%
X86169833Y-67440380D02*
X85836500Y-66964190D01*
X85598404Y-67440380D02*
X85598404Y-66440380D01*
X85979357Y-66440380D01*
X86074595Y-66488000D01*
X86122214Y-66535619D01*
X86169833Y-66630857D01*
X86169833Y-66773714D01*
X86122214Y-66868952D01*
X86074595Y-66916571D01*
X85979357Y-66964190D01*
X85598404Y-66964190D01*
X87122214Y-67440380D02*
X86550785Y-67440380D01*
X86836500Y-67440380D02*
X86836500Y-66440380D01*
X86741261Y-66583238D01*
X86646023Y-66678476D01*
X86550785Y-66726095D01*
%TO.C,F1*%
X85892666Y-58916571D02*
X85559333Y-58916571D01*
X85559333Y-59440380D02*
X85559333Y-58440380D01*
X86035523Y-58440380D01*
X86940285Y-59440380D02*
X86368857Y-59440380D01*
X86654571Y-59440380D02*
X86654571Y-58440380D01*
X86559333Y-58583238D01*
X86464095Y-58678476D01*
X86368857Y-58726095D01*
%TO.C,D1*%
X69739904Y-66552380D02*
X69739904Y-65552380D01*
X69978000Y-65552380D01*
X70120857Y-65600000D01*
X70216095Y-65695238D01*
X70263714Y-65790476D01*
X70311333Y-65980952D01*
X70311333Y-66123809D01*
X70263714Y-66314285D01*
X70216095Y-66409523D01*
X70120857Y-66504761D01*
X69978000Y-66552380D01*
X69739904Y-66552380D01*
X71263714Y-66552380D02*
X70692285Y-66552380D01*
X70978000Y-66552380D02*
X70978000Y-65552380D01*
X70882761Y-65695238D01*
X70787523Y-65790476D01*
X70692285Y-65838095D01*
%TD*%
M02*
