%TF.GenerationSoftware,KiCad,Pcbnew,5.1.10-88a1d61d58~90~ubuntu20.04.1*%
%TF.CreationDate,2022-01-21T20:09:26-08:00*%
%TF.ProjectId,kb-db_protruded,6b622d64-625f-4707-926f-747275646564,rev?*%
%TF.SameCoordinates,Original*%
%TF.FileFunction,Paste,Top*%
%TF.FilePolarity,Positive*%
%FSLAX46Y46*%
G04 Gerber Fmt 4.6, Leading zero omitted, Abs format (unit mm)*
G04 Created by KiCad (PCBNEW 5.1.10-88a1d61d58~90~ubuntu20.04.1) date 2022-01-21 20:09:26*
%MOMM*%
%LPD*%
G01*
G04 APERTURE LIST*
%ADD10R,0.600000X1.450000*%
%ADD11R,0.300000X1.450000*%
%ADD12R,1.400000X1.000000*%
%ADD13R,1.400000X1.200000*%
G04 APERTURE END LIST*
%TO.C,R2*%
G36*
G01*
X70774500Y-60394002D02*
X70774500Y-59493998D01*
G75*
G02*
X71024498Y-59244000I249998J0D01*
G01*
X71549502Y-59244000D01*
G75*
G02*
X71799500Y-59493998I0J-249998D01*
G01*
X71799500Y-60394002D01*
G75*
G02*
X71549502Y-60644000I-249998J0D01*
G01*
X71024498Y-60644000D01*
G75*
G02*
X70774500Y-60394002I0J249998D01*
G01*
G37*
G36*
G01*
X68949500Y-60394002D02*
X68949500Y-59493998D01*
G75*
G02*
X69199498Y-59244000I249998J0D01*
G01*
X69724502Y-59244000D01*
G75*
G02*
X69974500Y-59493998I0J-249998D01*
G01*
X69974500Y-60394002D01*
G75*
G02*
X69724502Y-60644000I-249998J0D01*
G01*
X69199498Y-60644000D01*
G75*
G02*
X68949500Y-60394002I0J249998D01*
G01*
G37*
%TD*%
%TO.C,J1*%
G36*
G01*
X91551999Y-65579000D02*
X92852001Y-65579000D01*
G75*
G02*
X93102000Y-65828999I0J-249999D01*
G01*
X93102000Y-66529001D01*
G75*
G02*
X92852001Y-66779000I-249999J0D01*
G01*
X91551999Y-66779000D01*
G75*
G02*
X91302000Y-66529001I0J249999D01*
G01*
X91302000Y-65828999D01*
G75*
G02*
X91551999Y-65579000I249999J0D01*
G01*
G37*
G36*
G01*
X91551999Y-59979000D02*
X92852001Y-59979000D01*
G75*
G02*
X93102000Y-60228999I0J-249999D01*
G01*
X93102000Y-60929001D01*
G75*
G02*
X92852001Y-61179000I-249999J0D01*
G01*
X91551999Y-61179000D01*
G75*
G02*
X91302000Y-60929001I0J249999D01*
G01*
X91302000Y-60228999D01*
G75*
G02*
X91551999Y-59979000I249999J0D01*
G01*
G37*
G36*
G01*
X89052000Y-64579000D02*
X90302000Y-64579000D01*
G75*
G02*
X90452000Y-64729000I0J-150000D01*
G01*
X90452000Y-65029000D01*
G75*
G02*
X90302000Y-65179000I-150000J0D01*
G01*
X89052000Y-65179000D01*
G75*
G02*
X88902000Y-65029000I0J150000D01*
G01*
X88902000Y-64729000D01*
G75*
G02*
X89052000Y-64579000I150000J0D01*
G01*
G37*
G36*
G01*
X89052000Y-63579000D02*
X90302000Y-63579000D01*
G75*
G02*
X90452000Y-63729000I0J-150000D01*
G01*
X90452000Y-64029000D01*
G75*
G02*
X90302000Y-64179000I-150000J0D01*
G01*
X89052000Y-64179000D01*
G75*
G02*
X88902000Y-64029000I0J150000D01*
G01*
X88902000Y-63729000D01*
G75*
G02*
X89052000Y-63579000I150000J0D01*
G01*
G37*
G36*
G01*
X89052000Y-62579000D02*
X90302000Y-62579000D01*
G75*
G02*
X90452000Y-62729000I0J-150000D01*
G01*
X90452000Y-63029000D01*
G75*
G02*
X90302000Y-63179000I-150000J0D01*
G01*
X89052000Y-63179000D01*
G75*
G02*
X88902000Y-63029000I0J150000D01*
G01*
X88902000Y-62729000D01*
G75*
G02*
X89052000Y-62579000I150000J0D01*
G01*
G37*
G36*
G01*
X89052000Y-61579000D02*
X90302000Y-61579000D01*
G75*
G02*
X90452000Y-61729000I0J-150000D01*
G01*
X90452000Y-62029000D01*
G75*
G02*
X90302000Y-62179000I-150000J0D01*
G01*
X89052000Y-62179000D01*
G75*
G02*
X88902000Y-62029000I0J150000D01*
G01*
X88902000Y-61729000D01*
G75*
G02*
X89052000Y-61579000I150000J0D01*
G01*
G37*
%TD*%
%TO.C,C1*%
G36*
G01*
X66454000Y-61156000D02*
X67404000Y-61156000D01*
G75*
G02*
X67654000Y-61406000I0J-250000D01*
G01*
X67654000Y-61906000D01*
G75*
G02*
X67404000Y-62156000I-250000J0D01*
G01*
X66454000Y-62156000D01*
G75*
G02*
X66204000Y-61906000I0J250000D01*
G01*
X66204000Y-61406000D01*
G75*
G02*
X66454000Y-61156000I250000J0D01*
G01*
G37*
G36*
G01*
X66454000Y-59256000D02*
X67404000Y-59256000D01*
G75*
G02*
X67654000Y-59506000I0J-250000D01*
G01*
X67654000Y-60006000D01*
G75*
G02*
X67404000Y-60256000I-250000J0D01*
G01*
X66454000Y-60256000D01*
G75*
G02*
X66204000Y-60006000I0J250000D01*
G01*
X66204000Y-59506000D01*
G75*
G02*
X66454000Y-59256000I250000J0D01*
G01*
G37*
%TD*%
D10*
%TO.C,USB1*%
X75767000Y-64086500D03*
X82217000Y-64086500D03*
X76542000Y-64086500D03*
X81442000Y-64086500D03*
D11*
X80742000Y-64086500D03*
X77242000Y-64086500D03*
X80242000Y-64086500D03*
X77742000Y-64086500D03*
X79742000Y-64086500D03*
X78242000Y-64086500D03*
X78742000Y-64086500D03*
X79242000Y-64086500D03*
%TD*%
%TO.C,R5*%
G36*
G01*
X64446998Y-61129500D02*
X65347002Y-61129500D01*
G75*
G02*
X65597000Y-61379498I0J-249998D01*
G01*
X65597000Y-61904502D01*
G75*
G02*
X65347002Y-62154500I-249998J0D01*
G01*
X64446998Y-62154500D01*
G75*
G02*
X64197000Y-61904502I0J249998D01*
G01*
X64197000Y-61379498D01*
G75*
G02*
X64446998Y-61129500I249998J0D01*
G01*
G37*
G36*
G01*
X64446998Y-59304500D02*
X65347002Y-59304500D01*
G75*
G02*
X65597000Y-59554498I0J-249998D01*
G01*
X65597000Y-60079502D01*
G75*
G02*
X65347002Y-60329500I-249998J0D01*
G01*
X64446998Y-60329500D01*
G75*
G02*
X64197000Y-60079502I0J249998D01*
G01*
X64197000Y-59554498D01*
G75*
G02*
X64446998Y-59304500I249998J0D01*
G01*
G37*
%TD*%
%TO.C,R1*%
G36*
G01*
X85936500Y-64887998D02*
X85936500Y-65788002D01*
G75*
G02*
X85686502Y-66038000I-249998J0D01*
G01*
X85161498Y-66038000D01*
G75*
G02*
X84911500Y-65788002I0J249998D01*
G01*
X84911500Y-64887998D01*
G75*
G02*
X85161498Y-64638000I249998J0D01*
G01*
X85686502Y-64638000D01*
G75*
G02*
X85936500Y-64887998I0J-249998D01*
G01*
G37*
G36*
G01*
X87761500Y-64887998D02*
X87761500Y-65788002D01*
G75*
G02*
X87511502Y-66038000I-249998J0D01*
G01*
X86986498Y-66038000D01*
G75*
G02*
X86736500Y-65788002I0J249998D01*
G01*
X86736500Y-64887998D01*
G75*
G02*
X86986498Y-64638000I249998J0D01*
G01*
X87511502Y-64638000D01*
G75*
G02*
X87761500Y-64887998I0J-249998D01*
G01*
G37*
%TD*%
%TO.C,F1*%
G36*
G01*
X85831500Y-59868750D02*
X85831500Y-60781250D01*
G75*
G02*
X85587750Y-61025000I-243750J0D01*
G01*
X85100250Y-61025000D01*
G75*
G02*
X84856500Y-60781250I0J243750D01*
G01*
X84856500Y-59868750D01*
G75*
G02*
X85100250Y-59625000I243750J0D01*
G01*
X85587750Y-59625000D01*
G75*
G02*
X85831500Y-59868750I0J-243750D01*
G01*
G37*
G36*
G01*
X87706500Y-59868750D02*
X87706500Y-60781250D01*
G75*
G02*
X87462750Y-61025000I-243750J0D01*
G01*
X86975250Y-61025000D01*
G75*
G02*
X86731500Y-60781250I0J243750D01*
G01*
X86731500Y-59868750D01*
G75*
G02*
X86975250Y-59625000I243750J0D01*
G01*
X87462750Y-59625000D01*
G75*
G02*
X87706500Y-59868750I0J-243750D01*
G01*
G37*
%TD*%
D12*
%TO.C,D1*%
X71542000Y-62685000D03*
X71542000Y-64585000D03*
X69342000Y-64585000D03*
D13*
X69342000Y-62865000D03*
%TD*%
M02*
