M48
; DRILL file {KiCad 5.1.10-88a1d61d58~90~ubuntu20.04.1} date Fri Jan 21 20:09:28 2022
; FORMAT={-:-/ absolute / inch / decimal}
; #@! TF.CreationDate,2022-01-21T20:09:28-08:00
; #@! TF.GenerationSoftware,Kicad,Pcbnew,5.1.10-88a1d61d58~90~ubuntu20.04.1
; #@! TF.FileFunction,Plated,1,2,PTH
FMAT,2
INCH
T1C0.0157
T2C0.0236
T3C0.0866
%
G90
G05
T1
X2.6797Y-2.5074
X2.8647Y-2.4024
X2.9099Y-2.6422
X2.9863Y-2.6424
X3.005Y-2.3637
X3.0297Y-2.6424
X3.1471Y-2.68
X3.235Y-2.66
X3.27Y-2.69
X3.3147Y-2.6074
T3
X2.4207Y-2.4989
X3.7987Y-2.4989
T2
G00X2.9398Y-2.3343
M15
G01X2.9398Y-2.3107
M16
G05
G00X2.9398Y-2.5087
M15
G01X2.9398Y-2.4654
M16
G05
G00X3.28Y-2.3343
M15
G01X3.28Y-2.3107
M16
G05
G00X3.28Y-2.5087
M15
G01X3.28Y-2.4654
M16
G05
T0
M30
