%TF.GenerationSoftware,KiCad,Pcbnew,5.1.10-88a1d61d58~90~ubuntu20.04.1*%
%TF.CreationDate,2022-01-21T20:21:18-08:00*%
%TF.ProjectId,kb-db,6b622d64-622e-46b6-9963-61645f706362,rev?*%
%TF.SameCoordinates,Original*%
%TF.FileFunction,Copper,L1,Top*%
%TF.FilePolarity,Positive*%
%FSLAX46Y46*%
G04 Gerber Fmt 4.6, Leading zero omitted, Abs format (unit mm)*
G04 Created by KiCad (PCBNEW 5.1.10-88a1d61d58~90~ubuntu20.04.1) date 2022-01-21 20:21:18*
%MOMM*%
%LPD*%
G01*
G04 APERTURE LIST*
%TA.AperFunction,ComponentPad*%
%ADD10C,3.800000*%
%TD*%
%TA.AperFunction,SMDPad,CuDef*%
%ADD11R,0.600000X1.450000*%
%TD*%
%TA.AperFunction,SMDPad,CuDef*%
%ADD12R,0.300000X1.450000*%
%TD*%
%TA.AperFunction,ComponentPad*%
%ADD13O,1.000000X2.100000*%
%TD*%
%TA.AperFunction,ComponentPad*%
%ADD14O,1.000000X1.600000*%
%TD*%
%TA.AperFunction,SMDPad,CuDef*%
%ADD15R,1.400000X1.000000*%
%TD*%
%TA.AperFunction,SMDPad,CuDef*%
%ADD16R,1.400000X1.200000*%
%TD*%
%TA.AperFunction,ViaPad*%
%ADD17C,0.800000*%
%TD*%
%TA.AperFunction,Conductor*%
%ADD18C,0.250000*%
%TD*%
%TA.AperFunction,Conductor*%
%ADD19C,0.254000*%
%TD*%
%TA.AperFunction,Conductor*%
%ADD20C,0.100000*%
%TD*%
G04 APERTURE END LIST*
D10*
%TO.P,H2,1*%
%TO.N,Earth*%
X61487000Y-63472000D03*
%TD*%
%TO.P,H1,1*%
%TO.N,Net-(H1-Pad1)*%
X96487000Y-63472000D03*
%TD*%
%TO.P,J1,MP*%
%TO.N,N/C*%
%TA.AperFunction,SMDPad,CuDef*%
G36*
G01*
X91551999Y-65579000D02*
X92852001Y-65579000D01*
G75*
G02*
X93102000Y-65828999I0J-249999D01*
G01*
X93102000Y-66529001D01*
G75*
G02*
X92852001Y-66779000I-249999J0D01*
G01*
X91551999Y-66779000D01*
G75*
G02*
X91302000Y-66529001I0J249999D01*
G01*
X91302000Y-65828999D01*
G75*
G02*
X91551999Y-65579000I249999J0D01*
G01*
G37*
%TD.AperFunction*%
%TA.AperFunction,SMDPad,CuDef*%
G36*
G01*
X91551999Y-59979000D02*
X92852001Y-59979000D01*
G75*
G02*
X93102000Y-60228999I0J-249999D01*
G01*
X93102000Y-60929001D01*
G75*
G02*
X92852001Y-61179000I-249999J0D01*
G01*
X91551999Y-61179000D01*
G75*
G02*
X91302000Y-60929001I0J249999D01*
G01*
X91302000Y-60228999D01*
G75*
G02*
X91551999Y-59979000I249999J0D01*
G01*
G37*
%TD.AperFunction*%
%TO.P,J1,4*%
%TO.N,GND*%
%TA.AperFunction,SMDPad,CuDef*%
G36*
G01*
X89052000Y-64579000D02*
X90302000Y-64579000D01*
G75*
G02*
X90452000Y-64729000I0J-150000D01*
G01*
X90452000Y-65029000D01*
G75*
G02*
X90302000Y-65179000I-150000J0D01*
G01*
X89052000Y-65179000D01*
G75*
G02*
X88902000Y-65029000I0J150000D01*
G01*
X88902000Y-64729000D01*
G75*
G02*
X89052000Y-64579000I150000J0D01*
G01*
G37*
%TD.AperFunction*%
%TO.P,J1,3*%
%TO.N,D+*%
%TA.AperFunction,SMDPad,CuDef*%
G36*
G01*
X89052000Y-63579000D02*
X90302000Y-63579000D01*
G75*
G02*
X90452000Y-63729000I0J-150000D01*
G01*
X90452000Y-64029000D01*
G75*
G02*
X90302000Y-64179000I-150000J0D01*
G01*
X89052000Y-64179000D01*
G75*
G02*
X88902000Y-64029000I0J150000D01*
G01*
X88902000Y-63729000D01*
G75*
G02*
X89052000Y-63579000I150000J0D01*
G01*
G37*
%TD.AperFunction*%
%TO.P,J1,2*%
%TO.N,D-*%
%TA.AperFunction,SMDPad,CuDef*%
G36*
G01*
X89052000Y-62579000D02*
X90302000Y-62579000D01*
G75*
G02*
X90452000Y-62729000I0J-150000D01*
G01*
X90452000Y-63029000D01*
G75*
G02*
X90302000Y-63179000I-150000J0D01*
G01*
X89052000Y-63179000D01*
G75*
G02*
X88902000Y-63029000I0J150000D01*
G01*
X88902000Y-62729000D01*
G75*
G02*
X89052000Y-62579000I150000J0D01*
G01*
G37*
%TD.AperFunction*%
%TO.P,J1,1*%
%TO.N,+5V*%
%TA.AperFunction,SMDPad,CuDef*%
G36*
G01*
X89052000Y-61579000D02*
X90302000Y-61579000D01*
G75*
G02*
X90452000Y-61729000I0J-150000D01*
G01*
X90452000Y-62029000D01*
G75*
G02*
X90302000Y-62179000I-150000J0D01*
G01*
X89052000Y-62179000D01*
G75*
G02*
X88902000Y-62029000I0J150000D01*
G01*
X88902000Y-61729000D01*
G75*
G02*
X89052000Y-61579000I150000J0D01*
G01*
G37*
%TD.AperFunction*%
%TD*%
%TO.P,C1,2*%
%TO.N,GND*%
%TA.AperFunction,SMDPad,CuDef*%
G36*
G01*
X66454000Y-61156000D02*
X67404000Y-61156000D01*
G75*
G02*
X67654000Y-61406000I0J-250000D01*
G01*
X67654000Y-61906000D01*
G75*
G02*
X67404000Y-62156000I-250000J0D01*
G01*
X66454000Y-62156000D01*
G75*
G02*
X66204000Y-61906000I0J250000D01*
G01*
X66204000Y-61406000D01*
G75*
G02*
X66454000Y-61156000I250000J0D01*
G01*
G37*
%TD.AperFunction*%
%TO.P,C1,1*%
%TO.N,Earth*%
%TA.AperFunction,SMDPad,CuDef*%
G36*
G01*
X66454000Y-59256000D02*
X67404000Y-59256000D01*
G75*
G02*
X67654000Y-59506000I0J-250000D01*
G01*
X67654000Y-60006000D01*
G75*
G02*
X67404000Y-60256000I-250000J0D01*
G01*
X66454000Y-60256000D01*
G75*
G02*
X66204000Y-60006000I0J250000D01*
G01*
X66204000Y-59506000D01*
G75*
G02*
X66454000Y-59256000I250000J0D01*
G01*
G37*
%TD.AperFunction*%
%TD*%
D11*
%TO.P,USB1,12*%
%TO.N,GND*%
X75767000Y-65674000D03*
%TO.P,USB1,1*%
X82217000Y-65674000D03*
%TO.P,USB1,11*%
%TO.N,VCC*%
X76542000Y-65674000D03*
%TO.P,USB1,2*%
X81442000Y-65674000D03*
D12*
%TO.P,USB1,3*%
%TO.N,Net-(USB1-Pad3)*%
X80742000Y-65674000D03*
%TO.P,USB1,10*%
%TO.N,Net-(R2-Pad2)*%
X77242000Y-65674000D03*
%TO.P,USB1,4*%
%TO.N,Net-(R1-Pad2)*%
X80242000Y-65674000D03*
%TO.P,USB1,9*%
%TO.N,Net-(USB1-Pad9)*%
X77742000Y-65674000D03*
%TO.P,USB1,5*%
%TO.N,D-*%
X79742000Y-65674000D03*
%TO.P,USB1,8*%
%TO.N,D+*%
X78242000Y-65674000D03*
%TO.P,USB1,7*%
%TO.N,D-*%
X78742000Y-65674000D03*
%TO.P,USB1,6*%
%TO.N,D+*%
X79242000Y-65674000D03*
D13*
%TO.P,USB1,13*%
%TO.N,Earth*%
X83312000Y-64759000D03*
X74672000Y-64759000D03*
D14*
X83312000Y-60579000D03*
X74672000Y-60579000D03*
%TD*%
%TO.P,R5,2*%
%TO.N,GND*%
%TA.AperFunction,SMDPad,CuDef*%
G36*
G01*
X64446998Y-61129500D02*
X65347002Y-61129500D01*
G75*
G02*
X65597000Y-61379498I0J-249998D01*
G01*
X65597000Y-61904502D01*
G75*
G02*
X65347002Y-62154500I-249998J0D01*
G01*
X64446998Y-62154500D01*
G75*
G02*
X64197000Y-61904502I0J249998D01*
G01*
X64197000Y-61379498D01*
G75*
G02*
X64446998Y-61129500I249998J0D01*
G01*
G37*
%TD.AperFunction*%
%TO.P,R5,1*%
%TO.N,Earth*%
%TA.AperFunction,SMDPad,CuDef*%
G36*
G01*
X64446998Y-59304500D02*
X65347002Y-59304500D01*
G75*
G02*
X65597000Y-59554498I0J-249998D01*
G01*
X65597000Y-60079502D01*
G75*
G02*
X65347002Y-60329500I-249998J0D01*
G01*
X64446998Y-60329500D01*
G75*
G02*
X64197000Y-60079502I0J249998D01*
G01*
X64197000Y-59554498D01*
G75*
G02*
X64446998Y-59304500I249998J0D01*
G01*
G37*
%TD.AperFunction*%
%TD*%
%TO.P,R2,2*%
%TO.N,Net-(R2-Pad2)*%
%TA.AperFunction,SMDPad,CuDef*%
G36*
G01*
X71242500Y-60394002D02*
X71242500Y-59493998D01*
G75*
G02*
X71492498Y-59244000I249998J0D01*
G01*
X72017502Y-59244000D01*
G75*
G02*
X72267500Y-59493998I0J-249998D01*
G01*
X72267500Y-60394002D01*
G75*
G02*
X72017502Y-60644000I-249998J0D01*
G01*
X71492498Y-60644000D01*
G75*
G02*
X71242500Y-60394002I0J249998D01*
G01*
G37*
%TD.AperFunction*%
%TO.P,R2,1*%
%TO.N,GND*%
%TA.AperFunction,SMDPad,CuDef*%
G36*
G01*
X69417500Y-60394002D02*
X69417500Y-59493998D01*
G75*
G02*
X69667498Y-59244000I249998J0D01*
G01*
X70192502Y-59244000D01*
G75*
G02*
X70442500Y-59493998I0J-249998D01*
G01*
X70442500Y-60394002D01*
G75*
G02*
X70192502Y-60644000I-249998J0D01*
G01*
X69667498Y-60644000D01*
G75*
G02*
X69417500Y-60394002I0J249998D01*
G01*
G37*
%TD.AperFunction*%
%TD*%
%TO.P,R1,2*%
%TO.N,Net-(R1-Pad2)*%
%TA.AperFunction,SMDPad,CuDef*%
G36*
G01*
X85936500Y-64379998D02*
X85936500Y-65280002D01*
G75*
G02*
X85686502Y-65530000I-249998J0D01*
G01*
X85161498Y-65530000D01*
G75*
G02*
X84911500Y-65280002I0J249998D01*
G01*
X84911500Y-64379998D01*
G75*
G02*
X85161498Y-64130000I249998J0D01*
G01*
X85686502Y-64130000D01*
G75*
G02*
X85936500Y-64379998I0J-249998D01*
G01*
G37*
%TD.AperFunction*%
%TO.P,R1,1*%
%TO.N,GND*%
%TA.AperFunction,SMDPad,CuDef*%
G36*
G01*
X87761500Y-64379998D02*
X87761500Y-65280002D01*
G75*
G02*
X87511502Y-65530000I-249998J0D01*
G01*
X86986498Y-65530000D01*
G75*
G02*
X86736500Y-65280002I0J249998D01*
G01*
X86736500Y-64379998D01*
G75*
G02*
X86986498Y-64130000I249998J0D01*
G01*
X87511502Y-64130000D01*
G75*
G02*
X87761500Y-64379998I0J-249998D01*
G01*
G37*
%TD.AperFunction*%
%TD*%
%TO.P,F1,2*%
%TO.N,VCC*%
%TA.AperFunction,SMDPad,CuDef*%
G36*
G01*
X85824500Y-61071750D02*
X85824500Y-61984250D01*
G75*
G02*
X85580750Y-62228000I-243750J0D01*
G01*
X85093250Y-62228000D01*
G75*
G02*
X84849500Y-61984250I0J243750D01*
G01*
X84849500Y-61071750D01*
G75*
G02*
X85093250Y-60828000I243750J0D01*
G01*
X85580750Y-60828000D01*
G75*
G02*
X85824500Y-61071750I0J-243750D01*
G01*
G37*
%TD.AperFunction*%
%TO.P,F1,1*%
%TO.N,+5V*%
%TA.AperFunction,SMDPad,CuDef*%
G36*
G01*
X87699500Y-61071750D02*
X87699500Y-61984250D01*
G75*
G02*
X87455750Y-62228000I-243750J0D01*
G01*
X86968250Y-62228000D01*
G75*
G02*
X86724500Y-61984250I0J243750D01*
G01*
X86724500Y-61071750D01*
G75*
G02*
X86968250Y-60828000I243750J0D01*
G01*
X87455750Y-60828000D01*
G75*
G02*
X87699500Y-61071750I0J-243750D01*
G01*
G37*
%TD.AperFunction*%
%TD*%
D15*
%TO.P,D1,4*%
%TO.N,VCC*%
X72177000Y-62177000D03*
%TO.P,D1,3*%
%TO.N,D+*%
X72177000Y-64077000D03*
%TO.P,D1,2*%
%TO.N,D-*%
X69977000Y-64077000D03*
D16*
%TO.P,D1,1*%
%TO.N,GND*%
X69977000Y-62357000D03*
%TD*%
D17*
%TO.N,VCC*%
X73279000Y-60960000D03*
X75853014Y-67116004D03*
%TO.N,GND*%
X76156217Y-61259944D03*
X82169000Y-67564000D03*
X73785365Y-67110635D03*
X68700000Y-63179000D03*
X79936000Y-68072000D03*
X81781000Y-61147000D03*
%TO.N,Net-(R1-Pad2)*%
X83058000Y-68326000D03*
X84194000Y-66227000D03*
%TO.N,Net-(R2-Pad2)*%
X76955000Y-67116002D03*
X73279000Y-59309000D03*
%TD*%
D18*
%TO.N,Earth*%
X66868000Y-59817000D02*
X66929000Y-59756000D01*
X64897000Y-59817000D02*
X66868000Y-59817000D01*
X64823000Y-59817000D02*
X64897000Y-59817000D01*
X61487000Y-63153000D02*
X64823000Y-59817000D01*
X61487000Y-63472000D02*
X61487000Y-63153000D01*
X66929000Y-59756000D02*
X68101001Y-58583999D01*
X74672000Y-59499000D02*
X73756999Y-58583999D01*
X74672000Y-60579000D02*
X74672000Y-59499000D01*
X68101001Y-58583999D02*
X73756999Y-58583999D01*
X83154999Y-60421999D02*
X83312000Y-60579000D01*
X74829001Y-60421999D02*
X83154999Y-60421999D01*
X74672000Y-60579000D02*
X74829001Y-60421999D01*
%TO.N,VCC*%
X81442000Y-64913998D02*
X81442000Y-65674000D01*
X80466992Y-63938990D02*
X81442000Y-64913998D01*
X77517008Y-63938990D02*
X80466992Y-63938990D01*
X76542000Y-64913998D02*
X77517008Y-63938990D01*
X76542000Y-65674000D02*
X76542000Y-64913998D01*
X73279000Y-61075000D02*
X72177000Y-62177000D01*
X73279000Y-60960000D02*
X73279000Y-61075000D01*
X76542000Y-66427018D02*
X76253013Y-66716005D01*
X76253013Y-66716005D02*
X75853014Y-67116004D01*
X76542000Y-65674000D02*
X76542000Y-66427018D01*
X84688000Y-62177000D02*
X85337000Y-61528000D01*
X72177000Y-62177000D02*
X84688000Y-62177000D01*
%TO.N,+5V*%
X87563000Y-61879000D02*
X87212000Y-61528000D01*
X89677000Y-61879000D02*
X87563000Y-61879000D01*
%TO.N,GND*%
X82169000Y-65722000D02*
X82217000Y-65674000D01*
X82169000Y-67564000D02*
X82169000Y-65722000D01*
X74330365Y-67110635D02*
X73785365Y-67110635D01*
X75767000Y-65674000D02*
X74330365Y-67110635D01*
X69262000Y-61642000D02*
X69977000Y-62357000D01*
X64897000Y-61642000D02*
X69262000Y-61642000D01*
X69930000Y-60974000D02*
X69262000Y-61642000D01*
X69930000Y-59944000D02*
X69930000Y-60974000D01*
X69155000Y-63179000D02*
X69977000Y-62357000D01*
X68700000Y-63179000D02*
X69155000Y-63179000D01*
X87298000Y-64879000D02*
X87249000Y-64830000D01*
X89677000Y-64879000D02*
X87298000Y-64879000D01*
X89677000Y-65390000D02*
X89677000Y-64879000D01*
X88078000Y-66989000D02*
X89677000Y-65390000D01*
X82744000Y-66989000D02*
X88078000Y-66989000D01*
X82169000Y-67564000D02*
X82744000Y-66989000D01*
%TO.N,D+*%
X78242000Y-64713998D02*
X78566998Y-64389000D01*
X78242000Y-65674000D02*
X78242000Y-64713998D01*
X79242000Y-64713998D02*
X79242000Y-65674000D01*
X78917002Y-64389000D02*
X79242000Y-64713998D01*
X78566998Y-64389000D02*
X78917002Y-64389000D01*
X78242000Y-65674000D02*
X78242000Y-67029004D01*
X78242000Y-67029004D02*
X77266004Y-68005000D01*
X72177000Y-66527590D02*
X72177000Y-64077000D01*
X73654410Y-68005000D02*
X72177000Y-66527590D01*
X77266004Y-68005000D02*
X73654410Y-68005000D01*
X89675000Y-63881000D02*
X89677000Y-63879000D01*
X88767500Y-63879000D02*
X89677000Y-63879000D01*
X88067500Y-63179000D02*
X88767500Y-63879000D01*
X74034000Y-63179000D02*
X88067500Y-63179000D01*
X73145000Y-64068000D02*
X74034000Y-63179000D01*
X72186000Y-64068000D02*
X73145000Y-64068000D01*
X72177000Y-64077000D02*
X72186000Y-64068000D01*
%TO.N,D-*%
X78742000Y-66634002D02*
X79036998Y-66929000D01*
X78742000Y-65674000D02*
X78742000Y-66634002D01*
X79742000Y-66634002D02*
X79742000Y-65674000D01*
X79447002Y-66929000D02*
X79742000Y-66634002D01*
X79036998Y-66929000D02*
X79447002Y-66929000D01*
X69977000Y-64964000D02*
X69977000Y-64077000D01*
X77452404Y-68455011D02*
X73468011Y-68455011D01*
X78742000Y-67165415D02*
X77452404Y-68455011D01*
X73468011Y-68455011D02*
X69977000Y-64964000D01*
X78742000Y-66634002D02*
X78742000Y-67165415D01*
X89526990Y-62728990D02*
X89677000Y-62879000D01*
X73847600Y-62728990D02*
X89526990Y-62728990D01*
X73397590Y-63179000D02*
X73847600Y-62728990D01*
X71075000Y-63179000D02*
X73397590Y-63179000D01*
X70177000Y-64077000D02*
X71075000Y-63179000D01*
X69977000Y-64077000D02*
X70177000Y-64077000D01*
%TO.N,Net-(R1-Pad2)*%
X80242000Y-66710002D02*
X81857998Y-68326000D01*
X80242000Y-65674000D02*
X80242000Y-66710002D01*
X81857998Y-68326000D02*
X83058000Y-68326000D01*
X84254000Y-66167000D02*
X84194000Y-66227000D01*
X85424000Y-64997000D02*
X84194000Y-66227000D01*
X85424000Y-64830000D02*
X85424000Y-64997000D01*
%TO.N,Net-(R2-Pad2)*%
X77242000Y-66829002D02*
X76955000Y-67116002D01*
X77242000Y-65674000D02*
X77242000Y-66829002D01*
X72390000Y-59309000D02*
X71755000Y-59944000D01*
X73279000Y-59309000D02*
X72390000Y-59309000D01*
%TD*%
D19*
%TO.N,GND*%
X81332406Y-68516000D02*
X78107006Y-68516000D01*
X79082220Y-67540787D01*
X79101527Y-67524942D01*
X79164759Y-67447894D01*
X79171651Y-67435000D01*
X79422156Y-67435000D01*
X79447002Y-67437447D01*
X79471848Y-67435000D01*
X79471856Y-67435000D01*
X79546195Y-67427678D01*
X79641577Y-67398745D01*
X79729481Y-67351759D01*
X79806529Y-67288527D01*
X79822378Y-67269215D01*
X79954000Y-67137593D01*
X81332406Y-68516000D01*
%TA.AperFunction,Conductor*%
D20*
G36*
X81332406Y-68516000D02*
G01*
X78107006Y-68516000D01*
X79082220Y-67540787D01*
X79101527Y-67524942D01*
X79164759Y-67447894D01*
X79171651Y-67435000D01*
X79422156Y-67435000D01*
X79447002Y-67437447D01*
X79471848Y-67435000D01*
X79471856Y-67435000D01*
X79546195Y-67427678D01*
X79641577Y-67398745D01*
X79729481Y-67351759D01*
X79806529Y-67288527D01*
X79822378Y-67269215D01*
X79954000Y-67137593D01*
X81332406Y-68516000D01*
G37*
%TD.AperFunction*%
D19*
X67096252Y-58873157D02*
X66454000Y-58873157D01*
X66330538Y-58885317D01*
X66211821Y-58921329D01*
X66102411Y-58979810D01*
X66006512Y-59058512D01*
X65927810Y-59154411D01*
X65887538Y-59229754D01*
X65873190Y-59202910D01*
X65794488Y-59107012D01*
X65698590Y-59028310D01*
X65589180Y-58969829D01*
X65470463Y-58933817D01*
X65347002Y-58921657D01*
X64446998Y-58921657D01*
X64323537Y-58933817D01*
X64204820Y-58969829D01*
X64095410Y-59028310D01*
X63999512Y-59107012D01*
X63920810Y-59202910D01*
X63862329Y-59312320D01*
X63826317Y-59431037D01*
X63814157Y-59554498D01*
X63814157Y-60079502D01*
X63816914Y-60107494D01*
X62501235Y-61423173D01*
X62152343Y-61278657D01*
X61711659Y-61191000D01*
X61262341Y-61191000D01*
X60821657Y-61278657D01*
X60406541Y-61450604D01*
X60032947Y-61700231D01*
X59715231Y-62017947D01*
X59465604Y-62391541D01*
X59293657Y-62806657D01*
X59206000Y-63247341D01*
X59206000Y-63696659D01*
X59293657Y-64137343D01*
X59465604Y-64552459D01*
X59715231Y-64926053D01*
X60032947Y-65243769D01*
X60406541Y-65493396D01*
X60821657Y-65665343D01*
X61262341Y-65753000D01*
X61711659Y-65753000D01*
X62152343Y-65665343D01*
X62567459Y-65493396D01*
X62941053Y-65243769D01*
X63258769Y-64926053D01*
X63508396Y-64552459D01*
X63680343Y-64137343D01*
X63768000Y-63696659D01*
X63768000Y-63247341D01*
X63680343Y-62806657D01*
X63508396Y-62391541D01*
X63290362Y-62065229D01*
X63586590Y-61769002D01*
X63720748Y-61769002D01*
X63562000Y-61927750D01*
X63558928Y-62154500D01*
X63571188Y-62278982D01*
X63607498Y-62398680D01*
X63666463Y-62508994D01*
X63745815Y-62605685D01*
X63842506Y-62685037D01*
X63952820Y-62744002D01*
X64072518Y-62780312D01*
X64197000Y-62792572D01*
X64611250Y-62789500D01*
X64770000Y-62630750D01*
X64770000Y-61769000D01*
X65024000Y-61769000D01*
X65024000Y-62630750D01*
X65182750Y-62789500D01*
X65597000Y-62792572D01*
X65721482Y-62780312D01*
X65841180Y-62744002D01*
X65899097Y-62713044D01*
X65959820Y-62745502D01*
X66079518Y-62781812D01*
X66204000Y-62794072D01*
X66643250Y-62791000D01*
X66802000Y-62632250D01*
X66802000Y-61783000D01*
X67056000Y-61783000D01*
X67056000Y-62632250D01*
X67214750Y-62791000D01*
X67654000Y-62794072D01*
X67778482Y-62781812D01*
X67898180Y-62745502D01*
X68008494Y-62686537D01*
X68105185Y-62607185D01*
X68184537Y-62510494D01*
X68243502Y-62400180D01*
X68279812Y-62280482D01*
X68292072Y-62156000D01*
X68289000Y-61941750D01*
X68130250Y-61783000D01*
X67056000Y-61783000D01*
X66802000Y-61783000D01*
X66087250Y-61783000D01*
X66073250Y-61769000D01*
X65024000Y-61769000D01*
X64770000Y-61769000D01*
X64750000Y-61769000D01*
X64750000Y-61757000D01*
X68638928Y-61757000D01*
X68642000Y-62071250D01*
X68800750Y-62230000D01*
X69850000Y-62230000D01*
X69850000Y-61280750D01*
X69746250Y-61177000D01*
X69803000Y-61120250D01*
X69803000Y-60071000D01*
X68941250Y-60071000D01*
X68782500Y-60229750D01*
X68779428Y-60644000D01*
X68791688Y-60768482D01*
X68827998Y-60888180D01*
X68886963Y-60998494D01*
X68966315Y-61095185D01*
X69048597Y-61162712D01*
X69032820Y-61167498D01*
X68922506Y-61226463D01*
X68825815Y-61305815D01*
X68746463Y-61402506D01*
X68687498Y-61512820D01*
X68651188Y-61632518D01*
X68638928Y-61757000D01*
X64750000Y-61757000D01*
X64750000Y-61515000D01*
X64770000Y-61515000D01*
X64770000Y-61495000D01*
X65024000Y-61495000D01*
X65024000Y-61515000D01*
X65713750Y-61515000D01*
X65727750Y-61529000D01*
X66802000Y-61529000D01*
X66802000Y-61509000D01*
X67056000Y-61509000D01*
X67056000Y-61529000D01*
X68130250Y-61529000D01*
X68289000Y-61370250D01*
X68292072Y-61156000D01*
X68279812Y-61031518D01*
X68243502Y-60911820D01*
X68184537Y-60801506D01*
X68105185Y-60704815D01*
X68008494Y-60625463D01*
X67898180Y-60566498D01*
X67778482Y-60530188D01*
X67760220Y-60528389D01*
X67851488Y-60453488D01*
X67930190Y-60357589D01*
X67988671Y-60248179D01*
X68024683Y-60129462D01*
X68036843Y-60006000D01*
X68036843Y-59506000D01*
X68024683Y-59382538D01*
X68023140Y-59377452D01*
X68310593Y-59089999D01*
X68800642Y-59089999D01*
X68791688Y-59119518D01*
X68779428Y-59244000D01*
X68782500Y-59658250D01*
X68941250Y-59817000D01*
X69803000Y-59817000D01*
X69803000Y-59797000D01*
X70057000Y-59797000D01*
X70057000Y-59817000D01*
X70077000Y-59817000D01*
X70077000Y-60071000D01*
X70057000Y-60071000D01*
X70057000Y-61120250D01*
X70160750Y-61224000D01*
X70104000Y-61280750D01*
X70104000Y-62230000D01*
X70124000Y-62230000D01*
X70124000Y-62484000D01*
X70104000Y-62484000D01*
X70104000Y-62504000D01*
X69850000Y-62504000D01*
X69850000Y-62484000D01*
X68800750Y-62484000D01*
X68642000Y-62642750D01*
X68638928Y-62957000D01*
X68651188Y-63081482D01*
X68687498Y-63201180D01*
X68746463Y-63311494D01*
X68825815Y-63408185D01*
X68909286Y-63476687D01*
X68901513Y-63502311D01*
X68894157Y-63577000D01*
X68894157Y-64577000D01*
X68901513Y-64651689D01*
X68923299Y-64723508D01*
X68958678Y-64789696D01*
X69006289Y-64847711D01*
X69064304Y-64895322D01*
X69130492Y-64930701D01*
X69202311Y-64952487D01*
X69277000Y-64959843D01*
X69468962Y-64959843D01*
X69468553Y-64964000D01*
X69471000Y-64988846D01*
X69471000Y-64988853D01*
X69478322Y-65063192D01*
X69507255Y-65158574D01*
X69554241Y-65246479D01*
X69617473Y-65323527D01*
X69636785Y-65339376D01*
X72813408Y-68516000D01*
X63506309Y-68516000D01*
X62637420Y-68442274D01*
X61812125Y-68228070D01*
X61034725Y-67877877D01*
X60327434Y-67401701D01*
X59710493Y-66813167D01*
X59201534Y-66129103D01*
X58815107Y-65369055D01*
X58562265Y-64554774D01*
X58450237Y-63709526D01*
X58482223Y-62857491D01*
X58657313Y-62023022D01*
X58970496Y-61229993D01*
X59412827Y-60501054D01*
X59971640Y-59857080D01*
X60630978Y-59316456D01*
X61371972Y-58894658D01*
X62173445Y-58603737D01*
X63020934Y-58450486D01*
X63497750Y-58428000D01*
X67541408Y-58428000D01*
X67096252Y-58873157D01*
%TA.AperFunction,Conductor*%
D20*
G36*
X67096252Y-58873157D02*
G01*
X66454000Y-58873157D01*
X66330538Y-58885317D01*
X66211821Y-58921329D01*
X66102411Y-58979810D01*
X66006512Y-59058512D01*
X65927810Y-59154411D01*
X65887538Y-59229754D01*
X65873190Y-59202910D01*
X65794488Y-59107012D01*
X65698590Y-59028310D01*
X65589180Y-58969829D01*
X65470463Y-58933817D01*
X65347002Y-58921657D01*
X64446998Y-58921657D01*
X64323537Y-58933817D01*
X64204820Y-58969829D01*
X64095410Y-59028310D01*
X63999512Y-59107012D01*
X63920810Y-59202910D01*
X63862329Y-59312320D01*
X63826317Y-59431037D01*
X63814157Y-59554498D01*
X63814157Y-60079502D01*
X63816914Y-60107494D01*
X62501235Y-61423173D01*
X62152343Y-61278657D01*
X61711659Y-61191000D01*
X61262341Y-61191000D01*
X60821657Y-61278657D01*
X60406541Y-61450604D01*
X60032947Y-61700231D01*
X59715231Y-62017947D01*
X59465604Y-62391541D01*
X59293657Y-62806657D01*
X59206000Y-63247341D01*
X59206000Y-63696659D01*
X59293657Y-64137343D01*
X59465604Y-64552459D01*
X59715231Y-64926053D01*
X60032947Y-65243769D01*
X60406541Y-65493396D01*
X60821657Y-65665343D01*
X61262341Y-65753000D01*
X61711659Y-65753000D01*
X62152343Y-65665343D01*
X62567459Y-65493396D01*
X62941053Y-65243769D01*
X63258769Y-64926053D01*
X63508396Y-64552459D01*
X63680343Y-64137343D01*
X63768000Y-63696659D01*
X63768000Y-63247341D01*
X63680343Y-62806657D01*
X63508396Y-62391541D01*
X63290362Y-62065229D01*
X63586590Y-61769002D01*
X63720748Y-61769002D01*
X63562000Y-61927750D01*
X63558928Y-62154500D01*
X63571188Y-62278982D01*
X63607498Y-62398680D01*
X63666463Y-62508994D01*
X63745815Y-62605685D01*
X63842506Y-62685037D01*
X63952820Y-62744002D01*
X64072518Y-62780312D01*
X64197000Y-62792572D01*
X64611250Y-62789500D01*
X64770000Y-62630750D01*
X64770000Y-61769000D01*
X65024000Y-61769000D01*
X65024000Y-62630750D01*
X65182750Y-62789500D01*
X65597000Y-62792572D01*
X65721482Y-62780312D01*
X65841180Y-62744002D01*
X65899097Y-62713044D01*
X65959820Y-62745502D01*
X66079518Y-62781812D01*
X66204000Y-62794072D01*
X66643250Y-62791000D01*
X66802000Y-62632250D01*
X66802000Y-61783000D01*
X67056000Y-61783000D01*
X67056000Y-62632250D01*
X67214750Y-62791000D01*
X67654000Y-62794072D01*
X67778482Y-62781812D01*
X67898180Y-62745502D01*
X68008494Y-62686537D01*
X68105185Y-62607185D01*
X68184537Y-62510494D01*
X68243502Y-62400180D01*
X68279812Y-62280482D01*
X68292072Y-62156000D01*
X68289000Y-61941750D01*
X68130250Y-61783000D01*
X67056000Y-61783000D01*
X66802000Y-61783000D01*
X66087250Y-61783000D01*
X66073250Y-61769000D01*
X65024000Y-61769000D01*
X64770000Y-61769000D01*
X64750000Y-61769000D01*
X64750000Y-61757000D01*
X68638928Y-61757000D01*
X68642000Y-62071250D01*
X68800750Y-62230000D01*
X69850000Y-62230000D01*
X69850000Y-61280750D01*
X69746250Y-61177000D01*
X69803000Y-61120250D01*
X69803000Y-60071000D01*
X68941250Y-60071000D01*
X68782500Y-60229750D01*
X68779428Y-60644000D01*
X68791688Y-60768482D01*
X68827998Y-60888180D01*
X68886963Y-60998494D01*
X68966315Y-61095185D01*
X69048597Y-61162712D01*
X69032820Y-61167498D01*
X68922506Y-61226463D01*
X68825815Y-61305815D01*
X68746463Y-61402506D01*
X68687498Y-61512820D01*
X68651188Y-61632518D01*
X68638928Y-61757000D01*
X64750000Y-61757000D01*
X64750000Y-61515000D01*
X64770000Y-61515000D01*
X64770000Y-61495000D01*
X65024000Y-61495000D01*
X65024000Y-61515000D01*
X65713750Y-61515000D01*
X65727750Y-61529000D01*
X66802000Y-61529000D01*
X66802000Y-61509000D01*
X67056000Y-61509000D01*
X67056000Y-61529000D01*
X68130250Y-61529000D01*
X68289000Y-61370250D01*
X68292072Y-61156000D01*
X68279812Y-61031518D01*
X68243502Y-60911820D01*
X68184537Y-60801506D01*
X68105185Y-60704815D01*
X68008494Y-60625463D01*
X67898180Y-60566498D01*
X67778482Y-60530188D01*
X67760220Y-60528389D01*
X67851488Y-60453488D01*
X67930190Y-60357589D01*
X67988671Y-60248179D01*
X68024683Y-60129462D01*
X68036843Y-60006000D01*
X68036843Y-59506000D01*
X68024683Y-59382538D01*
X68023140Y-59377452D01*
X68310593Y-59089999D01*
X68800642Y-59089999D01*
X68791688Y-59119518D01*
X68779428Y-59244000D01*
X68782500Y-59658250D01*
X68941250Y-59817000D01*
X69803000Y-59817000D01*
X69803000Y-59797000D01*
X70057000Y-59797000D01*
X70057000Y-59817000D01*
X70077000Y-59817000D01*
X70077000Y-60071000D01*
X70057000Y-60071000D01*
X70057000Y-61120250D01*
X70160750Y-61224000D01*
X70104000Y-61280750D01*
X70104000Y-62230000D01*
X70124000Y-62230000D01*
X70124000Y-62484000D01*
X70104000Y-62484000D01*
X70104000Y-62504000D01*
X69850000Y-62504000D01*
X69850000Y-62484000D01*
X68800750Y-62484000D01*
X68642000Y-62642750D01*
X68638928Y-62957000D01*
X68651188Y-63081482D01*
X68687498Y-63201180D01*
X68746463Y-63311494D01*
X68825815Y-63408185D01*
X68909286Y-63476687D01*
X68901513Y-63502311D01*
X68894157Y-63577000D01*
X68894157Y-64577000D01*
X68901513Y-64651689D01*
X68923299Y-64723508D01*
X68958678Y-64789696D01*
X69006289Y-64847711D01*
X69064304Y-64895322D01*
X69130492Y-64930701D01*
X69202311Y-64952487D01*
X69277000Y-64959843D01*
X69468962Y-64959843D01*
X69468553Y-64964000D01*
X69471000Y-64988846D01*
X69471000Y-64988853D01*
X69478322Y-65063192D01*
X69507255Y-65158574D01*
X69554241Y-65246479D01*
X69617473Y-65323527D01*
X69636785Y-65339376D01*
X72813408Y-68516000D01*
X63506309Y-68516000D01*
X62637420Y-68442274D01*
X61812125Y-68228070D01*
X61034725Y-67877877D01*
X60327434Y-67401701D01*
X59710493Y-66813167D01*
X59201534Y-66129103D01*
X58815107Y-65369055D01*
X58562265Y-64554774D01*
X58450237Y-63709526D01*
X58482223Y-62857491D01*
X58657313Y-62023022D01*
X58970496Y-61229993D01*
X59412827Y-60501054D01*
X59971640Y-59857080D01*
X60630978Y-59316456D01*
X61371972Y-58894658D01*
X62173445Y-58603737D01*
X63020934Y-58450486D01*
X63497750Y-58428000D01*
X67541408Y-58428000D01*
X67096252Y-58873157D01*
G37*
%TD.AperFunction*%
D19*
X95336581Y-58501726D02*
X96161880Y-58715931D01*
X96939275Y-59066123D01*
X97646563Y-59542296D01*
X98263505Y-60130830D01*
X98772464Y-60814895D01*
X99158893Y-61574945D01*
X99411735Y-62389227D01*
X99523763Y-63234474D01*
X99491777Y-64086509D01*
X99316687Y-64920978D01*
X99003503Y-65714010D01*
X98561175Y-66442942D01*
X98002360Y-67086921D01*
X97343022Y-67627544D01*
X96602030Y-68049341D01*
X95800559Y-68340261D01*
X94953066Y-68493514D01*
X94476250Y-68516000D01*
X83816508Y-68516000D01*
X83839000Y-68402922D01*
X83839000Y-68249078D01*
X83808987Y-68098191D01*
X83750113Y-67956058D01*
X83664642Y-67828141D01*
X83555859Y-67719358D01*
X83427942Y-67633887D01*
X83285809Y-67575013D01*
X83134922Y-67545000D01*
X82981078Y-67545000D01*
X82830191Y-67575013D01*
X82688058Y-67633887D01*
X82560141Y-67719358D01*
X82459499Y-67820000D01*
X82067590Y-67820000D01*
X81009185Y-66761596D01*
X81017000Y-66759225D01*
X81067311Y-66774487D01*
X81142000Y-66781843D01*
X81409728Y-66781843D01*
X81465815Y-66850185D01*
X81562506Y-66929537D01*
X81672820Y-66988502D01*
X81792518Y-67024812D01*
X81917000Y-67037072D01*
X81931250Y-67034000D01*
X82090000Y-66875250D01*
X82090000Y-66556174D01*
X82095701Y-66545508D01*
X82117487Y-66473689D01*
X82124843Y-66399000D01*
X82124843Y-65527000D01*
X82344000Y-65527000D01*
X82344000Y-65547000D01*
X82364000Y-65547000D01*
X82364000Y-65801000D01*
X82344000Y-65801000D01*
X82344000Y-66875250D01*
X82502750Y-67034000D01*
X82517000Y-67037072D01*
X82641482Y-67024812D01*
X82761180Y-66988502D01*
X82871494Y-66929537D01*
X82968185Y-66850185D01*
X83047537Y-66753494D01*
X83106502Y-66643180D01*
X83142812Y-66523482D01*
X83155072Y-66399000D01*
X83153531Y-66178654D01*
X83312000Y-66194262D01*
X83413000Y-66184314D01*
X83413000Y-66303922D01*
X83443013Y-66454809D01*
X83501887Y-66596942D01*
X83587358Y-66724859D01*
X83696141Y-66833642D01*
X83824058Y-66919113D01*
X83966191Y-66977987D01*
X84117078Y-67008000D01*
X84270922Y-67008000D01*
X84421809Y-66977987D01*
X84563942Y-66919113D01*
X84691859Y-66833642D01*
X84800642Y-66724859D01*
X84886113Y-66596942D01*
X84944987Y-66454809D01*
X84975000Y-66303922D01*
X84975000Y-66161591D01*
X85223749Y-65912843D01*
X85686502Y-65912843D01*
X85809963Y-65900683D01*
X85928680Y-65864671D01*
X86038090Y-65806190D01*
X86133064Y-65728246D01*
X86146998Y-65774180D01*
X86205963Y-65884494D01*
X86285315Y-65981185D01*
X86382006Y-66060537D01*
X86492320Y-66119502D01*
X86612018Y-66155812D01*
X86736500Y-66168072D01*
X86963250Y-66165000D01*
X87122000Y-66006250D01*
X87122000Y-64957000D01*
X87376000Y-64957000D01*
X87376000Y-66006250D01*
X87534750Y-66165000D01*
X87761500Y-66168072D01*
X87885982Y-66155812D01*
X88005680Y-66119502D01*
X88115994Y-66060537D01*
X88212685Y-65981185D01*
X88292037Y-65884494D01*
X88321700Y-65828999D01*
X90919157Y-65828999D01*
X90919157Y-66529001D01*
X90931317Y-66652462D01*
X90967329Y-66771179D01*
X91025810Y-66880589D01*
X91104512Y-66976488D01*
X91200411Y-67055190D01*
X91309821Y-67113671D01*
X91428538Y-67149683D01*
X91551999Y-67161843D01*
X92852001Y-67161843D01*
X92975462Y-67149683D01*
X93094179Y-67113671D01*
X93203589Y-67055190D01*
X93299488Y-66976488D01*
X93378190Y-66880589D01*
X93436671Y-66771179D01*
X93472683Y-66652462D01*
X93484843Y-66529001D01*
X93484843Y-65828999D01*
X93472683Y-65705538D01*
X93436671Y-65586821D01*
X93378190Y-65477411D01*
X93299488Y-65381512D01*
X93203589Y-65302810D01*
X93094179Y-65244329D01*
X92975462Y-65208317D01*
X92852001Y-65196157D01*
X91551999Y-65196157D01*
X91428538Y-65208317D01*
X91309821Y-65244329D01*
X91200411Y-65302810D01*
X91104512Y-65381512D01*
X91025810Y-65477411D01*
X90967329Y-65586821D01*
X90931317Y-65705538D01*
X90919157Y-65828999D01*
X88321700Y-65828999D01*
X88351002Y-65774180D01*
X88387312Y-65654482D01*
X88396253Y-65563701D01*
X88450815Y-65630185D01*
X88547506Y-65709537D01*
X88657820Y-65768502D01*
X88777518Y-65804812D01*
X88902000Y-65817072D01*
X89391250Y-65814000D01*
X89550000Y-65655250D01*
X89550000Y-65006000D01*
X89804000Y-65006000D01*
X89804000Y-65655250D01*
X89962750Y-65814000D01*
X90452000Y-65817072D01*
X90576482Y-65804812D01*
X90696180Y-65768502D01*
X90806494Y-65709537D01*
X90903185Y-65630185D01*
X90982537Y-65533494D01*
X91041502Y-65423180D01*
X91077812Y-65303482D01*
X91090072Y-65179000D01*
X91087000Y-65164750D01*
X90928250Y-65006000D01*
X89804000Y-65006000D01*
X89550000Y-65006000D01*
X88425750Y-65006000D01*
X88356250Y-65075500D01*
X88237750Y-64957000D01*
X87376000Y-64957000D01*
X87122000Y-64957000D01*
X87102000Y-64957000D01*
X87102000Y-64703000D01*
X87122000Y-64703000D01*
X87122000Y-64683000D01*
X87376000Y-64683000D01*
X87376000Y-64703000D01*
X88237750Y-64703000D01*
X88307250Y-64633500D01*
X88425750Y-64752000D01*
X89550000Y-64752000D01*
X89550000Y-64732000D01*
X89804000Y-64732000D01*
X89804000Y-64752000D01*
X90928250Y-64752000D01*
X91087000Y-64593250D01*
X91090072Y-64579000D01*
X91077812Y-64454518D01*
X91041502Y-64334820D01*
X90982537Y-64224506D01*
X90903185Y-64127815D01*
X90830950Y-64068533D01*
X90834843Y-64029000D01*
X90834843Y-63729000D01*
X90824605Y-63625047D01*
X90794283Y-63525090D01*
X90745043Y-63432968D01*
X90700752Y-63379000D01*
X90745043Y-63325032D01*
X90786569Y-63247341D01*
X94206000Y-63247341D01*
X94206000Y-63696659D01*
X94293657Y-64137343D01*
X94465604Y-64552459D01*
X94715231Y-64926053D01*
X95032947Y-65243769D01*
X95406541Y-65493396D01*
X95821657Y-65665343D01*
X96262341Y-65753000D01*
X96711659Y-65753000D01*
X97152343Y-65665343D01*
X97567459Y-65493396D01*
X97941053Y-65243769D01*
X98258769Y-64926053D01*
X98508396Y-64552459D01*
X98680343Y-64137343D01*
X98768000Y-63696659D01*
X98768000Y-63247341D01*
X98680343Y-62806657D01*
X98508396Y-62391541D01*
X98258769Y-62017947D01*
X97941053Y-61700231D01*
X97567459Y-61450604D01*
X97152343Y-61278657D01*
X96711659Y-61191000D01*
X96262341Y-61191000D01*
X95821657Y-61278657D01*
X95406541Y-61450604D01*
X95032947Y-61700231D01*
X94715231Y-62017947D01*
X94465604Y-62391541D01*
X94293657Y-62806657D01*
X94206000Y-63247341D01*
X90786569Y-63247341D01*
X90794283Y-63232910D01*
X90824605Y-63132953D01*
X90834843Y-63029000D01*
X90834843Y-62729000D01*
X90824605Y-62625047D01*
X90794283Y-62525090D01*
X90745043Y-62432968D01*
X90700752Y-62379000D01*
X90745043Y-62325032D01*
X90794283Y-62232910D01*
X90824605Y-62132953D01*
X90834843Y-62029000D01*
X90834843Y-61729000D01*
X90824605Y-61625047D01*
X90794283Y-61525090D01*
X90745043Y-61432968D01*
X90678777Y-61352223D01*
X90598032Y-61285957D01*
X90505910Y-61236717D01*
X90405953Y-61206395D01*
X90302000Y-61196157D01*
X89052000Y-61196157D01*
X88948047Y-61206395D01*
X88848090Y-61236717D01*
X88755968Y-61285957D01*
X88675223Y-61352223D01*
X88658172Y-61373000D01*
X88082343Y-61373000D01*
X88082343Y-61071750D01*
X88070303Y-60949508D01*
X88034646Y-60831963D01*
X87976743Y-60723634D01*
X87898818Y-60628682D01*
X87803866Y-60550757D01*
X87695537Y-60492854D01*
X87577992Y-60457197D01*
X87455750Y-60445157D01*
X86968250Y-60445157D01*
X86846008Y-60457197D01*
X86728463Y-60492854D01*
X86620134Y-60550757D01*
X86525182Y-60628682D01*
X86447257Y-60723634D01*
X86389354Y-60831963D01*
X86353697Y-60949508D01*
X86341657Y-61071750D01*
X86341657Y-61984250D01*
X86353697Y-62106492D01*
X86389036Y-62222990D01*
X86159964Y-62222990D01*
X86195303Y-62106492D01*
X86207343Y-61984250D01*
X86207343Y-61071750D01*
X86195303Y-60949508D01*
X86159646Y-60831963D01*
X86101743Y-60723634D01*
X86023818Y-60628682D01*
X85928866Y-60550757D01*
X85820537Y-60492854D01*
X85702992Y-60457197D01*
X85580750Y-60445157D01*
X85093250Y-60445157D01*
X84971008Y-60457197D01*
X84853463Y-60492854D01*
X84745134Y-60550757D01*
X84650182Y-60628682D01*
X84572257Y-60723634D01*
X84514354Y-60831963D01*
X84478697Y-60949508D01*
X84466657Y-61071750D01*
X84466657Y-61671000D01*
X83699183Y-61671000D01*
X83803824Y-61615068D01*
X83937975Y-61504975D01*
X84048068Y-61370825D01*
X84129875Y-61217775D01*
X84180252Y-61051706D01*
X84193000Y-60922273D01*
X84193000Y-60235727D01*
X84192338Y-60228999D01*
X90919157Y-60228999D01*
X90919157Y-60929001D01*
X90931317Y-61052462D01*
X90967329Y-61171179D01*
X91025810Y-61280589D01*
X91104512Y-61376488D01*
X91200411Y-61455190D01*
X91309821Y-61513671D01*
X91428538Y-61549683D01*
X91551999Y-61561843D01*
X92852001Y-61561843D01*
X92975462Y-61549683D01*
X93094179Y-61513671D01*
X93203589Y-61455190D01*
X93299488Y-61376488D01*
X93378190Y-61280589D01*
X93436671Y-61171179D01*
X93472683Y-61052462D01*
X93484843Y-60929001D01*
X93484843Y-60228999D01*
X93472683Y-60105538D01*
X93436671Y-59986821D01*
X93378190Y-59877411D01*
X93299488Y-59781512D01*
X93203589Y-59702810D01*
X93094179Y-59644329D01*
X92975462Y-59608317D01*
X92852001Y-59596157D01*
X91551999Y-59596157D01*
X91428538Y-59608317D01*
X91309821Y-59644329D01*
X91200411Y-59702810D01*
X91104512Y-59781512D01*
X91025810Y-59877411D01*
X90967329Y-59986821D01*
X90931317Y-60105538D01*
X90919157Y-60228999D01*
X84192338Y-60228999D01*
X84180252Y-60106294D01*
X84129875Y-59940225D01*
X84048068Y-59787175D01*
X83937975Y-59653025D01*
X83803825Y-59542932D01*
X83650775Y-59461125D01*
X83484706Y-59410748D01*
X83312000Y-59393738D01*
X83139295Y-59410748D01*
X82973226Y-59461125D01*
X82820176Y-59542932D01*
X82686026Y-59653025D01*
X82575933Y-59787175D01*
X82507074Y-59915999D01*
X75476926Y-59915999D01*
X75408068Y-59787175D01*
X75297975Y-59653025D01*
X75178000Y-59554565D01*
X75178000Y-59523854D01*
X75180448Y-59499000D01*
X75170678Y-59399807D01*
X75141745Y-59304425D01*
X75135334Y-59292431D01*
X75094759Y-59216521D01*
X75031527Y-59139473D01*
X75012220Y-59123628D01*
X74316591Y-58428000D01*
X94467691Y-58428000D01*
X95336581Y-58501726D01*
%TA.AperFunction,Conductor*%
D20*
G36*
X95336581Y-58501726D02*
G01*
X96161880Y-58715931D01*
X96939275Y-59066123D01*
X97646563Y-59542296D01*
X98263505Y-60130830D01*
X98772464Y-60814895D01*
X99158893Y-61574945D01*
X99411735Y-62389227D01*
X99523763Y-63234474D01*
X99491777Y-64086509D01*
X99316687Y-64920978D01*
X99003503Y-65714010D01*
X98561175Y-66442942D01*
X98002360Y-67086921D01*
X97343022Y-67627544D01*
X96602030Y-68049341D01*
X95800559Y-68340261D01*
X94953066Y-68493514D01*
X94476250Y-68516000D01*
X83816508Y-68516000D01*
X83839000Y-68402922D01*
X83839000Y-68249078D01*
X83808987Y-68098191D01*
X83750113Y-67956058D01*
X83664642Y-67828141D01*
X83555859Y-67719358D01*
X83427942Y-67633887D01*
X83285809Y-67575013D01*
X83134922Y-67545000D01*
X82981078Y-67545000D01*
X82830191Y-67575013D01*
X82688058Y-67633887D01*
X82560141Y-67719358D01*
X82459499Y-67820000D01*
X82067590Y-67820000D01*
X81009185Y-66761596D01*
X81017000Y-66759225D01*
X81067311Y-66774487D01*
X81142000Y-66781843D01*
X81409728Y-66781843D01*
X81465815Y-66850185D01*
X81562506Y-66929537D01*
X81672820Y-66988502D01*
X81792518Y-67024812D01*
X81917000Y-67037072D01*
X81931250Y-67034000D01*
X82090000Y-66875250D01*
X82090000Y-66556174D01*
X82095701Y-66545508D01*
X82117487Y-66473689D01*
X82124843Y-66399000D01*
X82124843Y-65527000D01*
X82344000Y-65527000D01*
X82344000Y-65547000D01*
X82364000Y-65547000D01*
X82364000Y-65801000D01*
X82344000Y-65801000D01*
X82344000Y-66875250D01*
X82502750Y-67034000D01*
X82517000Y-67037072D01*
X82641482Y-67024812D01*
X82761180Y-66988502D01*
X82871494Y-66929537D01*
X82968185Y-66850185D01*
X83047537Y-66753494D01*
X83106502Y-66643180D01*
X83142812Y-66523482D01*
X83155072Y-66399000D01*
X83153531Y-66178654D01*
X83312000Y-66194262D01*
X83413000Y-66184314D01*
X83413000Y-66303922D01*
X83443013Y-66454809D01*
X83501887Y-66596942D01*
X83587358Y-66724859D01*
X83696141Y-66833642D01*
X83824058Y-66919113D01*
X83966191Y-66977987D01*
X84117078Y-67008000D01*
X84270922Y-67008000D01*
X84421809Y-66977987D01*
X84563942Y-66919113D01*
X84691859Y-66833642D01*
X84800642Y-66724859D01*
X84886113Y-66596942D01*
X84944987Y-66454809D01*
X84975000Y-66303922D01*
X84975000Y-66161591D01*
X85223749Y-65912843D01*
X85686502Y-65912843D01*
X85809963Y-65900683D01*
X85928680Y-65864671D01*
X86038090Y-65806190D01*
X86133064Y-65728246D01*
X86146998Y-65774180D01*
X86205963Y-65884494D01*
X86285315Y-65981185D01*
X86382006Y-66060537D01*
X86492320Y-66119502D01*
X86612018Y-66155812D01*
X86736500Y-66168072D01*
X86963250Y-66165000D01*
X87122000Y-66006250D01*
X87122000Y-64957000D01*
X87376000Y-64957000D01*
X87376000Y-66006250D01*
X87534750Y-66165000D01*
X87761500Y-66168072D01*
X87885982Y-66155812D01*
X88005680Y-66119502D01*
X88115994Y-66060537D01*
X88212685Y-65981185D01*
X88292037Y-65884494D01*
X88321700Y-65828999D01*
X90919157Y-65828999D01*
X90919157Y-66529001D01*
X90931317Y-66652462D01*
X90967329Y-66771179D01*
X91025810Y-66880589D01*
X91104512Y-66976488D01*
X91200411Y-67055190D01*
X91309821Y-67113671D01*
X91428538Y-67149683D01*
X91551999Y-67161843D01*
X92852001Y-67161843D01*
X92975462Y-67149683D01*
X93094179Y-67113671D01*
X93203589Y-67055190D01*
X93299488Y-66976488D01*
X93378190Y-66880589D01*
X93436671Y-66771179D01*
X93472683Y-66652462D01*
X93484843Y-66529001D01*
X93484843Y-65828999D01*
X93472683Y-65705538D01*
X93436671Y-65586821D01*
X93378190Y-65477411D01*
X93299488Y-65381512D01*
X93203589Y-65302810D01*
X93094179Y-65244329D01*
X92975462Y-65208317D01*
X92852001Y-65196157D01*
X91551999Y-65196157D01*
X91428538Y-65208317D01*
X91309821Y-65244329D01*
X91200411Y-65302810D01*
X91104512Y-65381512D01*
X91025810Y-65477411D01*
X90967329Y-65586821D01*
X90931317Y-65705538D01*
X90919157Y-65828999D01*
X88321700Y-65828999D01*
X88351002Y-65774180D01*
X88387312Y-65654482D01*
X88396253Y-65563701D01*
X88450815Y-65630185D01*
X88547506Y-65709537D01*
X88657820Y-65768502D01*
X88777518Y-65804812D01*
X88902000Y-65817072D01*
X89391250Y-65814000D01*
X89550000Y-65655250D01*
X89550000Y-65006000D01*
X89804000Y-65006000D01*
X89804000Y-65655250D01*
X89962750Y-65814000D01*
X90452000Y-65817072D01*
X90576482Y-65804812D01*
X90696180Y-65768502D01*
X90806494Y-65709537D01*
X90903185Y-65630185D01*
X90982537Y-65533494D01*
X91041502Y-65423180D01*
X91077812Y-65303482D01*
X91090072Y-65179000D01*
X91087000Y-65164750D01*
X90928250Y-65006000D01*
X89804000Y-65006000D01*
X89550000Y-65006000D01*
X88425750Y-65006000D01*
X88356250Y-65075500D01*
X88237750Y-64957000D01*
X87376000Y-64957000D01*
X87122000Y-64957000D01*
X87102000Y-64957000D01*
X87102000Y-64703000D01*
X87122000Y-64703000D01*
X87122000Y-64683000D01*
X87376000Y-64683000D01*
X87376000Y-64703000D01*
X88237750Y-64703000D01*
X88307250Y-64633500D01*
X88425750Y-64752000D01*
X89550000Y-64752000D01*
X89550000Y-64732000D01*
X89804000Y-64732000D01*
X89804000Y-64752000D01*
X90928250Y-64752000D01*
X91087000Y-64593250D01*
X91090072Y-64579000D01*
X91077812Y-64454518D01*
X91041502Y-64334820D01*
X90982537Y-64224506D01*
X90903185Y-64127815D01*
X90830950Y-64068533D01*
X90834843Y-64029000D01*
X90834843Y-63729000D01*
X90824605Y-63625047D01*
X90794283Y-63525090D01*
X90745043Y-63432968D01*
X90700752Y-63379000D01*
X90745043Y-63325032D01*
X90786569Y-63247341D01*
X94206000Y-63247341D01*
X94206000Y-63696659D01*
X94293657Y-64137343D01*
X94465604Y-64552459D01*
X94715231Y-64926053D01*
X95032947Y-65243769D01*
X95406541Y-65493396D01*
X95821657Y-65665343D01*
X96262341Y-65753000D01*
X96711659Y-65753000D01*
X97152343Y-65665343D01*
X97567459Y-65493396D01*
X97941053Y-65243769D01*
X98258769Y-64926053D01*
X98508396Y-64552459D01*
X98680343Y-64137343D01*
X98768000Y-63696659D01*
X98768000Y-63247341D01*
X98680343Y-62806657D01*
X98508396Y-62391541D01*
X98258769Y-62017947D01*
X97941053Y-61700231D01*
X97567459Y-61450604D01*
X97152343Y-61278657D01*
X96711659Y-61191000D01*
X96262341Y-61191000D01*
X95821657Y-61278657D01*
X95406541Y-61450604D01*
X95032947Y-61700231D01*
X94715231Y-62017947D01*
X94465604Y-62391541D01*
X94293657Y-62806657D01*
X94206000Y-63247341D01*
X90786569Y-63247341D01*
X90794283Y-63232910D01*
X90824605Y-63132953D01*
X90834843Y-63029000D01*
X90834843Y-62729000D01*
X90824605Y-62625047D01*
X90794283Y-62525090D01*
X90745043Y-62432968D01*
X90700752Y-62379000D01*
X90745043Y-62325032D01*
X90794283Y-62232910D01*
X90824605Y-62132953D01*
X90834843Y-62029000D01*
X90834843Y-61729000D01*
X90824605Y-61625047D01*
X90794283Y-61525090D01*
X90745043Y-61432968D01*
X90678777Y-61352223D01*
X90598032Y-61285957D01*
X90505910Y-61236717D01*
X90405953Y-61206395D01*
X90302000Y-61196157D01*
X89052000Y-61196157D01*
X88948047Y-61206395D01*
X88848090Y-61236717D01*
X88755968Y-61285957D01*
X88675223Y-61352223D01*
X88658172Y-61373000D01*
X88082343Y-61373000D01*
X88082343Y-61071750D01*
X88070303Y-60949508D01*
X88034646Y-60831963D01*
X87976743Y-60723634D01*
X87898818Y-60628682D01*
X87803866Y-60550757D01*
X87695537Y-60492854D01*
X87577992Y-60457197D01*
X87455750Y-60445157D01*
X86968250Y-60445157D01*
X86846008Y-60457197D01*
X86728463Y-60492854D01*
X86620134Y-60550757D01*
X86525182Y-60628682D01*
X86447257Y-60723634D01*
X86389354Y-60831963D01*
X86353697Y-60949508D01*
X86341657Y-61071750D01*
X86341657Y-61984250D01*
X86353697Y-62106492D01*
X86389036Y-62222990D01*
X86159964Y-62222990D01*
X86195303Y-62106492D01*
X86207343Y-61984250D01*
X86207343Y-61071750D01*
X86195303Y-60949508D01*
X86159646Y-60831963D01*
X86101743Y-60723634D01*
X86023818Y-60628682D01*
X85928866Y-60550757D01*
X85820537Y-60492854D01*
X85702992Y-60457197D01*
X85580750Y-60445157D01*
X85093250Y-60445157D01*
X84971008Y-60457197D01*
X84853463Y-60492854D01*
X84745134Y-60550757D01*
X84650182Y-60628682D01*
X84572257Y-60723634D01*
X84514354Y-60831963D01*
X84478697Y-60949508D01*
X84466657Y-61071750D01*
X84466657Y-61671000D01*
X83699183Y-61671000D01*
X83803824Y-61615068D01*
X83937975Y-61504975D01*
X84048068Y-61370825D01*
X84129875Y-61217775D01*
X84180252Y-61051706D01*
X84193000Y-60922273D01*
X84193000Y-60235727D01*
X84192338Y-60228999D01*
X90919157Y-60228999D01*
X90919157Y-60929001D01*
X90931317Y-61052462D01*
X90967329Y-61171179D01*
X91025810Y-61280589D01*
X91104512Y-61376488D01*
X91200411Y-61455190D01*
X91309821Y-61513671D01*
X91428538Y-61549683D01*
X91551999Y-61561843D01*
X92852001Y-61561843D01*
X92975462Y-61549683D01*
X93094179Y-61513671D01*
X93203589Y-61455190D01*
X93299488Y-61376488D01*
X93378190Y-61280589D01*
X93436671Y-61171179D01*
X93472683Y-61052462D01*
X93484843Y-60929001D01*
X93484843Y-60228999D01*
X93472683Y-60105538D01*
X93436671Y-59986821D01*
X93378190Y-59877411D01*
X93299488Y-59781512D01*
X93203589Y-59702810D01*
X93094179Y-59644329D01*
X92975462Y-59608317D01*
X92852001Y-59596157D01*
X91551999Y-59596157D01*
X91428538Y-59608317D01*
X91309821Y-59644329D01*
X91200411Y-59702810D01*
X91104512Y-59781512D01*
X91025810Y-59877411D01*
X90967329Y-59986821D01*
X90931317Y-60105538D01*
X90919157Y-60228999D01*
X84192338Y-60228999D01*
X84180252Y-60106294D01*
X84129875Y-59940225D01*
X84048068Y-59787175D01*
X83937975Y-59653025D01*
X83803825Y-59542932D01*
X83650775Y-59461125D01*
X83484706Y-59410748D01*
X83312000Y-59393738D01*
X83139295Y-59410748D01*
X82973226Y-59461125D01*
X82820176Y-59542932D01*
X82686026Y-59653025D01*
X82575933Y-59787175D01*
X82507074Y-59915999D01*
X75476926Y-59915999D01*
X75408068Y-59787175D01*
X75297975Y-59653025D01*
X75178000Y-59554565D01*
X75178000Y-59523854D01*
X75180448Y-59499000D01*
X75170678Y-59399807D01*
X75141745Y-59304425D01*
X75135334Y-59292431D01*
X75094759Y-59216521D01*
X75031527Y-59139473D01*
X75012220Y-59123628D01*
X74316591Y-58428000D01*
X94467691Y-58428000D01*
X95336581Y-58501726D01*
G37*
%TD.AperFunction*%
D19*
X73791001Y-64165727D02*
X73791000Y-65352272D01*
X73803748Y-65481705D01*
X73854125Y-65647774D01*
X73935932Y-65800824D01*
X74046025Y-65934975D01*
X74180175Y-66045068D01*
X74333225Y-66126875D01*
X74499294Y-66177252D01*
X74672000Y-66194262D01*
X74830469Y-66178654D01*
X74828928Y-66399000D01*
X74841188Y-66523482D01*
X74877498Y-66643180D01*
X74936463Y-66753494D01*
X75015815Y-66850185D01*
X75096428Y-66916342D01*
X75072014Y-67039082D01*
X75072014Y-67192926D01*
X75102027Y-67343813D01*
X75160901Y-67485946D01*
X75169623Y-67499000D01*
X73864002Y-67499000D01*
X72683000Y-66317999D01*
X72683000Y-64959843D01*
X72877000Y-64959843D01*
X72951689Y-64952487D01*
X73023508Y-64930701D01*
X73089696Y-64895322D01*
X73147711Y-64847711D01*
X73195322Y-64789696D01*
X73230701Y-64723508D01*
X73252487Y-64651689D01*
X73259843Y-64577000D01*
X73259843Y-64561931D01*
X73339575Y-64537745D01*
X73427479Y-64490759D01*
X73504527Y-64427527D01*
X73520376Y-64408215D01*
X73794075Y-64134516D01*
X73791001Y-64165727D01*
%TA.AperFunction,Conductor*%
D20*
G36*
X73791001Y-64165727D02*
G01*
X73791000Y-65352272D01*
X73803748Y-65481705D01*
X73854125Y-65647774D01*
X73935932Y-65800824D01*
X74046025Y-65934975D01*
X74180175Y-66045068D01*
X74333225Y-66126875D01*
X74499294Y-66177252D01*
X74672000Y-66194262D01*
X74830469Y-66178654D01*
X74828928Y-66399000D01*
X74841188Y-66523482D01*
X74877498Y-66643180D01*
X74936463Y-66753494D01*
X75015815Y-66850185D01*
X75096428Y-66916342D01*
X75072014Y-67039082D01*
X75072014Y-67192926D01*
X75102027Y-67343813D01*
X75160901Y-67485946D01*
X75169623Y-67499000D01*
X73864002Y-67499000D01*
X72683000Y-66317999D01*
X72683000Y-64959843D01*
X72877000Y-64959843D01*
X72951689Y-64952487D01*
X73023508Y-64930701D01*
X73089696Y-64895322D01*
X73147711Y-64847711D01*
X73195322Y-64789696D01*
X73230701Y-64723508D01*
X73252487Y-64651689D01*
X73259843Y-64577000D01*
X73259843Y-64561931D01*
X73339575Y-64537745D01*
X73427479Y-64490759D01*
X73504527Y-64427527D01*
X73520376Y-64408215D01*
X73794075Y-64134516D01*
X73791001Y-64165727D01*
G37*
%TD.AperFunction*%
D19*
X75859157Y-65821000D02*
X75640000Y-65821000D01*
X75640000Y-65801000D01*
X75620000Y-65801000D01*
X75620000Y-65547000D01*
X75640000Y-65547000D01*
X75640000Y-65527000D01*
X75859157Y-65527000D01*
X75859157Y-65821000D01*
%TA.AperFunction,Conductor*%
D20*
G36*
X75859157Y-65821000D02*
G01*
X75640000Y-65821000D01*
X75640000Y-65801000D01*
X75620000Y-65801000D01*
X75620000Y-65547000D01*
X75640000Y-65547000D01*
X75640000Y-65527000D01*
X75859157Y-65527000D01*
X75859157Y-65821000D01*
G37*
%TD.AperFunction*%
D19*
X82443748Y-61051705D02*
X82494125Y-61217774D01*
X82575932Y-61370824D01*
X82686025Y-61504975D01*
X82820175Y-61615068D01*
X82924816Y-61671000D01*
X75059183Y-61671000D01*
X75163824Y-61615068D01*
X75297975Y-61504975D01*
X75408068Y-61370825D01*
X75489875Y-61217775D01*
X75540252Y-61051706D01*
X75552436Y-60927999D01*
X82431564Y-60927999D01*
X82443748Y-61051705D01*
%TA.AperFunction,Conductor*%
D20*
G36*
X82443748Y-61051705D02*
G01*
X82494125Y-61217774D01*
X82575932Y-61370824D01*
X82686025Y-61504975D01*
X82820175Y-61615068D01*
X82924816Y-61671000D01*
X75059183Y-61671000D01*
X75163824Y-61615068D01*
X75297975Y-61504975D01*
X75408068Y-61370825D01*
X75489875Y-61217775D01*
X75540252Y-61051706D01*
X75552436Y-60927999D01*
X82431564Y-60927999D01*
X82443748Y-61051705D01*
G37*
%TD.AperFunction*%
%TD*%
M02*
