%TF.GenerationSoftware,KiCad,Pcbnew,5.1.10-88a1d61d58~90~ubuntu20.04.1*%
%TF.CreationDate,2022-01-21T20:21:18-08:00*%
%TF.ProjectId,kb-db,6b622d64-622e-46b6-9963-61645f706362,rev?*%
%TF.SameCoordinates,Original*%
%TF.FileFunction,Soldermask,Top*%
%TF.FilePolarity,Negative*%
%FSLAX46Y46*%
G04 Gerber Fmt 4.6, Leading zero omitted, Abs format (unit mm)*
G04 Created by KiCad (PCBNEW 5.1.10-88a1d61d58~90~ubuntu20.04.1) date 2022-01-21 20:21:18*
%MOMM*%
%LPD*%
G01*
G04 APERTURE LIST*
%ADD10C,3.800000*%
%ADD11R,0.600000X1.450000*%
%ADD12R,0.300000X1.450000*%
%ADD13C,0.650000*%
%ADD14O,1.000000X2.100000*%
%ADD15O,1.000000X1.600000*%
%ADD16R,1.400000X1.000000*%
%ADD17R,1.400000X1.200000*%
G04 APERTURE END LIST*
D10*
%TO.C,H2*%
X61487000Y-63472000D03*
%TD*%
%TO.C,H1*%
X96487000Y-63472000D03*
%TD*%
%TO.C,J1*%
G36*
G01*
X91551999Y-65579000D02*
X92852001Y-65579000D01*
G75*
G02*
X93102000Y-65828999I0J-249999D01*
G01*
X93102000Y-66529001D01*
G75*
G02*
X92852001Y-66779000I-249999J0D01*
G01*
X91551999Y-66779000D01*
G75*
G02*
X91302000Y-66529001I0J249999D01*
G01*
X91302000Y-65828999D01*
G75*
G02*
X91551999Y-65579000I249999J0D01*
G01*
G37*
G36*
G01*
X91551999Y-59979000D02*
X92852001Y-59979000D01*
G75*
G02*
X93102000Y-60228999I0J-249999D01*
G01*
X93102000Y-60929001D01*
G75*
G02*
X92852001Y-61179000I-249999J0D01*
G01*
X91551999Y-61179000D01*
G75*
G02*
X91302000Y-60929001I0J249999D01*
G01*
X91302000Y-60228999D01*
G75*
G02*
X91551999Y-59979000I249999J0D01*
G01*
G37*
G36*
G01*
X89052000Y-64579000D02*
X90302000Y-64579000D01*
G75*
G02*
X90452000Y-64729000I0J-150000D01*
G01*
X90452000Y-65029000D01*
G75*
G02*
X90302000Y-65179000I-150000J0D01*
G01*
X89052000Y-65179000D01*
G75*
G02*
X88902000Y-65029000I0J150000D01*
G01*
X88902000Y-64729000D01*
G75*
G02*
X89052000Y-64579000I150000J0D01*
G01*
G37*
G36*
G01*
X89052000Y-63579000D02*
X90302000Y-63579000D01*
G75*
G02*
X90452000Y-63729000I0J-150000D01*
G01*
X90452000Y-64029000D01*
G75*
G02*
X90302000Y-64179000I-150000J0D01*
G01*
X89052000Y-64179000D01*
G75*
G02*
X88902000Y-64029000I0J150000D01*
G01*
X88902000Y-63729000D01*
G75*
G02*
X89052000Y-63579000I150000J0D01*
G01*
G37*
G36*
G01*
X89052000Y-62579000D02*
X90302000Y-62579000D01*
G75*
G02*
X90452000Y-62729000I0J-150000D01*
G01*
X90452000Y-63029000D01*
G75*
G02*
X90302000Y-63179000I-150000J0D01*
G01*
X89052000Y-63179000D01*
G75*
G02*
X88902000Y-63029000I0J150000D01*
G01*
X88902000Y-62729000D01*
G75*
G02*
X89052000Y-62579000I150000J0D01*
G01*
G37*
G36*
G01*
X89052000Y-61579000D02*
X90302000Y-61579000D01*
G75*
G02*
X90452000Y-61729000I0J-150000D01*
G01*
X90452000Y-62029000D01*
G75*
G02*
X90302000Y-62179000I-150000J0D01*
G01*
X89052000Y-62179000D01*
G75*
G02*
X88902000Y-62029000I0J150000D01*
G01*
X88902000Y-61729000D01*
G75*
G02*
X89052000Y-61579000I150000J0D01*
G01*
G37*
%TD*%
%TO.C,C1*%
G36*
G01*
X66454000Y-61156000D02*
X67404000Y-61156000D01*
G75*
G02*
X67654000Y-61406000I0J-250000D01*
G01*
X67654000Y-61906000D01*
G75*
G02*
X67404000Y-62156000I-250000J0D01*
G01*
X66454000Y-62156000D01*
G75*
G02*
X66204000Y-61906000I0J250000D01*
G01*
X66204000Y-61406000D01*
G75*
G02*
X66454000Y-61156000I250000J0D01*
G01*
G37*
G36*
G01*
X66454000Y-59256000D02*
X67404000Y-59256000D01*
G75*
G02*
X67654000Y-59506000I0J-250000D01*
G01*
X67654000Y-60006000D01*
G75*
G02*
X67404000Y-60256000I-250000J0D01*
G01*
X66454000Y-60256000D01*
G75*
G02*
X66204000Y-60006000I0J250000D01*
G01*
X66204000Y-59506000D01*
G75*
G02*
X66454000Y-59256000I250000J0D01*
G01*
G37*
%TD*%
D11*
%TO.C,USB1*%
X75767000Y-65674000D03*
X82217000Y-65674000D03*
X76542000Y-65674000D03*
X81442000Y-65674000D03*
D12*
X80742000Y-65674000D03*
X77242000Y-65674000D03*
X80242000Y-65674000D03*
X77742000Y-65674000D03*
X79742000Y-65674000D03*
X78242000Y-65674000D03*
X78742000Y-65674000D03*
X79242000Y-65674000D03*
D13*
X76102000Y-64229000D03*
X81882000Y-64229000D03*
D14*
X83312000Y-64759000D03*
X74672000Y-64759000D03*
D15*
X83312000Y-60579000D03*
X74672000Y-60579000D03*
%TD*%
%TO.C,R5*%
G36*
G01*
X64446998Y-61129500D02*
X65347002Y-61129500D01*
G75*
G02*
X65597000Y-61379498I0J-249998D01*
G01*
X65597000Y-61904502D01*
G75*
G02*
X65347002Y-62154500I-249998J0D01*
G01*
X64446998Y-62154500D01*
G75*
G02*
X64197000Y-61904502I0J249998D01*
G01*
X64197000Y-61379498D01*
G75*
G02*
X64446998Y-61129500I249998J0D01*
G01*
G37*
G36*
G01*
X64446998Y-59304500D02*
X65347002Y-59304500D01*
G75*
G02*
X65597000Y-59554498I0J-249998D01*
G01*
X65597000Y-60079502D01*
G75*
G02*
X65347002Y-60329500I-249998J0D01*
G01*
X64446998Y-60329500D01*
G75*
G02*
X64197000Y-60079502I0J249998D01*
G01*
X64197000Y-59554498D01*
G75*
G02*
X64446998Y-59304500I249998J0D01*
G01*
G37*
%TD*%
%TO.C,R2*%
G36*
G01*
X71242500Y-60394002D02*
X71242500Y-59493998D01*
G75*
G02*
X71492498Y-59244000I249998J0D01*
G01*
X72017502Y-59244000D01*
G75*
G02*
X72267500Y-59493998I0J-249998D01*
G01*
X72267500Y-60394002D01*
G75*
G02*
X72017502Y-60644000I-249998J0D01*
G01*
X71492498Y-60644000D01*
G75*
G02*
X71242500Y-60394002I0J249998D01*
G01*
G37*
G36*
G01*
X69417500Y-60394002D02*
X69417500Y-59493998D01*
G75*
G02*
X69667498Y-59244000I249998J0D01*
G01*
X70192502Y-59244000D01*
G75*
G02*
X70442500Y-59493998I0J-249998D01*
G01*
X70442500Y-60394002D01*
G75*
G02*
X70192502Y-60644000I-249998J0D01*
G01*
X69667498Y-60644000D01*
G75*
G02*
X69417500Y-60394002I0J249998D01*
G01*
G37*
%TD*%
%TO.C,R1*%
G36*
G01*
X85936500Y-64379998D02*
X85936500Y-65280002D01*
G75*
G02*
X85686502Y-65530000I-249998J0D01*
G01*
X85161498Y-65530000D01*
G75*
G02*
X84911500Y-65280002I0J249998D01*
G01*
X84911500Y-64379998D01*
G75*
G02*
X85161498Y-64130000I249998J0D01*
G01*
X85686502Y-64130000D01*
G75*
G02*
X85936500Y-64379998I0J-249998D01*
G01*
G37*
G36*
G01*
X87761500Y-64379998D02*
X87761500Y-65280002D01*
G75*
G02*
X87511502Y-65530000I-249998J0D01*
G01*
X86986498Y-65530000D01*
G75*
G02*
X86736500Y-65280002I0J249998D01*
G01*
X86736500Y-64379998D01*
G75*
G02*
X86986498Y-64130000I249998J0D01*
G01*
X87511502Y-64130000D01*
G75*
G02*
X87761500Y-64379998I0J-249998D01*
G01*
G37*
%TD*%
%TO.C,F1*%
G36*
G01*
X85824500Y-61071750D02*
X85824500Y-61984250D01*
G75*
G02*
X85580750Y-62228000I-243750J0D01*
G01*
X85093250Y-62228000D01*
G75*
G02*
X84849500Y-61984250I0J243750D01*
G01*
X84849500Y-61071750D01*
G75*
G02*
X85093250Y-60828000I243750J0D01*
G01*
X85580750Y-60828000D01*
G75*
G02*
X85824500Y-61071750I0J-243750D01*
G01*
G37*
G36*
G01*
X87699500Y-61071750D02*
X87699500Y-61984250D01*
G75*
G02*
X87455750Y-62228000I-243750J0D01*
G01*
X86968250Y-62228000D01*
G75*
G02*
X86724500Y-61984250I0J243750D01*
G01*
X86724500Y-61071750D01*
G75*
G02*
X86968250Y-60828000I243750J0D01*
G01*
X87455750Y-60828000D01*
G75*
G02*
X87699500Y-61071750I0J-243750D01*
G01*
G37*
%TD*%
D16*
%TO.C,D1*%
X72177000Y-62177000D03*
X72177000Y-64077000D03*
X69977000Y-64077000D03*
D17*
X69977000Y-62357000D03*
%TD*%
M02*
